<svg width="821" height="518" viewBox="0 0 821 518" fill="none" xmlns="http://www.w3.org/2000/svg">
<g filter="url(#filter0_dddd_301:2)">
<rect x="32" y="8" width="757" height="454" rx="12" fill="#F6F6F6"/>
</g>
<path d="M101.016 95.248H87.256V85.2H127.384V95.248H113.688V130H101.016V95.248ZM159.871 121.296H140.927L137.407 130H124.479L144.255 85.2H156.735L176.575 130H163.391L159.871 121.296ZM156.159 111.952L150.399 97.616L144.639 111.952H156.159ZM197.448 113.744L192.712 118.8V130H180.168V85.2H192.712V103.824L210.056 85.2H224.008L205.704 105.04L224.968 130H210.248L197.448 113.744ZM256.454 95.248H242.694V85.2H282.822V95.248H269.126V130H256.454V95.248ZM315.309 121.296H296.365L292.845 130H279.916L299.693 85.2H312.173L332.013 130H318.829L315.309 121.296ZM311.597 111.952L305.837 97.616L300.077 111.952H311.597ZM378.229 85.2V130H365.557V112.528H348.277V130H335.605V85.2H348.277V102.032H365.557V85.2H378.229ZM407.84 130.896C401.184 130.896 396 129.083 392.288 125.456C388.618 121.829 386.784 116.688 386.784 110.032V85.2H399.456V109.648C399.456 116.816 402.293 120.4 407.968 120.4C413.6 120.4 416.416 116.816 416.416 109.648V85.2H428.896V110.032C428.896 116.688 427.04 121.829 423.328 125.456C419.658 129.083 414.496 130.896 407.84 130.896Z" fill="#FF766C"/>
<path d="M102.632 181.152C105.491 181.152 107.645 181.579 109.096 182.432C110.568 183.264 111.304 184.725 111.304 186.816C111.304 188.16 110.931 189.28 110.184 190.176C109.437 191.051 108.36 191.616 106.952 191.872V192.032C107.912 192.181 108.776 192.459 109.544 192.864C110.333 193.269 110.952 193.845 111.4 194.592C111.848 195.339 112.072 196.309 112.072 197.504C112.072 199.573 111.357 201.173 109.928 202.304C108.52 203.435 106.589 204 104.136 204H96.104V181.152H102.632ZM103.208 190.88C105.171 190.88 106.515 190.571 107.24 189.952C107.965 189.312 108.328 188.373 108.328 187.136C108.328 185.877 107.88 184.981 106.984 184.448C106.109 183.893 104.701 183.616 102.76 183.616H98.984V190.88H103.208ZM98.984 193.28V201.568H103.592C105.619 201.568 107.027 201.173 107.816 200.384C108.605 199.595 109 198.56 109 197.28C109 196.085 108.584 195.125 107.752 194.4C106.941 193.653 105.48 193.28 103.368 193.28H98.984ZM123.157 186.528C124.629 186.528 125.887 186.848 126.933 187.488C127.999 188.128 128.81 189.035 129.365 190.208C129.941 191.36 130.229 192.715 130.229 194.272V195.968H118.485C118.527 197.909 119.018 199.392 119.957 200.416C120.917 201.419 122.25 201.92 123.957 201.92C125.045 201.92 126.005 201.824 126.837 201.632C127.69 201.419 128.565 201.12 129.461 200.736V203.2C128.586 203.584 127.722 203.861 126.869 204.032C126.015 204.224 125.002 204.32 123.829 204.32C122.207 204.32 120.767 203.989 119.509 203.328C118.271 202.667 117.301 201.685 116.597 200.384C115.914 199.061 115.573 197.451 115.573 195.552C115.573 193.675 115.882 192.064 116.501 190.72C117.141 189.376 118.026 188.341 119.157 187.616C120.309 186.891 121.642 186.528 123.157 186.528ZM123.125 188.832C121.781 188.832 120.714 189.269 119.925 190.144C119.157 190.997 118.698 192.192 118.549 193.728H127.285C127.263 192.277 126.922 191.104 126.261 190.208C125.599 189.291 124.554 188.832 123.125 188.832ZM142.595 186.528C142.915 186.528 143.256 186.549 143.619 186.592C144.003 186.613 144.334 186.656 144.611 186.72L144.259 189.312C143.982 189.248 143.672 189.195 143.331 189.152C143.011 189.109 142.702 189.088 142.403 189.088C141.528 189.088 140.707 189.333 139.939 189.824C139.171 190.293 138.552 190.965 138.083 191.84C137.635 192.693 137.411 193.696 137.411 194.848V204H134.595V186.848H136.899L137.219 189.984H137.347C137.902 189.045 138.616 188.235 139.491 187.552C140.366 186.869 141.4 186.528 142.595 186.528ZM150.598 192.384C150.598 192.725 150.576 193.173 150.534 193.728C150.512 194.283 150.491 194.763 150.47 195.168H150.598C150.726 194.997 150.918 194.752 151.174 194.432C151.43 194.112 151.686 193.792 151.942 193.472C152.219 193.131 152.454 192.853 152.646 192.64L158.118 186.848H161.414L154.47 194.176L161.894 204H158.502L152.55 196L150.598 197.696V204H147.814V179.68H150.598V192.384ZM171.532 186.528C173.004 186.528 174.262 186.848 175.308 187.488C176.374 188.128 177.185 189.035 177.74 190.208C178.316 191.36 178.604 192.715 178.604 194.272V195.968H166.86C166.902 197.909 167.393 199.392 168.332 200.416C169.292 201.419 170.625 201.92 172.332 201.92C173.42 201.92 174.38 201.824 175.212 201.632C176.065 201.419 176.94 201.12 177.836 200.736V203.2C176.961 203.584 176.097 203.861 175.244 204.032C174.39 204.224 173.377 204.32 172.204 204.32C170.582 204.32 169.142 203.989 167.884 203.328C166.646 202.667 165.676 201.685 164.972 200.384C164.289 199.061 163.948 197.451 163.948 195.552C163.948 193.675 164.257 192.064 164.876 190.72C165.516 189.376 166.401 188.341 167.532 187.616C168.684 186.891 170.017 186.528 171.532 186.528ZM171.5 188.832C170.156 188.832 169.089 189.269 168.3 190.144C167.532 190.997 167.073 192.192 166.924 193.728H175.66C175.638 192.277 175.297 191.104 174.636 190.208C173.974 189.291 172.929 188.832 171.5 188.832ZM191.226 186.528C193.274 186.528 194.821 187.029 195.866 188.032C196.911 189.013 197.434 190.613 197.434 192.832V204H194.65V193.024C194.65 190.272 193.37 188.896 190.81 188.896C188.911 188.896 187.599 189.429 186.874 190.496C186.149 191.563 185.786 193.099 185.786 195.104V204H182.97V186.848H185.242L185.658 189.184H185.818C186.373 188.288 187.141 187.627 188.122 187.2C189.103 186.752 190.138 186.528 191.226 186.528ZM209.247 186.56C211.338 186.56 212.885 187.019 213.887 187.936C214.89 188.853 215.391 190.315 215.391 192.32V204H213.343L212.799 201.568H212.671C211.925 202.507 211.135 203.2 210.303 203.648C209.493 204.096 208.362 204.32 206.911 204.32C205.354 204.32 204.063 203.915 203.039 203.104C202.015 202.272 201.503 200.981 201.503 199.232C201.503 197.525 202.175 196.213 203.519 195.296C204.863 194.357 206.933 193.845 209.727 193.76L212.639 193.664V192.64C212.639 191.211 212.33 190.219 211.711 189.664C211.093 189.109 210.218 188.832 209.087 188.832C208.191 188.832 207.338 188.971 206.527 189.248C205.717 189.504 204.959 189.803 204.255 190.144L203.391 188.032C204.138 187.627 205.023 187.285 206.047 187.008C207.071 186.709 208.138 186.56 209.247 186.56ZM210.079 195.712C207.946 195.797 206.463 196.139 205.631 196.736C204.821 197.333 204.415 198.176 204.415 199.264C204.415 200.224 204.703 200.928 205.279 201.376C205.877 201.824 206.634 202.048 207.551 202.048C209.002 202.048 210.207 201.653 211.167 200.864C212.127 200.053 212.607 198.816 212.607 197.152V195.616L210.079 195.712ZM223.505 204H220.689V179.68H223.505V204ZM235.435 186.56C237.525 186.56 239.072 187.019 240.075 187.936C241.077 188.853 241.579 190.315 241.579 192.32V204H239.531L238.987 201.568H238.859C238.112 202.507 237.323 203.2 236.491 203.648C235.68 204.096 234.549 204.32 233.099 204.32C231.541 204.32 230.251 203.915 229.227 203.104C228.203 202.272 227.691 200.981 227.691 199.232C227.691 197.525 228.363 196.213 229.707 195.296C231.051 194.357 233.12 193.845 235.915 193.76L238.827 193.664V192.64C238.827 191.211 238.517 190.219 237.899 189.664C237.28 189.109 236.405 188.832 235.275 188.832C234.379 188.832 233.525 188.971 232.715 189.248C231.904 189.504 231.147 189.803 230.443 190.144L229.579 188.032C230.325 187.627 231.211 187.285 232.235 187.008C233.259 186.709 234.325 186.56 235.435 186.56ZM236.267 195.712C234.133 195.797 232.651 196.139 231.819 196.736C231.008 197.333 230.603 198.176 230.603 199.264C230.603 200.224 230.891 200.928 231.467 201.376C232.064 201.824 232.821 202.048 233.739 202.048C235.189 202.048 236.395 201.653 237.355 200.864C238.315 200.053 238.795 198.816 238.795 197.152V195.616L236.267 195.712ZM255.132 186.528C257.18 186.528 258.727 187.029 259.772 188.032C260.818 189.013 261.34 190.613 261.34 192.832V204H258.556V193.024C258.556 190.272 257.276 188.896 254.716 188.896C252.818 188.896 251.506 189.429 250.78 190.496C250.055 191.563 249.692 193.099 249.692 195.104V204H246.876V186.848H249.148L249.564 189.184H249.724C250.279 188.288 251.047 187.627 252.028 187.2C253.01 186.752 254.044 186.528 255.132 186.528ZM281.466 186.56C283.557 186.56 285.103 187.019 286.106 187.936C287.109 188.853 287.61 190.315 287.61 192.32V204H285.562L285.018 201.568H284.89C284.143 202.507 283.354 203.2 282.522 203.648C281.711 204.096 280.581 204.32 279.13 204.32C277.573 204.32 276.282 203.915 275.258 203.104C274.234 202.272 273.722 200.981 273.722 199.232C273.722 197.525 274.394 196.213 275.738 195.296C277.082 194.357 279.151 193.845 281.946 193.76L284.858 193.664V192.64C284.858 191.211 284.549 190.219 283.93 189.664C283.311 189.109 282.437 188.832 281.306 188.832C280.41 188.832 279.557 188.971 278.746 189.248C277.935 189.504 277.178 189.803 276.474 190.144L275.61 188.032C276.357 187.627 277.242 187.285 278.266 187.008C279.29 186.709 280.357 186.56 281.466 186.56ZM282.298 195.712C280.165 195.797 278.682 196.139 277.85 196.736C277.039 197.333 276.634 198.176 276.634 199.264C276.634 200.224 276.922 200.928 277.498 201.376C278.095 201.824 278.853 202.048 279.77 202.048C281.221 202.048 282.426 201.653 283.386 200.864C284.346 200.053 284.826 198.816 284.826 197.152V195.616L282.298 195.712ZM298.988 204.32C296.854 204.32 295.148 203.584 293.868 202.112C292.588 200.619 291.948 198.4 291.948 195.456C291.948 192.512 292.588 190.293 293.868 188.8C295.169 187.285 296.886 186.528 299.02 186.528C300.342 186.528 301.42 186.773 302.252 187.264C303.105 187.755 303.798 188.352 304.332 189.056H304.524C304.502 188.779 304.46 188.373 304.396 187.84C304.353 187.285 304.332 186.848 304.332 186.528V179.68H307.148V204H304.876L304.46 201.696H304.332C303.82 202.421 303.137 203.04 302.284 203.552C301.43 204.064 300.332 204.32 298.988 204.32ZM299.436 201.984C301.249 201.984 302.518 201.493 303.244 200.512C303.99 199.509 304.364 198.005 304.364 196V195.488C304.364 193.355 304.012 191.723 303.308 190.592C302.604 189.44 301.302 188.864 299.404 188.864C297.889 188.864 296.748 189.472 295.98 190.688C295.233 191.883 294.86 193.493 294.86 195.52C294.86 197.568 295.233 199.157 295.98 200.288C296.748 201.419 297.9 201.984 299.436 201.984ZM319.091 186.56C321.182 186.56 322.728 187.019 323.731 187.936C324.734 188.853 325.235 190.315 325.235 192.32V204H323.187L322.643 201.568H322.515C321.768 202.507 320.979 203.2 320.147 203.648C319.336 204.096 318.206 204.32 316.755 204.32C315.198 204.32 313.907 203.915 312.883 203.104C311.859 202.272 311.347 200.981 311.347 199.232C311.347 197.525 312.019 196.213 313.363 195.296C314.707 194.357 316.776 193.845 319.571 193.76L322.483 193.664V192.64C322.483 191.211 322.174 190.219 321.555 189.664C320.936 189.109 320.062 188.832 318.931 188.832C318.035 188.832 317.182 188.971 316.371 189.248C315.56 189.504 314.803 189.803 314.099 190.144L313.235 188.032C313.982 187.627 314.867 187.285 315.891 187.008C316.915 186.709 317.982 186.56 319.091 186.56ZM319.923 195.712C317.79 195.797 316.307 196.139 315.475 196.736C314.664 197.333 314.259 198.176 314.259 199.264C314.259 200.224 314.547 200.928 315.123 201.376C315.72 201.824 316.478 202.048 317.395 202.048C318.846 202.048 320.051 201.653 321.011 200.864C321.971 200.053 322.451 198.816 322.451 197.152V195.616L319.923 195.712ZM333.349 204H330.533V179.68H333.349V204ZM345.279 186.56C347.369 186.56 348.916 187.019 349.919 187.936C350.921 188.853 351.423 190.315 351.423 192.32V204H349.375L348.831 201.568H348.703C347.956 202.507 347.167 203.2 346.335 203.648C345.524 204.096 344.393 204.32 342.943 204.32C341.385 204.32 340.095 203.915 339.071 203.104C338.047 202.272 337.535 200.981 337.535 199.232C337.535 197.525 338.207 196.213 339.551 195.296C340.895 194.357 342.964 193.845 345.759 193.76L348.671 193.664V192.64C348.671 191.211 348.361 190.219 347.743 189.664C347.124 189.109 346.249 188.832 345.119 188.832C344.223 188.832 343.369 188.971 342.559 189.248C341.748 189.504 340.991 189.803 340.286 190.144L339.423 188.032C340.169 187.627 341.055 187.285 342.079 187.008C343.103 186.709 344.169 186.56 345.279 186.56ZM346.111 195.712C343.977 195.797 342.495 196.139 341.663 196.736C340.852 197.333 340.447 198.176 340.447 199.264C340.447 200.224 340.735 200.928 341.311 201.376C341.908 201.824 342.665 202.048 343.583 202.048C345.033 202.048 346.239 201.653 347.199 200.864C348.159 200.053 348.639 198.816 348.639 197.152V195.616L346.111 195.712ZM359.536 186.816C359.536 187.669 359.483 188.469 359.376 189.216H359.568C360.123 188.341 360.869 187.68 361.808 187.232C362.768 186.784 363.803 186.56 364.912 186.56C367.003 186.56 368.571 187.061 369.616 188.064C370.661 189.045 371.184 190.635 371.184 192.832V204H368.4V193.024C368.4 190.272 367.12 188.896 364.56 188.896C362.64 188.896 361.317 189.44 360.592 190.528C359.888 191.595 359.536 193.131 359.536 195.136V204H356.72V179.68H359.536V186.816ZM106.888 243.264C106.888 244.928 106.269 246.187 105.032 247.04C103.795 247.893 102.131 248.32 100.04 248.32C98.8453 248.32 97.8107 248.224 96.936 248.032C96.0827 247.84 95.3253 247.573 94.664 247.232V244.672C95.3467 245.013 96.168 245.333 97.128 245.632C98.1093 245.909 99.1013 246.048 100.104 246.048C101.533 246.048 102.568 245.824 103.208 245.376C103.848 244.907 104.168 244.288 104.168 243.52C104.168 243.093 104.051 242.709 103.816 242.368C103.581 242.027 103.155 241.685 102.536 241.344C101.939 241.003 101.075 240.619 99.944 240.192C98.8347 239.765 97.8853 239.339 97.096 238.912C96.3067 238.485 95.6987 237.973 95.272 237.376C94.8453 236.779 94.632 236.011 94.632 235.072C94.632 233.621 95.2187 232.501 96.392 231.712C97.5867 230.923 99.144 230.528 101.064 230.528C102.109 230.528 103.08 230.635 103.976 230.848C104.893 231.04 105.747 231.317 106.536 231.68L105.576 233.92C104.851 233.621 104.093 233.365 103.304 233.152C102.515 232.939 101.704 232.832 100.872 232.832C99.72 232.832 98.8347 233.024 98.216 233.408C97.6187 233.771 97.32 234.272 97.32 234.912C97.32 235.381 97.4587 235.787 97.736 236.128C98.0133 236.448 98.472 236.768 99.112 237.088C99.7733 237.387 100.648 237.749 101.736 238.176C102.824 238.581 103.752 238.997 104.52 239.424C105.288 239.851 105.875 240.373 106.28 240.992C106.685 241.589 106.888 242.347 106.888 243.264ZM117.529 230.56C119.619 230.56 121.166 231.019 122.169 231.936C123.171 232.853 123.673 234.315 123.673 236.32V248H121.625L121.081 245.568H120.953C120.206 246.507 119.417 247.2 118.585 247.648C117.774 248.096 116.643 248.32 115.193 248.32C113.635 248.32 112.345 247.915 111.321 247.104C110.297 246.272 109.785 244.981 109.785 243.232C109.785 241.525 110.457 240.213 111.801 239.296C113.145 238.357 115.214 237.845 118.009 237.76L120.921 237.664V236.64C120.921 235.211 120.611 234.219 119.993 233.664C119.374 233.109 118.499 232.832 117.369 232.832C116.473 232.832 115.619 232.971 114.809 233.248C113.998 233.504 113.241 233.803 112.536 234.144L111.673 232.032C112.419 231.627 113.305 231.285 114.329 231.008C115.353 230.709 116.419 230.56 117.529 230.56ZM118.361 239.712C116.227 239.797 114.745 240.139 113.913 240.736C113.102 241.333 112.697 242.176 112.697 243.264C112.697 244.224 112.985 244.928 113.561 245.376C114.158 245.824 114.915 246.048 115.833 246.048C117.283 246.048 118.489 245.653 119.449 244.864C120.409 244.053 120.889 242.816 120.889 241.152V239.616L118.361 239.712ZM131.786 248H128.97V223.68H131.786V248ZM143.716 230.56C145.807 230.56 147.353 231.019 148.356 231.936C149.359 232.853 149.86 234.315 149.86 236.32V248H147.812L147.268 245.568H147.14C146.393 246.507 145.604 247.2 144.772 247.648C143.961 248.096 142.831 248.32 141.38 248.32C139.823 248.32 138.532 247.915 137.508 247.104C136.484 246.272 135.972 244.981 135.972 243.232C135.972 241.525 136.644 240.213 137.988 239.296C139.332 238.357 141.401 237.845 144.196 237.76L147.108 237.664V236.64C147.108 235.211 146.799 234.219 146.18 233.664C145.561 233.109 144.687 232.832 143.556 232.832C142.66 232.832 141.807 232.971 140.996 233.248C140.185 233.504 139.428 233.803 138.724 234.144L137.86 232.032C138.607 231.627 139.492 231.285 140.516 231.008C141.54 230.709 142.607 230.56 143.716 230.56ZM144.548 239.712C142.415 239.797 140.932 240.139 140.1 240.736C139.289 241.333 138.884 242.176 138.884 243.264C138.884 244.224 139.172 244.928 139.748 245.376C140.345 245.824 141.103 246.048 142.02 246.048C143.471 246.048 144.676 245.653 145.636 244.864C146.596 244.053 147.076 242.816 147.076 241.152V239.616L144.548 239.712ZM157.974 230.816C157.974 231.669 157.92 232.469 157.814 233.216H158.006C158.56 232.341 159.307 231.68 160.246 231.232C161.206 230.784 162.24 230.56 163.35 230.56C165.44 230.56 167.008 231.061 168.054 232.064C169.099 233.045 169.622 234.635 169.622 236.832V248H166.838V237.024C166.838 234.272 165.558 232.896 162.998 232.896C161.078 232.896 159.755 233.44 159.03 234.528C158.326 235.595 157.974 237.131 157.974 239.136V248H155.158V223.68H157.974V230.816ZM194.419 243.264C194.419 244.928 193.801 246.187 192.563 247.04C191.326 247.893 189.662 248.32 187.571 248.32C186.377 248.32 185.342 248.224 184.467 248.032C183.614 247.84 182.857 247.573 182.195 247.232V244.672C182.878 245.013 183.699 245.333 184.659 245.632C185.641 245.909 186.633 246.048 187.635 246.048C189.065 246.048 190.099 245.824 190.739 245.376C191.379 244.907 191.699 244.288 191.699 243.52C191.699 243.093 191.582 242.709 191.347 242.368C191.113 242.027 190.686 241.685 190.067 241.344C189.47 241.003 188.606 240.619 187.475 240.192C186.366 239.765 185.417 239.339 184.627 238.912C183.838 238.485 183.23 237.973 182.803 237.376C182.377 236.779 182.163 236.011 182.163 235.072C182.163 233.621 182.75 232.501 183.923 231.712C185.118 230.923 186.675 230.528 188.595 230.528C189.641 230.528 190.611 230.635 191.507 230.848C192.425 231.04 193.278 231.317 194.067 231.68L193.107 233.92C192.382 233.621 191.625 233.365 190.835 233.152C190.046 232.939 189.235 232.832 188.403 232.832C187.251 232.832 186.366 233.024 185.747 233.408C185.15 233.771 184.851 234.272 184.851 234.912C184.851 235.381 184.99 235.787 185.267 236.128C185.545 236.448 186.003 236.768 186.643 237.088C187.305 237.387 188.179 237.749 189.267 238.176C190.355 238.581 191.283 238.997 192.051 239.424C192.819 239.851 193.406 240.373 193.811 240.992C194.217 241.589 194.419 242.347 194.419 243.264ZM205.06 230.56C207.15 230.56 208.697 231.019 209.7 231.936C210.702 232.853 211.204 234.315 211.204 236.32V248H209.156L208.612 245.568H208.484C207.737 246.507 206.948 247.2 206.116 247.648C205.305 248.096 204.174 248.32 202.724 248.32C201.166 248.32 199.876 247.915 198.852 247.104C197.828 246.272 197.316 244.981 197.316 243.232C197.316 241.525 197.988 240.213 199.332 239.296C200.676 238.357 202.745 237.845 205.54 237.76L208.452 237.664V236.64C208.452 235.211 208.142 234.219 207.524 233.664C206.905 233.109 206.03 232.832 204.9 232.832C204.004 232.832 203.15 232.971 202.34 233.248C201.529 233.504 200.772 233.803 200.068 234.144L199.204 232.032C199.95 231.627 200.836 231.285 201.86 231.008C202.884 230.709 203.95 230.56 205.06 230.56ZM205.892 239.712C203.758 239.797 202.276 240.139 201.444 240.736C200.633 241.333 200.228 242.176 200.228 243.264C200.228 244.224 200.516 244.928 201.092 245.376C201.689 245.824 202.446 246.048 203.364 246.048C204.814 246.048 206.02 245.653 206.98 244.864C207.94 244.053 208.42 242.816 208.42 241.152V239.616L205.892 239.712ZM222.229 246.016C222.656 246.016 223.093 245.984 223.541 245.92C223.989 245.835 224.352 245.749 224.629 245.664V247.808C224.331 247.957 223.904 248.075 223.349 248.16C222.795 248.267 222.261 248.32 221.749 248.32C220.853 248.32 220.021 248.171 219.253 247.872C218.507 247.552 217.899 247.008 217.429 246.24C216.96 245.472 216.725 244.395 216.725 243.008V233.024H214.293V231.68L216.757 230.56L217.877 226.912H219.541V230.848H224.501V233.024H219.541V242.944C219.541 243.989 219.787 244.768 220.277 245.28C220.789 245.771 221.44 246.016 222.229 246.016ZM242.4 230.848V248H240.096L239.68 245.728H239.552C238.997 246.624 238.229 247.285 237.248 247.712C236.266 248.117 235.221 248.32 234.112 248.32C232.042 248.32 230.485 247.829 229.44 246.848C228.394 245.845 227.872 244.256 227.872 242.08V230.848H230.72V241.888C230.72 244.619 231.989 245.984 234.528 245.984C236.426 245.984 237.738 245.451 238.464 244.384C239.21 243.317 239.584 241.781 239.584 239.776V230.848H242.4ZM263.038 248.32C261.523 248.32 260.168 248.011 258.974 247.392C257.8 246.773 256.872 245.813 256.19 244.512C255.528 243.211 255.198 241.547 255.198 239.52C255.198 237.408 255.55 235.691 256.254 234.368C256.958 233.045 257.907 232.075 259.102 231.456C260.318 230.837 261.694 230.528 263.23 230.528C264.104 230.528 264.947 230.624 265.758 230.816C266.568 230.987 267.23 231.2 267.742 231.456L266.878 233.792C266.366 233.6 265.768 233.419 265.086 233.248C264.403 233.077 263.763 232.992 263.166 232.992C259.795 232.992 258.11 235.157 258.11 239.488C258.11 241.557 258.515 243.147 259.326 244.256C260.158 245.344 261.384 245.888 263.006 245.888C263.944 245.888 264.766 245.792 265.47 245.6C266.195 245.408 266.856 245.173 267.454 244.896V247.392C266.878 247.691 266.238 247.915 265.534 248.064C264.851 248.235 264.019 248.32 263.038 248.32ZM278.029 230.56C280.119 230.56 281.666 231.019 282.669 231.936C283.671 232.853 284.173 234.315 284.173 236.32V248H282.125L281.581 245.568H281.453C280.706 246.507 279.917 247.2 279.085 247.648C278.274 248.096 277.143 248.32 275.693 248.32C274.135 248.32 272.845 247.915 271.821 247.104C270.797 246.272 270.285 244.981 270.285 243.232C270.285 241.525 270.957 240.213 272.301 239.296C273.645 238.357 275.714 237.845 278.509 237.76L281.421 237.664V236.64C281.421 235.211 281.111 234.219 280.493 233.664C279.874 233.109 278.999 232.832 277.869 232.832C276.973 232.832 276.119 232.971 275.309 233.248C274.498 233.504 273.741 233.803 273.036 234.144L272.173 232.032C272.919 231.627 273.805 231.285 274.829 231.008C275.853 230.709 276.919 230.56 278.029 230.56ZM278.861 239.712C276.727 239.797 275.245 240.139 274.413 240.736C273.602 241.333 273.197 242.176 273.197 243.264C273.197 244.224 273.485 244.928 274.061 245.376C274.658 245.824 275.415 246.048 276.333 246.048C277.783 246.048 278.989 245.653 279.949 244.864C280.909 244.053 281.389 242.816 281.389 241.152V239.616L278.861 239.712ZM297.47 230.528C297.79 230.528 298.131 230.549 298.494 230.592C298.878 230.613 299.209 230.656 299.486 230.72L299.134 233.312C298.857 233.248 298.547 233.195 298.206 233.152C297.886 233.109 297.577 233.088 297.278 233.088C296.403 233.088 295.582 233.333 294.814 233.824C294.046 234.293 293.427 234.965 292.958 235.84C292.51 236.693 292.286 237.696 292.286 238.848V248H289.47V230.848H291.774L292.094 233.984H292.222C292.777 233.045 293.491 232.235 294.366 231.552C295.241 230.869 296.275 230.528 297.47 230.528ZM308.56 230.56C310.65 230.56 312.197 231.019 313.2 231.936C314.202 232.853 314.704 234.315 314.704 236.32V248H312.656L312.112 245.568H311.984C311.237 246.507 310.448 247.2 309.616 247.648C308.805 248.096 307.674 248.32 306.224 248.32C304.666 248.32 303.376 247.915 302.352 247.104C301.328 246.272 300.816 244.981 300.816 243.232C300.816 241.525 301.488 240.213 302.832 239.296C304.176 238.357 306.245 237.845 309.04 237.76L311.952 237.664V236.64C311.952 235.211 311.642 234.219 311.024 233.664C310.405 233.109 309.53 232.832 308.4 232.832C307.504 232.832 306.65 232.971 305.84 233.248C305.029 233.504 304.272 233.803 303.568 234.144L302.704 232.032C303.45 231.627 304.336 231.285 305.36 231.008C306.384 230.709 307.45 230.56 308.56 230.56ZM309.392 239.712C307.258 239.797 305.776 240.139 304.944 240.736C304.133 241.333 303.728 242.176 303.728 243.264C303.728 244.224 304.016 244.928 304.592 245.376C305.189 245.824 305.946 246.048 306.864 246.048C308.314 246.048 309.52 245.653 310.48 244.864C311.44 244.053 311.92 242.816 311.92 241.152V239.616L309.392 239.712ZM328.257 230.528C330.305 230.528 331.852 231.029 332.897 232.032C333.943 233.013 334.465 234.613 334.465 236.832V248H331.681V237.024C331.681 234.272 330.401 232.896 327.841 232.896C325.943 232.896 324.631 233.429 323.905 234.496C323.18 235.563 322.817 237.099 322.817 239.104V248H320.001V230.848H322.273L322.689 233.184H322.849C323.404 232.288 324.172 231.627 325.153 231.2C326.135 230.752 327.169 230.528 328.257 230.528ZM337.095 230.848H340.103L343.815 240.608C344.135 241.461 344.423 242.283 344.679 243.072C344.935 243.84 345.127 244.576 345.255 245.28H345.383C345.511 244.747 345.713 244.053 345.991 243.2C346.268 242.325 346.556 241.451 346.855 240.576L350.343 230.848H353.383L345.991 250.368C345.393 251.989 344.615 253.28 343.655 254.24C342.716 255.2 341.415 255.68 339.751 255.68C339.239 255.68 338.791 255.648 338.407 255.584C338.023 255.541 337.692 255.488 337.415 255.424V253.184C337.649 253.227 337.927 253.269 338.247 253.312C338.588 253.355 338.94 253.376 339.303 253.376C340.284 253.376 341.073 253.099 341.671 252.544C342.289 251.989 342.769 251.253 343.111 250.336L344.007 248.064L337.095 230.848ZM362.591 230.56C364.682 230.56 366.228 231.019 367.231 231.936C368.234 232.853 368.735 234.315 368.735 236.32V248H366.687L366.143 245.568H366.015C365.268 246.507 364.479 247.2 363.647 247.648C362.836 248.096 361.706 248.32 360.255 248.32C358.698 248.32 357.407 247.915 356.383 247.104C355.359 246.272 354.847 244.981 354.847 243.232C354.847 241.525 355.519 240.213 356.863 239.296C358.207 238.357 360.276 237.845 363.071 237.76L365.983 237.664V236.64C365.983 235.211 365.674 234.219 365.055 233.664C364.436 233.109 363.562 232.832 362.431 232.832C361.535 232.832 360.682 232.971 359.871 233.248C359.06 233.504 358.303 233.803 357.599 234.144L356.735 232.032C357.482 231.627 358.367 231.285 359.391 231.008C360.415 230.709 361.482 230.56 362.591 230.56ZM363.423 239.712C361.29 239.797 359.807 240.139 358.975 240.736C358.164 241.333 357.759 242.176 357.759 243.264C357.759 244.224 358.047 244.928 358.623 245.376C359.22 245.824 359.978 246.048 360.895 246.048C362.346 246.048 363.551 245.653 364.511 244.864C365.471 244.053 365.951 242.816 365.951 241.152V239.616L363.423 239.712Z" fill="black"/>
<mask id="mask0_301:2" style="mask-type:alpha" maskUnits="userSpaceOnUse" x="32" y="8" width="757" height="454">
<rect x="32" y="8" width="757" height="454" rx="12" fill="#F6F6F6"/>
</mask>
<g mask="url(#mask0_301:2)">
<path d="M512.283 426.282C512.354 433.528 508.066 436.099 502.747 436.151C502.624 436.152 502.501 436.152 502.379 436.151C502.132 436.148 501.888 436.139 501.646 436.124C496.842 435.831 493.086 433.208 493.021 426.47C492.953 419.496 501.789 410.608 502.452 409.951L502.453 409.951C502.478 409.926 502.491 409.913 502.491 409.913C502.491 409.913 512.213 419.037 512.283 426.282Z" fill="#FF766C"/>
<path d="M664.337 425.875C664.408 433.121 660.12 435.692 654.801 435.744C654.677 435.745 654.554 435.745 654.432 435.744C654.185 435.741 653.941 435.732 653.7 435.717C648.896 435.424 645.14 432.801 645.074 426.063C645.006 419.089 653.843 410.202 654.505 409.544L654.507 409.544C654.532 409.519 654.545 409.506 654.545 409.506C654.545 409.506 664.266 418.63 664.337 425.875Z" fill="#FF766C"/>
<path d="M789.095 435.223H443V436.037H789.095V435.223Z" fill="#3F3D56"/>
<path d="M513.524 299.191C550.897 299.191 581.194 268.927 581.194 231.595C581.194 194.263 550.897 164 513.524 164C476.15 164 445.854 194.263 445.854 231.595C445.854 268.927 476.15 299.191 513.524 299.191Z" fill="#FF766C"/>
<path d="M595.869 374.93H595.869C612.086 374.93 627.639 381.366 639.107 392.82C650.574 404.275 657.017 419.811 657.017 436.011V436.011H561.219V409.542C561.219 400.363 564.869 391.559 571.367 385.068C577.866 378.577 586.679 374.93 595.869 374.93Z" fill="#3F3D56"/>
<path d="M728.722 294.329C728.722 294.329 731.512 330.552 727.606 331.667C723.701 332.781 709.754 341.14 687.438 338.911C687.438 338.911 665.68 350.614 669.027 339.469C672.375 328.323 687.438 331.109 687.438 331.109C687.438 331.109 714.217 325.536 715.333 321.635C716.449 317.735 711.985 301.573 713.659 301.016C715.333 300.459 728.722 294.329 728.722 294.329Z" fill="#A0616A"/>
<path d="M695.305 357.484C695.305 357.484 697.48 409.816 700.827 417.618C703.616 424.117 705.243 445.309 705.708 452.207C705.802 453.59 705.848 454.399 705.848 454.399C705.848 454.399 714.775 454.399 715.333 452.17C715.891 449.941 717.564 425.42 715.333 417.618C713.101 409.816 718.179 355.812 718.179 355.812L695.305 357.484Z" fill="#2F2E41"/>
<path d="M708.08 451.612C708.08 451.612 702.501 453.284 701.385 455.513C700.269 457.743 681.859 461.644 687.438 464.43C693.017 467.216 709.754 462.201 709.754 462.201C709.754 462.201 718.68 461.644 718.122 458.3C717.564 454.956 715.533 450.836 715.533 450.836L708.08 451.612Z" fill="#2F2E41"/>
<path d="M723.701 457.612C723.701 457.612 718.122 459.284 717.006 461.513C715.891 463.743 697.48 467.644 703.059 470.43C708.638 473.216 725.375 468.201 725.375 468.201C725.375 468.201 734.301 467.644 733.743 464.3C733.185 460.956 731.154 456.836 731.154 456.836L723.701 457.612Z" fill="#2F2E41"/>
<path d="M700.269 356.187L708.08 369.562L721.115 416.063C721.115 416.063 719.796 458.727 721.47 458.727C723.143 458.727 732.07 461.513 732.627 458.727C733.099 456.373 739.347 433.826 736.233 418.819C734.207 409.334 732.904 399.709 732.334 390.028L730.954 363.989C730.954 363.989 736.533 353.958 730.396 352.286C724.259 350.614 700.269 356.187 700.269 356.187Z" fill="#2F2E41"/>
<path d="M707.522 270.365C714.917 270.365 720.912 264.377 720.912 256.991C720.912 249.604 714.917 243.616 707.522 243.616C700.127 243.616 694.133 249.604 694.133 256.991C694.133 264.377 700.127 270.365 707.522 270.365Z" fill="#A0616A"/>
<path d="M705.848 265.907C705.848 265.907 708.08 283.74 707.522 284.855C706.964 285.969 720.912 272.595 720.912 272.595C720.912 272.595 715.891 264.793 717.006 260.892L705.848 265.907Z" fill="#A0616A"/>
<path d="M737.091 283.74C737.091 283.74 721.47 272.595 720.912 270.365L709.196 280.397L707.205 278.029C707.205 278.029 698.038 287.084 698.038 290.985C698.038 294.886 697.48 306.589 699.154 309.933C700.827 313.276 694.133 355.63 694.133 355.63C694.133 355.63 699.712 360.645 700.269 361.203C700.827 361.76 723.143 357.859 723.143 357.859C723.143 357.859 734.301 356.744 734.301 355.072C734.301 353.401 730.954 328.323 732.07 321.636C733.185 314.948 737.091 283.74 737.091 283.74Z" fill="#575A89"/>
<path d="M740.438 299.344C740.438 299.344 743.228 335.567 739.322 336.682C735.417 337.797 721.47 346.156 699.154 343.927C699.154 343.927 677.396 355.63 680.743 344.484C684.09 333.338 699.154 336.125 699.154 336.125C699.154 336.125 725.933 330.552 727.049 326.651C728.164 322.75 723.701 306.589 725.375 306.031C727.048 305.474 740.438 299.344 740.438 299.344Z" fill="#A0616A"/>
<path d="M701.802 250.309C703.633 249.659 705.652 249.325 707.518 249.864C710.159 250.627 711.988 252.94 713.961 254.853C715.934 256.766 718.701 258.461 721.299 257.561C721.142 256.437 721.438 255.296 722.121 254.388C722.46 254.049 722.711 253.633 722.851 253.175C722.962 252.458 722.358 251.84 722.178 251.138C721.861 249.908 722.729 248.224 721.661 247.535C721.379 247.353 721.023 247.311 720.747 247.119C719.668 246.365 720.867 244.49 720.153 243.384C719.939 243.099 719.661 242.867 719.341 242.708C714.165 239.691 707.834 239.682 701.84 239.758C701.006 239.769 699.844 240.183 700.08 240.983C698.947 240.171 697.464 241.311 696.551 242.363L694.682 244.518C693.804 245.455 693.038 246.49 692.399 247.603C691.828 248.694 691.702 250.37 692.838 250.846C691.993 250.492 690.969 255.49 694.862 254.667C697.124 254.19 699.342 251.184 701.802 250.309Z" fill="#2F2E41"/>
<path d="M728.164 284.855L737.091 283.74C737.091 283.74 746.017 301.016 740.996 303.802C735.975 306.589 723.143 308.818 723.143 307.703C723.143 306.589 728.164 284.855 728.164 284.855Z" fill="#575A89"/>
<path d="M605.825 288.645C605.825 288.645 608.488 297.385 606.967 300.045C605.445 302.705 609.629 308.405 616.477 305.745C623.324 303.085 623.704 300.045 623.704 300.045C623.704 300.045 621.042 295.865 620.281 287.125L605.825 288.645Z" fill="#FFB9B9"/>
<path d="M571.019 374.332C571.019 374.332 557.324 381.172 563.411 390.292C566.948 395.593 573.699 405.9 578.733 413.604C582.946 420.05 586.176 427.086 588.319 434.481L589.278 437.79L593.082 442.35L601.071 433.23C601.071 433.23 589.278 411.571 589.278 407.391C589.278 403.211 579.768 389.912 579.768 389.912L589.278 383.832C589.278 383.832 578.627 371.672 571.019 374.332Z" fill="#FFB9B9"/>
<path d="M615.526 397.891C615.526 397.891 615.906 408.531 616.287 412.711C616.601 416.159 613.549 425.815 614.607 436.556C615.253 443.506 615.175 450.503 614.376 457.437L612.863 471.228L624.275 472.368L628.079 441.21C628.079 441.21 630.362 419.17 629.221 411.951L629.601 396.751C629.601 396.751 621.232 393.711 615.526 397.891Z" fill="#FFB9B9"/>
<path d="M595.174 353.623C595.174 353.623 568.546 370.722 568.166 376.042C568.166 376.042 583.382 374.522 583.762 387.822C583.762 387.822 592.892 384.402 595.174 383.642C597.457 382.882 609.63 374.902 609.63 374.902C609.63 374.902 614.575 378.702 614.575 384.782C614.575 390.861 614.194 401.501 614.575 402.261C614.955 403.021 623.705 392.001 630.932 401.501L635.877 375.282C635.877 375.282 637.399 359.323 634.356 358.183L613.053 350.203L595.174 353.623Z" fill="#2F2E41"/>
<path d="M611.342 293.395C617.644 293.395 622.754 288.292 622.754 281.996C622.754 275.7 617.644 270.596 611.342 270.596C605.039 270.596 599.929 275.7 599.929 281.996C599.929 288.292 605.039 293.395 611.342 293.395Z" fill="#FFB9B9"/>
<path d="M608.489 301.945C608.489 301.945 621.361 305.341 623.103 298.893C623.103 298.893 638.921 301.945 641.584 312.204C644.247 322.464 635.117 347.163 635.117 347.923C635.117 348.683 642.725 353.243 639.301 355.523C635.878 357.803 632.834 355.143 634.356 358.183C635.878 361.223 638.54 361.982 636.258 362.742C633.976 363.502 620.281 351.723 609.63 354.763C598.978 357.803 593.653 355.523 593.653 355.523L588.877 314.29C588.69 312.71 588.903 311.109 589.495 309.633C590.087 308.156 591.04 306.851 592.267 305.837C594.651 303.877 597.814 301.759 600.88 301.185C606.967 300.045 607.22 299.421 607.22 299.421L608.489 301.945Z" fill="#D0CDE1"/>
<path d="M596.315 368.442C596.315 368.442 599.739 387.822 604.304 385.162C608.869 382.502 603.163 368.442 603.163 368.442H596.315Z" fill="#FFB9B9"/>
<path d="M612.207 370.95C612.207 370.95 606.275 389.716 611.553 389.465C616.832 389.214 618.279 374.112 618.279 374.112L612.207 370.95Z" fill="#FFB9B9"/>
<path d="M591.18 437.03C591.18 437.03 588.517 433.99 586.996 438.17C585.474 442.35 581.29 447.669 581.29 447.669C581.29 447.669 572.16 457.929 578.627 458.309C585.094 458.689 594.223 449.189 594.223 449.189L604.875 439.31C604.875 439.31 601.344 430.722 599.686 430.646C598.027 430.57 598.408 440.83 591.18 437.03Z" fill="#2F2E41"/>
<path d="M601.382 272.337C601.382 272.337 605.054 264.391 612.09 266.225C619.126 268.058 623.103 270.809 623.409 273.559C623.715 276.309 623.256 280.435 623.256 280.435C623.256 280.435 622.492 274.781 617.597 276.004C612.702 277.226 605.054 276.309 605.054 276.309L603.83 287.311C603.83 287.311 602.453 285.324 600.923 286.547C599.394 287.769 596.487 274.781 601.382 272.337Z" fill="#2F2E41"/>
<path d="M635.117 311.825C635.117 311.825 625.987 336.524 626.748 339.564C627.509 342.603 626.748 342.983 625.607 343.743C624.466 344.503 621.422 352.483 621.422 352.483C621.422 352.483 619.52 357.043 617.999 358.183C616.477 359.323 616.477 362.363 616.477 362.363C616.477 362.363 612.673 366.163 613.434 366.923C614.195 367.683 614.195 368.822 612.673 369.962C611.151 371.102 609.63 372.622 610.391 373.002C611.151 373.382 616.477 377.562 617.999 377.182C619.52 376.802 617.238 375.282 619.14 374.522C621.042 373.762 622.183 372.622 621.422 372.242C620.662 371.862 618.379 371.862 620.662 371.102C622.944 370.342 630.932 365.403 633.595 359.323C636.258 353.243 649.017 316.459 641.306 311.292C641.306 311.292 638.16 307.265 635.117 311.825Z" fill="#D0CDE1"/>
<path d="M592.892 307.645L592.737 307.709C591.3 308.308 590.031 309.247 589.04 310.446C588.048 311.645 587.364 313.067 587.046 314.59C586.216 318.561 585.398 324.305 586.045 329.684C587.186 339.184 587.947 343.364 589.468 346.403C590.99 349.443 591.37 348.303 590.99 350.583C590.609 352.863 588.707 350.963 590.609 354.003C592.511 357.043 593.653 356.283 592.892 357.803C592.131 359.323 590.99 359.323 592.511 361.223C594.033 363.123 594.033 363.883 594.413 364.643C594.794 365.403 595.935 371.103 595.935 371.103C595.935 371.103 602.022 369.203 605.445 369.963C605.445 369.963 602.402 364.643 603.163 363.503C603.924 362.363 605.065 361.983 603.924 360.843C602.782 359.703 600.88 360.083 602.782 358.943C604.684 357.803 601.261 346.024 601.261 346.024L592.892 307.645Z" fill="#D0CDE1"/>
<path d="M520.046 435.196H506.186L512.504 221.415L520.046 435.196Z" fill="#3F3D56"/>
<path d="M513.727 261.932L528.607 241.368L513.524 267.022L511.893 264.172L513.727 261.932Z" fill="#3F3D56"/>
<path d="M512.097 282.699L497.218 262.135L512.301 287.789L513.931 284.939L512.097 282.699Z" fill="#3F3D56"/>
<path d="M519.731 323.997L513.023 327.866L515.061 331.392L521.769 327.524L519.731 323.997Z" fill="#3F3D56"/>
</g>
<defs>
<filter id="filter0_dddd_301:2" x="0" y="0" width="821" height="518" filterUnits="userSpaceOnUse" color-interpolation-filters="sRGB">
<feFlood flood-opacity="0" result="BackgroundImageFix"/>
<feColorMatrix in="SourceAlpha" type="matrix" values="0 0 0 0 0 0 0 0 0 0 0 0 0 0 0 0 0 0 127 0" result="hardAlpha"/>
<feOffset/>
<feGaussianBlur stdDeviation="0.5"/>
<feColorMatrix type="matrix" values="0 0 0 0 0 0 0 0 0 0 0 0 0 0 0 0 0 0 0.04 0"/>
<feBlend mode="normal" in2="BackgroundImageFix" result="effect1_dropShadow_301:2"/>
<feColorMatrix in="SourceAlpha" type="matrix" values="0 0 0 0 0 0 0 0 0 0 0 0 0 0 0 0 0 0 127 0" result="hardAlpha"/>
<feOffset dy="4"/>
<feGaussianBlur stdDeviation="4"/>
<feColorMatrix type="matrix" values="0 0 0 0 0 0 0 0 0 0 0 0 0 0 0 0 0 0 0.04 0"/>
<feBlend mode="normal" in2="effect1_dropShadow_301:2" result="effect2_dropShadow_301:2"/>
<feColorMatrix in="SourceAlpha" type="matrix" values="0 0 0 0 0 0 0 0 0 0 0 0 0 0 0 0 0 0 127 0" result="hardAlpha"/>
<feOffset dy="16"/>
<feGaussianBlur stdDeviation="12"/>
<feColorMatrix type="matrix" values="0 0 0 0 0 0 0 0 0 0 0 0 0 0 0 0 0 0 0.04 0"/>
<feBlend mode="normal" in2="effect2_dropShadow_301:2" result="effect3_dropShadow_301:2"/>
<feColorMatrix in="SourceAlpha" type="matrix" values="0 0 0 0 0 0 0 0 0 0 0 0 0 0 0 0 0 0 127 0" result="hardAlpha"/>
<feOffset dy="24"/>
<feGaussianBlur stdDeviation="16"/>
<feColorMatrix type="matrix" values="0 0 0 0 0 0 0 0 0 0 0 0 0 0 0 0 0 0 0.04 0"/>
<feBlend mode="normal" in2="effect3_dropShadow_301:2" result="effect4_dropShadow_301:2"/>
<feBlend mode="normal" in="SourceGraphic" in2="effect4_dropShadow_301:2" result="shape"/>
</filter>
</defs>
</svg>
