<svg width="821" height="518" viewBox="0 0 821 518" fill="none" xmlns="http://www.w3.org/2000/svg">
<g filter="url(#filter0_dddd_128:1056)">
<rect x="32" y="8" width="757" height="454" rx="12" fill="#F6F6F6"/>
</g>
<path d="M91.48 82.2H104.152V116.952H125.528V127H91.48V82.2ZM150.777 127.896C144.121 127.896 138.937 126.083 135.225 122.456C131.556 118.829 129.721 113.688 129.721 107.032V82.2H142.393V106.648C142.393 113.816 145.23 117.4 150.905 117.4C156.537 117.4 159.353 113.816 159.353 106.648V82.2H171.833V107.032C171.833 113.688 169.977 118.829 166.265 122.456C162.596 126.083 157.433 127.896 150.777 127.896ZM202.754 127.896C198.06 127.896 193.836 126.915 190.082 124.952C186.37 122.947 183.447 120.173 181.314 116.632C179.18 113.091 178.114 109.08 178.114 104.6C178.114 100.12 179.18 96.1093 181.314 92.568C183.447 89.0267 186.37 86.2747 190.082 84.312C193.836 82.3067 198.06 81.304 202.754 81.304C206.85 81.304 210.54 82.0293 213.826 83.48C217.111 84.9307 219.842 87.0213 222.018 89.752L213.954 97.048C211.052 93.5493 207.532 91.8 203.394 91.8C200.962 91.8 198.786 92.3333 196.866 93.4C194.988 94.4667 193.516 95.9813 192.45 97.944C191.426 99.864 190.914 102.083 190.914 104.6C190.914 107.117 191.426 109.357 192.45 111.32C193.516 113.24 194.988 114.733 196.866 115.8C198.786 116.867 200.962 117.4 203.394 117.4C207.532 117.4 211.052 115.651 213.954 112.152L222.018 119.448C219.842 122.179 217.111 124.269 213.826 125.72C210.54 127.171 206.85 127.896 202.754 127.896ZM247.84 127.896C241.184 127.896 236 126.083 232.288 122.456C228.618 118.829 226.784 113.688 226.784 107.032V82.2H239.456V106.648C239.456 113.816 242.293 117.4 247.968 117.4C253.6 117.4 256.416 113.816 256.416 106.648V82.2H268.896V107.032C268.896 113.688 267.04 118.829 263.328 122.456C259.658 126.083 254.496 127.896 247.84 127.896Z" fill="#FF734C"/>
<path d="M112.808 201H109.416L101.32 190.088L98.984 192.136V201H96.104V178.152H98.984V189.416C99.624 188.691 100.275 187.965 100.936 187.24C101.597 186.515 102.259 185.789 102.92 185.064L109.096 178.152H112.456L103.4 188.104L112.808 201ZM116.973 177.416C117.399 177.416 117.773 177.565 118.093 177.864C118.434 178.141 118.605 178.589 118.605 179.208C118.605 179.805 118.434 180.253 118.093 180.552C117.773 180.851 117.399 181 116.973 181C116.503 181 116.109 180.851 115.789 180.552C115.469 180.253 115.309 179.805 115.309 179.208C115.309 178.589 115.469 178.141 115.789 177.864C116.109 177.565 116.503 177.416 116.973 177.416ZM118.349 183.848V201H115.533V183.848H118.349ZM129.51 199.016C129.937 199.016 130.375 198.984 130.823 198.92C131.271 198.835 131.633 198.749 131.911 198.664V200.808C131.612 200.957 131.185 201.075 130.631 201.16C130.076 201.267 129.543 201.32 129.031 201.32C128.135 201.32 127.303 201.171 126.535 200.872C125.788 200.552 125.18 200.008 124.711 199.24C124.241 198.472 124.007 197.395 124.007 196.008V186.024H121.575V184.68L124.039 183.56L125.159 179.912H126.823V183.848H131.783V186.024H126.823V195.944C126.823 196.989 127.068 197.768 127.559 198.28C128.071 198.771 128.721 199.016 129.51 199.016ZM141.841 183.56C143.932 183.56 145.478 184.019 146.481 184.936C147.484 185.853 147.985 187.315 147.985 189.32V201H145.937L145.393 198.568H145.265C144.518 199.507 143.729 200.2 142.897 200.648C142.086 201.096 140.956 201.32 139.505 201.32C137.948 201.32 136.657 200.915 135.633 200.104C134.609 199.272 134.097 197.981 134.097 196.232C134.097 194.525 134.769 193.213 136.113 192.296C137.457 191.357 139.526 190.845 142.321 190.76L145.233 190.664V189.64C145.233 188.211 144.924 187.219 144.305 186.664C143.686 186.109 142.812 185.832 141.681 185.832C140.785 185.832 139.932 185.971 139.121 186.248C138.31 186.504 137.553 186.803 136.849 187.144L135.985 185.032C136.732 184.627 137.617 184.285 138.641 184.008C139.665 183.709 140.732 183.56 141.841 183.56ZM142.673 192.712C140.54 192.797 139.057 193.139 138.225 193.736C137.414 194.333 137.009 195.176 137.009 196.264C137.009 197.224 137.297 197.928 137.873 198.376C138.47 198.824 139.228 199.048 140.145 199.048C141.596 199.048 142.801 198.653 143.761 197.864C144.721 197.053 145.201 195.816 145.201 194.152V192.616L142.673 192.712ZM158.907 183.848H161.915L165.627 193.608C165.947 194.461 166.235 195.283 166.491 196.072C166.747 196.84 166.939 197.576 167.067 198.28H167.195C167.323 197.747 167.526 197.053 167.803 196.2C168.08 195.325 168.368 194.451 168.667 193.576L172.155 183.848H175.195L167.803 203.368C167.206 204.989 166.427 206.28 165.467 207.24C164.528 208.2 163.227 208.68 161.563 208.68C161.051 208.68 160.603 208.648 160.219 208.584C159.835 208.541 159.504 208.488 159.227 208.424V206.184C159.462 206.227 159.739 206.269 160.059 206.312C160.4 206.355 160.752 206.376 161.115 206.376C162.096 206.376 162.886 206.099 163.483 205.544C164.102 204.989 164.582 204.253 164.923 203.336L165.819 201.064L158.907 183.848ZM184.404 183.56C186.494 183.56 188.041 184.019 189.044 184.936C190.046 185.853 190.548 187.315 190.548 189.32V201H188.5L187.956 198.568H187.828C187.081 199.507 186.292 200.2 185.46 200.648C184.649 201.096 183.518 201.32 182.068 201.32C180.51 201.32 179.22 200.915 178.196 200.104C177.172 199.272 176.66 197.981 176.66 196.232C176.66 194.525 177.332 193.213 178.676 192.296C180.02 191.357 182.089 190.845 184.884 190.76L187.796 190.664V189.64C187.796 188.211 187.486 187.219 186.868 186.664C186.249 186.109 185.374 185.832 184.244 185.832C183.348 185.832 182.494 185.971 181.684 186.248C180.873 186.504 180.116 186.803 179.411 187.144L178.548 185.032C179.294 184.627 180.18 184.285 181.204 184.008C182.228 183.709 183.294 183.56 184.404 183.56ZM185.236 192.712C183.102 192.797 181.62 193.139 180.788 193.736C179.977 194.333 179.572 195.176 179.572 196.264C179.572 197.224 179.86 197.928 180.436 198.376C181.033 198.824 181.79 199.048 182.708 199.048C184.158 199.048 185.364 198.653 186.324 197.864C187.284 197.053 187.764 195.816 187.764 194.152V192.616L185.236 192.712ZM204.101 183.528C206.149 183.528 207.696 184.029 208.741 185.032C209.786 186.013 210.309 187.613 210.309 189.832V201H207.525V190.024C207.525 187.272 206.245 185.896 203.685 185.896C201.786 185.896 200.474 186.429 199.749 187.496C199.024 188.563 198.661 190.099 198.661 192.104V201H195.845V183.848H198.117L198.533 186.184H198.693C199.248 185.288 200.016 184.627 200.997 184.2C201.978 183.752 203.013 183.528 204.101 183.528ZM221.706 183.528C222.837 183.528 223.85 183.741 224.746 184.168C225.664 184.595 226.442 185.245 227.082 186.12H227.242L227.626 183.848H229.866V201.288C229.866 203.741 229.237 205.587 227.978 206.824C226.741 208.061 224.81 208.68 222.186 208.68C219.669 208.68 217.61 208.317 216.01 207.592V205C217.696 205.896 219.808 206.344 222.346 206.344C223.818 206.344 224.97 205.907 225.802 205.032C226.656 204.179 227.082 203.005 227.082 201.512V200.84C227.082 200.584 227.093 200.221 227.114 199.752C227.136 199.261 227.157 198.92 227.178 198.728H227.05C225.898 200.456 224.128 201.32 221.738 201.32C219.52 201.32 217.781 200.541 216.522 198.984C215.285 197.427 214.666 195.251 214.666 192.456C214.666 189.725 215.285 187.56 216.522 185.96C217.781 184.339 219.509 183.528 221.706 183.528ZM222.09 185.896C220.661 185.896 219.552 186.472 218.762 187.624C217.973 188.755 217.578 190.376 217.578 192.488C217.578 194.6 217.962 196.221 218.73 197.352C219.52 198.461 220.661 199.016 222.154 199.016C223.882 199.016 225.141 198.557 225.93 197.64C226.72 196.701 227.114 195.197 227.114 193.128V192.456C227.114 190.109 226.709 188.435 225.898 187.432C225.088 186.408 223.818 185.896 222.09 185.896ZM254.794 196.264C254.794 197.928 254.176 199.187 252.938 200.04C251.701 200.893 250.037 201.32 247.946 201.32C246.752 201.32 245.717 201.224 244.842 201.032C243.989 200.84 243.232 200.573 242.57 200.232V197.672C243.253 198.013 244.074 198.333 245.034 198.632C246.016 198.909 247.008 199.048 248.01 199.048C249.44 199.048 250.474 198.824 251.114 198.376C251.754 197.907 252.074 197.288 252.074 196.52C252.074 196.093 251.957 195.709 251.722 195.368C251.488 195.027 251.061 194.685 250.442 194.344C249.845 194.003 248.981 193.619 247.85 193.192C246.741 192.765 245.792 192.339 245.002 191.912C244.213 191.485 243.605 190.973 243.178 190.376C242.752 189.779 242.538 189.011 242.538 188.072C242.538 186.621 243.125 185.501 244.298 184.712C245.493 183.923 247.05 183.528 248.97 183.528C250.016 183.528 250.986 183.635 251.882 183.848C252.8 184.04 253.653 184.317 254.442 184.68L253.482 186.92C252.757 186.621 252 186.365 251.21 186.152C250.421 185.939 249.61 185.832 248.778 185.832C247.626 185.832 246.741 186.024 246.122 186.408C245.525 186.771 245.226 187.272 245.226 187.912C245.226 188.381 245.365 188.787 245.642 189.128C245.92 189.448 246.378 189.768 247.018 190.088C247.68 190.387 248.554 190.749 249.642 191.176C250.73 191.581 251.658 191.997 252.426 192.424C253.194 192.851 253.781 193.373 254.186 193.992C254.592 194.589 254.794 195.347 254.794 196.264ZM273.275 183.848V201H270.971L270.555 198.728H270.427C269.872 199.624 269.104 200.285 268.123 200.712C267.141 201.117 266.096 201.32 264.987 201.32C262.917 201.32 261.36 200.829 260.315 199.848C259.269 198.845 258.747 197.256 258.747 195.08V183.848H261.595V194.888C261.595 197.619 262.864 198.984 265.403 198.984C267.301 198.984 268.613 198.451 269.339 197.384C270.085 196.317 270.459 194.781 270.459 192.776V183.848H273.275ZM281.504 189.384C281.504 189.725 281.483 190.173 281.44 190.728C281.419 191.283 281.397 191.763 281.376 192.168H281.504C281.632 191.997 281.824 191.752 282.08 191.432C282.336 191.112 282.592 190.792 282.848 190.472C283.125 190.131 283.36 189.853 283.552 189.64L289.024 183.848H292.32L285.376 191.176L292.8 201H289.408L283.456 193L281.504 194.696V201H278.72V176.68H281.504V189.384ZM302.31 183.56C304.4 183.56 305.947 184.019 306.95 184.936C307.952 185.853 308.454 187.315 308.454 189.32V201H306.406L305.862 198.568H305.734C304.987 199.507 304.198 200.2 303.366 200.648C302.555 201.096 301.424 201.32 299.974 201.32C298.416 201.32 297.126 200.915 296.102 200.104C295.078 199.272 294.566 197.981 294.566 196.232C294.566 194.525 295.238 193.213 296.582 192.296C297.926 191.357 299.995 190.845 302.79 190.76L305.702 190.664V189.64C305.702 188.211 305.392 187.219 304.774 186.664C304.155 186.109 303.28 185.832 302.15 185.832C301.254 185.832 300.4 185.971 299.59 186.248C298.779 186.504 298.022 186.803 297.318 187.144L296.454 185.032C297.2 184.627 298.086 184.285 299.11 184.008C300.134 183.709 301.2 183.56 302.31 183.56ZM303.142 192.712C301.008 192.797 299.526 193.139 298.694 193.736C297.883 194.333 297.478 195.176 297.478 196.264C297.478 197.224 297.766 197.928 298.342 198.376C298.939 198.824 299.696 199.048 300.614 199.048C302.064 199.048 303.27 198.653 304.23 197.864C305.19 197.053 305.67 195.816 305.67 194.152V192.616L303.142 192.712ZM324.88 182.6C324.88 183.325 324.858 184.008 324.816 184.648C324.794 185.267 324.762 185.757 324.72 186.12H324.88C325.37 185.395 326.042 184.787 326.896 184.296C327.749 183.805 328.848 183.56 330.192 183.56C332.325 183.56 334.032 184.307 335.312 185.8C336.613 187.272 337.264 189.48 337.264 192.424C337.264 195.368 336.613 197.587 335.312 199.08C334.01 200.573 332.304 201.32 330.192 201.32C328.848 201.32 327.749 201.075 326.896 200.584C326.042 200.093 325.37 199.507 324.88 198.824H324.656L324.08 201H322.064V176.68H324.88V182.6ZM329.712 185.896C327.898 185.896 326.64 186.419 325.936 187.464C325.232 188.509 324.88 190.131 324.88 192.328V192.456C324.88 194.568 325.221 196.189 325.904 197.32C326.608 198.429 327.898 198.984 329.776 198.984C331.312 198.984 332.453 198.419 333.2 197.288C333.968 196.157 334.352 194.525 334.352 192.392C334.352 188.061 332.805 185.896 329.712 185.896ZM348.375 183.528C349.847 183.528 351.106 183.848 352.151 184.488C353.218 185.128 354.029 186.035 354.583 187.208C355.159 188.36 355.447 189.715 355.447 191.272V192.968H343.703C343.746 194.909 344.237 196.392 345.175 197.416C346.135 198.419 347.469 198.92 349.175 198.92C350.263 198.92 351.223 198.824 352.055 198.632C352.909 198.419 353.783 198.12 354.679 197.736V200.2C353.805 200.584 352.941 200.861 352.087 201.032C351.234 201.224 350.221 201.32 349.047 201.32C347.426 201.32 345.986 200.989 344.727 200.328C343.49 199.667 342.519 198.685 341.815 197.384C341.133 196.061 340.791 194.451 340.791 192.552C340.791 190.675 341.101 189.064 341.719 187.72C342.359 186.376 343.245 185.341 344.375 184.616C345.527 183.891 346.861 183.528 348.375 183.528ZM348.343 185.832C346.999 185.832 345.933 186.269 345.143 187.144C344.375 187.997 343.917 189.192 343.767 190.728H352.503C352.482 189.277 352.141 188.104 351.479 187.208C350.818 186.291 349.773 185.832 348.343 185.832ZM367.814 183.528C368.134 183.528 368.475 183.549 368.838 183.592C369.222 183.613 369.552 183.656 369.83 183.72L369.478 186.312C369.2 186.248 368.891 186.195 368.55 186.152C368.23 186.109 367.92 186.088 367.622 186.088C366.747 186.088 365.926 186.333 365.158 186.824C364.39 187.293 363.771 187.965 363.302 188.84C362.854 189.693 362.63 190.696 362.63 191.848V201H359.814V183.848H362.118L362.438 186.984H362.566C363.12 186.045 363.835 185.235 364.71 184.552C365.584 183.869 366.619 183.528 367.814 183.528ZM379.288 201.32C377.773 201.32 376.418 201.011 375.224 200.392C374.05 199.773 373.122 198.813 372.44 197.512C371.778 196.211 371.448 194.547 371.448 192.52C371.448 190.408 371.8 188.691 372.504 187.368C373.208 186.045 374.157 185.075 375.352 184.456C376.568 183.837 377.944 183.528 379.48 183.528C380.354 183.528 381.197 183.624 382.008 183.816C382.818 183.987 383.48 184.2 383.992 184.456L383.128 186.792C382.616 186.6 382.018 186.419 381.336 186.248C380.653 186.077 380.013 185.992 379.416 185.992C376.045 185.992 374.36 188.157 374.36 192.488C374.36 194.557 374.765 196.147 375.576 197.256C376.408 198.344 377.634 198.888 379.256 198.888C380.194 198.888 381.016 198.792 381.72 198.6C382.445 198.408 383.106 198.173 383.704 197.896V200.392C383.128 200.691 382.488 200.915 381.784 201.064C381.101 201.235 380.269 201.32 379.288 201.32ZM394.279 183.56C396.369 183.56 397.916 184.019 398.919 184.936C399.921 185.853 400.423 187.315 400.423 189.32V201H398.375L397.831 198.568H397.703C396.956 199.507 396.167 200.2 395.335 200.648C394.524 201.096 393.393 201.32 391.943 201.32C390.385 201.32 389.095 200.915 388.071 200.104C387.047 199.272 386.535 197.981 386.535 196.232C386.535 194.525 387.207 193.213 388.551 192.296C389.895 191.357 391.964 190.845 394.759 190.76L397.671 190.664V189.64C397.671 188.211 397.361 187.219 396.743 186.664C396.124 186.109 395.249 185.832 394.119 185.832C393.223 185.832 392.369 185.971 391.559 186.248C390.748 186.504 389.991 186.803 389.286 187.144L388.423 185.032C389.169 184.627 390.055 184.285 391.079 184.008C392.103 183.709 393.169 183.56 394.279 183.56ZM395.111 192.712C392.977 192.797 391.495 193.139 390.663 193.736C389.852 194.333 389.447 195.176 389.447 196.264C389.447 197.224 389.735 197.928 390.311 198.376C390.908 198.824 391.665 199.048 392.583 199.048C394.033 199.048 395.239 198.653 396.199 197.864C397.159 197.053 397.639 195.816 397.639 194.152V192.616L395.111 192.712ZM413.976 183.528C416.024 183.528 417.571 184.029 418.616 185.032C419.661 186.013 420.184 187.613 420.184 189.832V201H417.4V190.024C417.4 187.272 416.12 185.896 413.56 185.896C411.661 185.896 410.349 186.429 409.624 187.496C408.899 188.563 408.536 190.099 408.536 192.104V201H405.72V183.848H407.992L408.408 186.184H408.568C409.123 185.288 409.891 184.627 410.872 184.2C411.853 183.752 412.888 183.528 413.976 183.528ZM431.581 201.32C429.448 201.32 427.741 200.584 426.461 199.112C425.181 197.619 424.541 195.4 424.541 192.456C424.541 189.512 425.181 187.293 426.461 185.8C427.763 184.285 429.48 183.528 431.613 183.528C432.936 183.528 434.013 183.773 434.845 184.264C435.699 184.755 436.392 185.352 436.925 186.056H437.117C437.096 185.779 437.053 185.373 436.989 184.84C436.947 184.285 436.925 183.848 436.925 183.528V176.68H439.741V201H437.469L437.053 198.696H436.925C436.413 199.421 435.731 200.04 434.877 200.552C434.024 201.064 432.925 201.32 431.581 201.32ZM432.029 198.984C433.843 198.984 435.112 198.493 435.837 197.512C436.584 196.509 436.957 195.005 436.957 193V192.488C436.957 190.355 436.605 188.723 435.901 187.592C435.197 186.44 433.896 185.864 431.997 185.864C430.483 185.864 429.341 186.472 428.573 187.688C427.827 188.883 427.453 190.493 427.453 192.52C427.453 194.568 427.827 196.157 428.573 197.288C429.341 198.419 430.493 198.984 432.029 198.984ZM451.685 183.56C453.775 183.56 455.322 184.019 456.325 184.936C457.327 185.853 457.829 187.315 457.829 189.32V201H455.781L455.237 198.568H455.109C454.362 199.507 453.573 200.2 452.741 200.648C451.93 201.096 450.799 201.32 449.349 201.32C447.791 201.32 446.501 200.915 445.477 200.104C444.453 199.272 443.941 197.981 443.941 196.232C443.941 194.525 444.613 193.213 445.957 192.296C447.301 191.357 449.37 190.845 452.165 190.76L455.077 190.664V189.64C455.077 188.211 454.767 187.219 454.149 186.664C453.53 186.109 452.655 185.832 451.525 185.832C450.629 185.832 449.775 185.971 448.965 186.248C448.154 186.504 447.397 186.803 446.693 187.144L445.829 185.032C446.575 184.627 447.461 184.285 448.485 184.008C449.509 183.709 450.575 183.56 451.685 183.56ZM452.517 192.712C450.383 192.797 448.901 193.139 448.069 193.736C447.258 194.333 446.853 195.176 446.853 196.264C446.853 197.224 447.141 197.928 447.717 198.376C448.314 198.824 449.071 199.048 449.989 199.048C451.439 199.048 452.645 198.653 453.605 197.864C454.565 197.053 455.045 195.816 455.045 194.152V192.616L452.517 192.712ZM101.8 245.32C99.6667 245.32 97.96 244.584 96.68 243.112C95.4 241.619 94.76 239.4 94.76 236.456C94.76 233.512 95.4 231.293 96.68 229.8C97.9813 228.285 99.6987 227.528 101.832 227.528C103.155 227.528 104.232 227.773 105.064 228.264C105.917 228.755 106.611 229.352 107.144 230.056H107.336C107.315 229.779 107.272 229.373 107.208 228.84C107.165 228.285 107.144 227.848 107.144 227.528V220.68H109.96V245H107.688L107.272 242.696H107.144C106.632 243.421 105.949 244.04 105.096 244.552C104.243 245.064 103.144 245.32 101.8 245.32ZM102.248 242.984C104.061 242.984 105.331 242.493 106.056 241.512C106.803 240.509 107.176 239.005 107.176 237V236.488C107.176 234.355 106.824 232.723 106.12 231.592C105.416 230.44 104.115 229.864 102.216 229.864C100.701 229.864 99.56 230.472 98.792 231.688C98.0453 232.883 97.672 234.493 97.672 236.52C97.672 238.568 98.0453 240.157 98.792 241.288C99.56 242.419 100.712 242.984 102.248 242.984ZM121.904 227.56C123.994 227.56 125.541 228.019 126.544 228.936C127.546 229.853 128.048 231.315 128.048 233.32V245H126L125.456 242.568H125.328C124.581 243.507 123.792 244.2 122.96 244.648C122.149 245.096 121.018 245.32 119.568 245.32C118.01 245.32 116.72 244.915 115.696 244.104C114.672 243.272 114.16 241.981 114.16 240.232C114.16 238.525 114.832 237.213 116.176 236.296C117.52 235.357 119.589 234.845 122.384 234.76L125.296 234.664V233.64C125.296 232.211 124.986 231.219 124.368 230.664C123.749 230.109 122.874 229.832 121.744 229.832C120.848 229.832 119.994 229.971 119.184 230.248C118.373 230.504 117.616 230.803 116.911 231.144L116.048 229.032C116.794 228.627 117.68 228.285 118.704 228.008C119.728 227.709 120.794 227.56 121.904 227.56ZM122.736 236.712C120.602 236.797 119.12 237.139 118.288 237.736C117.477 238.333 117.072 239.176 117.072 240.264C117.072 241.224 117.36 241.928 117.936 242.376C118.533 242.824 119.29 243.048 120.208 243.048C121.658 243.048 122.864 242.653 123.824 241.864C124.784 241.053 125.264 239.816 125.264 238.152V236.616L122.736 236.712ZM141.601 227.528C143.649 227.528 145.196 228.029 146.241 229.032C147.286 230.013 147.809 231.613 147.809 233.832V245H145.025V234.024C145.025 231.272 143.745 229.896 141.185 229.896C139.286 229.896 137.974 230.429 137.249 231.496C136.524 232.563 136.161 234.099 136.161 236.104V245H133.345V227.848H135.617L136.033 230.184H136.193C136.748 229.288 137.516 228.627 138.497 228.2C139.478 227.752 140.513 227.528 141.601 227.528ZM162.879 221.416C163.305 221.416 163.679 221.565 163.999 221.864C164.34 222.141 164.511 222.589 164.511 223.208C164.511 223.805 164.34 224.253 163.999 224.552C163.679 224.851 163.305 225 162.879 225C162.409 225 162.015 224.851 161.695 224.552C161.375 224.253 161.215 223.805 161.215 223.208C161.215 222.589 161.375 222.141 161.695 221.864C162.015 221.565 162.409 221.416 162.879 221.416ZM164.255 227.848V245H161.439V227.848H164.255ZM177.945 227.528C179.993 227.528 181.539 228.029 182.585 229.032C183.63 230.013 184.153 231.613 184.153 233.832V245H181.369V234.024C181.369 231.272 180.089 229.896 177.529 229.896C175.63 229.896 174.318 230.429 173.593 231.496C172.867 232.563 172.505 234.099 172.505 236.104V245H169.689V227.848H171.961L172.377 230.184H172.537C173.091 229.288 173.859 228.627 174.841 228.2C175.822 227.752 176.857 227.528 177.945 227.528ZM195.55 227.528C196.681 227.528 197.694 227.741 198.59 228.168C199.507 228.595 200.286 229.245 200.926 230.12H201.086L201.47 227.848H203.71V245.288C203.71 247.741 203.081 249.587 201.822 250.824C200.585 252.061 198.654 252.68 196.03 252.68C193.513 252.68 191.454 252.317 189.854 251.592V249C191.539 249.896 193.651 250.344 196.19 250.344C197.662 250.344 198.814 249.907 199.646 249.032C200.499 248.179 200.926 247.005 200.926 245.512V244.84C200.926 244.584 200.937 244.221 200.958 243.752C200.979 243.261 201.001 242.92 201.022 242.728H200.894C199.742 244.456 197.971 245.32 195.582 245.32C193.363 245.32 191.625 244.541 190.366 242.984C189.129 241.427 188.51 239.251 188.51 236.456C188.51 233.725 189.129 231.56 190.366 229.96C191.625 228.339 193.353 227.528 195.55 227.528ZM195.934 229.896C194.505 229.896 193.395 230.472 192.606 231.624C191.817 232.755 191.422 234.376 191.422 236.488C191.422 238.6 191.806 240.221 192.574 241.352C193.363 242.461 194.505 243.016 195.998 243.016C197.726 243.016 198.985 242.557 199.774 241.64C200.563 240.701 200.958 239.197 200.958 237.128V236.456C200.958 234.109 200.553 232.435 199.742 231.432C198.931 230.408 197.662 229.896 195.934 229.896ZM210.598 221.416C211.024 221.416 211.398 221.565 211.718 221.864C212.059 222.141 212.23 222.589 212.23 223.208C212.23 223.805 212.059 224.253 211.718 224.552C211.398 224.851 211.024 225 210.598 225C210.128 225 209.734 224.851 209.414 224.552C209.094 224.253 208.934 223.805 208.934 223.208C208.934 222.589 209.094 222.141 209.414 221.864C209.734 221.565 210.128 221.416 210.598 221.416ZM211.974 227.848V245H209.158V227.848H211.974ZM225.664 227.528C227.712 227.528 229.258 228.029 230.304 229.032C231.349 230.013 231.872 231.613 231.872 233.832V245H229.088V234.024C229.088 231.272 227.808 229.896 225.248 229.896C223.349 229.896 222.037 230.429 221.312 231.496C220.586 232.563 220.224 234.099 220.224 236.104V245H217.408V227.848H219.68L220.096 230.184H220.256C220.81 229.288 221.578 228.627 222.56 228.2C223.541 227.752 224.576 227.528 225.664 227.528ZM248.317 245H245.501V220.68H248.317V245ZM260.375 227.528C261.847 227.528 263.106 227.848 264.151 228.488C265.218 229.128 266.029 230.035 266.583 231.208C267.159 232.36 267.447 233.715 267.447 235.272V236.968H255.703C255.746 238.909 256.237 240.392 257.175 241.416C258.135 242.419 259.469 242.92 261.175 242.92C262.263 242.92 263.223 242.824 264.055 242.632C264.909 242.419 265.783 242.12 266.679 241.736V244.2C265.805 244.584 264.941 244.861 264.087 245.032C263.234 245.224 262.221 245.32 261.047 245.32C259.426 245.32 257.986 244.989 256.727 244.328C255.49 243.667 254.519 242.685 253.815 241.384C253.133 240.061 252.791 238.451 252.791 236.552C252.791 234.675 253.101 233.064 253.719 231.72C254.359 230.376 255.245 229.341 256.375 228.616C257.527 227.891 258.861 227.528 260.375 227.528ZM260.343 229.832C258.999 229.832 257.933 230.269 257.143 231.144C256.375 231.997 255.917 233.192 255.767 234.728H264.503C264.482 233.277 264.141 232.104 263.479 231.208C262.818 230.291 261.773 229.832 260.343 229.832ZM274.63 226.6C274.63 227.325 274.608 228.008 274.566 228.648C274.544 229.267 274.512 229.757 274.47 230.12H274.63C275.12 229.395 275.792 228.787 276.646 228.296C277.499 227.805 278.598 227.56 279.942 227.56C282.075 227.56 283.782 228.307 285.062 229.8C286.363 231.272 287.014 233.48 287.014 236.424C287.014 239.368 286.363 241.587 285.062 243.08C283.76 244.573 282.054 245.32 279.942 245.32C278.598 245.32 277.499 245.075 276.646 244.584C275.792 244.093 275.12 243.507 274.63 242.824H274.406L273.83 245H271.814V220.68H274.63V226.6ZM279.462 229.896C277.648 229.896 276.39 230.419 275.686 231.464C274.982 232.509 274.63 234.131 274.63 236.328V236.456C274.63 238.568 274.971 240.189 275.654 241.32C276.358 242.429 277.648 242.984 279.526 242.984C281.062 242.984 282.203 242.419 282.95 241.288C283.718 240.157 284.102 238.525 284.102 236.392C284.102 232.061 282.555 229.896 279.462 229.896ZM292.941 221.416C293.368 221.416 293.741 221.565 294.061 221.864C294.403 222.141 294.573 222.589 294.573 223.208C294.573 223.805 294.403 224.253 294.061 224.552C293.741 224.851 293.368 225 292.941 225C292.472 225 292.077 224.851 291.757 224.552C291.437 224.253 291.277 223.805 291.277 223.208C291.277 222.589 291.437 222.141 291.757 221.864C292.077 221.565 292.472 221.416 292.941 221.416ZM294.317 227.848V245H291.501V227.848H294.317ZM302.567 227.816C302.567 228.669 302.514 229.469 302.407 230.216H302.599C303.154 229.341 303.901 228.68 304.839 228.232C305.799 227.784 306.834 227.56 307.943 227.56C310.034 227.56 311.602 228.061 312.647 229.064C313.693 230.045 314.215 231.635 314.215 233.832V245H311.431V234.024C311.431 231.272 310.151 229.896 307.591 229.896C305.671 229.896 304.349 230.44 303.623 231.528C302.919 232.595 302.567 234.131 302.567 236.136V245H299.751V220.68H302.567V227.816Z" fill="black"/>
<mask id="mask0_128:1056" style="mask-type:alpha" maskUnits="userSpaceOnUse" x="32" y="8" width="757" height="454">
<rect x="32" y="8" width="757" height="454" rx="12" fill="#F6F6F6"/>
</mask>
<g mask="url(#mask0_128:1056)">
<path d="M550.23 284.947L512.59 263.216L490.858 300.856L528.498 322.587L550.23 284.947Z" fill="#CCCCCC"/>
<path d="M743.443 265.81C761.078 265.81 775.375 251.514 775.375 233.878C775.375 216.243 761.078 201.946 743.443 201.946C725.807 201.946 711.511 216.243 711.511 233.878C711.511 251.514 725.807 265.81 743.443 265.81Z" fill="#FF734C"/>
<path d="M723.918 189.6C727.898 199.359 738.027 204.455 738.027 204.455C738.027 204.455 741.703 193.728 737.723 183.969C733.743 174.21 723.614 169.114 723.614 169.114C723.614 169.114 719.938 179.841 723.918 189.6Z" fill="#3F3D56"/>
<path d="M727.662 186.933C736.06 193.302 738.362 204.405 738.362 204.405C738.362 204.405 727.05 205.181 718.653 198.812C710.256 192.443 707.953 181.34 707.953 181.34C707.953 181.34 719.265 180.564 727.662 186.933Z" fill="#FF734C"/>
<path d="M739.625 184.021C735.725 193.812 739.489 204.508 739.489 204.508C739.489 204.508 749.575 199.329 753.475 189.538C757.375 179.747 753.612 169.051 753.612 169.051C753.612 169.051 743.525 174.23 739.625 184.021Z" fill="#3F3D56"/>
<path d="M744.172 184.697C745.805 195.11 739.765 204.705 739.765 204.705C739.765 204.705 731.077 197.42 729.443 187.008C727.81 176.596 733.85 167 733.85 167C733.85 167 742.539 174.285 744.172 184.697Z" fill="#FF734C"/>
<path d="M741.687 246.93C750.749 246.93 758.096 239.583 758.096 230.521C758.096 221.458 750.749 214.111 741.687 214.111C732.624 214.111 725.277 221.458 725.277 230.521C725.277 239.583 732.624 246.93 741.687 246.93Z" fill="#F2F2F2"/>
<path d="M734.794 231.266C737.733 231.266 740.116 228.883 740.116 225.944C740.116 223.005 737.733 220.622 734.794 220.622C731.854 220.622 729.472 223.005 729.472 225.944C729.472 228.883 731.854 231.266 734.794 231.266Z" fill="#3F3D56"/>
<path d="M790.192 430.829C788.262 430.829 786.375 430.257 784.771 429.185C783.166 428.113 781.916 426.589 781.177 424.806C780.439 423.023 780.246 421.062 780.622 419.169C780.999 417.276 781.928 415.538 783.292 414.173C784.657 412.809 786.395 411.879 788.288 411.503C790.181 411.126 792.143 411.32 793.925 412.058C795.708 412.797 797.232 414.047 798.304 415.652C799.376 417.256 799.949 419.143 799.949 421.072C799.946 423.659 798.917 426.139 797.088 427.968C795.258 429.798 792.778 430.826 790.192 430.829ZM790.192 412.202C788.437 412.202 786.722 412.723 785.264 413.697C783.805 414.672 782.668 416.057 781.997 417.678C781.325 419.299 781.15 421.082 781.492 422.803C781.834 424.523 782.679 426.104 783.92 427.344C785.16 428.585 786.74 429.43 788.461 429.772C790.182 430.114 791.965 429.939 793.586 429.267C795.207 428.596 796.592 427.459 797.567 426C798.541 424.542 799.062 422.827 799.062 421.072C799.059 418.721 798.124 416.466 796.461 414.803C794.798 413.14 792.543 412.205 790.192 412.202Z" fill="#3F3D56"/>
<path d="M529.414 330.155C527.484 330.155 525.598 329.582 523.994 328.51C522.389 327.438 521.138 325.914 520.4 324.131C519.661 322.349 519.468 320.387 519.845 318.494C520.221 316.601 521.15 314.863 522.515 313.498C523.88 312.134 525.618 311.205 527.511 310.828C529.403 310.452 531.365 310.645 533.148 311.383C534.931 312.122 536.455 313.372 537.527 314.977C538.599 316.581 539.171 318.468 539.171 320.398C539.168 322.984 538.139 325.464 536.31 327.294C534.481 329.123 532.001 330.152 529.414 330.155ZM529.414 311.528C527.66 311.528 525.945 312.048 524.486 313.022C523.028 313.997 521.891 315.382 521.219 317.003C520.548 318.624 520.372 320.407 520.715 322.128C521.057 323.849 521.902 325.429 523.142 326.67C524.383 327.91 525.963 328.755 527.684 329.097C529.404 329.439 531.188 329.264 532.809 328.592C534.429 327.921 535.815 326.784 536.789 325.325C537.764 323.867 538.284 322.152 538.284 320.398C538.282 318.046 537.346 315.791 535.683 314.128C534.02 312.466 531.766 311.53 529.414 311.528Z" fill="#3F3D56"/>
<path d="M763.821 238.633L711.941 296.536C714.731 298.7 717.044 301.415 718.739 304.513C720.433 307.61 721.472 311.023 721.79 314.539C722.108 318.055 721.698 321.599 720.587 324.95C719.476 328.301 717.686 331.387 715.331 334.016C712.975 336.646 710.103 338.762 706.894 340.233C703.684 341.704 700.206 342.499 696.677 342.568C693.147 342.636 689.641 341.977 686.377 340.632C683.113 339.287 680.161 337.284 677.704 334.748L605.439 415.404C626.275 431.597 651.92 440.369 678.308 440.33C744.019 440.33 797.288 387.061 797.288 321.35C797.327 290.472 785.321 260.796 763.821 238.633Z" fill="#CCCCCC"/>
<path d="M697.057 333.703C705.629 333.703 712.579 326.753 712.579 318.181C712.579 309.608 705.629 302.658 697.057 302.658C688.484 302.658 681.534 309.608 681.534 318.181C681.534 326.753 688.484 333.703 697.057 333.703Z" fill="#CCCCCC"/>
<path d="M615.882 213.9C624.156 213.9 630.864 207.192 630.864 198.918C630.864 190.644 624.156 183.937 615.882 183.937C607.608 183.937 600.9 190.644 600.9 198.918C600.9 207.192 607.608 213.9 615.882 213.9Z" fill="#2F2E41"/>
<path d="M587.709 304.809L591.185 372.582C591.185 372.582 590.605 421.239 594.081 421.819C597.556 422.398 603.928 426.453 605.666 423.556C607.404 420.66 616.093 331.454 616.093 331.454C616.093 331.454 618.41 424.136 625.361 424.715C632.312 425.294 640.421 421.819 641.58 422.398C642.739 422.977 642.159 306.546 642.159 306.546L587.709 304.809Z" fill="#2F2E41"/>
<path d="M598.136 421.24C598.136 421.24 594.081 421.24 592.922 422.978C591.764 424.715 587.709 433.404 587.709 433.404C587.709 433.404 580.179 440.319 588.288 440.898C596.398 441.478 600.453 439.776 600.453 438.617C600.453 437.459 600.453 434.563 602.19 433.983C603.928 433.404 605.666 430.508 605.666 429.349C605.666 428.191 603.928 420.66 598.136 421.24Z" fill="#2F2E41"/>
<path d="M629.415 421.819C629.415 421.819 626.519 433.404 629.415 433.984C632.311 434.563 634.049 435.721 634.629 437.459C635.208 439.197 641 441.206 645.634 440.627C650.269 440.048 652.586 436.88 650.848 435.142C649.11 433.404 640.421 423.557 639.842 421.819C639.263 420.081 629.415 421.819 629.415 421.819Z" fill="#2F2E41"/>
<path d="M609.141 209.81C609.141 209.81 607.983 218.499 605.666 219.658C603.349 220.816 606.824 227.188 606.824 227.188L617.251 228.926L626.519 221.395C626.519 221.395 624.781 210.389 624.781 209.81C624.781 209.231 609.141 209.81 609.141 209.81Z" fill="#9F616A"/>
<path opacity="0.1" d="M609.141 209.81C609.141 209.81 607.983 218.499 605.666 219.658C603.349 220.816 606.824 227.188 606.824 227.188L617.251 228.926L626.519 221.395C626.519 221.395 624.781 210.389 624.781 209.81C624.781 209.231 609.141 209.81 609.141 209.81Z" fill="black"/>
<path d="M615.513 217.341C623.191 217.341 629.415 211.117 629.415 203.439C629.415 195.761 623.191 189.537 615.513 189.537C607.835 189.537 601.61 195.761 601.61 203.439C601.61 211.117 607.835 217.341 615.513 217.341Z" fill="#9F616A"/>
<path d="M615.223 226.899C615.223 226.899 609.431 217.051 606.534 217.631C603.638 218.21 594.66 219.658 593.501 219.079C592.343 218.499 584.812 245.145 584.812 245.145C584.812 245.145 576.703 297.858 581.916 304.23C587.129 310.602 605.086 307.126 607.403 313.498C609.72 319.87 646.214 310.022 646.214 306.547C646.214 303.071 646.793 249.779 647.372 245.725C647.951 241.67 642.159 220.237 642.159 220.237C642.159 220.237 628.546 216.472 626.229 217.631C623.912 218.789 622.754 222.265 615.223 226.899Z" fill="#575A88"/>
<path d="M594.659 220.817L593.501 219.079C593.501 219.079 581.336 220.817 577.861 220.238C574.385 219.659 563.959 220.817 563.959 220.817C563.959 220.817 566.276 214.445 568.593 213.866C570.91 213.287 573.806 211.549 573.806 211.549C573.806 211.549 568.013 202.86 573.806 199.964C573.806 199.964 547.16 210.391 545.422 220.238C543.684 230.085 585.97 245.146 585.97 245.146L594.659 220.817Z" fill="#575A88"/>
<path d="M637.524 221.396L642.158 220.237L665.329 222.554L657.798 214.445C657.798 214.445 662.433 208.652 659.536 205.756C659.536 205.756 690.237 217.341 686.761 224.871C683.286 232.402 646.793 245.725 645.055 246.304C643.317 246.883 637.524 221.396 637.524 221.396Z" fill="#575A88"/>
<path d="M576.962 201.523C578.396 201.808 579.621 202.704 580.795 203.576C581.932 204.388 583.023 205.265 584.063 206.2C589.331 211.125 591.267 218.556 592.943 225.571C591.75 226.576 589.802 225.74 589.002 224.401C588.201 223.062 588.146 221.427 587.831 219.899C587.516 218.372 586.747 216.73 585.261 216.257C585.573 217.227 584.819 218.28 583.875 218.666C582.932 219.051 581.87 218.944 580.857 218.832C580.386 218.806 579.923 218.7 579.487 218.52C578.701 218.139 578.242 217.322 577.814 216.561C576.699 214.577 575.473 212.658 574.141 210.813C573.839 210.336 573.445 209.924 572.983 209.601C571.127 208.468 569.135 206.987 570.059 204.298C570.821 202.078 574.938 201.121 576.962 201.523Z" fill="#9F616A"/>
<path d="M653.978 204.971C651.893 205.075 650.096 206.432 648.569 207.855C642.18 213.854 638.066 221.881 636.928 230.57C636.853 231.153 636.83 231.839 637.276 232.221C637.778 232.65 638.605 232.396 639.017 231.88C639.378 231.325 639.604 230.692 639.677 230.033C640.082 228.063 640.773 226.163 641.728 224.393C642.217 223.486 642.898 222.53 643.917 222.369C645.434 222.13 646.568 223.737 648.018 224.246C649.728 224.846 651.644 223.771 652.684 222.286C653.724 220.801 654.13 218.981 654.703 217.261C655.276 215.541 656.126 213.777 657.689 212.86C659.353 211.883 663.186 211.205 661.561 208.464C660.38 206.472 656.16 204.862 653.978 204.971Z" fill="#9F616A"/>
<path d="M600.455 195.747C600.455 195.747 596.761 186.141 602.118 183.001L603.596 187.25C603.596 187.25 617.08 179.122 620.589 180.969L617.264 185.403C617.264 185.403 632.965 185.403 634.073 191.498L628.532 191.683C628.532 191.683 634.443 195.562 634.628 201.842L622.806 202.581L628.532 205.906C628.532 205.906 607.105 208.861 601.933 200.364L600.455 195.747Z" fill="#2F2E41"/>
<path d="M564.828 206.625L573.517 199.674C573.517 199.674 570.62 208.363 573.517 211.259L562.511 213.576L564.828 206.625Z" fill="#575A88"/>
<path d="M666.198 210.679L658.668 204.887C658.668 204.887 659.826 212.417 657.509 214.155C655.192 215.893 663.881 216.472 663.881 216.472L666.198 210.679Z" fill="#575A88"/>
<path d="M490.668 456.349C508.304 456.349 522.6 442.053 522.6 424.417C522.6 406.782 508.304 392.485 490.668 392.485C473.033 392.485 458.736 406.782 458.736 424.417C458.736 442.053 473.033 456.349 490.668 456.349Z" fill="#FF734C"/>
<path d="M460.364 386.688C466.731 395.087 477.833 397.392 477.833 397.392C477.833 397.392 478.612 386.081 472.246 377.681C465.879 369.282 454.777 366.977 454.777 366.977C454.777 366.977 453.998 378.288 460.364 386.688Z" fill="#3F3D56"/>
<path d="M463.293 383.144C473.051 387.127 478.144 397.258 478.144 397.258C478.144 397.258 467.417 400.931 457.659 396.948C447.901 392.965 442.808 382.834 442.808 382.834C442.808 382.834 453.535 379.161 463.293 383.144Z" fill="#FF734C"/>
<path d="M474.095 377.24C472.858 387.707 479.258 397.067 479.258 397.067C479.258 397.067 487.664 389.457 488.901 378.991C490.138 368.524 483.739 359.164 483.739 359.164C483.739 359.164 475.333 366.774 474.095 377.24Z" fill="#3F3D56"/>
<path d="M478.664 376.718C482.933 386.355 479.577 397.186 479.577 397.186C479.577 397.186 469.301 392.393 465.033 382.756C460.764 373.12 464.12 362.289 464.12 362.289C464.12 362.289 474.396 367.082 478.664 376.718Z" fill="#FF734C"/>
<path d="M478.346 442.472C487.409 442.472 494.755 435.125 494.755 426.063C494.755 417 487.409 409.653 478.346 409.653C469.283 409.653 461.937 417 461.937 426.063C461.937 435.125 469.283 442.472 478.346 442.472Z" fill="#F2F2F2"/>
<path d="M472.122 436.592C475.061 436.592 477.444 434.209 477.444 431.27C477.444 428.331 475.061 425.948 472.122 425.948C469.183 425.948 466.8 428.331 466.8 431.27C466.8 434.209 469.183 436.592 472.122 436.592Z" fill="#3F3D56"/>
<path d="M616.34 441.473C633.976 441.473 648.272 427.177 648.272 409.541C648.272 391.906 633.976 377.609 616.34 377.609C598.705 377.609 584.408 391.906 584.408 409.541C584.408 427.177 598.705 441.473 616.34 441.473Z" fill="#FF734C"/>
<path d="M602.398 363.201C605.15 373.374 614.577 379.675 614.577 379.675C614.577 379.675 619.541 369.481 616.789 359.308C614.037 349.134 604.61 342.833 604.61 342.833C604.61 342.833 599.645 353.027 602.398 363.201Z" fill="#3F3D56"/>
<path d="M606.442 361.015C613.994 368.366 614.917 379.667 614.917 379.667C614.917 379.667 603.595 379.049 596.043 371.698C588.491 364.346 587.568 353.045 587.568 353.045C587.568 353.045 598.89 353.663 606.442 361.015Z" fill="#FF734C"/>
<path d="M618.67 359.593C613.598 368.831 616.021 379.908 616.021 379.908C616.021 379.908 626.667 376.006 631.739 366.768C636.811 357.529 634.389 346.452 634.389 346.452C634.389 346.452 623.743 350.354 618.67 359.593Z" fill="#3F3D56"/>
<path d="M623.1 360.822C623.443 371.356 616.271 380.138 616.271 380.138C616.271 380.138 608.542 371.841 608.199 361.307C607.856 350.773 615.029 341.991 615.029 341.991C615.029 341.991 622.757 350.288 623.1 360.822Z" fill="#FF734C"/>
<path d="M615.009 422.403C624.072 422.403 631.419 415.056 631.419 405.993C631.419 396.931 624.072 389.584 615.009 389.584C605.946 389.584 598.6 396.931 598.6 405.993C598.6 415.056 605.946 422.403 615.009 422.403Z" fill="#F2F2F2"/>
<path d="M615.009 402.001C617.949 402.001 620.331 399.619 620.331 396.679C620.331 393.74 617.949 391.357 615.009 391.357C612.07 391.357 609.688 393.74 609.688 396.679C609.688 399.619 612.07 402.001 615.009 402.001Z" fill="#3F3D56"/>
<path d="M704.596 440.586H538.284V441.473H704.596V440.586Z" fill="#2F2E41"/>
<path d="M771.786 256.09C776.807 256.09 780.878 252.913 780.878 248.994C780.878 245.075 776.807 241.898 771.786 241.898C766.765 241.898 762.694 245.075 762.694 248.994C762.694 252.913 766.765 256.09 771.786 256.09Z" fill="#FF734C"/>
<path d="M520.605 398.911L535.147 387.266L520.605 398.911Z" fill="#3F3D56"/>
<path d="M521.536 407.885C525.931 404.334 530.48 400.986 535.184 397.843L521.536 407.885Z" fill="#3F3D56"/>
<path d="M531.235 406.941C536.372 404.499 541.057 401.205 545.095 397.199L531.235 406.941Z" fill="#3F3D56"/>
<path d="M494.821 454.778C499.23 454.778 502.804 451.204 502.804 446.795C502.804 442.387 499.23 438.812 494.821 438.812C490.412 438.812 486.838 442.387 486.838 446.795C486.838 451.204 490.412 454.778 494.821 454.778Z" fill="#3F3D56"/>
<path d="M691.291 441.03C689.361 441.03 687.475 440.457 685.87 439.385C684.266 438.313 683.015 436.789 682.277 435.006C681.538 433.224 681.345 431.262 681.722 429.369C682.098 427.476 683.027 425.738 684.392 424.373C685.756 423.009 687.495 422.08 689.388 421.703C691.28 421.327 693.242 421.52 695.025 422.258C696.808 422.997 698.332 424.247 699.404 425.852C700.476 427.456 701.048 429.343 701.048 431.273C701.045 433.859 700.016 436.339 698.187 438.169C696.358 439.998 693.878 441.027 691.291 441.03ZM691.291 422.403C689.537 422.403 687.822 422.923 686.363 423.897C684.905 424.872 683.768 426.257 683.096 427.878C682.425 429.499 682.249 431.282 682.592 433.003C682.934 434.724 683.779 436.304 685.019 437.545C686.26 438.785 687.84 439.63 689.561 439.972C691.281 440.314 693.065 440.139 694.686 439.467C696.306 438.796 697.692 437.659 698.666 436.2C699.641 434.742 700.161 433.027 700.161 431.273C700.159 428.921 699.223 426.666 697.56 425.003C695.897 423.341 693.643 422.405 691.291 422.403Z" fill="#3F3D56"/>
</g>
<defs>
<filter id="filter0_dddd_128:1056" x="0" y="0" width="821" height="518" filterUnits="userSpaceOnUse" color-interpolation-filters="sRGB">
<feFlood flood-opacity="0" result="BackgroundImageFix"/>
<feColorMatrix in="SourceAlpha" type="matrix" values="0 0 0 0 0 0 0 0 0 0 0 0 0 0 0 0 0 0 127 0" result="hardAlpha"/>
<feOffset/>
<feGaussianBlur stdDeviation="0.5"/>
<feColorMatrix type="matrix" values="0 0 0 0 0 0 0 0 0 0 0 0 0 0 0 0 0 0 0.04 0"/>
<feBlend mode="normal" in2="BackgroundImageFix" result="effect1_dropShadow_128:1056"/>
<feColorMatrix in="SourceAlpha" type="matrix" values="0 0 0 0 0 0 0 0 0 0 0 0 0 0 0 0 0 0 127 0" result="hardAlpha"/>
<feOffset dy="4"/>
<feGaussianBlur stdDeviation="4"/>
<feColorMatrix type="matrix" values="0 0 0 0 0 0 0 0 0 0 0 0 0 0 0 0 0 0 0.04 0"/>
<feBlend mode="normal" in2="effect1_dropShadow_128:1056" result="effect2_dropShadow_128:1056"/>
<feColorMatrix in="SourceAlpha" type="matrix" values="0 0 0 0 0 0 0 0 0 0 0 0 0 0 0 0 0 0 127 0" result="hardAlpha"/>
<feOffset dy="16"/>
<feGaussianBlur stdDeviation="12"/>
<feColorMatrix type="matrix" values="0 0 0 0 0 0 0 0 0 0 0 0 0 0 0 0 0 0 0.04 0"/>
<feBlend mode="normal" in2="effect2_dropShadow_128:1056" result="effect3_dropShadow_128:1056"/>
<feColorMatrix in="SourceAlpha" type="matrix" values="0 0 0 0 0 0 0 0 0 0 0 0 0 0 0 0 0 0 127 0" result="hardAlpha"/>
<feOffset dy="24"/>
<feGaussianBlur stdDeviation="16"/>
<feColorMatrix type="matrix" values="0 0 0 0 0 0 0 0 0 0 0 0 0 0 0 0 0 0 0.04 0"/>
<feBlend mode="normal" in2="effect3_dropShadow_128:1056" result="effect4_dropShadow_128:1056"/>
<feBlend mode="normal" in="SourceGraphic" in2="effect4_dropShadow_128:1056" result="shape"/>
</filter>
</defs>
</svg>
