<svg width="821" height="518" viewBox="0 0 821 518" fill="none" xmlns="http://www.w3.org/2000/svg">
<g filter="url(#filter0_dddd_128:1363)">
<rect x="32" y="8" width="757" height="454" rx="12" fill="#F6F6F6"/>
</g>
<path d="M111.96 82.2C116.013 82.2 119.533 82.8827 122.52 84.248C125.507 85.5707 127.811 87.4907 129.432 90.008C131.053 92.4827 131.864 95.4053 131.864 98.776C131.864 102.147 131.053 105.069 129.432 107.544C127.811 110.019 125.507 111.939 122.52 113.304C119.533 114.627 116.013 115.288 111.96 115.288H104.152V127H91.48V82.2H111.96ZM111.192 105.304C113.795 105.304 115.757 104.749 117.08 103.64C118.403 102.488 119.064 100.867 119.064 98.776C119.064 96.6853 118.403 95.064 117.08 93.912C115.757 92.76 113.795 92.184 111.192 92.184H104.152V105.304H111.192ZM165.809 118.296H146.865L143.345 127H130.416L150.193 82.2H162.673L182.513 127H169.329L165.809 118.296ZM162.097 108.952L156.337 94.616L150.577 108.952H162.097ZM207.816 127.896C203.123 127.896 198.899 126.915 195.144 124.952C191.432 122.947 188.509 120.173 186.376 116.632C184.243 113.091 183.176 109.08 183.176 104.6C183.176 100.12 184.243 96.1093 186.376 92.568C188.509 89.0267 191.432 86.2747 195.144 84.312C198.899 82.3067 203.123 81.304 207.816 81.304C211.912 81.304 215.603 82.0293 218.888 83.48C222.173 84.9307 224.904 87.0213 227.08 89.752L219.016 97.048C216.115 93.5493 212.595 91.8 208.456 91.8C206.024 91.8 203.848 92.3333 201.928 93.4C200.051 94.4667 198.579 95.9813 197.512 97.944C196.488 99.864 195.976 102.083 195.976 104.6C195.976 107.117 196.488 109.357 197.512 111.32C198.579 113.24 200.051 114.733 201.928 115.8C203.848 116.867 206.024 117.4 208.456 117.4C212.595 117.4 216.115 115.651 219.016 112.152L227.08 119.448C224.904 122.179 222.173 124.269 218.888 125.72C215.603 127.171 211.912 127.896 207.816 127.896ZM261.996 118.296H243.052L239.532 127H226.604L246.38 82.2H258.86L278.7 127H265.516L261.996 118.296ZM258.284 108.952L252.524 94.616L246.764 108.952H258.284ZM301.877 115.096H294.965V127H282.293V82.2H302.773C306.826 82.2 310.346 82.8827 313.333 84.248C316.319 85.5707 318.623 87.4907 320.245 90.008C321.866 92.4827 322.677 95.4053 322.677 98.776C322.677 102.019 321.909 104.856 320.373 107.288C318.879 109.677 316.725 111.555 313.909 112.92L323.573 127H310.005L301.877 115.096ZM309.877 98.776C309.877 96.6853 309.215 95.064 307.893 93.912C306.57 92.76 304.607 92.184 302.005 92.184H294.965V105.304H302.005C304.607 105.304 306.57 104.749 307.893 103.64C309.215 102.488 309.877 100.867 309.877 98.776ZM348.293 82.2H369.477C374.383 82.2 378.735 83.1173 382.533 84.952C386.33 86.7867 389.274 89.3893 391.365 92.76C393.455 96.1307 394.501 100.077 394.501 104.6C394.501 109.123 393.455 113.069 391.365 116.44C389.274 119.811 386.33 122.413 382.533 124.248C378.735 126.083 374.383 127 369.477 127H348.293V82.2ZM368.965 116.888C372.805 116.888 375.877 115.8 378.181 113.624C380.527 111.448 381.701 108.44 381.701 104.6C381.701 100.76 380.527 97.752 378.181 95.576C375.877 93.4 372.805 92.312 368.965 92.312H360.965V116.888H368.965ZM401.168 82.2H413.84V127H401.168V82.2ZM452.871 118.296H433.927L430.407 127H417.479L437.255 82.2H449.735L469.575 127H456.391L452.871 118.296ZM449.159 108.952L443.399 94.616L437.639 108.952H449.159Z" fill="#FF6996"/>
<path d="M109.064 194.888C109.064 196.915 108.328 198.493 106.856 199.624C105.384 200.755 103.4 201.32 100.904 201.32C99.624 201.32 98.44 201.224 97.352 201.032C96.264 200.84 95.3573 200.573 94.632 200.232V197.48C95.4 197.821 96.3493 198.131 97.48 198.408C98.632 198.685 99.816 198.824 101.032 198.824C102.739 198.824 104.019 198.493 104.872 197.832C105.747 197.171 106.184 196.275 106.184 195.144C106.184 194.397 106.024 193.768 105.704 193.256C105.384 192.744 104.829 192.275 104.04 191.848C103.272 191.4 102.195 190.931 100.808 190.44C98.8667 189.736 97.3947 188.872 96.392 187.848C95.4107 186.824 94.92 185.427 94.92 183.656C94.92 182.44 95.2293 181.405 95.848 180.552C96.4667 179.677 97.32 179.005 98.408 178.536C99.5173 178.067 100.787 177.832 102.216 177.832C103.475 177.832 104.627 177.949 105.672 178.184C106.717 178.419 107.667 178.728 108.52 179.112L107.624 181.576C106.835 181.235 105.971 180.947 105.032 180.712C104.115 180.477 103.155 180.36 102.152 180.36C100.723 180.36 99.6453 180.669 98.92 181.288C98.1947 181.885 97.832 182.685 97.832 183.688C97.832 184.456 97.992 185.096 98.312 185.608C98.632 186.12 99.1547 186.579 99.88 186.984C100.605 187.389 101.587 187.827 102.824 188.296C104.168 188.787 105.299 189.32 106.216 189.896C107.155 190.451 107.859 191.123 108.328 191.912C108.819 192.701 109.064 193.693 109.064 194.888ZM127.619 183.848V201H125.315L124.899 198.728H124.771C124.216 199.624 123.448 200.285 122.467 200.712C121.485 201.117 120.44 201.32 119.331 201.32C117.261 201.32 115.704 200.829 114.659 199.848C113.613 198.845 113.091 197.256 113.091 195.08V183.848H115.939V194.888C115.939 197.619 117.208 198.984 119.747 198.984C121.645 198.984 122.957 198.451 123.683 197.384C124.429 196.317 124.803 194.781 124.803 192.776V183.848H127.619ZM139.144 201.32C137.01 201.32 135.304 200.584 134.024 199.112C132.744 197.619 132.104 195.4 132.104 192.456C132.104 189.512 132.744 187.293 134.024 185.8C135.325 184.285 137.042 183.528 139.176 183.528C140.498 183.528 141.576 183.773 142.408 184.264C143.261 184.755 143.954 185.352 144.488 186.056H144.68C144.658 185.779 144.616 185.373 144.552 184.84C144.509 184.285 144.488 183.848 144.488 183.528V176.68H147.304V201H145.032L144.616 198.696H144.488C143.976 199.421 143.293 200.04 142.44 200.552C141.586 201.064 140.488 201.32 139.144 201.32ZM139.592 198.984C141.405 198.984 142.674 198.493 143.4 197.512C144.146 196.509 144.52 195.005 144.52 193V192.488C144.52 190.355 144.168 188.723 143.464 187.592C142.76 186.44 141.458 185.864 139.56 185.864C138.045 185.864 136.904 186.472 136.136 187.688C135.389 188.883 135.016 190.493 135.016 192.52C135.016 194.568 135.389 196.157 136.136 197.288C136.904 198.419 138.056 198.984 139.592 198.984ZM159.247 183.56C161.338 183.56 162.885 184.019 163.887 184.936C164.89 185.853 165.391 187.315 165.391 189.32V201H163.343L162.799 198.568H162.671C161.925 199.507 161.135 200.2 160.303 200.648C159.493 201.096 158.362 201.32 156.911 201.32C155.354 201.32 154.063 200.915 153.039 200.104C152.015 199.272 151.503 197.981 151.503 196.232C151.503 194.525 152.175 193.213 153.519 192.296C154.863 191.357 156.933 190.845 159.727 190.76L162.639 190.664V189.64C162.639 188.211 162.33 187.219 161.711 186.664C161.093 186.109 160.218 185.832 159.087 185.832C158.191 185.832 157.338 185.971 156.527 186.248C155.717 186.504 154.959 186.803 154.255 187.144L153.391 185.032C154.138 184.627 155.023 184.285 156.047 184.008C157.071 183.709 158.138 183.56 159.247 183.56ZM160.079 192.712C157.946 192.797 156.463 193.139 155.631 193.736C154.821 194.333 154.415 195.176 154.415 196.264C154.415 197.224 154.703 197.928 155.279 198.376C155.877 198.824 156.634 199.048 157.551 199.048C159.002 199.048 160.207 198.653 161.167 197.864C162.127 197.053 162.607 195.816 162.607 194.152V192.616L160.079 192.712ZM173.505 183.816C173.505 184.669 173.451 185.469 173.345 186.216H173.537C174.091 185.341 174.838 184.68 175.777 184.232C176.737 183.784 177.771 183.56 178.881 183.56C180.971 183.56 182.539 184.061 183.585 185.064C184.63 186.045 185.153 187.635 185.153 189.832V201H182.369V190.024C182.369 187.272 181.089 185.896 178.529 185.896C176.609 185.896 175.286 186.44 174.561 187.528C173.857 188.595 173.505 190.131 173.505 192.136V201H170.689V176.68H173.505V183.816ZM204.863 201.32C202.729 201.32 201.023 200.584 199.743 199.112C198.463 197.619 197.823 195.4 197.823 192.456C197.823 189.512 198.463 187.293 199.743 185.8C201.044 184.285 202.761 183.528 204.895 183.528C206.217 183.528 207.295 183.773 208.127 184.264C208.98 184.755 209.673 185.352 210.207 186.056H210.399C210.377 185.779 210.335 185.373 210.271 184.84C210.228 184.285 210.207 183.848 210.207 183.528V176.68H213.023V201H210.751L210.335 198.696H210.207C209.695 199.421 209.012 200.04 208.159 200.552C207.305 201.064 206.207 201.32 204.863 201.32ZM205.311 198.984C207.124 198.984 208.393 198.493 209.119 197.512C209.865 196.509 210.239 195.005 210.239 193V192.488C210.239 190.355 209.887 188.723 209.183 187.592C208.479 186.44 207.177 185.864 205.279 185.864C203.764 185.864 202.623 186.472 201.855 187.688C201.108 188.883 200.735 190.493 200.735 192.52C200.735 194.568 201.108 196.157 201.855 197.288C202.623 198.419 203.775 198.984 205.311 198.984ZM219.91 177.416C220.337 177.416 220.71 177.565 221.03 177.864C221.371 178.141 221.542 178.589 221.542 179.208C221.542 179.805 221.371 180.253 221.03 180.552C220.71 180.851 220.337 181 219.91 181C219.441 181 219.046 180.851 218.726 180.552C218.406 180.253 218.246 179.805 218.246 179.208C218.246 178.589 218.406 178.141 218.726 177.864C219.046 177.565 219.441 177.416 219.91 177.416ZM221.286 183.848V201H218.47V183.848H221.286ZM237.888 196.264C237.888 197.928 237.269 199.187 236.032 200.04C234.795 200.893 233.131 201.32 231.04 201.32C229.845 201.32 228.811 201.224 227.936 201.032C227.083 200.84 226.325 200.573 225.664 200.232V197.672C226.347 198.013 227.168 198.333 228.128 198.632C229.109 198.909 230.101 199.048 231.104 199.048C232.533 199.048 233.568 198.824 234.208 198.376C234.848 197.907 235.168 197.288 235.168 196.52C235.168 196.093 235.051 195.709 234.816 195.368C234.581 195.027 234.155 194.685 233.536 194.344C232.939 194.003 232.075 193.619 230.944 193.192C229.835 192.765 228.885 192.339 228.096 191.912C227.307 191.485 226.699 190.973 226.272 190.376C225.845 189.779 225.632 189.011 225.632 188.072C225.632 186.621 226.219 185.501 227.392 184.712C228.587 183.923 230.144 183.528 232.064 183.528C233.109 183.528 234.08 183.635 234.976 183.848C235.893 184.04 236.747 184.317 237.536 184.68L236.576 186.92C235.851 186.621 235.093 186.365 234.304 186.152C233.515 185.939 232.704 185.832 231.872 185.832C230.72 185.832 229.835 186.024 229.216 186.408C228.619 186.771 228.32 187.272 228.32 187.912C228.32 188.381 228.459 188.787 228.736 189.128C229.013 189.448 229.472 189.768 230.112 190.088C230.773 190.387 231.648 190.749 232.736 191.176C233.824 191.581 234.752 191.997 235.52 192.424C236.288 192.851 236.875 193.373 237.28 193.992C237.685 194.589 237.888 195.347 237.888 196.264ZM243.473 177.416C243.899 177.416 244.273 177.565 244.593 177.864C244.934 178.141 245.105 178.589 245.105 179.208C245.105 179.805 244.934 180.253 244.593 180.552C244.273 180.851 243.899 181 243.473 181C243.003 181 242.609 180.851 242.289 180.552C241.969 180.253 241.809 179.805 241.809 179.208C241.809 178.589 241.969 178.141 242.289 177.864C242.609 177.565 243.003 177.416 243.473 177.416ZM244.849 183.848V201H242.033V183.848H244.849ZM258.539 183.528C260.587 183.528 262.133 184.029 263.179 185.032C264.224 186.013 264.747 187.613 264.747 189.832V201H261.963V190.024C261.963 187.272 260.683 185.896 258.123 185.896C256.224 185.896 254.912 186.429 254.187 187.496C253.461 188.563 253.099 190.099 253.099 192.104V201H250.283V183.848H252.555L252.971 186.184H253.131C253.685 185.288 254.453 184.627 255.435 184.2C256.416 183.752 257.451 183.528 258.539 183.528ZM271.504 177.416C271.93 177.416 272.304 177.565 272.624 177.864C272.965 178.141 273.136 178.589 273.136 179.208C273.136 179.805 272.965 180.253 272.624 180.552C272.304 180.851 271.93 181 271.504 181C271.034 181 270.64 180.851 270.32 180.552C270 180.253 269.84 179.805 269.84 179.208C269.84 178.589 270 178.141 270.32 177.864C270.64 177.565 271.034 177.416 271.504 177.416ZM272.88 183.848V201H270.064V183.848H272.88ZM305.442 183.528C307.384 183.528 308.834 184.029 309.794 185.032C310.754 186.013 311.234 187.613 311.234 189.832V201H308.45V189.96C308.45 187.251 307.288 185.896 304.962 185.896C303.298 185.896 302.104 186.376 301.378 187.336C300.674 188.296 300.322 189.693 300.322 191.528V201H297.538V189.96C297.538 187.251 296.365 185.896 294.018 185.896C292.29 185.896 291.096 186.429 290.434 187.496C289.773 188.563 289.442 190.099 289.442 192.104V201H286.626V183.848H288.898L289.314 186.184H289.474C290.008 185.288 290.722 184.627 291.618 184.2C292.536 183.752 293.506 183.528 294.53 183.528C297.218 183.528 298.968 184.488 299.778 186.408H299.938C300.514 185.427 301.293 184.701 302.274 184.232C303.277 183.763 304.333 183.528 305.442 183.528ZM323.029 183.56C325.119 183.56 326.666 184.019 327.669 184.936C328.671 185.853 329.173 187.315 329.173 189.32V201H327.125L326.581 198.568H326.453C325.706 199.507 324.917 200.2 324.085 200.648C323.274 201.096 322.143 201.32 320.693 201.32C319.135 201.32 317.845 200.915 316.821 200.104C315.797 199.272 315.285 197.981 315.285 196.232C315.285 194.525 315.957 193.213 317.301 192.296C318.645 191.357 320.714 190.845 323.509 190.76L326.421 190.664V189.64C326.421 188.211 326.111 187.219 325.493 186.664C324.874 186.109 323.999 185.832 322.869 185.832C321.973 185.832 321.119 185.971 320.309 186.248C319.498 186.504 318.741 186.803 318.036 187.144L317.173 185.032C317.919 184.627 318.805 184.285 319.829 184.008C320.853 183.709 321.919 183.56 323.029 183.56ZM323.861 192.712C321.727 192.797 320.245 193.139 319.413 193.736C318.602 194.333 318.197 195.176 318.197 196.264C318.197 197.224 318.485 197.928 319.061 198.376C319.658 198.824 320.415 199.048 321.333 199.048C322.783 199.048 323.989 198.653 324.949 197.864C325.909 197.053 326.389 195.816 326.389 194.152V192.616L323.861 192.712ZM348.806 183.848V201H346.502L346.086 198.728H345.958C345.403 199.624 344.635 200.285 343.654 200.712C342.673 201.117 341.627 201.32 340.518 201.32C338.449 201.32 336.891 200.829 335.846 199.848C334.801 198.845 334.278 197.256 334.278 195.08V183.848H337.126V194.888C337.126 197.619 338.395 198.984 340.934 198.984C342.833 198.984 344.145 198.451 344.87 197.384C345.617 196.317 345.99 194.781 345.99 192.776V183.848H348.806ZM365.348 189.384C365.348 189.725 365.326 190.173 365.284 190.728C365.262 191.283 365.241 191.763 365.22 192.168H365.348C365.476 191.997 365.668 191.752 365.924 191.432C366.18 191.112 366.436 190.792 366.692 190.472C366.969 190.131 367.204 189.853 367.396 189.64L372.868 183.848H376.164L369.22 191.176L376.644 201H373.252L367.3 193L365.348 194.696V201H362.564V176.68H365.348V189.384ZM386.282 183.528C387.754 183.528 389.012 183.848 390.058 184.488C391.124 185.128 391.935 186.035 392.49 187.208C393.066 188.36 393.354 189.715 393.354 191.272V192.968H381.61C381.652 194.909 382.143 196.392 383.082 197.416C384.042 198.419 385.375 198.92 387.082 198.92C388.17 198.92 389.13 198.824 389.962 198.632C390.815 198.419 391.69 198.12 392.586 197.736V200.2C391.711 200.584 390.847 200.861 389.994 201.032C389.14 201.224 388.127 201.32 386.954 201.32C385.332 201.32 383.892 200.989 382.634 200.328C381.396 199.667 380.426 198.685 379.722 197.384C379.039 196.061 378.698 194.451 378.698 192.552C378.698 190.675 379.007 189.064 379.626 187.72C380.266 186.376 381.151 185.341 382.282 184.616C383.434 183.891 384.767 183.528 386.282 183.528ZM386.25 185.832C384.906 185.832 383.839 186.269 383.05 187.144C382.282 187.997 381.823 189.192 381.674 190.728H390.41C390.388 189.277 390.047 188.104 389.386 187.208C388.724 186.291 387.679 185.832 386.25 185.832ZM416.536 183.528C418.477 183.528 419.928 184.029 420.888 185.032C421.848 186.013 422.328 187.613 422.328 189.832V201H419.544V189.96C419.544 187.251 418.381 185.896 416.056 185.896C414.392 185.896 413.197 186.376 412.472 187.336C411.768 188.296 411.416 189.693 411.416 191.528V201H408.632V189.96C408.632 187.251 407.459 185.896 405.112 185.896C403.384 185.896 402.189 186.429 401.528 187.496C400.867 188.563 400.536 190.099 400.536 192.104V201H397.72V183.848H399.992L400.408 186.184H400.568C401.101 185.288 401.816 184.627 402.712 184.2C403.629 183.752 404.6 183.528 405.624 183.528C408.312 183.528 410.061 184.488 410.872 186.408H411.032C411.608 185.427 412.387 184.701 413.368 184.232C414.371 183.763 415.427 183.528 416.536 183.528ZM434.122 183.56C436.213 183.56 437.76 184.019 438.762 184.936C439.765 185.853 440.266 187.315 440.266 189.32V201H438.218L437.674 198.568H437.546C436.8 199.507 436.01 200.2 435.178 200.648C434.368 201.096 433.237 201.32 431.786 201.32C430.229 201.32 428.938 200.915 427.914 200.104C426.89 199.272 426.378 197.981 426.378 196.232C426.378 194.525 427.05 193.213 428.394 192.296C429.738 191.357 431.808 190.845 434.602 190.76L437.514 190.664V189.64C437.514 188.211 437.205 187.219 436.586 186.664C435.968 186.109 435.093 185.832 433.962 185.832C433.066 185.832 432.213 185.971 431.402 186.248C430.592 186.504 429.834 186.803 429.13 187.144L428.266 185.032C429.013 184.627 429.898 184.285 430.922 184.008C431.946 183.709 433.013 183.56 434.122 183.56ZM434.954 192.712C432.821 192.797 431.338 193.139 430.506 193.736C429.696 194.333 429.29 195.176 429.29 196.264C429.29 197.224 429.578 197.928 430.154 198.376C430.752 198.824 431.509 199.048 432.426 199.048C433.877 199.048 435.082 198.653 436.042 197.864C437.002 197.053 437.482 195.816 437.482 194.152V192.616L434.954 192.712ZM453.82 183.528C455.868 183.528 457.414 184.029 458.46 185.032C459.505 186.013 460.028 187.613 460.028 189.832V201H457.244V190.024C457.244 187.272 455.964 185.896 453.404 185.896C451.505 185.896 450.193 186.429 449.468 187.496C448.742 188.563 448.38 190.099 448.38 192.104V201H445.564V183.848H447.836L448.252 186.184H448.412C448.966 185.288 449.734 184.627 450.716 184.2C451.697 183.752 452.732 183.528 453.82 183.528ZM471.841 183.56C473.932 183.56 475.478 184.019 476.481 184.936C477.484 185.853 477.985 187.315 477.985 189.32V201H475.937L475.393 198.568H475.265C474.518 199.507 473.729 200.2 472.897 200.648C472.086 201.096 470.956 201.32 469.505 201.32C467.948 201.32 466.657 200.915 465.633 200.104C464.609 199.272 464.097 197.981 464.097 196.232C464.097 194.525 464.769 193.213 466.113 192.296C467.457 191.357 469.526 190.845 472.321 190.76L475.233 190.664V189.64C475.233 188.211 474.924 187.219 474.305 186.664C473.686 186.109 472.812 185.832 471.681 185.832C470.785 185.832 469.932 185.971 469.121 186.248C468.31 186.504 467.553 186.803 466.849 187.144L465.985 185.032C466.732 184.627 467.617 184.285 468.641 184.008C469.665 183.709 470.732 183.56 471.841 183.56ZM472.673 192.712C470.54 192.797 469.057 193.139 468.225 193.736C467.414 194.333 467.009 195.176 467.009 196.264C467.009 197.224 467.297 197.928 467.873 198.376C468.47 198.824 469.228 199.048 470.145 199.048C471.596 199.048 472.801 198.653 473.761 197.864C474.721 197.053 475.201 195.816 475.201 194.152V192.616L472.673 192.712ZM98.536 245H95.72V220.68H98.536V245ZM110.466 227.56C112.557 227.56 114.103 228.019 115.106 228.936C116.109 229.853 116.61 231.315 116.61 233.32V245H114.562L114.018 242.568H113.89C113.143 243.507 112.354 244.2 111.522 244.648C110.711 245.096 109.581 245.32 108.13 245.32C106.573 245.32 105.282 244.915 104.258 244.104C103.234 243.272 102.722 241.981 102.722 240.232C102.722 238.525 103.394 237.213 104.738 236.296C106.082 235.357 108.151 234.845 110.946 234.76L113.858 234.664V233.64C113.858 232.211 113.549 231.219 112.93 230.664C112.311 230.109 111.437 229.832 110.306 229.832C109.41 229.832 108.557 229.971 107.746 230.248C106.935 230.504 106.178 230.803 105.474 231.144L104.61 229.032C105.357 228.627 106.242 228.285 107.266 228.008C108.29 227.709 109.357 227.56 110.466 227.56ZM111.298 236.712C109.165 236.797 107.682 237.139 106.85 237.736C106.039 238.333 105.634 239.176 105.634 240.264C105.634 241.224 105.922 241.928 106.498 242.376C107.095 242.824 107.853 243.048 108.77 243.048C110.221 243.048 111.426 242.653 112.386 241.864C113.346 241.053 113.826 239.816 113.826 238.152V236.616L111.298 236.712ZM127.988 227.528C129.118 227.528 130.132 227.741 131.028 228.168C131.945 228.595 132.724 229.245 133.364 230.12H133.524L133.908 227.848H136.148V245.288C136.148 247.741 135.518 249.587 134.26 250.824C133.022 252.061 131.092 252.68 128.468 252.68C125.95 252.68 123.892 252.317 122.292 251.592V249C123.977 249.896 126.089 250.344 128.628 250.344C130.1 250.344 131.252 249.907 132.084 249.032C132.937 248.179 133.364 247.005 133.364 245.512V244.84C133.364 244.584 133.374 244.221 133.396 243.752C133.417 243.261 133.438 242.92 133.46 242.728H133.332C132.18 244.456 130.409 245.32 128.02 245.32C125.801 245.32 124.062 244.541 122.804 242.984C121.566 241.427 120.948 239.251 120.948 236.456C120.948 233.725 121.566 231.56 122.804 229.96C124.062 228.339 125.79 227.528 127.988 227.528ZM128.372 229.896C126.942 229.896 125.833 230.472 125.044 231.624C124.254 232.755 123.86 234.376 123.86 236.488C123.86 238.6 124.244 240.221 125.012 241.352C125.801 242.461 126.942 243.016 128.436 243.016C130.164 243.016 131.422 242.557 132.212 241.64C133.001 240.701 133.396 239.197 133.396 237.128V236.456C133.396 234.109 132.99 232.435 132.18 231.432C131.369 230.408 130.1 229.896 128.372 229.896ZM143.035 221.416C143.462 221.416 143.835 221.565 144.155 221.864C144.496 222.141 144.667 222.589 144.667 223.208C144.667 223.805 144.496 224.253 144.155 224.552C143.835 224.851 143.462 225 143.035 225C142.566 225 142.171 224.851 141.851 224.552C141.531 224.253 141.371 223.805 141.371 223.208C141.371 222.589 141.531 222.141 141.851 221.864C142.171 221.565 142.566 221.416 143.035 221.416ZM144.411 227.848V245H141.595V227.848H144.411ZM160.942 233.384C160.942 233.725 160.92 234.173 160.878 234.728C160.856 235.283 160.835 235.763 160.814 236.168H160.942C161.07 235.997 161.262 235.752 161.518 235.432C161.774 235.112 162.03 234.792 162.286 234.472C162.563 234.131 162.798 233.853 162.99 233.64L168.462 227.848H171.758L164.814 235.176L172.238 245H168.846L162.894 237L160.942 238.696V245H158.158V220.68H160.942V233.384ZM176.691 221.416C177.118 221.416 177.491 221.565 177.811 221.864C178.153 222.141 178.323 222.589 178.323 223.208C178.323 223.805 178.153 224.253 177.811 224.552C177.491 224.851 177.118 225 176.691 225C176.222 225 175.827 224.851 175.507 224.552C175.187 224.253 175.027 223.805 175.027 223.208C175.027 222.589 175.187 222.141 175.507 221.864C175.827 221.565 176.222 221.416 176.691 221.416ZM178.067 227.848V245H175.251V227.848H178.067ZM189.229 243.016C189.656 243.016 190.093 242.984 190.541 242.92C190.989 242.835 191.352 242.749 191.629 242.664V244.808C191.331 244.957 190.904 245.075 190.349 245.16C189.795 245.267 189.261 245.32 188.749 245.32C187.853 245.32 187.021 245.171 186.253 244.872C185.507 244.552 184.899 244.008 184.429 243.24C183.96 242.472 183.725 241.395 183.725 240.008V230.024H181.293V228.68L183.757 227.56L184.877 223.912H186.541V227.848H191.501V230.024H186.541V239.944C186.541 240.989 186.787 241.768 187.277 242.28C187.789 242.771 188.44 243.016 189.229 243.016ZM201.56 227.56C203.65 227.56 205.197 228.019 206.2 228.936C207.202 229.853 207.704 231.315 207.704 233.32V245H205.656L205.112 242.568H204.984C204.237 243.507 203.448 244.2 202.616 244.648C201.805 245.096 200.674 245.32 199.224 245.32C197.666 245.32 196.376 244.915 195.352 244.104C194.328 243.272 193.816 241.981 193.816 240.232C193.816 238.525 194.488 237.213 195.832 236.296C197.176 235.357 199.245 234.845 202.04 234.76L204.952 234.664V233.64C204.952 232.211 204.642 231.219 204.024 230.664C203.405 230.109 202.53 229.832 201.4 229.832C200.504 229.832 199.65 229.971 198.84 230.248C198.029 230.504 197.272 230.803 196.568 231.144L195.704 229.032C196.45 228.627 197.336 228.285 198.36 228.008C199.384 227.709 200.45 227.56 201.56 227.56ZM202.392 236.712C200.258 236.797 198.776 237.139 197.944 237.736C197.133 238.333 196.728 239.176 196.728 240.264C196.728 241.224 197.016 241.928 197.592 242.376C198.189 242.824 198.946 243.048 199.864 243.048C201.314 243.048 202.52 242.653 203.48 241.864C204.44 241.053 204.92 239.816 204.92 238.152V236.616L202.392 236.712ZM214.761 237.704C214.761 236.893 214.836 236.2 214.985 235.624C215.156 235.027 215.433 234.461 215.817 233.928C216.223 233.395 216.767 232.84 217.449 232.264C218.281 231.56 218.921 230.973 219.369 230.504C219.839 230.035 220.169 229.576 220.361 229.128C220.553 228.68 220.649 228.136 220.649 227.496C220.649 226.472 220.319 225.683 219.657 225.128C218.996 224.573 218.036 224.296 216.777 224.296C215.732 224.296 214.804 224.435 213.993 224.712C213.183 224.968 212.404 225.277 211.657 225.64L210.665 223.4C211.519 222.952 212.457 222.579 213.481 222.28C214.527 221.981 215.689 221.832 216.969 221.832C218.996 221.832 220.564 222.333 221.673 223.336C222.783 224.339 223.337 225.704 223.337 227.432C223.337 228.392 223.177 229.213 222.857 229.896C222.559 230.557 222.121 231.176 221.545 231.752C220.991 232.307 220.329 232.904 219.561 233.544C218.857 234.141 218.313 234.664 217.929 235.112C217.567 235.56 217.321 236.008 217.193 236.456C217.065 236.883 217.001 237.405 217.001 238.024V238.568H214.761V237.704ZM214.025 243.272C214.025 242.483 214.207 241.928 214.569 241.608C214.953 241.288 215.433 241.128 216.009 241.128C216.543 241.128 217.001 241.288 217.385 241.608C217.769 241.928 217.961 242.483 217.961 243.272C217.961 244.04 217.769 244.595 217.385 244.936C217.001 245.277 216.543 245.448 216.009 245.448C215.433 245.448 214.953 245.277 214.569 244.936C214.207 244.595 214.025 244.04 214.025 243.272Z" fill="black"/>
<mask id="mask0_128:1363" style="mask-type:alpha" maskUnits="userSpaceOnUse" x="32" y="8" width="757" height="454">
<rect x="32" y="8" width="757" height="454" rx="12" fill="#C4C4C4"/>
</mask>
<g mask="url(#mask0_128:1363)">
<g clip-path="url(#clip0_128:1363)">
<path d="M218.011 437.978C242.194 482.826 293.519 502.079 293.519 502.079C293.519 502.079 305.636 448.618 281.453 403.769C257.27 358.92 205.944 339.668 205.944 339.668C205.944 339.668 193.828 393.129 218.011 437.978Z" fill="#2F2E41"/>
<path d="M234.633 423.223C278.293 449.49 295.108 501.665 295.108 501.665C295.108 501.665 241.136 511.251 197.475 484.984C153.815 458.716 137 406.542 137 406.542C137 406.542 190.972 396.955 234.633 423.223Z" fill="#FF6996"/>
<path d="M562.28 323.061H240.899V329.946H562.28V323.061Z" fill="#3F3D56"/>
<path d="M562.28 357.487H240.899V364.372H562.28V357.487Z" fill="#3F3D56"/>
<path d="M562.28 390.191H240.899V400.519H562.28V390.191Z" fill="#3F3D56"/>
<path d="M291.135 302.14L290.649 501.583L297.79 501.6L298.277 302.158L291.135 302.14Z" fill="#3F3D56"/>
<path d="M501.818 302.654L501.331 502.097L508.473 502.114L508.959 302.671L501.818 302.654Z" fill="#3F3D56"/>
<path d="M776.216 276.736C766.59 286.447 743.355 294.142 733.644 284.517C723.933 274.891 731.424 251.589 741.049 241.877C745.672 237.214 751.958 234.578 758.524 234.549C765.09 234.52 771.398 237.101 776.062 241.723C780.725 246.346 783.361 252.631 783.39 259.198C783.419 265.764 780.839 272.072 776.216 276.736Z" fill="#FF6996"/>
<path d="M733.659 287.891C733.515 287.048 733.111 286.27 732.503 285.668C731.895 285.065 731.114 284.668 730.269 284.532L733.629 281.142L737.018 284.502L733.659 287.891Z" fill="#6C63FF"/>
<path d="M735.331 286.467C734.483 286.201 733.711 285.738 733.078 285.115C732.444 284.493 731.968 283.728 731.689 282.885L732.369 282.663C732.613 283.398 733.028 284.064 733.581 284.607C734.133 285.15 734.807 285.554 735.546 285.785L735.331 286.467Z" fill="#2F2E41"/>
<path d="M661.63 357.491L661.122 356.987L732.743 285.084L733.251 285.588L661.63 357.491Z" fill="#2F2E41"/>
<path opacity="0.4" d="M776.998 262.811C779.434 260.354 779.748 256.717 777.701 254.688C775.653 252.658 772.019 253.005 769.584 255.462C767.148 257.919 766.834 261.556 768.881 263.585C770.929 265.615 774.563 265.268 776.998 262.811Z" fill="white"/>
<path d="M744.801 250.253C738.368 262.319 718.32 276.361 706.255 269.928C694.189 263.495 694.675 239.024 701.107 226.958C704.196 221.164 709.461 216.834 715.742 214.921C722.024 213.009 728.808 213.67 734.602 216.759C740.396 219.848 744.726 225.112 746.638 231.393C748.551 237.675 747.89 244.459 744.801 250.253Z" fill="#FF6996"/>
<path d="M707.238 273.156C706.858 272.39 706.248 271.761 705.493 271.358C704.737 270.956 703.875 270.799 703.027 270.911L705.272 266.7L709.483 268.945L707.238 273.156Z" fill="#6C63FF"/>
<path d="M708.431 271.312C707.543 271.301 706.67 271.079 705.885 270.664C705.099 270.249 704.424 269.653 703.914 268.926L704.502 268.518C704.946 269.152 705.536 269.671 706.221 270.033C706.906 270.394 707.667 270.587 708.441 270.596L708.431 271.312Z" fill="#2F2E41"/>
<path d="M658.222 360.504L657.591 360.168L705.554 270.73L706.186 271.066L658.222 360.504Z" fill="#2F2E41"/>
<path opacity="0.4" d="M741.553 236.69C743.181 233.637 742.438 230.063 739.894 228.707C737.35 227.351 733.968 228.726 732.341 231.779C730.713 234.831 731.456 238.406 734 239.762C736.544 241.118 739.926 239.743 741.553 236.69Z" fill="white"/>
<path d="M729.002 317.512C719.376 327.223 696.141 334.918 686.43 325.292C676.719 315.667 684.209 292.364 693.835 282.653C696.124 280.344 698.845 278.509 701.843 277.251C704.842 275.994 708.058 275.339 711.309 275.325C714.561 275.311 717.783 275.937 720.792 277.168C723.801 278.399 726.538 280.21 728.848 282.499C731.157 284.788 732.992 287.509 734.25 290.507C735.507 293.506 736.162 296.722 736.176 299.973C736.19 303.225 735.564 306.447 734.333 309.456C733.102 312.465 731.291 315.203 729.002 317.512Z" fill="#FF6996"/>
<path d="M686.444 328.667C686.301 327.823 685.897 327.046 685.289 326.443C684.681 325.841 683.9 325.444 683.055 325.307L686.415 321.918L689.804 325.278L686.444 328.667Z" fill="#6C63FF"/>
<path d="M688.117 327.243C687.269 326.977 686.497 326.514 685.864 325.891C685.231 325.268 684.755 324.504 684.475 323.661L685.155 323.438C685.399 324.173 685.814 324.84 686.367 325.383C686.919 325.926 687.593 326.329 688.332 326.56L688.117 327.243Z" fill="#2F2E41"/>
<path d="M685.533 325.864L653.607 358.056L654.115 358.56L686.041 326.368L685.533 325.864Z" fill="#2F2E41"/>
<path opacity="0.4" d="M729.784 303.588C732.22 301.131 732.534 297.494 730.487 295.464C728.439 293.434 724.805 293.781 722.37 296.238C719.934 298.695 719.62 302.332 721.667 304.362C723.715 306.391 727.349 306.045 729.784 303.588Z" fill="white"/>
<path d="M628.338 212.805C621.059 200.505 606.657 199.932 606.657 199.932C606.657 199.932 592.624 198.137 583.621 216.87C575.231 234.33 563.65 251.188 581.757 255.275L585.028 245.096L587.053 256.033C589.631 256.219 592.218 256.263 594.801 256.166C614.192 255.54 632.659 256.349 632.064 249.391C631.274 240.14 635.342 224.639 628.338 212.805Z" fill="#2F2E41"/>
<path d="M566.496 482.512C567.124 485.316 568.246 488.046 568.306 490.919C568.366 493.792 566.979 496.992 564.23 497.831C562.916 498.129 561.554 498.141 560.234 497.866C558.779 497.669 557.233 497.432 556.127 496.465C554.576 495.109 554.397 492.797 554.383 490.736C554.313 480.485 555.56 470.276 556.805 460.1C556.823 459.943 563.48 459.787 564.148 460.094C566.088 460.985 565.913 463.173 565.939 465.03C566.019 470.856 565.209 476.761 566.496 482.512Z" fill="#2F2E41"/>
<path d="M588.78 325.001C592.016 326.546 595.718 326.747 599.304 326.708C607.25 326.618 615.149 325.482 622.798 323.328C624.264 322.981 625.669 322.413 626.965 321.644C627.291 321.469 627.549 321.19 627.697 320.85C627.762 320.577 627.764 320.292 627.701 320.018L626.462 311.768C626.474 311.61 626.448 311.452 626.387 311.307C626.325 311.161 626.23 311.032 626.109 310.931C625.987 310.83 625.843 310.759 625.689 310.725C625.535 310.691 625.375 310.694 625.222 310.734C618.485 310.764 611.755 311.158 605.061 311.915C601.66 312.3 598.271 312.778 594.895 313.348C593.107 313.651 587.912 313.709 587.008 315.619C586.47 316.755 587.558 318.755 587.834 319.861C587.987 320.474 588.41 324.825 588.78 325.001Z" fill="#FFB8B8"/>
<path d="M603.888 322.962C598.201 322.75 592.586 321.613 587.264 319.597C587.031 319.508 586.727 319.434 586.566 319.625C586.5 319.72 586.463 319.832 586.459 319.947L585.093 330.269C583.675 340.975 579.938 351.56 577.495 362.08C575.996 368.537 574.497 374.995 572.931 381.436C571.335 387.997 569.668 394.547 567.561 400.962C561.786 418.511 552.794 434.832 541.044 449.089C539.687 450.735 538.206 452.631 538.485 454.745C538.848 457.484 541.859 458.912 544.457 459.853C542.054 460.915 542.202 464.707 544.121 466.502C546.041 468.298 548.863 468.634 551.48 468.881L560.431 469.726C562.723 469.943 565.131 470.142 567.237 469.213C568.597 468.613 569.724 467.584 571.044 466.901C575.712 464.483 581.279 466.841 586.243 468.571C593.169 470.98 600.473 472.123 607.804 471.943C610.867 471.866 614.44 471.231 615.838 468.504C616.377 467.452 616.495 466.232 616.949 465.14C617.289 464.414 617.77 463.762 618.364 463.223C618.958 462.684 619.653 462.268 620.409 462C621.165 461.731 621.966 461.615 622.767 461.659C623.568 461.702 624.352 461.904 625.075 462.253C627.611 463.619 628.83 466.657 631.235 468.243C633.167 469.517 635.598 469.688 637.908 469.822L651.052 470.579C651.565 469.661 651.808 468.616 651.751 467.565C651.694 466.514 651.34 465.501 650.73 464.643C653.27 464.691 655.769 463.997 657.922 462.647C660.074 461.297 661.786 459.349 662.849 457.041C663.912 454.734 664.28 452.166 663.907 449.653C663.534 447.14 662.436 444.79 660.749 442.89C658.887 440.795 657.52 438.308 656.751 435.612C652.475 419.597 652.116 402.761 648.178 386.659C647.389 383.435 646.457 380.238 645.956 376.956C645.323 372.804 645.392 368.582 645.231 364.385C644.85 354.506 643.195 344.718 640.306 335.264C638.356 328.884 635.781 322.562 631.511 317.436C630.463 316.043 629.106 314.913 627.547 314.134C625.956 313.44 623.971 313.431 622.6 314.495C621.806 315.112 621.291 316.014 620.598 316.743C619.105 318.312 616.915 318.963 614.83 319.552C610.632 320.738 608.247 323.123 603.888 322.962Z" fill="#3F3D56"/>
<path d="M567.238 321.033C566.966 322.394 566.657 323.747 566.347 325.1C564.488 333.189 562.566 341.263 560.581 349.322C560.237 350.965 559.719 352.566 559.036 354.1C557.797 356.639 555.698 358.66 554.29 361.11C552.882 363.56 552.3 366.895 554.115 369.061C555.276 370.446 557.125 371.01 558.877 371.452C560.541 371.872 562.432 372.211 563.869 371.273C565.4 370.274 565.798 368.242 566.022 366.428C566.972 358.729 567.23 350.887 569.355 343.425C570.064 340.933 570.977 338.504 571.889 336.079L577.279 321.743C578.623 318.167 579.986 314.495 580 310.674C580.042 310.309 580.008 309.939 579.9 309.587C579.793 309.236 579.614 308.91 579.375 308.63C579.09 308.4 578.76 308.233 578.406 308.14C576.133 307.408 570.297 306.808 568.761 309.299C568.003 310.528 568.371 313.368 568.208 314.81C567.972 316.897 567.648 318.971 567.238 321.033Z" fill="#FFB8B8"/>
<path d="M634.7 312.282C638.273 322.394 642.223 332.361 646.552 342.185C647.102 343.345 647.56 344.548 647.922 345.78C648.212 346.878 648.343 348.011 648.532 349.13C649.513 354.959 652.381 360.806 657.503 363.757C658.393 364.341 659.433 364.655 660.498 364.661C662.613 364.538 664.12 362.482 664.701 360.444C665.107 359.019 665.22 357.525 665.032 356.054C665.012 355.679 664.886 355.316 664.667 355.01C664.411 354.755 664.095 354.567 663.749 354.463C660.621 353.223 657.431 351.496 655.853 348.525C655.158 347.044 654.684 345.47 654.447 343.852L651.392 328.329C651.029 326.484 650.665 324.636 650.163 322.823C649.752 321.339 649.25 319.882 648.747 318.426L645.411 308.755L642.954 301.635C642.938 301.491 642.893 301.353 642.821 301.227C642.749 301.102 642.651 300.993 642.535 300.907C642.419 300.822 642.286 300.761 642.145 300.729C642.004 300.697 641.858 300.695 641.716 300.722L634.844 300.717C630.287 300.713 633.861 309.907 634.7 312.282Z" fill="#FFB8B8"/>
<path d="M602.666 243.955C611.358 243.955 618.404 236.909 618.404 228.217C618.404 219.525 611.358 212.479 602.666 212.479C593.974 212.479 586.928 219.525 586.928 228.217C586.928 236.909 593.974 243.955 602.666 243.955Z" fill="#FFB8B8"/>
<path d="M594.404 247.334C593.504 248.722 592.035 249.619 590.616 250.469C587.956 252.173 585.147 253.634 582.225 254.836C579.595 255.826 576.754 256.421 574.466 258.053C572.065 259.765 570.52 262.474 569.673 265.299C568.826 268.124 568.611 271.094 568.401 274.036C568.312 274.643 568.361 275.262 568.546 275.846C568.898 276.72 569.798 277.231 570.659 277.611C575.047 279.55 579.961 279.843 584.754 280.028C594.35 280.397 603.955 280.446 613.558 280.495C617.298 280.75 621.046 280.124 624.5 278.669L631.079 276.305C632.005 276.02 632.887 275.607 633.699 275.077C636.482 273.068 636.588 268.939 635.725 265.617C635.069 263.094 633.903 260.534 631.716 259.116C630.45 258.405 629.093 257.87 627.684 257.524C622.983 256.048 618.593 253.723 614.732 250.665C613.801 249.992 612.997 249.158 612.359 248.203C611.18 246.251 611.332 243.814 611.331 241.533C611.375 241.175 611.345 240.813 611.244 240.467C611.143 240.122 610.972 239.8 610.742 239.523C610.279 239.186 609.72 239.005 609.147 239.007C605.413 238.636 601.543 238.353 597.865 239.286C595.576 239.867 595.35 239.995 595.443 242.235C595.516 243.988 595.384 245.822 594.404 247.334Z" fill="#FFB8B8"/>
<path d="M625.12 211.618L610.892 204.166L591.244 207.215L587.178 225.169L597.298 224.78L600.125 218.183V224.671L604.794 224.491L607.504 213.99L609.198 225.169L625.797 224.83L625.12 211.618Z" fill="#2F2E41"/>
<path opacity="0.1" d="M608.097 279.029C607.466 269.474 595.798 268.642 595.68 268.635L595.702 268.278C595.815 268.285 606.218 269.022 608.169 277.103C608.435 274.083 609.611 268.543 614.639 268.278L614.658 268.635C608.117 268.979 608.45 278.909 608.455 279.01L608.097 279.029Z" fill="black"/>
<path d="M604.69 276.271L569.205 269.298C569.023 269.227 568.827 269.198 568.633 269.211C568.438 269.225 568.248 269.281 568.078 269.376C567.907 269.471 567.76 269.603 567.646 269.761C567.531 269.92 567.454 270.101 567.418 270.293L566.132 272.954C565.003 275.009 564.325 277.281 564.141 279.619L563.351 285.558C563.313 286.559 562.987 287.528 562.414 288.349C562.028 288.754 561.577 289.091 561.079 289.346C559.883 289.936 558.801 290.732 557.882 291.699C557.034 292.725 556.615 294.232 557.239 295.407C558.248 297.305 561.117 297.227 562.596 298.786C563.958 300.222 563.694 302.56 562.909 304.377C562.402 305.55 561.702 306.717 561.761 307.994C561.842 308.709 562.103 309.391 562.52 309.978C562.937 310.564 563.496 311.035 564.145 311.345C565.449 311.952 566.859 312.299 568.296 312.367C571.344 312.674 574.409 312.763 577.469 312.634C579.008 312.656 580.534 312.359 581.953 311.763C583.331 311.087 584.483 309.747 584.508 308.213C584.55 305.684 581.676 303.685 582.04 301.183C582.065 300.935 582.155 300.698 582.303 300.497C582.795 299.891 583.76 300.14 584.512 299.932C585.708 299.601 586.202 298.086 585.935 296.874C585.668 295.662 584.879 294.645 584.278 293.559C583.206 291.627 582.736 289.419 582.928 287.218C585.657 287.885 582.129 290.401 582.516 293.183C583.466 300.012 586.541 307.818 585.305 314.601C585.205 314.901 585.173 315.22 585.209 315.534C585.246 315.848 585.351 316.151 585.516 316.42C585.77 316.672 586.088 316.848 586.436 316.93C590.957 318.348 595.753 316.448 600.41 315.575C603.656 315.039 606.944 314.793 610.234 314.84C615.086 314.806 619.935 314.948 624.782 315.267C626.004 315.347 627.289 315.427 628.395 314.903C629.502 314.379 630.317 313.02 629.805 311.908C633.618 311.835 637.206 314.237 641.007 313.915C645.102 313.568 648.214 310.225 650.896 307.111C651.641 306.385 652.178 305.473 652.449 304.469C652.647 303.324 652.147 302.191 651.761 301.096C651.329 299.874 651.029 298.61 650.864 297.325C650.692 296.522 650.788 295.683 651.139 294.94C651.634 294.103 652.65 293.711 653.235 292.935C654.42 291.367 653.322 289.039 651.77 287.831C650.219 286.624 648.251 285.967 646.896 284.543C645 282.552 644.733 279.577 644.258 276.869C643.839 274.482 643.136 272.049 641.543 270.222C639.949 268.396 637.272 267.336 635.021 268.235C634.33 268.565 633.658 268.932 633.007 269.335C631.674 269.971 630.262 270.425 628.808 270.686C620.717 272.511 612.83 277.871 604.69 276.271Z" fill="#FF6996"/>
<path d="M552.217 357.076C552.217 357.076 570.786 364.775 564.898 369.305C559.01 373.834 546.781 363.87 547.234 362.511C547.687 361.152 545.423 357.982 545.423 357.982L552.217 357.076Z" fill="#9F616A"/>
<path d="M535.912 296.384L541.8 301.819L543.158 317.671L547.688 334.43C547.688 334.43 555.387 350.282 554.029 353.453C552.67 356.623 555.387 357.529 555.387 357.529L544.97 361.605C544.97 361.605 533.647 348.923 533.647 346.206C533.647 343.488 535.912 296.384 535.912 296.384Z" fill="#575A88"/>
<path opacity="0.1" d="M535.912 296.384L541.8 301.819L543.158 317.671L547.688 334.43C547.688 334.43 555.387 350.282 554.029 353.453C552.67 356.623 555.387 357.529 555.387 357.529L544.97 361.605C544.97 361.605 533.647 348.923 533.647 346.206C533.647 343.488 535.912 296.384 535.912 296.384Z" fill="black"/>
<path d="M532.288 357.981L535.459 361.605C535.459 361.605 601.133 369.757 602.491 382.439C603.85 395.121 613.362 468.14 607.927 469.952C602.491 471.764 588.451 478.558 588.451 474.934C588.451 471.311 579.392 408.256 581.204 399.198C581.204 399.198 502.848 389.233 501.036 377.91C499.225 366.587 502.848 361.605 502.848 361.605L532.288 357.981Z" fill="#2F2E41"/>
<path opacity="0.1" d="M532.288 357.981L535.459 361.605C535.459 361.605 601.133 369.757 602.491 382.439C603.85 395.121 613.362 468.14 607.927 469.952C602.491 471.764 588.451 478.558 588.451 474.934C588.451 471.311 579.392 408.256 581.204 399.198C581.204 399.198 502.848 389.233 501.036 377.91C499.225 366.587 502.848 361.605 502.848 361.605L532.288 357.981Z" fill="black"/>
<path d="M504.66 261.962C504.66 261.962 507.83 277.361 501.036 278.72C494.242 280.079 509.642 289.137 509.642 289.137L519.606 294.572L526.853 287.325C526.853 287.325 520.285 273.964 525.268 264C530.25 254.035 504.66 261.962 504.66 261.962Z" fill="#9F616A"/>
<path d="M526.853 287.325L519.606 294.572L509.642 289.137C509.642 289.137 494.242 280.079 501.036 278.72C505.407 277.846 505.651 271.161 505.276 266.504C505.153 264.98 504.947 263.464 504.66 261.962C504.66 261.962 530.25 254.035 525.268 264C524.511 265.538 523.986 267.181 523.71 268.873C522.183 277.828 526.853 287.325 526.853 287.325Z" fill="#9F616A"/>
<path d="M481.108 367.04C481.108 367.04 481.108 393.763 491.978 394.669C502.848 395.575 541.8 400.557 541.8 400.557C541.8 400.557 544.064 444.943 548.141 459.437C552.217 473.931 548.593 474.836 552.217 475.742C555.84 476.648 571.24 473.478 570.787 470.307C570.334 467.137 568.522 386.969 568.522 386.969C568.522 386.969 572.598 369.758 518.248 361.605L481.108 367.04Z" fill="#2F2E41"/>
<path opacity="0.1" d="M525.268 267.669C524.511 269.208 523.986 270.85 523.71 272.543C521.454 273.906 519.946 273.557 517.115 273.557C512.916 273.557 511.223 268.19 508.51 265.405C508.297 262.818 504.66 265.631 504.66 265.631C504.66 265.631 530.25 257.705 525.268 267.669Z" fill="black"/>
<path d="M516.511 272.655C526.091 272.655 533.856 264.889 533.856 255.309C533.856 245.73 526.091 237.964 516.511 237.964C506.932 237.964 499.166 245.73 499.166 255.309C499.166 264.889 506.932 272.655 516.511 272.655Z" fill="#9F616A"/>
<path d="M541.8 301.819C541.8 301.819 539.535 318.124 538.176 324.012C536.817 329.9 535.006 357.076 534.1 360.699C533.194 364.322 527.759 365.228 516.889 363.869C516.206 363.783 515.52 363.732 514.832 363.715C508.138 363.503 500.479 366.007 493.391 367.973C489.315 369.105 485.424 370.056 482.014 370.21C476.85 370.446 475.337 364.721 475.514 358.525C475.682 352.759 477.317 346.577 478.843 344.394C481.592 340.462 478.888 305.166 479.903 293.526V293.521C480.057 291.746 480.297 290.523 480.655 290.043C483.372 286.419 501.036 277.361 503.016 277.728C504.99 278.094 521.871 288.684 521.871 288.684C525.947 288.684 525.816 284.263 525.816 284.263C525.816 284.263 528.665 289.59 534.1 290.948C539.535 292.307 541.8 301.819 541.8 301.819Z" fill="#575A88"/>
<path d="M511.523 360.537C511.523 360.537 540.698 361.466 535.587 364.932C530.476 368.399 507.83 371.569 507.377 367.04C506.924 362.511 511.523 360.537 511.523 360.537Z" fill="#9F616A"/>
<path opacity="0.1" d="M514.832 363.716C514.927 365.455 510.249 369.373 508.736 372.022C507.898 373.49 501.412 371.556 493.391 367.973C487.235 365.21 481.264 362.055 475.514 358.525C475.681 352.759 477.317 346.577 478.843 344.394C481.592 340.463 478.888 305.166 479.903 293.526V293.521C480.145 293.399 480.396 293.296 480.655 293.213H486.09C504.66 301.819 483.372 338.959 483.372 338.959C483.372 338.959 511.453 362.058 514.171 362.964C514.349 362.998 514.511 363.09 514.631 363.226C514.751 363.362 514.822 363.535 514.832 363.716Z" fill="black"/>
<path d="M486.09 290.496H480.655C480.655 290.496 475.672 291.855 471.596 300.913C467.52 309.972 452.573 338.053 465.708 348.923C478.843 359.793 506.924 372.475 508.736 369.305C510.548 366.134 516.889 361.152 514.171 360.246C511.453 359.34 483.372 336.241 483.372 336.241C483.372 336.241 504.66 299.101 486.09 290.496Z" fill="#575A88"/>
<path d="M513.843 247.238C513.843 247.238 514.604 236.701 523.994 240.997C533.385 245.294 532.772 233.451 529.934 231.358C527.097 229.266 527.186 228.748 516.808 230.148C506.429 231.548 486.279 233.92 492.794 254.789C499.31 275.658 505.21 270.289 505.21 270.289C505.21 270.289 500.032 251.51 505.279 255.088L510.526 258.666L513.296 258.079L513.843 247.238Z" fill="#2F2E41"/>
<path opacity="0.4" d="M404.656 260.223C415.211 260.223 423.768 251.666 423.768 241.111C423.768 230.556 415.211 222 404.656 222C394.101 222 385.545 230.556 385.545 241.111C385.545 251.666 394.101 260.223 404.656 260.223Z" fill="#FF6996"/>
<path opacity="0.4" d="M369.286 263.646C376.69 263.646 382.693 257.644 382.693 250.239C382.693 242.835 376.69 236.833 369.286 236.833C361.882 236.833 355.88 242.835 355.88 250.239C355.88 257.644 361.882 263.646 369.286 263.646Z" fill="#FF6996"/>
<path opacity="0.4" d="M703.833 418.193C711.237 418.193 717.24 412.191 717.24 404.787C717.24 397.383 711.237 391.38 703.833 391.38C696.429 391.38 690.427 397.383 690.427 404.787C690.427 412.191 696.429 418.193 703.833 418.193Z" fill="#FF6996"/>
</g>
</g>
<defs>
<filter id="filter0_dddd_128:1363" x="0" y="0" width="821" height="518" filterUnits="userSpaceOnUse" color-interpolation-filters="sRGB">
<feFlood flood-opacity="0" result="BackgroundImageFix"/>
<feColorMatrix in="SourceAlpha" type="matrix" values="0 0 0 0 0 0 0 0 0 0 0 0 0 0 0 0 0 0 127 0" result="hardAlpha"/>
<feOffset/>
<feGaussianBlur stdDeviation="0.5"/>
<feColorMatrix type="matrix" values="0 0 0 0 0 0 0 0 0 0 0 0 0 0 0 0 0 0 0.04 0"/>
<feBlend mode="normal" in2="BackgroundImageFix" result="effect1_dropShadow_128:1363"/>
<feColorMatrix in="SourceAlpha" type="matrix" values="0 0 0 0 0 0 0 0 0 0 0 0 0 0 0 0 0 0 127 0" result="hardAlpha"/>
<feOffset dy="4"/>
<feGaussianBlur stdDeviation="4"/>
<feColorMatrix type="matrix" values="0 0 0 0 0 0 0 0 0 0 0 0 0 0 0 0 0 0 0.04 0"/>
<feBlend mode="normal" in2="effect1_dropShadow_128:1363" result="effect2_dropShadow_128:1363"/>
<feColorMatrix in="SourceAlpha" type="matrix" values="0 0 0 0 0 0 0 0 0 0 0 0 0 0 0 0 0 0 127 0" result="hardAlpha"/>
<feOffset dy="16"/>
<feGaussianBlur stdDeviation="12"/>
<feColorMatrix type="matrix" values="0 0 0 0 0 0 0 0 0 0 0 0 0 0 0 0 0 0 0.04 0"/>
<feBlend mode="normal" in2="effect2_dropShadow_128:1363" result="effect3_dropShadow_128:1363"/>
<feColorMatrix in="SourceAlpha" type="matrix" values="0 0 0 0 0 0 0 0 0 0 0 0 0 0 0 0 0 0 127 0" result="hardAlpha"/>
<feOffset dy="24"/>
<feGaussianBlur stdDeviation="16"/>
<feColorMatrix type="matrix" values="0 0 0 0 0 0 0 0 0 0 0 0 0 0 0 0 0 0 0.04 0"/>
<feBlend mode="normal" in2="effect3_dropShadow_128:1363" result="effect4_dropShadow_128:1363"/>
<feBlend mode="normal" in="SourceGraphic" in2="effect4_dropShadow_128:1363" result="shape"/>
</filter>
<clipPath id="clip0_128:1363">
<rect width="646.39" height="325" fill="white" transform="translate(137 179)"/>
</clipPath>
</defs>
</svg>
