<svg width="822" height="518" viewBox="0 0 822 518" fill="none" xmlns="http://www.w3.org/2000/svg">
<g filter="url(#filter0_dddd_165:83)">
<rect x="32.5933" y="8" width="757" height="454" rx="12" fill="#F6F6F6"/>
</g>
<path d="M114.409 127.896C109.716 127.896 105.492 126.915 101.737 124.952C98.0253 122.947 95.1026 120.173 92.9693 116.632C90.8359 113.091 89.7693 109.08 89.7693 104.6C89.7693 100.12 90.8359 96.1093 92.9693 92.568C95.1026 89.0267 98.0253 86.2747 101.737 84.312C105.492 82.3067 109.716 81.304 114.409 81.304C118.505 81.304 122.196 82.0293 125.481 83.48C128.767 84.9307 131.497 87.0213 133.673 89.752L125.609 97.048C122.708 93.5493 119.188 91.8 115.049 91.8C112.617 91.8 110.441 92.3333 108.521 93.4C106.644 94.4667 105.172 95.9813 104.105 97.944C103.081 99.864 102.569 102.083 102.569 104.6C102.569 107.117 103.081 109.357 104.105 111.32C105.172 113.24 106.644 114.733 108.521 115.8C110.441 116.867 112.617 117.4 115.049 117.4C119.188 117.4 122.708 115.651 125.609 112.152L133.673 119.448C131.497 122.179 128.767 124.269 125.481 125.72C122.196 127.171 118.505 127.896 114.409 127.896ZM159.495 127.896C152.839 127.896 147.655 126.083 143.943 122.456C140.274 118.829 138.439 113.688 138.439 107.032V82.2H151.111V106.648C151.111 113.816 153.949 117.4 159.623 117.4C165.255 117.4 168.071 113.816 168.071 106.648V82.2H180.551V107.032C180.551 113.688 178.695 118.829 174.983 122.456C171.314 126.083 166.151 127.896 159.495 127.896ZM229.584 127L229.456 103.256L217.936 122.584H212.304L200.848 103.896V127H189.136V82.2H199.568L215.312 108.056L230.672 82.2H241.104L241.232 127H229.584ZM280.214 118.296H261.27L257.75 127H244.822L264.598 82.2H277.078L296.918 127H283.734L280.214 118.296ZM276.502 108.952L270.742 94.616L264.982 108.952H276.502ZM328.672 92.248H314.912V82.2H355.04V92.248H341.344V127H328.672V92.248ZM387.527 118.296H368.583L365.063 127H352.135L371.911 82.2H384.391L404.231 127H391.047L387.527 118.296ZM383.815 108.952L378.055 94.616L372.295 108.952H383.815ZM450.447 82.2V127H437.775V109.528H420.495V127H407.823V82.2H420.495V99.032H437.775V82.2H450.447ZM480.058 127.896C473.402 127.896 468.218 126.083 464.506 122.456C460.836 118.829 459.002 113.688 459.002 107.032V82.2H471.674V106.648C471.674 113.816 474.511 117.4 480.186 117.4C485.818 117.4 488.634 113.816 488.634 106.648V82.2H501.114V107.032C501.114 113.688 499.258 118.829 495.546 122.456C491.876 126.083 486.714 127.896 480.058 127.896Z" fill="#FF4A3D"/>
<path d="M102.649 189.384L108.601 178.152H111.705L104.089 192.136V201H101.209V192.264L93.5933 178.152H96.7293L102.649 189.384ZM119.341 183.56C121.431 183.56 122.978 184.019 123.981 184.936C124.983 185.853 125.485 187.315 125.485 189.32V201H123.437L122.893 198.568H122.765C122.018 199.507 121.229 200.2 120.397 200.648C119.586 201.096 118.455 201.32 117.005 201.32C115.447 201.32 114.157 200.915 113.133 200.104C112.109 199.272 111.597 197.981 111.597 196.232C111.597 194.525 112.269 193.213 113.613 192.296C114.957 191.357 117.026 190.845 119.821 190.76L122.733 190.664V189.64C122.733 188.211 122.423 187.219 121.805 186.664C121.186 186.109 120.311 185.832 119.181 185.832C118.285 185.832 117.431 185.971 116.621 186.248C115.81 186.504 115.053 186.803 114.349 187.144L113.485 185.032C114.231 184.627 115.117 184.285 116.141 184.008C117.165 183.709 118.231 183.56 119.341 183.56ZM120.173 192.712C118.039 192.797 116.557 193.139 115.725 193.736C114.914 194.333 114.509 195.176 114.509 196.264C114.509 197.224 114.797 197.928 115.373 198.376C115.97 198.824 116.727 199.048 117.645 199.048C119.095 199.048 120.301 198.653 121.261 197.864C122.221 197.053 122.701 195.816 122.701 194.152V192.616L120.173 192.712ZM133.566 189.384C133.566 189.725 133.545 190.173 133.502 190.728C133.481 191.283 133.459 191.763 133.438 192.168H133.566C133.694 191.997 133.886 191.752 134.142 191.432C134.398 191.112 134.654 190.792 134.91 190.472C135.187 190.131 135.422 189.853 135.614 189.64L141.086 183.848H144.382L137.438 191.176L144.862 201H141.47L135.518 193L133.566 194.696V201H130.782V176.68H133.566V189.384ZM149.316 177.416C149.742 177.416 150.116 177.565 150.436 177.864C150.777 178.141 150.948 178.589 150.948 179.208C150.948 179.805 150.777 180.253 150.436 180.552C150.116 180.851 149.742 181 149.316 181C148.846 181 148.452 180.851 148.132 180.552C147.812 180.253 147.652 179.805 147.652 179.208C147.652 178.589 147.812 178.141 148.132 177.864C148.452 177.565 148.846 177.416 149.316 177.416ZM150.692 183.848V201H147.876V183.848H150.692ZM164.382 183.528C166.43 183.528 167.976 184.029 169.022 185.032C170.067 186.013 170.59 187.613 170.59 189.832V201H167.806V190.024C167.806 187.272 166.526 185.896 163.966 185.896C162.067 185.896 160.755 186.429 160.03 187.496C159.304 188.563 158.942 190.099 158.942 192.104V201H156.126V183.848H158.398L158.814 186.184H158.974C159.528 185.288 160.296 184.627 161.278 184.2C162.259 183.752 163.294 183.528 164.382 183.528ZM187.004 189.384C187.004 189.725 186.982 190.173 186.94 190.728C186.918 191.283 186.897 191.763 186.876 192.168H187.004C187.132 191.997 187.324 191.752 187.58 191.432C187.836 191.112 188.092 190.792 188.348 190.472C188.625 190.131 188.86 189.853 189.052 189.64L194.524 183.848H197.82L190.876 191.176L198.3 201H194.908L188.956 193L187.004 194.696V201H184.22V176.68H187.004V189.384ZM207.937 183.528C209.409 183.528 210.668 183.848 211.713 184.488C212.78 185.128 213.591 186.035 214.145 187.208C214.721 188.36 215.009 189.715 215.009 191.272V192.968H203.265C203.308 194.909 203.799 196.392 204.737 197.416C205.697 198.419 207.031 198.92 208.737 198.92C209.825 198.92 210.785 198.824 211.617 198.632C212.471 198.419 213.345 198.12 214.241 197.736V200.2C213.367 200.584 212.503 200.861 211.649 201.032C210.796 201.224 209.783 201.32 208.609 201.32C206.988 201.32 205.548 200.989 204.289 200.328C203.052 199.667 202.081 198.685 201.377 197.384C200.695 196.061 200.353 194.451 200.353 192.552C200.353 190.675 200.663 189.064 201.281 187.72C201.921 186.376 202.807 185.341 203.937 184.616C205.089 183.891 206.423 183.528 207.937 183.528ZM207.905 185.832C206.561 185.832 205.495 186.269 204.705 187.144C203.937 187.997 203.479 189.192 203.329 190.728H212.065C212.044 189.277 211.703 188.104 211.041 187.208C210.38 186.291 209.335 185.832 207.905 185.832ZM227.632 183.528C229.68 183.528 231.226 184.029 232.272 185.032C233.317 186.013 233.84 187.613 233.84 189.832V201H231.056V190.024C231.056 187.272 229.776 185.896 227.216 185.896C225.317 185.896 224.005 186.429 223.28 187.496C222.554 188.563 222.192 190.099 222.192 192.104V201H219.376V183.848H221.648L222.064 186.184H222.224C222.778 185.288 223.546 184.627 224.528 184.2C225.509 183.752 226.544 183.528 227.632 183.528ZM245.653 183.56C247.744 183.56 249.29 184.019 250.293 184.936C251.296 185.853 251.797 187.315 251.797 189.32V201H249.749L249.205 198.568H249.077C248.33 199.507 247.541 200.2 246.709 200.648C245.898 201.096 244.768 201.32 243.317 201.32C241.76 201.32 240.469 200.915 239.445 200.104C238.421 199.272 237.909 197.981 237.909 196.232C237.909 194.525 238.581 193.213 239.925 192.296C241.269 191.357 243.338 190.845 246.133 190.76L249.045 190.664V189.64C249.045 188.211 248.736 187.219 248.117 186.664C247.498 186.109 246.624 185.832 245.493 185.832C244.597 185.832 243.744 185.971 242.933 186.248C242.122 186.504 241.365 186.803 240.661 187.144L239.797 185.032C240.544 184.627 241.429 184.285 242.453 184.008C243.477 183.709 244.544 183.56 245.653 183.56ZM246.485 192.712C244.352 192.797 242.869 193.139 242.037 193.736C241.226 194.333 240.821 195.176 240.821 196.264C240.821 197.224 241.109 197.928 241.685 198.376C242.282 198.824 243.04 199.048 243.957 199.048C245.408 199.048 246.613 198.653 247.573 197.864C248.533 197.053 249.013 195.816 249.013 194.152V192.616L246.485 192.712ZM259.911 201H257.095V176.68H259.911V201ZM280.153 183.56C282.244 183.56 283.79 184.019 284.793 184.936C285.796 185.853 286.297 187.315 286.297 189.32V201H284.249L283.705 198.568H283.577C282.83 199.507 282.041 200.2 281.209 200.648C280.398 201.096 279.268 201.32 277.817 201.32C276.26 201.32 274.969 200.915 273.945 200.104C272.921 199.272 272.409 197.981 272.409 196.232C272.409 194.525 273.081 193.213 274.425 192.296C275.769 191.357 277.838 190.845 280.633 190.76L283.545 190.664V189.64C283.545 188.211 283.236 187.219 282.617 186.664C281.998 186.109 281.124 185.832 279.993 185.832C279.097 185.832 278.244 185.971 277.433 186.248C276.622 186.504 275.865 186.803 275.161 187.144L274.297 185.032C275.044 184.627 275.929 184.285 276.953 184.008C277.977 183.709 279.044 183.56 280.153 183.56ZM280.985 192.712C278.852 192.797 277.369 193.139 276.537 193.736C275.726 194.333 275.321 195.176 275.321 196.264C275.321 197.224 275.609 197.928 276.185 198.376C276.782 198.824 277.54 199.048 278.457 199.048C279.908 199.048 281.113 198.653 282.073 197.864C283.033 197.053 283.513 195.816 283.513 194.152V192.616L280.985 192.712ZM291.371 179.208C291.371 178.589 291.531 178.141 291.851 177.864C292.171 177.565 292.565 177.416 293.035 177.416C293.461 177.416 293.835 177.565 294.155 177.864C294.496 178.141 294.667 178.589 294.667 179.208C294.667 179.805 294.496 180.253 294.155 180.552C293.835 180.851 293.461 181 293.035 181C292.565 181 292.171 180.851 291.851 180.552C291.531 180.253 291.371 179.805 291.371 179.208ZM289.579 208.68C289.045 208.68 288.576 208.637 288.171 208.552C287.765 208.488 287.413 208.403 287.115 208.296V206.024C287.435 206.109 287.765 206.184 288.107 206.248C288.448 206.312 288.821 206.344 289.227 206.344C289.909 206.344 290.475 206.152 290.923 205.768C291.371 205.405 291.595 204.701 291.595 203.656V183.848H294.411V203.56C294.411 205.16 294.027 206.408 293.259 207.304C292.491 208.221 291.264 208.68 289.579 208.68ZM306.341 183.56C308.431 183.56 309.978 184.019 310.981 184.936C311.983 185.853 312.485 187.315 312.485 189.32V201H310.437L309.893 198.568H309.765C309.018 199.507 308.229 200.2 307.397 200.648C306.586 201.096 305.455 201.32 304.005 201.32C302.447 201.32 301.157 200.915 300.133 200.104C299.109 199.272 298.597 197.981 298.597 196.232C298.597 194.525 299.269 193.213 300.613 192.296C301.957 191.357 304.026 190.845 306.821 190.76L309.733 190.664V189.64C309.733 188.211 309.423 187.219 308.805 186.664C308.186 186.109 307.311 185.832 306.181 185.832C305.285 185.832 304.431 185.971 303.621 186.248C302.81 186.504 302.053 186.803 301.349 187.144L300.485 185.032C301.231 184.627 302.117 184.285 303.141 184.008C304.165 183.709 305.231 183.56 306.341 183.56ZM307.173 192.712C305.039 192.797 303.557 193.139 302.725 193.736C301.914 194.333 301.509 195.176 301.509 196.264C301.509 197.224 301.797 197.928 302.373 198.376C302.97 198.824 303.727 199.048 304.645 199.048C306.095 199.048 307.301 198.653 308.261 197.864C309.221 197.053 309.701 195.816 309.701 194.152V192.616L307.173 192.712ZM332.975 201.32C331.46 201.32 330.105 201.011 328.911 200.392C327.737 199.773 326.809 198.813 326.127 197.512C325.465 196.211 325.135 194.547 325.135 192.52C325.135 190.408 325.487 188.691 326.191 187.368C326.895 186.045 327.844 185.075 329.039 184.456C330.255 183.837 331.631 183.528 333.167 183.528C334.041 183.528 334.884 183.624 335.695 183.816C336.505 183.987 337.167 184.2 337.679 184.456L336.815 186.792C336.303 186.6 335.705 186.419 335.023 186.248C334.34 186.077 333.7 185.992 333.103 185.992C329.732 185.992 328.047 188.157 328.047 192.488C328.047 194.557 328.452 196.147 329.263 197.256C330.095 198.344 331.321 198.888 332.943 198.888C333.881 198.888 334.703 198.792 335.407 198.6C336.132 198.408 336.793 198.173 337.391 197.896V200.392C336.815 200.691 336.175 200.915 335.471 201.064C334.788 201.235 333.956 201.32 332.975 201.32ZM355.806 183.848V201H353.502L353.086 198.728H352.958C352.403 199.624 351.635 200.285 350.654 200.712C349.672 201.117 348.627 201.32 347.518 201.32C345.448 201.32 343.891 200.829 342.846 199.848C341.8 198.845 341.278 197.256 341.278 195.08V183.848H344.126V194.888C344.126 197.619 345.395 198.984 347.934 198.984C349.832 198.984 351.144 198.451 351.87 197.384C352.616 196.317 352.99 194.781 352.99 192.776V183.848H355.806ZM364.035 189.384C364.035 189.725 364.013 190.173 363.971 190.728C363.949 191.283 363.928 191.763 363.907 192.168H364.035C364.163 191.997 364.355 191.752 364.611 191.432C364.867 191.112 365.123 190.792 365.379 190.472C365.656 190.131 365.891 189.853 366.083 189.64L371.555 183.848H374.851L367.907 191.176L375.331 201H371.939L365.987 193L364.035 194.696V201H361.251V176.68H364.035V189.384ZM392.681 183.848V201H390.377L389.961 198.728H389.833C389.278 199.624 388.51 200.285 387.529 200.712C386.547 201.117 385.502 201.32 384.393 201.32C382.323 201.32 380.766 200.829 379.721 199.848C378.675 198.845 378.153 197.256 378.153 195.08V183.848H381.001V194.888C381.001 197.619 382.27 198.984 384.809 198.984C386.707 198.984 388.019 198.451 388.745 197.384C389.491 196.317 389.865 194.781 389.865 192.776V183.848H392.681ZM406.286 183.528C408.398 183.528 410.094 184.264 411.374 185.736C412.675 187.208 413.326 189.427 413.326 192.392C413.326 195.315 412.675 197.533 411.374 199.048C410.094 200.563 408.387 201.32 406.254 201.32C404.931 201.32 403.832 201.075 402.958 200.584C402.104 200.072 401.432 199.485 400.942 198.824H400.75C400.792 199.187 400.835 199.645 400.878 200.2C400.92 200.755 400.942 201.235 400.942 201.64V208.68H398.126V183.848H400.43L400.814 186.184H400.942C401.454 185.437 402.126 184.808 402.958 184.296C403.79 183.784 404.899 183.528 406.286 183.528ZM405.774 185.896C404.024 185.896 402.787 186.387 402.062 187.368C401.358 188.349 400.984 189.843 400.942 191.848V192.392C400.942 194.504 401.283 196.136 401.966 197.288C402.67 198.419 403.96 198.984 405.838 198.984C406.883 198.984 407.736 198.696 408.398 198.12C409.08 197.544 409.582 196.765 409.902 195.784C410.243 194.781 410.414 193.64 410.414 192.36C410.414 190.397 410.03 188.829 409.262 187.656C408.515 186.483 407.352 185.896 405.774 185.896ZM440.462 183.848V201H438.158L437.742 198.728H437.614C437.059 199.624 436.291 200.285 435.31 200.712C434.328 201.117 433.283 201.32 432.174 201.32C430.104 201.32 428.547 200.829 427.502 199.848C426.456 198.845 425.934 197.256 425.934 195.08V183.848H428.782V194.888C428.782 197.619 430.051 198.984 432.59 198.984C434.488 198.984 435.8 198.451 436.526 197.384C437.272 196.317 437.646 194.781 437.646 192.776V183.848H440.462ZM454.163 183.528C456.211 183.528 457.758 184.029 458.803 185.032C459.848 186.013 460.371 187.613 460.371 189.832V201H457.587V190.024C457.587 187.272 456.307 185.896 453.747 185.896C451.848 185.896 450.536 186.429 449.811 187.496C449.086 188.563 448.723 190.099 448.723 192.104V201H445.907V183.848H448.179L448.595 186.184H448.755C449.31 185.288 450.078 184.627 451.059 184.2C452.04 183.752 453.075 183.528 454.163 183.528ZM471.416 199.016C471.843 199.016 472.28 198.984 472.728 198.92C473.176 198.835 473.539 198.749 473.816 198.664V200.808C473.518 200.957 473.091 201.075 472.536 201.16C471.982 201.267 471.448 201.32 470.936 201.32C470.04 201.32 469.208 201.171 468.44 200.872C467.694 200.552 467.086 200.008 466.616 199.24C466.147 198.472 465.912 197.395 465.912 196.008V186.024H463.48V184.68L465.944 183.56L467.064 179.912H468.728V183.848H473.688V186.024H468.728V195.944C468.728 196.989 468.974 197.768 469.464 198.28C469.976 198.771 470.627 199.016 471.416 199.016ZM491.587 183.848V201H489.283L488.867 198.728H488.739C488.184 199.624 487.416 200.285 486.435 200.712C485.453 201.117 484.408 201.32 483.299 201.32C481.229 201.32 479.672 200.829 478.627 199.848C477.581 198.845 477.059 197.256 477.059 195.08V183.848H479.907V194.888C479.907 197.619 481.176 198.984 483.715 198.984C485.613 198.984 486.925 198.451 487.651 197.384C488.397 196.317 488.771 194.781 488.771 192.776V183.848H491.587ZM499.816 189.384C499.816 189.725 499.795 190.173 499.752 190.728C499.731 191.283 499.709 191.763 499.688 192.168H499.816C499.944 191.997 500.136 191.752 500.392 191.432C500.648 191.112 500.904 190.792 501.16 190.472C501.437 190.131 501.672 189.853 501.864 189.64L507.336 183.848H510.632L503.688 191.176L511.112 201H507.72L501.768 193L499.816 194.696V201H497.032V176.68H499.816V189.384ZM99.0973 233.384C99.0973 233.725 99.0759 234.173 99.0333 234.728C99.0119 235.283 98.9906 235.763 98.9693 236.168H99.0973C99.2253 235.997 99.4173 235.752 99.6733 235.432C99.9293 235.112 100.185 234.792 100.441 234.472C100.719 234.131 100.953 233.853 101.145 233.64L106.617 227.848H109.913L102.969 235.176L110.393 245H107.001L101.049 237L99.0973 238.696V245H96.3133V220.68H99.0973V233.384ZM114.847 221.416C115.274 221.416 115.647 221.565 115.967 221.864C116.308 222.141 116.479 222.589 116.479 223.208C116.479 223.805 116.308 224.253 115.967 224.552C115.647 224.851 115.274 225 114.847 225C114.378 225 113.983 224.851 113.663 224.552C113.343 224.253 113.183 223.805 113.183 223.208C113.183 222.589 113.343 222.141 113.663 221.864C113.983 221.565 114.378 221.416 114.847 221.416ZM116.223 227.848V245H113.407V227.848H116.223ZM127.385 243.016C127.812 243.016 128.249 242.984 128.697 242.92C129.145 242.835 129.508 242.749 129.785 242.664V244.808C129.486 244.957 129.06 245.075 128.505 245.16C127.95 245.267 127.417 245.32 126.905 245.32C126.009 245.32 125.177 245.171 124.409 244.872C123.662 244.552 123.054 244.008 122.585 243.24C122.116 242.472 121.881 241.395 121.881 240.008V230.024H119.449V228.68L121.913 227.56L123.033 223.912H124.697V227.848H129.657V230.024H124.697V239.944C124.697 240.989 124.942 241.768 125.433 242.28C125.945 242.771 126.596 243.016 127.385 243.016ZM139.716 227.56C141.806 227.56 143.353 228.019 144.356 228.936C145.358 229.853 145.86 231.315 145.86 233.32V245H143.812L143.268 242.568H143.14C142.393 243.507 141.604 244.2 140.772 244.648C139.961 245.096 138.83 245.32 137.38 245.32C135.822 245.32 134.532 244.915 133.508 244.104C132.484 243.272 131.972 241.981 131.972 240.232C131.972 238.525 132.644 237.213 133.988 236.296C135.332 235.357 137.401 234.845 140.196 234.76L143.108 234.664V233.64C143.108 232.211 142.798 231.219 142.18 230.664C141.561 230.109 140.686 229.832 139.556 229.832C138.66 229.832 137.806 229.971 136.996 230.248C136.185 230.504 135.428 230.803 134.724 231.144L133.86 229.032C134.606 228.627 135.492 228.285 136.516 228.008C137.54 227.709 138.606 227.56 139.716 227.56ZM140.548 236.712C138.414 236.797 136.932 237.139 136.1 237.736C135.289 238.333 134.884 239.176 134.884 240.264C134.884 241.224 135.172 241.928 135.748 242.376C136.345 242.824 137.102 243.048 138.02 243.048C139.47 243.048 140.676 242.653 141.636 241.864C142.596 241.053 143.076 239.816 143.076 238.152V236.616L140.548 236.712ZM152.917 237.704C152.917 236.893 152.992 236.2 153.141 235.624C153.312 235.027 153.589 234.461 153.973 233.928C154.378 233.395 154.922 232.84 155.605 232.264C156.437 231.56 157.077 230.973 157.525 230.504C157.994 230.035 158.325 229.576 158.517 229.128C158.709 228.68 158.805 228.136 158.805 227.496C158.805 226.472 158.474 225.683 157.813 225.128C157.152 224.573 156.192 224.296 154.933 224.296C153.888 224.296 152.96 224.435 152.149 224.712C151.338 224.968 150.56 225.277 149.813 225.64L148.821 223.4C149.674 222.952 150.613 222.579 151.637 222.28C152.682 221.981 153.845 221.832 155.125 221.832C157.152 221.832 158.72 222.333 159.829 223.336C160.938 224.339 161.493 225.704 161.493 227.432C161.493 228.392 161.333 229.213 161.013 229.896C160.714 230.557 160.277 231.176 159.701 231.752C159.146 232.307 158.485 232.904 157.717 233.544C157.013 234.141 156.469 234.664 156.085 235.112C155.722 235.56 155.477 236.008 155.349 236.456C155.221 236.883 155.157 237.405 155.157 238.024V238.568H152.917V237.704ZM152.181 243.272C152.181 242.483 152.362 241.928 152.725 241.608C153.109 241.288 153.589 241.128 154.165 241.128C154.698 241.128 155.157 241.288 155.541 241.608C155.925 241.928 156.117 242.483 156.117 243.272C156.117 244.04 155.925 244.595 155.541 244.936C155.157 245.277 154.698 245.448 154.165 245.448C153.589 245.448 153.109 245.277 152.725 244.936C152.362 244.595 152.181 244.04 152.181 243.272Z" fill="black"/>
<mask id="mask0_165:83" style="mask-type:alpha" maskUnits="userSpaceOnUse" x="32" y="8" width="758" height="454">
<rect x="32.5933" y="8" width="757" height="454" rx="12" fill="#F6F6F6"/>
</mask>
<g mask="url(#mask0_165:83)">
<path d="M767.148 322.643L760.887 350.805L755.804 373.652L751.753 391.874L746.673 414.721L730.074 489.362L524.389 394.319L509.27 387.331L490.132 378.487L475.008 371.499L456.817 363.092L467.13 348.088L475.705 335.612L486.554 319.827L495.128 307.359L591.603 167L693.804 257.615L712.003 273.751L726.515 286.618L744.717 302.753L767.148 322.643Z" fill="#F2F2F2"/>
<path d="M468.174 405.498C454.42 397.831 445.858 387.363 442.725 374.385C440.399 364.75 441.067 353.907 444.712 342.158C447.413 333.496 451.464 325.314 456.715 317.914C484.569 278.487 487.083 252.796 484.287 238.187C481.221 222.168 471.262 215.516 471.162 215.45L471.591 214.789C471.694 214.856 481.916 221.663 485.055 238.007C486.865 247.429 486.014 258.173 482.525 269.94C478.183 284.584 469.716 300.878 457.359 318.369C452.156 325.701 448.142 333.809 445.465 342.392C439.488 361.661 438.642 388.132 468.558 404.81L468.174 405.498Z" fill="#2F2E41"/>
<path d="M474.789 405.498C488.543 397.831 497.105 387.363 500.238 374.385C502.564 364.75 501.896 353.907 498.251 342.158C495.549 333.496 491.499 325.314 486.248 317.914C458.394 278.487 455.88 252.796 458.676 238.187C461.742 222.168 471.701 215.516 471.801 215.45L471.371 214.789C471.269 214.856 461.047 221.663 457.907 238.007C456.098 247.429 456.949 258.173 460.438 269.94C464.78 284.584 473.247 300.878 485.604 318.369C490.807 325.701 494.821 333.809 497.498 342.392C503.475 361.661 504.321 388.132 474.405 404.81L474.789 405.498Z" fill="#2F2E41"/>
<path d="M774.562 372.375C760.808 364.708 752.246 354.24 749.113 341.262C746.787 331.627 747.455 320.784 751.1 309.035C753.801 300.373 757.852 292.191 763.103 284.79C790.957 245.364 793.471 219.673 790.675 205.064C787.609 189.045 777.65 182.393 777.55 182.327L777.98 181.666C778.082 181.733 788.304 188.54 791.443 204.884C793.253 214.306 792.402 225.05 788.913 236.816C784.571 251.461 776.104 267.755 763.747 285.246C758.544 292.578 754.53 300.686 751.853 309.269C745.876 328.538 745.03 355.009 774.946 371.687L774.562 372.375Z" fill="#2F2E41"/>
<path d="M781.177 372.375C794.931 364.708 803.493 354.24 806.626 341.262C808.952 331.627 808.284 320.784 804.639 309.035C801.938 300.373 797.887 292.191 792.636 284.791C764.782 245.364 762.268 219.673 765.064 205.064C768.13 189.045 778.089 182.393 778.189 182.327L777.759 181.666C777.657 181.733 767.435 188.54 764.296 204.884C762.486 214.306 763.337 225.05 766.826 236.816C771.168 251.461 779.635 267.755 791.992 285.246C797.195 292.578 801.209 300.686 803.886 309.269C809.863 328.538 810.709 355.009 780.793 371.687L781.177 372.375Z" fill="#2F2E41"/>
<path d="M572.063 285.275C561.729 267.813 541.284 267 541.284 267C541.284 267 521.362 264.452 508.582 291.046C496.67 315.833 480.229 339.766 505.935 345.568L510.578 331.117L513.454 346.644C517.114 346.907 520.785 346.97 524.452 346.832C551.98 345.943 578.197 347.092 577.353 337.214C576.231 324.082 582.006 302.076 572.063 285.275Z" fill="#2F2E41"/>
<path d="M529.647 321.82C533.208 329.696 535.453 339.085 536.794 349.514L565.382 347.728C558.809 338.414 556.627 327.724 559.128 315.566L529.647 321.82Z" fill="#FFB8B8"/>
<path opacity="0.2" d="M529.647 321.82C533.208 329.696 535.453 339.085 536.794 349.514L565.382 347.728C558.809 338.414 556.627 327.724 559.128 315.566L529.647 321.82Z" fill="black"/>
<path d="M577.889 448.678L577.658 459.505L577.165 482.9V482.904L577.022 489.679H482.403L486.249 468.326L486.253 468.311L489.696 449.199L491.232 440.64V440.636L568.956 429.916L577.889 448.678Z" fill="#2F2E41"/>
<path d="M577.889 448.679L577.657 459.506C550.158 458.801 507.536 452.163 489.695 449.197L491.232 440.638L568.955 429.918L577.889 448.679Z" fill="#3F3D56"/>
<path d="M543.494 329.413C555.829 329.413 565.828 319.414 565.828 307.079C565.828 294.744 555.829 284.745 543.494 284.745C531.159 284.745 521.159 294.744 521.159 307.079C521.159 319.414 531.159 329.413 543.494 329.413Z" fill="#FFB8B8"/>
<path d="M586.376 460.739C586.376 460.739 589.056 484.861 572.975 483.074L570.295 458.953L556.001 444.659L515.799 443.765L486.318 471.46C486.318 471.46 485.425 442.872 488.998 440.192C492.572 437.512 500.612 431.258 500.612 431.258V426.791L476.491 377.656C476.491 377.656 490.785 348.174 502.399 347.281L517.586 346.387C517.586 346.387 522.946 343.707 522.946 342.814C522.946 341.921 522.053 334.774 526.52 336.56C526.52 336.56 526.922 327.394 531.63 330.191C531.63 330.191 546.451 341.804 561.496 330.7C561.496 330.7 568.509 329.413 567.615 332.987C566.722 336.56 567.615 339.24 569.402 339.24C571.189 339.24 579.229 341.921 579.229 343.707C579.229 344.091 579.81 347.79 580.721 353.356V353.365C584.035 373.653 591.736 418.751 591.736 418.751C591.736 418.751 599.777 430.365 586.376 460.739Z" fill="#FF4A3D"/>
<path d="M482.744 373.188L476.491 377.655L419.315 450.912L388.94 475.033C388.94 475.033 405.914 472.353 402.341 486.647L506.866 426.791L482.744 373.188Z" fill="#FF4A3D"/>
<path d="M580.721 353.355V353.364C579.533 360.351 540.814 358.894 535.454 358.894C530.093 358.894 525.626 358.001 520.266 354.428C514.906 350.854 517.586 346.387 517.586 346.387C517.586 346.387 522.15 342.911 522.15 342.018C522.15 341.124 521.257 333.977 525.724 335.764C525.724 335.764 526.126 326.598 530.834 329.394C530.834 329.394 546.451 341.804 561.495 330.7C561.495 330.7 568.508 329.413 567.615 332.987C566.722 336.56 567.615 339.24 569.402 339.24C571.189 339.24 579.229 341.92 579.229 343.707C579.229 344.091 579.81 347.79 580.721 353.355Z" fill="#3F3D56"/>
<path d="M576.102 320.033C576.102 320.033 568.955 304.846 561.808 311.993C554.661 319.14 569.848 329.86 569.848 329.86L576.102 320.033Z" fill="#FFB8B8"/>
<path d="M576.102 316.459C576.102 316.459 565.066 330.406 561.65 331.473C561.65 331.473 571.635 370.955 584.143 381.676L591.29 418.304C591.29 418.304 621.664 405.797 614.517 385.249C614.446 385.044 614.375 384.84 614.304 384.637C608.336 367.525 600.101 351.291 589.817 336.368L576.102 316.459Z" fill="#FF4A3D"/>
<path opacity="0.2" d="M570.205 357.826L592.183 418.304L584.143 381.676L570.205 357.826Z" fill="black"/>
<path d="M567.495 283.592L547.296 273.012L519.403 277.34L513.631 302.828L527.997 302.276L532.011 292.912V302.122L538.639 301.867L542.487 286.958L544.891 302.828L568.456 302.348L567.495 283.592Z" fill="#2F2E41"/>
<path d="M758.307 421.077L769.767 461.957C769.767 461.957 767.405 498.166 778.425 491.082C789.703 483.832 785.51 453.298 785.51 453.298L778.904 416.623L758.307 421.077Z" fill="#A0616A"/>
<path d="M764.43 306.399L773.894 315.862V360.954C773.894 360.954 779.461 369.304 778.347 371.531C777.234 373.758 776.121 373.758 777.234 375.428C778.347 377.098 779.461 378.211 778.347 379.325C777.234 380.438 777.234 383.222 778.347 384.335C779.461 385.448 781.687 387.119 780.017 388.789C778.347 390.459 776.121 389.345 778.347 395.469C780.574 401.592 784.471 403.262 783.358 405.489C782.244 407.716 782.244 413.283 782.244 413.283L758.307 416.623L753.296 353.717L764.43 306.399Z" fill="#D0CDE1"/>
<path d="M783.358 412.726L755.523 413.84L756.637 425.53L781.131 421.077L783.358 412.726Z" fill="#3F3D56"/>
<path d="M706.813 248.225L703.473 281.626L737.431 286.636L739.936 267.43L742.441 248.225H706.813Z" fill="#A0616A"/>
<path opacity="0.1" d="M706.813 248.044L703.473 281.445L737.431 286.455L739.936 267.25L742.441 248.044H706.813Z" fill="black"/>
<path d="M633.052 407.159L651.979 447.797C651.979 447.797 655.32 466.725 660.33 467.281C665.34 467.838 670.35 447.797 670.35 447.797L663.67 437.22L655.876 407.159H633.052Z" fill="#A0616A"/>
<path d="M762.615 490.074H655.609C656.457 476.662 656.99 468.394 656.99 468.394L658.411 466.157L665.302 455.33L670.222 447.599L671.938 444.9L672.575 443.901L679.314 442.671L748.842 429.984C749.992 435.133 751.619 440.164 753.703 445.011C754.176 446.09 754.686 447.169 755.231 448.236C756.979 451.647 759.112 454.88 761.648 457.26C762.225 457.802 762.643 459.247 762.914 461.468C763.583 466.91 763.392 477.029 762.615 490.074Z" fill="#2F2E41"/>
<path d="M725.462 259.08C740.22 259.08 752.183 247.117 752.183 232.359C752.183 217.601 740.22 205.638 725.462 205.638C710.704 205.638 698.741 217.601 698.741 232.359C698.741 247.117 710.704 259.08 725.462 259.08Z" fill="#A0616A"/>
<path d="M665.897 286.915L662 284.688C662 284.688 644.742 296.378 639.175 322.543C633.609 348.707 629.712 355.387 629.712 355.387C629.712 355.387 624.145 356.501 628.042 360.398C631.939 364.294 631.939 363.738 628.598 365.964C625.258 368.191 623.031 363.738 625.258 368.191C627.485 372.645 630.268 371.531 628.042 374.315C625.815 377.098 621.918 377.098 624.145 379.325C626.372 381.552 621.918 386.562 624.702 388.789C627.485 391.015 628.598 391.572 628.598 395.469C628.581 397.743 628.958 400.003 629.712 402.149H658.66C658.66 402.149 653.093 391.572 654.763 389.345C656.433 387.119 656.989 384.892 655.876 383.778C654.763 382.665 651.423 384.892 654.763 382.108C658.103 379.325 659.216 380.995 658.103 377.655C656.99 374.315 654.763 375.985 656.989 374.315C659.216 372.645 660.886 373.201 659.773 371.531C658.66 369.861 656.433 369.861 658.66 368.748C660.886 367.635 662.556 368.748 662 365.964C661.443 363.181 660.886 364.294 662 363.181C663.113 362.068 674.804 324.213 674.804 323.099C674.804 321.986 665.897 286.915 665.897 286.915Z" fill="#D0CDE1"/>
<path d="M660.33 399.922L625.258 402.149L634.165 410.499L658.66 411.056L660.33 399.922Z" fill="#3F3D56"/>
<path d="M670.35 441.674L663.113 455.035C663.113 455.035 684.824 457.818 692.617 460.601C700.411 463.385 720.452 467.282 720.452 467.282L725.462 447.798L670.35 441.674Z" fill="#3F3D56"/>
<path d="M733.812 447.798L739.936 466.168L764.43 461.158L761.647 443.901L733.812 447.798Z" fill="#3F3D56"/>
<path d="M743.833 267.987C743.833 267.987 742.163 266.874 738.266 269.101C734.369 271.327 721.565 272.441 715.442 265.76C709.318 259.08 704.865 253.513 703.195 254.627C701.525 255.74 700.411 268.544 700.411 268.544L694.844 272.997L662 284.688L664.783 359.841L669.793 377.098C669.793 377.098 665.897 390.459 670.907 398.252C675.917 406.046 668.123 408.829 668.123 408.829C668.123 408.829 666.453 411.056 667.567 416.623C668.68 422.19 666.453 442.787 666.453 442.787C666.453 442.787 713.772 463.942 763.317 445.571L757.75 424.417L754.967 377.098C754.967 377.098 757.75 369.305 757.193 365.964C756.637 362.624 773.894 315.862 773.894 315.862C773.894 315.862 771.111 292.482 756.637 287.471C742.163 282.461 739.936 277.451 739.936 277.451C739.936 277.451 746.616 270.214 743.833 267.987Z" fill="#D0CDE1"/>
<path d="M698.556 235.782C698.556 235.782 695.781 231.62 696.848 227.137C697.486 224.592 697.738 221.966 697.595 219.346C697.595 219.346 699.836 212.089 702.078 208.034C704.319 203.978 703.252 202.271 710.295 200.99C717.339 199.709 714.458 190.531 733.028 200.456C733.654 201.331 734.526 202.001 735.533 202.38C736.539 202.76 737.636 202.833 738.684 202.591C742.526 201.844 743.914 207.18 743.914 207.18C743.914 207.18 746.475 205.686 747.436 207.82C748.396 209.955 755.245 206.539 755.245 220.947C755.245 235.355 747.451 248.225 747.451 248.225C747.451 248.225 748.023 223.989 735.322 221.534C722.622 219.08 708.961 211.929 705.653 221.107C702.344 230.286 698.556 235.782 698.556 235.782Z" fill="#2F2E41"/>
<path d="M747.73 241.545C749.113 241.545 750.235 240.049 750.235 238.204C750.235 236.36 749.113 234.864 747.73 234.864C746.346 234.864 745.225 236.36 745.225 238.204C745.225 240.049 746.346 241.545 747.73 241.545Z" fill="#A0616A"/>
</g>
<defs>
<filter id="filter0_dddd_165:83" x="0.593262" y="0" width="821" height="518" filterUnits="userSpaceOnUse" color-interpolation-filters="sRGB">
<feFlood flood-opacity="0" result="BackgroundImageFix"/>
<feColorMatrix in="SourceAlpha" type="matrix" values="0 0 0 0 0 0 0 0 0 0 0 0 0 0 0 0 0 0 127 0" result="hardAlpha"/>
<feOffset/>
<feGaussianBlur stdDeviation="0.5"/>
<feColorMatrix type="matrix" values="0 0 0 0 0 0 0 0 0 0 0 0 0 0 0 0 0 0 0.04 0"/>
<feBlend mode="normal" in2="BackgroundImageFix" result="effect1_dropShadow_165:83"/>
<feColorMatrix in="SourceAlpha" type="matrix" values="0 0 0 0 0 0 0 0 0 0 0 0 0 0 0 0 0 0 127 0" result="hardAlpha"/>
<feOffset dy="4"/>
<feGaussianBlur stdDeviation="4"/>
<feColorMatrix type="matrix" values="0 0 0 0 0 0 0 0 0 0 0 0 0 0 0 0 0 0 0.04 0"/>
<feBlend mode="normal" in2="effect1_dropShadow_165:83" result="effect2_dropShadow_165:83"/>
<feColorMatrix in="SourceAlpha" type="matrix" values="0 0 0 0 0 0 0 0 0 0 0 0 0 0 0 0 0 0 127 0" result="hardAlpha"/>
<feOffset dy="16"/>
<feGaussianBlur stdDeviation="12"/>
<feColorMatrix type="matrix" values="0 0 0 0 0 0 0 0 0 0 0 0 0 0 0 0 0 0 0.04 0"/>
<feBlend mode="normal" in2="effect2_dropShadow_165:83" result="effect3_dropShadow_165:83"/>
<feColorMatrix in="SourceAlpha" type="matrix" values="0 0 0 0 0 0 0 0 0 0 0 0 0 0 0 0 0 0 127 0" result="hardAlpha"/>
<feOffset dy="24"/>
<feGaussianBlur stdDeviation="16"/>
<feColorMatrix type="matrix" values="0 0 0 0 0 0 0 0 0 0 0 0 0 0 0 0 0 0 0.04 0"/>
<feBlend mode="normal" in2="effect3_dropShadow_165:83" result="effect4_dropShadow_165:83"/>
<feBlend mode="normal" in="SourceGraphic" in2="effect4_dropShadow_165:83" result="shape"/>
</filter>
</defs>
</svg>
