<svg width="822" height="518" viewBox="0 0 822 518" fill="none" xmlns="http://www.w3.org/2000/svg">
<g filter="url(#filter0_dddd_128:740)">
<rect x="32.5933" y="8" width="757" height="454" rx="12" fill="#F6F6F6"/>
</g>
<path d="M132.521 130L132.393 106.256L120.873 125.584H115.241L103.785 106.896V130H92.0733V85.2H102.505L118.249 111.056L133.609 85.2H144.041L144.169 130H132.521ZM183.152 121.296H164.208L160.688 130H147.76L167.536 85.2H180.016L199.856 130H186.672L183.152 121.296ZM179.44 111.952L173.68 97.616L167.92 111.952H179.44ZM220.728 113.744L215.992 118.8V130H203.448V85.2H215.992V103.824L233.336 85.2H247.288L228.984 105.04L248.248 130H233.528L220.728 113.744ZM251.573 85.2H264.245V130H251.573V85.2ZM315.885 85.2V130H305.453L285.677 106.128V130H273.261V85.2H283.693L303.469 109.072V85.2H315.885ZM352.984 95.248H339.224V85.2H379.352V95.248H365.656V130H352.984V95.248ZM411.839 121.296H392.895L389.375 130H376.447L396.223 85.2H408.703L428.543 130H415.359L411.839 121.296ZM408.127 111.952L402.367 97.616L396.607 111.952H408.127ZM474.76 85.2V130H462.088V112.528H444.808V130H432.136V85.2H444.808V102.032H462.088V85.2H474.76ZM504.37 130.896C497.714 130.896 492.53 129.083 488.818 125.456C485.149 121.829 483.314 116.688 483.314 110.032V85.2H495.986V109.648C495.986 116.816 498.824 120.4 504.498 120.4C510.13 120.4 512.946 116.816 512.946 109.648V85.2H525.426V110.032C525.426 116.688 523.57 121.829 519.858 125.456C516.189 129.083 511.026 130.896 504.37 130.896Z" fill="#BF3329"/>
<path d="M109.657 197.888C109.657 199.915 108.921 201.493 107.449 202.624C105.977 203.755 103.993 204.32 101.497 204.32C100.217 204.32 99.0333 204.224 97.9453 204.032C96.8573 203.84 95.9506 203.573 95.2253 203.232V200.48C95.9933 200.821 96.9426 201.131 98.0733 201.408C99.2253 201.685 100.409 201.824 101.625 201.824C103.332 201.824 104.612 201.493 105.465 200.832C106.34 200.171 106.777 199.275 106.777 198.144C106.777 197.397 106.617 196.768 106.297 196.256C105.977 195.744 105.423 195.275 104.633 194.848C103.865 194.4 102.788 193.931 101.401 193.44C99.4599 192.736 97.9879 191.872 96.9853 190.848C96.0039 189.824 95.5133 188.427 95.5133 186.656C95.5133 185.44 95.8226 184.405 96.4413 183.552C97.0599 182.677 97.9133 182.005 99.0013 181.536C100.111 181.067 101.38 180.832 102.809 180.832C104.068 180.832 105.22 180.949 106.265 181.184C107.311 181.419 108.26 181.728 109.113 182.112L108.217 184.576C107.428 184.235 106.564 183.947 105.625 183.712C104.708 183.477 103.748 183.36 102.745 183.36C101.316 183.36 100.239 183.669 99.5133 184.288C98.7879 184.885 98.4253 185.685 98.4253 186.688C98.4253 187.456 98.5853 188.096 98.9053 188.608C99.2253 189.12 99.7479 189.579 100.473 189.984C101.199 190.389 102.18 190.827 103.417 191.296C104.761 191.787 105.892 192.32 106.809 192.896C107.748 193.451 108.452 194.123 108.921 194.912C109.412 195.701 109.657 196.693 109.657 197.888ZM115.316 180.416C115.742 180.416 116.116 180.565 116.436 180.864C116.777 181.141 116.948 181.589 116.948 182.208C116.948 182.805 116.777 183.253 116.436 183.552C116.116 183.851 115.742 184 115.316 184C114.846 184 114.452 183.851 114.132 183.552C113.812 183.253 113.652 182.805 113.652 182.208C113.652 181.589 113.812 181.141 114.132 180.864C114.452 180.565 114.846 180.416 115.316 180.416ZM116.692 186.848V204H113.876V186.848H116.692ZM128.622 186.56C130.712 186.56 132.259 187.019 133.262 187.936C134.264 188.853 134.766 190.315 134.766 192.32V204H132.718L132.174 201.568H132.046C131.299 202.507 130.51 203.2 129.678 203.648C128.867 204.096 127.736 204.32 126.286 204.32C124.728 204.32 123.438 203.915 122.414 203.104C121.39 202.272 120.878 200.981 120.878 199.232C120.878 197.525 121.55 196.213 122.894 195.296C124.238 194.357 126.307 193.845 129.102 193.76L132.014 193.664V192.64C132.014 191.211 131.704 190.219 131.086 189.664C130.467 189.109 129.592 188.832 128.462 188.832C127.566 188.832 126.712 188.971 125.902 189.248C125.091 189.504 124.334 189.803 123.63 190.144L122.766 188.032C123.512 187.627 124.398 187.285 125.422 187.008C126.446 186.709 127.512 186.56 128.622 186.56ZM129.454 195.712C127.32 195.797 125.838 196.139 125.006 196.736C124.195 197.333 123.79 198.176 123.79 199.264C123.79 200.224 124.078 200.928 124.654 201.376C125.251 201.824 126.008 202.048 126.926 202.048C128.376 202.048 129.582 201.653 130.542 200.864C131.502 200.053 131.982 198.816 131.982 197.152V195.616L129.454 195.712ZM148.223 186.528C150.335 186.528 152.031 187.264 153.311 188.736C154.613 190.208 155.263 192.427 155.263 195.392C155.263 198.315 154.613 200.533 153.311 202.048C152.031 203.563 150.325 204.32 148.191 204.32C146.869 204.32 145.77 204.075 144.895 203.584C144.042 203.072 143.37 202.485 142.879 201.824H142.687C142.73 202.187 142.773 202.645 142.815 203.2C142.858 203.755 142.879 204.235 142.879 204.64V211.68H140.063V186.848H142.367L142.751 189.184H142.879C143.391 188.437 144.063 187.808 144.895 187.296C145.727 186.784 146.837 186.528 148.223 186.528ZM147.711 188.896C145.962 188.896 144.725 189.387 143.999 190.368C143.295 191.349 142.922 192.843 142.879 194.848V195.392C142.879 197.504 143.221 199.136 143.903 200.288C144.607 201.419 145.898 201.984 147.775 201.984C148.821 201.984 149.674 201.696 150.335 201.12C151.018 200.544 151.519 199.765 151.839 198.784C152.181 197.781 152.351 196.64 152.351 195.36C152.351 193.397 151.967 191.829 151.199 190.656C150.453 189.483 149.29 188.896 147.711 188.896ZM174.143 204.32C172.01 204.32 170.303 203.584 169.023 202.112C167.743 200.619 167.103 198.4 167.103 195.456C167.103 192.512 167.743 190.293 169.023 188.8C170.325 187.285 172.042 186.528 174.175 186.528C175.498 186.528 176.575 186.773 177.407 187.264C178.261 187.755 178.954 188.352 179.487 189.056H179.679C179.658 188.779 179.615 188.373 179.551 187.84C179.509 187.285 179.487 186.848 179.487 186.528V179.68H182.303V204H180.031L179.615 201.696H179.487C178.975 202.421 178.293 203.04 177.439 203.552C176.586 204.064 175.487 204.32 174.143 204.32ZM174.591 201.984C176.405 201.984 177.674 201.493 178.399 200.512C179.146 199.509 179.519 198.005 179.519 196V195.488C179.519 193.355 179.167 191.723 178.463 190.592C177.759 189.44 176.458 188.864 174.559 188.864C173.045 188.864 171.903 189.472 171.135 190.688C170.389 191.883 170.015 193.493 170.015 195.52C170.015 197.568 170.389 199.157 171.135 200.288C171.903 201.419 173.055 201.984 174.591 201.984ZM194.375 186.528C195.847 186.528 197.105 186.848 198.151 187.488C199.217 188.128 200.028 189.035 200.583 190.208C201.159 191.36 201.447 192.715 201.447 194.272V195.968H189.703C189.745 197.909 190.236 199.392 191.175 200.416C192.135 201.419 193.468 201.92 195.175 201.92C196.263 201.92 197.223 201.824 198.055 201.632C198.908 201.419 199.783 201.12 200.679 200.736V203.2C199.804 203.584 198.94 203.861 198.087 204.032C197.233 204.224 196.22 204.32 195.047 204.32C193.425 204.32 191.985 203.989 190.727 203.328C189.489 202.667 188.519 201.685 187.815 200.384C187.132 199.061 186.791 197.451 186.791 195.552C186.791 193.675 187.1 192.064 187.719 190.72C188.359 189.376 189.244 188.341 190.375 187.616C191.527 186.891 192.86 186.528 194.375 186.528ZM194.343 188.832C192.999 188.832 191.932 189.269 191.143 190.144C190.375 190.997 189.916 192.192 189.767 193.728H198.503C198.481 192.277 198.14 191.104 197.479 190.208C196.817 189.291 195.772 188.832 194.343 188.832ZM214.069 186.528C216.117 186.528 217.664 187.029 218.709 188.032C219.755 189.013 220.277 190.613 220.277 192.832V204H217.493V193.024C217.493 190.272 216.213 188.896 213.653 188.896C211.755 188.896 210.443 189.429 209.717 190.496C208.992 191.563 208.629 193.099 208.629 195.104V204H205.813V186.848H208.085L208.501 189.184H208.661C209.216 188.288 209.984 187.627 210.965 187.2C211.947 186.752 212.981 186.528 214.069 186.528ZM231.675 186.528C232.805 186.528 233.819 186.741 234.715 187.168C235.632 187.595 236.411 188.245 237.051 189.12H237.211L237.595 186.848H239.835V204.288C239.835 206.741 239.205 208.587 237.947 209.824C236.709 211.061 234.779 211.68 232.155 211.68C229.637 211.68 227.579 211.317 225.979 210.592V208C227.664 208.896 229.776 209.344 232.315 209.344C233.787 209.344 234.939 208.907 235.771 208.032C236.624 207.179 237.051 206.005 237.051 204.512V203.84C237.051 203.584 237.061 203.221 237.083 202.752C237.104 202.261 237.125 201.92 237.147 201.728H237.019C235.867 203.456 234.096 204.32 231.707 204.32C229.488 204.32 227.749 203.541 226.491 201.984C225.253 200.427 224.635 198.251 224.635 195.456C224.635 192.725 225.253 190.56 226.491 188.96C227.749 187.339 229.477 186.528 231.675 186.528ZM232.059 188.896C230.629 188.896 229.52 189.472 228.731 190.624C227.941 191.755 227.547 193.376 227.547 195.488C227.547 197.6 227.931 199.221 228.699 200.352C229.488 201.461 230.629 202.016 232.123 202.016C233.851 202.016 235.109 201.557 235.899 200.64C236.688 199.701 237.083 198.197 237.083 196.128V195.456C237.083 193.109 236.677 191.435 235.867 190.432C235.056 189.408 233.787 188.896 232.059 188.896ZM251.778 186.56C253.869 186.56 255.415 187.019 256.418 187.936C257.421 188.853 257.922 190.315 257.922 192.32V204H255.874L255.33 201.568H255.202C254.455 202.507 253.666 203.2 252.834 203.648C252.023 204.096 250.893 204.32 249.442 204.32C247.885 204.32 246.594 203.915 245.57 203.104C244.546 202.272 244.034 200.981 244.034 199.232C244.034 197.525 244.706 196.213 246.05 195.296C247.394 194.357 249.463 193.845 252.258 193.76L255.17 193.664V192.64C255.17 191.211 254.861 190.219 254.242 189.664C253.623 189.109 252.749 188.832 251.618 188.832C250.722 188.832 249.869 188.971 249.058 189.248C248.247 189.504 247.49 189.803 246.786 190.144L245.922 188.032C246.669 187.627 247.554 187.285 248.578 187.008C249.602 186.709 250.669 186.56 251.778 186.56ZM252.61 195.712C250.477 195.797 248.994 196.139 248.162 196.736C247.351 197.333 246.946 198.176 246.946 199.264C246.946 200.224 247.234 200.928 247.81 201.376C248.407 201.824 249.165 202.048 250.082 202.048C251.533 202.048 252.738 201.653 253.698 200.864C254.658 200.053 255.138 198.816 255.138 197.152V195.616L252.61 195.712ZM271.22 186.528C271.54 186.528 271.881 186.549 272.244 186.592C272.628 186.613 272.958 186.656 273.236 186.72L272.884 189.312C272.606 189.248 272.297 189.195 271.956 189.152C271.636 189.109 271.326 189.088 271.028 189.088C270.153 189.088 269.332 189.333 268.564 189.824C267.796 190.293 267.177 190.965 266.708 191.84C266.26 192.693 266.036 193.696 266.036 194.848V204H263.22V186.848H265.524L265.844 189.984H265.972C266.526 189.045 267.241 188.235 268.116 187.552C268.99 186.869 270.025 186.528 271.22 186.528ZM287.567 204H284.751V179.68H287.567V204ZM299.625 186.528C301.097 186.528 302.355 186.848 303.401 187.488C304.467 188.128 305.278 189.035 305.833 190.208C306.409 191.36 306.697 192.715 306.697 194.272V195.968H294.953C294.995 197.909 295.486 199.392 296.425 200.416C297.385 201.419 298.718 201.92 300.425 201.92C301.513 201.92 302.473 201.824 303.305 201.632C304.158 201.419 305.033 201.12 305.929 200.736V203.2C305.054 203.584 304.19 203.861 303.337 204.032C302.483 204.224 301.47 204.32 300.297 204.32C298.675 204.32 297.235 203.989 295.977 203.328C294.739 202.667 293.769 201.685 293.065 200.384C292.382 199.061 292.041 197.451 292.041 195.552C292.041 193.675 292.35 192.064 292.969 190.72C293.609 189.376 294.494 188.341 295.625 187.616C296.777 186.891 298.11 186.528 299.625 186.528ZM299.593 188.832C298.249 188.832 297.182 189.269 296.393 190.144C295.625 190.997 295.166 192.192 295.017 193.728H303.753C303.731 192.277 303.39 191.104 302.729 190.208C302.067 189.291 301.022 188.832 299.593 188.832ZM313.879 185.6C313.879 186.325 313.858 187.008 313.815 187.648C313.794 188.267 313.762 188.757 313.719 189.12H313.879C314.37 188.395 315.042 187.787 315.895 187.296C316.749 186.805 317.847 186.56 319.191 186.56C321.325 186.56 323.031 187.307 324.311 188.8C325.613 190.272 326.263 192.48 326.263 195.424C326.263 198.368 325.613 200.587 324.311 202.08C323.01 203.573 321.303 204.32 319.191 204.32C317.847 204.32 316.749 204.075 315.895 203.584C315.042 203.093 314.37 202.507 313.879 201.824H313.655L313.079 204H311.063V179.68H313.879V185.6ZM318.711 188.896C316.898 188.896 315.639 189.419 314.935 190.464C314.231 191.509 313.879 193.131 313.879 195.328V195.456C313.879 197.568 314.221 199.189 314.903 200.32C315.607 201.429 316.898 201.984 318.775 201.984C320.311 201.984 321.453 201.419 322.199 200.288C322.967 199.157 323.351 197.525 323.351 195.392C323.351 191.061 321.805 188.896 318.711 188.896ZM332.191 180.416C332.617 180.416 332.991 180.565 333.311 180.864C333.652 181.141 333.823 181.589 333.823 182.208C333.823 182.805 333.652 183.253 333.311 183.552C332.991 183.851 332.617 184 332.191 184C331.721 184 331.327 183.851 331.007 183.552C330.687 183.253 330.527 182.805 330.527 182.208C330.527 181.589 330.687 181.141 331.007 180.864C331.327 180.565 331.721 180.416 332.191 180.416ZM333.567 186.848V204H330.751V186.848H333.567ZM341.817 186.816C341.817 187.669 341.763 188.469 341.657 189.216H341.849C342.403 188.341 343.15 187.68 344.089 187.232C345.049 186.784 346.083 186.56 347.193 186.56C349.283 186.56 350.851 187.061 351.897 188.064C352.942 189.045 353.465 190.635 353.465 192.832V204H350.681V193.024C350.681 190.272 349.401 188.896 346.841 188.896C344.921 188.896 343.598 189.44 342.873 190.528C342.169 191.595 341.817 193.131 341.817 195.136V204H339.001V179.68H341.817V186.816ZM373.175 204.32C371.041 204.32 369.335 203.584 368.055 202.112C366.775 200.619 366.135 198.4 366.135 195.456C366.135 192.512 366.775 190.293 368.055 188.8C369.356 187.285 371.073 186.528 373.207 186.528C374.529 186.528 375.607 186.773 376.439 187.264C377.292 187.755 377.985 188.352 378.519 189.056H378.711C378.689 188.779 378.647 188.373 378.583 187.84C378.54 187.285 378.519 186.848 378.519 186.528V179.68H381.335V204H379.063L378.647 201.696H378.519C378.007 202.421 377.324 203.04 376.471 203.552C375.617 204.064 374.519 204.32 373.175 204.32ZM373.623 201.984C375.436 201.984 376.705 201.493 377.431 200.512C378.177 199.509 378.551 198.005 378.551 196V195.488C378.551 193.355 378.199 191.723 377.495 190.592C376.791 189.44 375.489 188.864 373.591 188.864C372.076 188.864 370.935 189.472 370.167 190.688C369.42 191.883 369.047 193.493 369.047 195.52C369.047 197.568 369.42 199.157 370.167 200.288C370.935 201.419 372.087 201.984 373.623 201.984ZM393.278 186.56C395.369 186.56 396.915 187.019 397.918 187.936C398.921 188.853 399.422 190.315 399.422 192.32V204H397.374L396.83 201.568H396.702C395.955 202.507 395.166 203.2 394.334 203.648C393.523 204.096 392.393 204.32 390.942 204.32C389.385 204.32 388.094 203.915 387.07 203.104C386.046 202.272 385.534 200.981 385.534 199.232C385.534 197.525 386.206 196.213 387.55 195.296C388.894 194.357 390.963 193.845 393.758 193.76L396.67 193.664V192.64C396.67 191.211 396.361 190.219 395.742 189.664C395.123 189.109 394.249 188.832 393.118 188.832C392.222 188.832 391.369 188.971 390.558 189.248C389.747 189.504 388.99 189.803 388.286 190.144L387.422 188.032C388.169 187.627 389.054 187.285 390.078 187.008C391.102 186.709 392.169 186.56 393.278 186.56ZM394.11 195.712C391.977 195.797 390.494 196.139 389.662 196.736C388.851 197.333 388.446 198.176 388.446 199.264C388.446 200.224 388.734 200.928 389.31 201.376C389.907 201.824 390.665 202.048 391.582 202.048C393.033 202.048 394.238 201.653 395.198 200.864C396.158 200.053 396.638 198.816 396.638 197.152V195.616L394.11 195.712ZM412.72 186.528C413.04 186.528 413.381 186.549 413.744 186.592C414.128 186.613 414.458 186.656 414.736 186.72L414.384 189.312C414.106 189.248 413.797 189.195 413.456 189.152C413.136 189.109 412.826 189.088 412.528 189.088C411.653 189.088 410.832 189.333 410.064 189.824C409.296 190.293 408.677 190.965 408.208 191.84C407.76 192.693 407.536 193.696 407.536 194.848V204H404.72V186.848H407.024L407.344 189.984H407.472C408.026 189.045 408.741 188.235 409.616 187.552C410.49 186.869 411.525 186.528 412.72 186.528ZM419.378 180.416C419.805 180.416 420.178 180.565 420.498 180.864C420.84 181.141 421.01 181.589 421.01 182.208C421.01 182.805 420.84 183.253 420.498 183.552C420.178 183.851 419.805 184 419.378 184C418.909 184 418.514 183.851 418.194 183.552C417.874 183.253 417.714 182.805 417.714 182.208C417.714 181.589 417.874 181.141 418.194 180.864C418.514 180.565 418.909 180.416 419.378 180.416ZM420.754 186.848V204H417.938V186.848H420.754ZM98.7133 225.152L98.0733 233.408H96.3133L95.6733 225.152H98.7133ZM106.285 236.384C106.285 236.725 106.263 237.173 106.221 237.728C106.199 238.283 106.178 238.763 106.157 239.168H106.285C106.413 238.997 106.605 238.752 106.861 238.432C107.117 238.112 107.373 237.792 107.629 237.472C107.906 237.131 108.141 236.853 108.333 236.64L113.805 230.848H117.101L110.157 238.176L117.581 248H114.189L108.237 240L106.285 241.696V248H103.501V223.68H106.285V236.384ZM127.219 230.528C128.691 230.528 129.949 230.848 130.995 231.488C132.061 232.128 132.872 233.035 133.427 234.208C134.003 235.36 134.291 236.715 134.291 238.272V239.968H122.547C122.589 241.909 123.08 243.392 124.019 244.416C124.979 245.419 126.312 245.92 128.019 245.92C129.107 245.92 130.067 245.824 130.899 245.632C131.752 245.419 132.627 245.12 133.523 244.736V247.2C132.648 247.584 131.784 247.861 130.931 248.032C130.077 248.224 129.064 248.32 127.891 248.32C126.269 248.32 124.829 247.989 123.571 247.328C122.333 246.667 121.363 245.685 120.659 244.384C119.976 243.061 119.635 241.451 119.635 239.552C119.635 237.675 119.944 236.064 120.563 234.72C121.203 233.376 122.088 232.341 123.219 231.616C124.371 230.891 125.704 230.528 127.219 230.528ZM127.187 232.832C125.843 232.832 124.776 233.269 123.987 234.144C123.219 234.997 122.76 236.192 122.611 237.728H131.347C131.325 236.277 130.984 235.104 130.323 234.208C129.661 233.291 128.616 232.832 127.187 232.832ZM146.913 230.528C148.961 230.528 150.508 231.029 151.553 232.032C152.598 233.013 153.121 234.613 153.121 236.832V248H150.337V237.024C150.337 234.272 149.057 232.896 146.497 232.896C144.598 232.896 143.286 233.429 142.561 234.496C141.836 235.563 141.473 237.099 141.473 239.104V248H138.657V230.848H140.929L141.345 233.184H141.505C142.06 232.288 142.828 231.627 143.809 231.2C144.79 230.752 145.825 230.528 146.913 230.528ZM164.934 230.56C167.025 230.56 168.572 231.019 169.574 231.936C170.577 232.853 171.078 234.315 171.078 236.32V248H169.03L168.486 245.568H168.358C167.612 246.507 166.822 247.2 165.99 247.648C165.18 248.096 164.049 248.32 162.598 248.32C161.041 248.32 159.75 247.915 158.726 247.104C157.702 246.272 157.19 244.981 157.19 243.232C157.19 241.525 157.862 240.213 159.206 239.296C160.55 238.357 162.62 237.845 165.414 237.76L168.326 237.664V236.64C168.326 235.211 168.017 234.219 167.398 233.664C166.78 233.109 165.905 232.832 164.774 232.832C163.878 232.832 163.025 232.971 162.214 233.248C161.404 233.504 160.646 233.803 159.942 234.144L159.078 232.032C159.825 231.627 160.71 231.285 161.734 231.008C162.758 230.709 163.825 230.56 164.934 230.56ZM165.766 239.712C163.633 239.797 162.15 240.139 161.318 240.736C160.508 241.333 160.102 242.176 160.102 243.264C160.102 244.224 160.39 244.928 160.966 245.376C161.564 245.824 162.321 246.048 163.238 246.048C164.689 246.048 165.894 245.653 166.854 244.864C167.814 244.053 168.294 242.816 168.294 241.152V239.616L165.766 239.712ZM179.192 248H176.376V223.68H179.192V248ZM187.026 225.152L186.386 233.408H184.626L183.986 225.152H187.026ZM193.573 240.704C193.573 239.893 193.648 239.2 193.797 238.624C193.968 238.027 194.245 237.461 194.629 236.928C195.035 236.395 195.579 235.84 196.261 235.264C197.093 234.56 197.733 233.973 198.181 233.504C198.651 233.035 198.981 232.576 199.173 232.128C199.365 231.68 199.461 231.136 199.461 230.496C199.461 229.472 199.131 228.683 198.469 228.128C197.808 227.573 196.848 227.296 195.589 227.296C194.544 227.296 193.616 227.435 192.805 227.712C191.995 227.968 191.216 228.277 190.469 228.64L189.477 226.4C190.331 225.952 191.269 225.579 192.293 225.28C193.339 224.981 194.501 224.832 195.781 224.832C197.808 224.832 199.376 225.333 200.485 226.336C201.595 227.339 202.149 228.704 202.149 230.432C202.149 231.392 201.989 232.213 201.669 232.896C201.371 233.557 200.933 234.176 200.357 234.752C199.803 235.307 199.141 235.904 198.373 236.544C197.669 237.141 197.125 237.664 196.741 238.112C196.379 238.56 196.133 239.008 196.005 239.456C195.877 239.883 195.813 240.405 195.813 241.024V241.568H193.573V240.704ZM192.837 246.272C192.837 245.483 193.019 244.928 193.381 244.608C193.765 244.288 194.245 244.128 194.821 244.128C195.355 244.128 195.813 244.288 196.197 244.608C196.581 244.928 196.773 245.483 196.773 246.272C196.773 247.04 196.581 247.595 196.197 247.936C195.813 248.277 195.355 248.448 194.821 248.448C194.245 248.448 193.765 248.277 193.381 247.936C193.019 247.595 192.837 247.04 192.837 246.272Z" fill="black"/>
<mask id="mask0_128:740" style="mask-type:alpha" maskUnits="userSpaceOnUse" x="32" y="8" width="758" height="454">
<rect x="32.5933" y="8" width="757" height="454" rx="12" fill="#F6F6F6"/>
</mask>
<g mask="url(#mask0_128:740)">
<path d="M866.677 463.736C866.024 465.143 865.373 466.532 864.724 467.901C863.711 470.028 862.711 472.114 861.724 474.159C861.285 475.065 860.846 475.954 860.419 476.843C855.579 486.731 851.06 495.476 847.222 502.668C843.742 509.188 838.571 514.652 832.254 518.486C825.936 522.321 818.702 524.386 811.312 524.464L725.969 525.393H725.069L717.753 525.471L711.495 525.539L692.322 525.758H691.545L681.776 525.865H681.478L621.262 526.518L567.513 527.081L561.261 527.148L522.43 527.57H522.368L497.185 527.841H496.915L417.284 528.702L393.462 528.96C391.434 528.984 389.406 528.882 387.39 528.657V528.657C386.704 528.578 386.017 528.488 385.336 528.381C374.226 526.666 364.039 521.196 356.472 512.882C346.224 501.56 338.768 488.447 333.759 474.159C333.035 472.099 332.36 470.013 331.733 467.901C314.394 409.267 335.532 333.654 373.574 283.068C375.169 280.952 376.79 278.888 378.437 276.877L378.476 276.832C390.176 262.471 403.294 250.473 417.267 241.941C442.029 226.797 469.463 222.532 496.447 235.244C519.279 246.004 540.596 251.064 561.261 252.437C563.348 252.572 565.436 252.673 567.513 252.735C614.914 254.226 659.339 237.146 711.507 226.122C713.583 225.683 715.665 225.25 717.764 224.839C754.98 217.433 796.264 213.527 845.359 221.738C850.46 222.571 855.493 223.775 860.419 225.34C862.583 226.038 864.669 226.788 866.677 227.591C890.11 237.124 902.89 254.738 908.321 276.81C908.835 278.858 909.279 280.942 909.655 283.062C919.283 336.153 891.083 411.462 866.677 463.736Z" fill="#F2F2F2"/>
<path opacity="0.1" d="M605.297 467.901C605.07 470.006 604.718 472.096 604.244 474.159H656.975V467.901H605.297ZM561.261 503.248L567.513 503.198V487.738C565.369 487.643 563.281 487.547 561.261 487.446V503.248ZM430.182 467.901V474.159H541.89V467.901H430.182ZM908.349 276.816H866.705V227.597C864.697 226.779 862.611 226.028 860.447 225.346V276.838H717.764V224.822C715.665 225.233 713.583 225.666 711.506 226.105V276.816H567.513V252.718C565.436 252.656 563.348 252.555 561.261 252.42V276.816H417.267V241.925C403.294 250.456 390.176 262.454 378.476 276.816H378.436V276.861C376.786 278.887 375.165 280.95 373.574 283.051H378.436V467.901H331.727C332.35 470.013 333.025 472.099 333.753 474.159H378.431V526.845C380.679 527.532 382.973 528.057 385.296 528.415C385.977 528.522 386.664 528.612 387.351 528.691C389.367 528.916 391.394 529.018 393.423 528.994L417.244 528.736V474.148H561.261V527.166L567.513 527.098V474.159H711.506V525.545L717.764 525.477V474.159H860.419V476.843C860.846 475.954 861.285 475.065 861.724 474.159C862.711 472.118 863.711 470.032 864.724 467.901C865.373 466.532 866.024 465.144 866.676 463.737V283.091H909.683C909.304 280.956 908.859 278.864 908.349 276.816V276.816ZM417.267 467.901V283.068H561.261V467.901H417.267ZM567.524 467.901V283.068H711.506V467.901H567.524ZM860.43 467.901H717.764V283.068H860.419L860.43 467.901Z" fill="black"/>
<path d="M795.347 402.7C787.549 388.299 776.498 375.918 763.072 366.542C762.113 365.88 761.006 365.463 759.848 365.327C761.429 354.927 761.097 343.435 755.228 334.769C741.299 314.205 670.335 335.427 670.335 335.427C620.593 318.184 577.48 340.07 577.48 340.07C577.48 340.07 522.43 331.448 497.23 338.083C485.344 341.212 482.457 353.334 482.727 365.276H482.688C481.634 365.274 480.594 365.51 479.644 365.966C478.694 366.422 477.859 367.086 477.201 367.91C470.499 376.284 450.251 402.075 450.802 407.055C451.466 413.026 473.352 490.62 472.361 528.094L778.104 524.717C778.104 524.717 783.169 449.307 795.836 408.029C796.385 406.258 796.209 404.341 795.347 402.7V402.7Z" fill="#3F3D56"/>
<path opacity="0.1" d="M476.346 407.393L488.946 382.187L499.554 431.265L499.678 454.046L476.346 407.393Z" fill="black"/>
<path opacity="0.1" d="M765.503 407.393L752.903 382.187L738.288 428.722L741.102 455.171L765.503 407.393Z" fill="black"/>
<path d="M498.631 429.926L738.311 428.615L740.967 455.143L499.554 454.479L498.631 429.926Z" fill="#3F3D56"/>
<path opacity="0.1" d="M498.631 429.926L738.311 428.615L740.967 455.143L499.554 454.479L498.631 429.926Z" fill="black"/>
<path opacity="0.1" d="M736.336 452.56H504.444C501.19 452.56 498.552 455.198 498.552 458.452V475.189C498.552 478.443 501.19 481.081 504.444 481.081H736.336C739.59 481.081 742.228 478.443 742.228 475.189V458.452C742.228 455.198 739.59 452.56 736.336 452.56Z" fill="white"/>
<path d="M692.361 357.149C692.361 357.149 691.551 356.024 690.594 356.632C690.138 356.93 687.994 359.631 685.889 362.378C684.854 363.723 683.824 365.079 683.008 366.159C682.001 367.487 681.32 368.41 681.32 368.41L680.915 369.17L678.455 373.768L676.142 378.09L675.58 380.127L683.391 382.783L692.282 380.358L691.9 378.709L691.832 378.427L691.905 374.634L692.108 363.942L692.204 359.13V358.568L692.361 357.149Z" fill="#FFE09C"/>
<path d="M674.477 383.51C674.477 383.51 682.918 386.52 687.246 384.945C687.246 384.945 690.988 383.752 692.462 382.598C692.462 382.598 694.033 381.776 691.9 379.098C691.9 379.098 686.435 382.446 681.263 381.129L676.092 379.807L674.477 383.51Z" fill="#E7C4C3"/>
<path d="M683.893 379.7C685.209 378.929 685.747 377.399 685.093 376.283C684.439 375.168 682.842 374.889 681.525 375.661C680.209 376.432 679.671 377.962 680.325 379.077C680.979 380.193 682.576 380.472 683.893 379.7Z" fill="#FF7F8E"/>
<path d="M689.506 372.97C690.823 372.198 691.36 370.668 690.706 369.553C690.053 368.437 688.455 368.158 687.139 368.93C685.822 369.701 685.285 371.231 685.938 372.347C686.592 373.462 688.189 373.741 689.506 372.97Z" fill="#FF7F8E"/>
<path d="M691.9 374.635C691.476 374.458 691.016 374.384 690.558 374.421C690.1 374.457 689.657 374.602 689.266 374.843C687.949 375.614 687.409 377.145 688.068 378.259C688.726 379.373 690.319 379.655 691.63 378.884C691.72 378.827 691.81 378.771 691.894 378.709L691.827 378.428L691.9 374.635Z" fill="#FF7F8E"/>
<path d="M682.35 370.172C682.193 369.913 681.984 369.691 681.736 369.518C681.488 369.345 681.206 369.227 680.909 369.17L678.45 373.768C678.88 373.962 679.352 374.047 679.823 374.016C680.294 373.984 680.75 373.838 681.151 373.588C682.468 372.817 683.003 371.286 682.35 370.172Z" fill="#FF7F8E"/>
<path d="M687.82 363.436C687.617 363.111 687.334 362.843 686.998 362.658C686.662 362.473 686.284 362.376 685.901 362.378C684.865 363.723 683.836 365.079 683.02 366.16L683.053 366.227C683.706 367.353 685.304 367.617 686.621 366.846C687.938 366.075 688.461 364.55 687.82 363.436Z" fill="#FF7F8E"/>
<path d="M692.198 359.125C691.908 359.198 691.629 359.311 691.371 359.462C690.054 360.233 689.519 361.764 690.172 362.878C690.377 363.205 690.661 363.474 690.999 363.659C691.337 363.845 691.717 363.94 692.103 363.936L692.198 359.125Z" fill="#FF7F8E"/>
<path d="M679.091 377.578L678.641 376.818C679.315 376.617 679.937 376.271 680.464 375.805C680.498 375.772 680.526 375.732 680.555 375.698C681.117 374.989 680.999 376.464 680.999 376.464C680.999 376.464 679.615 377.64 679.091 377.578Z" fill="#94CC79"/>
<path d="M685.732 376.402L685.282 375.636C685.955 375.434 686.577 375.088 687.105 374.623C687.105 374.59 687.167 374.556 687.195 374.516C687.758 373.813 687.64 375.282 687.64 375.282C687.64 375.282 686.255 376.464 685.732 376.402Z" fill="#94CC79"/>
<path d="M685.124 373.25L684.674 372.485C685.347 372.284 685.969 371.941 686.497 371.478C686.526 371.438 686.559 371.404 686.587 371.371C687.15 370.662 687.032 372.13 687.032 372.13C687.032 372.13 685.648 373.301 685.124 373.25Z" fill="#94CC79"/>
<path d="M685.929 367.567L685.479 366.801C686.152 366.599 686.774 366.253 687.302 365.788C687.302 365.755 687.364 365.721 687.392 365.681C687.955 364.972 687.837 366.447 687.837 366.447C687.837 366.447 686.452 367.623 685.929 367.567Z" fill="#94CC79"/>
<path d="M689.739 360.69L689.294 359.924C689.967 359.722 690.587 359.377 691.112 358.911C691.145 358.878 691.175 358.842 691.202 358.804C691.765 358.101 691.652 359.57 691.652 359.57C691.652 359.57 690.262 360.746 689.739 360.69Z" fill="#94CC79"/>
<path d="M689.311 367.707L688.861 366.941C689.535 366.742 690.157 366.398 690.684 365.934C690.684 365.895 690.746 365.861 690.774 365.827C691.337 365.118 691.219 366.587 691.219 366.587C691.219 366.587 689.835 367.769 689.311 367.707Z" fill="#94CC79"/>
<path d="M673.092 381.129C673.092 381.129 672.012 383.943 674.477 383.492C675.574 382.221 676.324 380.688 676.655 379.041C676.655 379.041 681.984 367.364 683.56 366.295C683.56 366.295 690.504 356.801 691.253 356.66C691.253 356.66 691.495 355.737 689.069 357.69C686.644 359.643 681.331 367.161 681.331 367.161L676.266 375.417L675.073 378.709L673.092 381.129Z" fill="#E7C4C3"/>
<path opacity="0.2" d="M673.092 381.129C673.092 381.129 672.012 383.943 674.477 383.492C675.574 382.221 676.324 380.688 676.655 379.041C676.655 379.041 681.984 367.364 683.56 366.295C683.56 366.295 690.504 356.801 691.253 356.66C691.253 356.66 691.495 355.737 689.069 357.69C686.644 359.643 681.331 367.161 681.331 367.161L676.266 375.417L675.073 378.709L673.092 381.129Z" fill="white"/>
<path d="M589.382 438.288C590.31 441.34 591.454 444.323 592.803 447.214C596.678 446.403 600.491 445.316 604.21 443.961C604.329 443.922 602.077 440.978 601.841 440.736C600.924 439.723 599.832 438.884 598.616 438.26C597.429 437.743 595.966 438.136 594.677 438.204C592.921 438.294 591.156 438.322 589.382 438.288Z" fill="#FBBEBE"/>
<path d="M598.639 442.909C596.703 442.301 595.522 440.348 594.734 438.469C593.946 436.589 593.31 434.529 591.813 433.156C591.529 433.2 591.26 433.313 591.03 433.486C590.8 433.658 590.617 433.886 590.496 434.147C590.262 434.674 590.001 435.189 589.714 435.689C589.095 436.589 588.026 437.028 587.21 437.793C586.394 438.559 585.938 439.724 585.088 440.495C584.019 441.463 582.511 441.705 581.109 442.025C578.939 442.518 576.842 443.294 574.874 444.333C574.149 444.77 573.375 445.118 572.567 445.368C571.677 445.542 570.765 445.572 569.865 445.458L563.675 445.019C563.124 444.949 562.564 444.971 562.02 445.087C561.394 445.315 560.862 445.744 560.505 446.307C560.149 446.87 559.989 447.535 560.051 448.199C560.13 448.86 560.345 449.497 560.682 450.072C561.019 450.646 561.471 451.144 562.009 451.536C563.091 452.305 564.282 452.906 565.543 453.32C570.943 455.361 576.504 456.95 582.167 458.07V459.297C586.104 461.237 590.435 462.246 594.824 462.245C595.147 462.268 595.472 462.212 595.769 462.082C596.175 461.788 596.46 461.356 596.568 460.867C598.059 456.508 598.928 451.961 599.151 447.36C599.262 446.196 599.172 445.022 598.887 443.888C598.549 442.763 599.709 443.241 598.634 442.802" fill="#2F2E41"/>
<path d="M717.562 419.532C699.176 420.657 680.982 415.249 662.602 414.675C660.314 414.531 658.016 414.678 655.765 415.114C653.401 415.643 651.195 416.712 649.012 417.736C639.135 422.329 628.927 426.133 618.724 429.931L607.007 434.298C604.666 435.171 602.241 436.054 599.748 435.902C598.622 435.835 597.255 435.666 596.63 436.595C594.722 439.408 595.623 443.567 596.883 446.724C597.288 447.748 598.009 448.863 599.078 448.975C599.849 449.054 600.569 448.609 601.329 448.413C603.462 447.85 605.589 449.279 607.784 449.51C610.496 449.797 613.012 448.255 615.573 447.309C619.816 445.739 624.459 445.79 628.921 445.058C636.406 443.809 643.339 440.337 649.822 436.381C652.287 434.872 654.786 433.257 657.622 432.706C660.88 432.07 664.229 432.908 667.431 433.831C675.052 435.987 682.555 438.541 689.908 441.485C693.779 443.038 697.629 444.698 701.658 445.773C710.374 448.065 719.593 447.527 727.984 444.237C730.922 443.072 734.124 441.018 734.293 437.844C734.388 436.032 732.981 434.467 732.042 432.892C731.445 431.895 730.843 430.905 730.184 429.948C726.994 425.3 723.144 419.2 717.562 419.532Z" fill="#2F2E41"/>
<path opacity="0.1" d="M717.562 419.532C699.176 420.657 680.982 415.249 662.602 414.675C660.314 414.531 658.016 414.678 655.765 415.114C653.401 415.643 651.195 416.712 649.012 417.736C639.135 422.329 628.927 426.133 618.724 429.931L607.007 434.298C604.666 435.171 602.241 436.054 599.748 435.902C598.622 435.835 597.255 435.666 596.63 436.595C594.722 439.408 595.623 443.567 596.883 446.724C597.288 447.748 598.009 448.863 599.078 448.975C599.849 449.054 600.569 448.609 601.329 448.413C603.462 447.85 605.589 449.279 607.784 449.51C610.496 449.797 613.012 448.255 615.573 447.309C619.816 445.739 624.459 445.79 628.921 445.058C636.406 443.809 643.339 440.337 649.822 436.381C652.287 434.872 654.786 433.257 657.622 432.706C660.88 432.07 664.229 432.908 667.431 433.831C675.052 435.987 682.555 438.541 689.908 441.485C693.779 443.038 697.629 444.698 701.658 445.773C710.374 448.065 719.593 447.527 727.984 444.237C730.922 443.072 734.124 441.018 734.293 437.844C734.388 436.032 732.981 434.467 732.042 432.892C731.445 431.895 730.843 430.905 730.184 429.948C726.994 425.3 723.144 419.2 717.562 419.532Z" fill="black"/>
<path d="M624.678 439.183C627.552 440.162 630.456 441.065 633.39 441.89C635.027 439.2 638.094 437.326 638.792 434.253C638.822 434.186 638.836 434.112 638.835 434.038C638.834 433.964 638.817 433.891 638.786 433.824C638.754 433.757 638.709 433.698 638.653 433.649C638.597 433.601 638.531 433.565 638.46 433.544C636.364 432.383 634.037 431.701 631.645 431.547C629.754 431.428 628.893 433.398 628.032 434.788C627.689 435.345 625.449 439.448 624.678 439.183Z" fill="#FBBEBE"/>
<path d="M628.73 437.219C627.871 437.074 627.051 436.752 626.322 436.273C625.594 435.795 624.973 435.17 624.498 434.439C624.093 433.73 623.66 432.751 622.849 432.824C622.039 432.897 621.724 433.775 621.577 434.512C621.032 437.303 620.239 440.039 619.208 442.689C618.173 445.345 616.42 447.66 614.143 449.375C613.074 450.112 611.892 450.669 610.845 451.446C609.906 452.138 609.09 453.016 608.032 453.55C607.34 453.871 606.625 454.138 605.893 454.35C604.819 454.728 603.792 455.229 602.832 455.841C601.988 456.329 601.274 457.012 600.75 457.833C600.484 458.249 600.329 458.725 600.299 459.217C600.268 459.71 600.363 460.201 600.575 460.647C600.798 461.011 601.095 461.323 601.447 461.564C601.799 461.804 602.198 461.968 602.618 462.043C603.456 462.189 604.311 462.212 605.156 462.11C608.504 461.862 611.853 461.547 615.201 461.266C616.616 461.18 618.023 460.992 619.411 460.703C620.148 460.523 620.863 460.292 621.594 460.101C622.846 459.779 624.129 459.591 625.421 459.538C625.799 459.509 626.18 459.543 626.547 459.64C627.323 459.893 627.869 460.664 628.674 460.821C629.187 460.87 629.705 460.801 630.188 460.619C632.596 459.96 635.134 459.977 637.627 459.842C638.753 459.786 640.013 459.578 640.52 458.593C641.15 457.366 640.103 455.993 639.693 454.653C639.483 453.811 639.366 452.949 639.344 452.082C639.154 449.941 638.526 447.863 637.498 445.976C636.648 444.411 635.483 442.678 636.08 440.995C636.282 440.432 636.687 439.87 636.642 439.307C636.451 436.611 630.255 437.54 628.73 437.219Z" fill="#2F2E41"/>
<path d="M689.992 390.038C686.738 388.6 684.132 386.008 682.676 382.761C682.367 382.063 682.114 381.337 681.821 380.634C680.856 378.292 679.356 376.209 677.443 374.55C677.237 374.326 676.985 374.148 676.704 374.029C676.424 373.911 676.121 373.854 675.816 373.864C675.522 373.953 675.257 374.119 675.047 374.345C674.837 374.57 674.691 374.847 674.623 375.147C674.455 375.787 674.413 376.454 674.499 377.111C674.664 378.658 674.931 380.192 675.299 381.703L676.188 385.761C676.297 386.386 676.486 386.995 676.75 387.573C677.132 388.257 677.638 388.863 678.242 389.362C679.058 390.116 679.885 390.842 680.724 391.551C681.893 392.67 683.415 393.347 685.029 393.465C688.675 394.14 692.39 395.119 695.473 397.5C695.434 397.5 695.473 394.776 695.406 394.466C695.265 393.65 695.153 392.84 694.624 392.289C693.414 391.051 691.45 390.696 689.992 390.038Z" fill="#FBBEBE"/>
<path opacity="0.1" d="M689.992 390.038C686.738 388.6 684.132 386.008 682.676 382.761C682.367 382.063 682.114 381.337 681.821 380.634C680.856 378.292 679.356 376.209 677.443 374.55C677.237 374.326 676.985 374.148 676.704 374.029C676.424 373.911 676.121 373.854 675.816 373.864C675.522 373.953 675.257 374.119 675.047 374.345C674.837 374.57 674.691 374.847 674.623 375.147C674.455 375.787 674.413 376.454 674.499 377.111C674.664 378.658 674.931 380.192 675.299 381.703L676.188 385.761C676.297 386.386 676.486 386.995 676.75 387.573C677.132 388.257 677.638 388.863 678.242 389.362C679.058 390.116 679.885 390.842 680.724 391.551C681.893 392.67 683.415 393.347 685.029 393.465C688.675 394.14 692.39 395.119 695.473 397.5C695.434 397.5 695.473 394.776 695.406 394.466C695.265 393.65 695.153 392.84 694.624 392.289C693.414 391.051 691.45 390.696 689.992 390.038Z" fill="black"/>
<path d="M727.432 358.968C729.903 358.968 731.906 356.954 731.906 354.471C731.906 351.988 729.903 349.975 727.432 349.975C724.962 349.975 722.958 351.988 722.958 354.471C722.958 356.954 724.962 358.968 727.432 358.968Z" fill="#2F2E41"/>
<path d="M724.664 351.753C723.454 351.618 722.103 351.522 721.13 352.265C720.613 352.719 720.2 353.28 719.92 353.908C718.919 355.629 718.138 357.469 717.595 359.384C717.196 361.027 717.128 362.761 716.633 364.359C715.716 367.353 713.369 369.879 713.099 373.003C712.981 374.398 713.217 376.036 712.193 376.993C711.943 377.203 711.676 377.391 711.394 377.556C710.686 378.029 710.086 378.647 709.632 379.368C709.325 380.015 708.902 380.601 708.383 381.095C707.471 381.771 705.963 381.697 705.513 382.744C705.063 383.791 706.222 384.995 705.952 386.121C705.732 387.044 704.703 387.466 703.993 388.096C703.082 388.901 702.665 390.111 702.305 391.27C700.81 391.553 699.271 391.508 697.795 391.14C696.318 390.772 694.939 390.089 693.751 389.137C694.995 392.21 695.023 395.603 695.079 398.924C695.079 399.998 695.079 401.208 694.291 401.957C697.854 402.036 701.326 402.998 704.798 403.786C706.318 404.129 707.967 404.427 709.379 403.786C710.176 403.357 710.888 402.784 711.478 402.098C713.369 400.179 715.35 398.091 715.811 395.429C716.07 393.943 715.811 392.412 715.89 390.927C716.064 389.06 716.442 387.219 717.016 385.434C718.017 381.734 718.689 377.953 719.025 374.134C719.227 371.782 721.276 369.885 722.334 367.775C724.36 363.802 726.425 359.66 726.577 355.197C726.65 353.723 726.144 351.916 724.664 351.753Z" fill="#2F2E41"/>
<path opacity="0.1" d="M724.664 351.753C723.454 351.618 722.103 351.522 721.13 352.265C720.613 352.719 720.2 353.28 719.92 353.908C718.919 355.629 718.138 357.469 717.595 359.384C717.196 361.027 717.128 362.761 716.633 364.359C715.716 367.353 713.369 369.879 713.099 373.003C712.981 374.398 713.217 376.036 712.193 376.993C711.943 377.203 711.676 377.391 711.394 377.556C710.686 378.029 710.086 378.647 709.632 379.368C709.325 380.015 708.902 380.601 708.383 381.095C707.471 381.771 705.963 381.697 705.513 382.744C705.063 383.791 706.222 384.995 705.952 386.121C705.732 387.044 704.703 387.466 703.993 388.096C703.082 388.901 702.665 390.111 702.305 391.27C700.81 391.553 699.271 391.508 697.795 391.14C696.318 390.772 694.939 390.089 693.751 389.137C694.995 392.21 695.023 395.603 695.079 398.924C695.079 399.998 695.079 401.208 694.291 401.957C697.854 402.036 701.326 402.998 704.798 403.786C706.318 404.129 707.967 404.427 709.379 403.786C710.176 403.357 710.888 402.784 711.478 402.098C713.369 400.179 715.35 398.091 715.811 395.429C716.07 393.943 715.811 392.412 715.89 390.927C716.064 389.06 716.442 387.219 717.016 385.434C718.017 381.734 718.689 377.953 719.025 374.134C719.227 371.782 721.276 369.885 722.334 367.775C724.36 363.802 726.425 359.66 726.577 355.197C726.65 353.723 726.144 351.916 724.664 351.753Z" fill="black"/>
<path d="M720.46 423.404C716.633 421.58 713.831 418.187 710.736 415.277C704.827 409.729 697.595 405.801 691.382 400.595C687.263 397.151 683.582 393.133 679.058 390.246C675.076 387.715 670.564 386.135 665.872 385.631C665.335 385.536 664.783 385.563 664.257 385.71C663.664 385.972 663.147 386.381 662.755 386.897C660.75 389.16 658.967 391.61 657.431 394.213C649.552 407.579 638.365 418.834 629.096 431.254C628.803 431.55 628.63 431.943 628.609 432.358C628.588 432.774 628.722 433.182 628.983 433.505L630.869 437.197C631.921 439.268 633.615 441.699 635.888 441.266C636.93 441.074 637.757 440.309 638.522 439.577L646.964 431.491L655.838 423.004C661.038 418.035 666.323 412.948 669.716 406.594C672.361 411.186 677.066 414.191 680.29 418.412C681.517 420.01 682.541 421.789 683.611 423.477C685.366 426.189 687.364 428.739 689.356 431.282L699.537 444.277C700.921 446.044 702.35 447.856 704.247 449.054C706.661 450.579 709.593 450.985 712.43 451.238C716.254 451.579 720.093 451.718 723.932 451.654C726.859 451.604 729.875 451.412 732.503 450.112C735.131 448.812 737.287 446.173 737.152 443.202C736.991 441.675 736.489 440.203 735.683 438.897C732.07 432.2 727.315 426.656 720.46 423.404Z" fill="#2F2E41"/>
<path d="M730.185 361.044C732.084 361.044 733.623 359.494 733.623 357.583C733.623 355.672 732.084 354.122 730.185 354.122C728.286 354.122 726.746 355.672 726.746 357.583C726.746 359.494 728.286 361.044 730.185 361.044Z" fill="#E8E8F0"/>
<path d="M729.425 354.983C730.198 356.524 730.334 358.307 729.802 359.947C729.27 361.564 728.526 363.105 727.59 364.527C726.785 365.996 725.821 367.372 724.715 368.63C730.021 368.889 735.171 366.807 739.853 364.28C743.623 362.254 747.383 359.744 749.42 355.951C748.821 356.096 748.198 356.113 747.592 356.002C746.986 355.89 746.411 355.652 745.903 355.304C744.892 354.598 743.986 353.753 743.213 352.794L740.545 349.794C739.919 349.142 739.37 348.421 738.907 347.645C738.329 346.582 738.084 345.37 738.204 344.167C737.145 345.276 735.961 346.258 734.675 347.093C732.773 348.331 730.674 349.232 728.766 350.47C728.091 350.903 726.583 351.595 726.971 352.49C727.36 353.385 728.902 354.038 729.425 354.983Z" fill="#FBBEBE"/>
<path opacity="0.1" d="M729.425 354.983C730.198 356.524 730.334 358.307 729.802 359.947C729.27 361.564 728.526 363.105 727.59 364.527C726.785 365.996 725.821 367.372 724.715 368.63C730.021 368.889 735.171 366.807 739.853 364.28C743.623 362.254 747.383 359.744 749.42 355.951C748.821 356.096 748.198 356.113 747.592 356.002C746.986 355.89 746.411 355.652 745.903 355.304C744.892 354.598 743.986 353.753 743.213 352.794L740.545 349.794C739.919 349.142 739.37 348.421 738.907 347.645C738.329 346.582 738.084 345.37 738.204 344.167C737.145 345.276 735.961 346.258 734.675 347.093C732.773 348.331 730.674 349.232 728.766 350.47C728.091 350.903 726.583 351.595 726.971 352.49C727.36 353.385 728.902 354.038 729.425 354.983Z" fill="black"/>
<path d="M729.498 355.506C728.502 357.195 728.288 359.164 729.498 360.695C729.65 360.886 730.207 362.068 730.449 362.079C730.683 362.056 730.9 361.946 731.057 361.77C732.345 360.594 733.308 359.091 734.433 357.757C735.559 356.424 736.994 355.214 738.716 354.944C740.793 354.623 742.802 355.72 744.619 356.784C745.41 357.169 746.1 357.734 746.634 358.433C747.017 359.126 747.244 359.894 747.298 360.684C747.923 365.417 747.911 370.211 747.895 374.984C747.895 378.439 747.895 381.911 747.219 385.299C746.882 387.055 746.375 388.771 746.133 390.538C745.959 392.098 745.89 393.668 745.925 395.237V401.81C745.879 403.017 745.964 404.224 746.178 405.412C746.488 406.853 747.169 408.181 747.624 409.582C748.095 411.193 748.417 412.843 748.587 414.512L749.487 421.316C749.769 423.46 749.977 425.818 748.682 427.506C748.12 428.283 747.326 428.907 746.735 429.684C744.484 432.577 745.221 436.713 744.293 440.253C743.562 442.844 742.058 445.151 739.982 446.865C738.39 448.216 736.335 449.274 734.293 448.897C731.529 448.384 729.869 445.52 729.115 442.779C728.361 440.039 728.091 437.095 726.459 434.799C725.125 432.92 723.082 431.738 721.192 430.399C719.301 429.059 717.5 427.332 717.095 425.058C716.915 424.068 717.027 423.049 716.92 422.047C716.773 420.778 716.287 419.571 715.512 418.554C714.738 417.537 713.704 416.747 712.519 416.268C711.107 415.705 709.362 415.519 708.58 414.225C710.64 413.066 712.002 410.921 712.722 408.665C713.442 406.408 713.589 404.011 713.729 401.647L714.202 393.74C714.41 390.206 714.506 386.706 716.065 383.532C716.757 382.108 717.624 380.78 718.35 379.379C719.307 377.407 720.125 375.37 720.798 373.284C721.923 370.043 723.049 366.801 724.062 363.52C724.465 361.935 725.066 360.408 725.851 358.973C726.65 357.6 727.9 355.805 729.498 355.506Z" fill="#BF3329"/>
<path d="M711.94 406.875L714.033 406.948L714.478 403.791C714.534 403.158 714.682 402.536 714.917 401.945C715.263 401.323 715.666 400.733 716.121 400.184C718.181 397.275 718.029 393.431 718.541 389.88C719.222 385.164 721.191 380.752 723.139 376.413L727.213 367.358C728.02 365.82 728.408 364.097 728.338 362.361C728.378 360.96 728.789 355.872 728.828 354.482C728.828 353.965 727.703 354.252 727.449 353.79C726.943 352.783 726.245 355.512 725.294 356.109C724.343 356.705 723.814 357.797 723.414 358.844C722.536 361.123 722.002 363.52 721.163 365.822C720.325 368.124 719.21 370.386 717.37 372.012C716.537 372.744 715.581 373.318 714.793 374.1C712.266 376.599 712.018 380.544 711.928 384.106C711.883 386.194 711.456 406.875 711.94 406.875Z" fill="#2F2E41"/>
<path d="M742.059 351.73C740.027 352.529 738.913 354.735 738.344 356.851C737.776 358.967 737.54 361.23 736.448 363.126C733.893 367.566 727.387 368.861 725.592 373.661C725.029 375.231 725.029 376.953 724.866 378.625C724.54 382.063 723.409 385.378 723.077 388.822C722.9 391.493 722.962 394.175 723.262 396.836L725.513 423.955C725.845 427.894 725.834 432.076 724.833 435.88C727.134 436.324 729.532 435.728 731.664 434.754C733.797 433.781 735.75 432.441 737.804 431.31C741.338 429.357 745.238 427.979 748.333 425.379C748.894 424.942 749.374 424.411 749.752 423.809C750.371 422.739 750.427 421.439 750.719 420.235C750.986 419.272 751.327 418.332 751.738 417.421C752.872 414.688 753.86 411.897 754.698 409.059C755.274 407.177 755.727 405.259 756.054 403.319C756.302 401.777 756.437 400.212 756.572 398.653C756.737 396.211 757.221 393.8 758.013 391.484C759.99 385.962 761.112 380.169 761.339 374.308C761.403 373.462 761.344 372.611 761.164 371.781C760.817 370.776 760.356 369.813 759.791 368.911C758.846 367.133 758.277 365.175 757.388 363.363C755.374 359.282 751.811 356.182 748.086 353.587C746.274 352.321 744.135 350.92 742.059 351.73Z" fill="#2F2E41"/>
<path d="M694.522 395.975C692.906 395.127 691.443 394.014 690.195 392.683C689.632 392.019 689.159 391.27 688.58 390.617C687.118 389.056 685.22 387.973 683.132 387.511C681.061 387.056 678.943 386.85 676.824 386.897C675.405 386.807 673.982 386.979 672.625 387.404C671.947 387.626 671.336 388.016 670.849 388.539C670.363 389.062 670.018 389.699 669.845 390.392C669.536 392.08 670.639 393.718 671.961 394.804C673.193 395.809 674.642 396.512 676.193 396.858C677.458 397.077 678.733 397.225 680.014 397.303C687.544 398.091 694.263 402.188 700.837 405.919C706.633 409.202 712.54 412.267 718.558 415.114C718.795 413.31 718.895 411.491 718.856 409.672C718.822 408.316 718.755 406.245 717.472 405.446C715.98 404.517 713.532 404.321 711.844 403.758C707.965 402.486 704.177 400.954 700.504 399.171C698.475 398.177 696.481 397.112 694.522 395.975Z" fill="#FBBEBE"/>
<path d="M740.76 343.673C742.655 336.468 738.381 329.1 731.215 327.216C724.049 325.332 716.704 329.645 714.81 336.85C712.915 344.056 717.189 351.424 724.355 353.308C731.521 355.192 738.866 350.878 740.76 343.673Z" fill="#FBBEBE"/>
<path d="M745.897 367.026C744.698 368.422 744.096 370.223 743.291 371.877C741.637 375.287 739.037 378.214 737.737 381.782C736.364 385.541 736.409 390.009 733.719 392.964C733.252 393.476 732.689 393.971 732.554 394.652C732.535 395.066 732.488 395.477 732.413 395.885C732.03 396.954 730.275 397.01 729.948 398.102C729.853 398.423 729.903 398.771 729.785 399.087C729.515 399.79 728.586 399.897 727.962 400.325C726.656 401.208 726.921 403.257 725.992 404.534C725.584 405.012 725.056 405.373 724.463 405.579C723.869 405.784 723.232 405.828 722.615 405.705C721.396 405.454 720.222 405.016 719.138 404.405C718.752 404.191 718.327 404.058 717.888 404.016C717.368 404.033 716.865 404.203 716.442 404.506C713.966 406.082 712.801 409.205 712.818 412.154C712.835 415.103 713.848 417.939 714.883 420.697C715.026 421.162 715.26 421.594 715.57 421.968C716.391 422.835 717.821 422.7 718.913 422.216C720.004 421.732 720.995 420.972 722.165 420.759C724.242 420.381 726.273 421.811 728.356 421.693C729.898 421.603 731.265 420.708 732.543 419.841C734.591 418.457 736.673 417.027 738.17 415.069C739.093 413.865 739.768 412.497 740.573 411.208C741.603 409.638 742.731 408.135 743.95 406.706L751.682 397.241C752.458 396.344 753.155 395.382 753.764 394.365C754.468 392.991 755.012 391.541 755.385 390.043C756.122 387.516 756.865 384.978 756.989 382.339C757.032 380.173 756.843 378.009 756.426 375.884C756.159 373.766 755.591 371.696 754.738 369.739C753.145 366.227 749.054 363.34 745.897 367.026Z" fill="#2F2E41"/>
<path d="M769.285 361.005C769.904 358.695 769.966 356.271 769.465 353.932C768.964 351.594 767.915 349.408 766.404 347.555C768.458 338.792 763.984 330.019 756.105 326.772C756.387 318.556 751.181 311.015 743.162 308.899C734.827 306.709 726.279 311.11 722.683 318.933C717.618 316.304 712.261 316.586 710.493 319.675C708.648 322.906 711.422 327.987 716.684 331.021C718.342 331.99 720.157 332.662 722.047 333.007C722.858 335.303 724.141 337.403 725.813 339.173C727.485 340.942 729.509 342.343 731.755 343.283C731.616 346.605 732.406 349.9 734.037 352.798C735.667 355.696 738.073 358.081 740.984 359.688C741.302 361.997 742.156 364.2 743.477 366.12C743.322 366.523 743.191 366.934 743.083 367.352C741.428 373.627 745.008 380.009 751.069 381.602C757.129 383.194 763.387 379.401 765.036 373.126C765.479 371.454 765.556 369.705 765.261 368C767.206 366.072 768.596 363.655 769.285 361.005V361.005Z" fill="#3F3D56"/>
<path opacity="0.1" d="M713.966 321.307C715.733 318.218 721.085 317.931 726.155 320.565C729.74 312.742 738.3 308.336 746.634 310.531C747.011 310.626 747.382 310.744 747.76 310.868C746.334 309.989 744.787 309.325 743.167 308.899C734.833 306.709 726.285 311.11 722.689 318.933C717.624 316.304 712.266 316.586 710.499 319.675C708.653 322.906 711.428 327.987 716.689 331.021C717.677 331.589 718.717 332.06 719.796 332.428C714.765 329.355 712.165 324.459 713.966 321.307Z" fill="black"/>
<path opacity="0.1" d="M746.561 368.985C746.668 368.567 746.8 368.155 746.955 367.752C745.633 365.83 744.78 363.625 744.462 361.314C741.55 359.71 739.144 357.325 737.514 354.428C735.884 351.531 735.094 348.237 735.232 344.916C732.987 343.975 730.963 342.575 729.291 340.805C727.619 339.035 726.336 336.935 725.525 334.64C724.423 334.443 723.345 334.128 722.311 333.7C723.171 335.841 724.448 337.789 726.068 339.432C727.688 341.075 729.62 342.378 731.749 343.267C731.61 346.589 732.4 349.883 734.031 352.781C735.661 355.679 738.067 358.065 740.978 359.671C741.296 361.98 742.15 364.183 743.471 366.103C743.316 366.506 743.185 366.918 743.077 367.336C741.428 373.588 744.979 379.947 751.007 381.568C749.074 380.171 747.614 378.219 746.819 375.971C746.025 373.722 745.935 371.286 746.561 368.985V368.985Z" fill="black"/>
<path d="M733.572 344.904C734.48 344.214 734.468 342.67 733.545 341.455C732.622 340.24 731.137 339.814 730.229 340.504C729.321 341.194 729.333 342.738 730.256 343.953C731.179 345.169 732.663 345.594 733.572 344.904Z" fill="#FBBEBE"/>
<path d="M568.593 226.139C573.656 226.139 577.761 222.035 577.761 216.972C577.761 211.909 573.656 207.804 568.593 207.804C563.53 207.804 559.426 211.909 559.426 216.972C559.426 222.035 563.53 226.139 568.593 226.139Z" fill="#3F3D56"/>
<path d="M588.487 270.631C602.688 270.631 614.2 255.715 614.2 237.315C614.2 218.916 602.688 204 588.487 204C574.286 204 562.774 218.916 562.774 237.315C562.774 255.715 574.286 270.631 588.487 270.631Z" fill="#3F3D56"/>
<path opacity="0.1" d="M588.487 260.569C575.605 260.569 564.935 248.295 563.061 232.284C562.866 233.954 562.769 235.634 562.769 237.316C562.769 255.712 574.283 270.631 588.487 270.631C602.691 270.631 614.199 255.712 614.199 237.316C614.199 235.634 614.102 233.954 613.907 232.284C612.038 248.317 601.369 260.569 588.487 260.569Z" fill="black"/>
<path d="M643.277 334.887C642.715 337.138 640.345 338.972 637.712 340.239C632.163 342.912 625.331 343.705 618.696 343.975C617.008 344.078 615.314 344.046 613.631 343.88C610.159 343.469 606.94 341.989 604.931 339.878C604.644 339.648 604.446 339.326 604.368 338.967C604.382 338.751 604.439 338.54 604.536 338.347C604.632 338.154 604.767 337.982 604.931 337.841C608.471 333.981 614.368 331.606 620.289 329.918C624.791 328.618 632.636 325.252 637.549 325.708C642.321 326.119 643.975 332.017 643.277 334.887Z" fill="#3F3D56"/>
<path opacity="0.1" d="M643.277 334.887C642.715 337.138 640.345 338.972 637.712 340.239C632.163 342.912 625.331 343.705 618.696 343.975C617.008 344.078 615.314 344.046 613.631 343.88C610.159 343.469 606.94 341.989 604.931 339.878C604.644 339.648 604.446 339.326 604.368 338.967C604.382 338.751 604.439 338.54 604.536 338.347C604.632 338.154 604.767 337.982 604.931 337.841C608.471 333.981 614.368 331.606 620.289 329.918C624.791 328.618 632.636 325.252 637.549 325.708C642.321 326.119 643.975 332.017 643.277 334.887Z" fill="black"/>
<path d="M572.786 317.925C571.098 321.236 570.793 325.082 571.936 328.618C573.102 332.134 575.286 335.225 578.211 337.498C585.398 343.266 595.257 344.06 604.447 343.987C612.505 343.914 620.552 343.362 628.544 342.332C631.206 341.989 633.896 341.584 636.361 340.52C639.361 339.22 641.989 336.84 643.064 333.767C644.139 330.694 643.379 326.89 640.813 324.83C638.562 323.018 635.506 322.771 632.641 322.579L616.237 321.594C617.858 319.951 620.013 319.023 621.988 317.835C624.605 316.248 626.344 313.592 628.252 311.2C631.066 307.621 634.442 304.492 637.819 301.38C638.382 304.441 640.289 306.957 642.568 309.073C644.848 311.189 647.476 312.888 649.851 314.898C655.591 319.771 659.721 326.389 665.76 330.891C669.914 329.799 673.797 327.86 677.167 325.196L674.82 320.947C674.628 320.502 674.323 320.114 673.937 319.822C673.267 319.417 672.412 319.625 671.641 319.512C669.581 319.203 668.681 316.822 667.87 314.903C665.653 309.624 661.398 305.533 657.74 301.11C655.073 297.849 652.709 294.351 650.678 290.659C649.457 288.459 648.342 286.157 646.682 284.261C645.022 282.364 642.709 280.884 640.188 280.884C637.937 280.884 635.911 282.01 633.998 283.135C628.169 286.598 622.561 290.419 617.205 294.576C614.391 296.749 611.617 299.05 608.33 300.384C606.946 300.947 605.516 301.329 604.16 302.01C601.836 303.209 600.069 305.235 598.167 307.03C591.391 313.44 582.111 317.593 572.786 317.925Z" fill="#605D82"/>
<path d="M607.092 272.285C607.019 274.247 606.602 276.18 605.859 277.998C605.484 278.9 604.926 279.716 604.221 280.394C603.516 281.072 602.679 281.597 601.762 281.937C600.458 282.286 599.091 282.331 597.767 282.066C596.61 281.941 595.496 281.557 594.508 280.941C592.972 279.883 592.207 277.998 591.925 276.152C591.644 274.306 591.773 272.421 591.593 270.563C591.418 269.062 591.132 267.576 590.738 266.118C590.62 265.634 590.496 265.15 590.372 264.666C590.248 264.182 590.141 263.698 590.034 263.214C589.928 262.73 589.843 262.308 589.764 261.846C589.686 261.385 589.641 261.07 589.601 260.681C589.565 259.521 589.376 258.371 589.038 257.26C588.718 256.541 588.316 255.861 587.84 255.234C587.637 254.941 587.44 254.671 587.277 254.35C586.753 253.566 586.509 252.628 586.585 251.688C586.606 251.543 586.642 251.399 586.692 251.261C586.709 251.207 586.73 251.154 586.754 251.103C586.954 251.048 587.138 250.945 587.29 250.803C587.442 250.661 587.558 250.484 587.626 250.287C587.703 249.863 587.666 249.426 587.519 249.021C587.354 248.455 587.125 247.91 586.838 247.395C586.652 247.057 586.016 246.444 586.011 246.055C586.011 245.273 587.53 244.643 588.149 244.333C590.04 243.385 592.15 242.957 594.261 243.095C595.611 243.185 597.075 243.602 597.823 244.738C598.498 245.757 598.386 247.079 598.695 248.267C598.721 248.44 598.793 248.603 598.904 248.74C599.051 248.873 599.235 248.958 599.433 248.982C599.762 249.048 600.1 249.061 600.434 249.021V249.021C600.523 249.016 600.612 249.003 600.699 248.982C601.219 248.885 601.711 248.674 602.139 248.363C602.421 248.284 602.702 248.227 602.978 248.177H603.012C604.137 251.711 604.278 255.493 605.195 259.106C605.651 260.895 606.321 262.662 606.394 264.508C606.394 264.587 606.394 264.671 606.394 264.75C606.394 265.347 606.36 265.943 606.394 266.534C606.404 266.799 606.434 267.062 606.484 267.322C606.585 267.741 606.709 268.154 606.855 268.56C606.895 268.689 606.934 268.819 606.968 268.954C606.996 269.048 607.018 269.144 607.036 269.241V269.241C607.2 270.248 607.219 271.273 607.092 272.285V272.285Z" fill="#FBBEBE"/>
<path d="M591.402 249.167C598.687 249.167 604.593 243.261 604.593 235.976C604.593 228.691 598.687 222.785 591.402 222.785C584.117 222.785 578.211 228.691 578.211 235.976C578.211 243.261 584.117 249.167 591.402 249.167Z" fill="#FBBEBE"/>
<path d="M675.158 307.852C674.773 304.256 673.495 300.814 671.438 297.84L672.468 303.946C672.041 304.069 671.587 304.064 671.162 303.933C670.738 303.802 670.36 303.551 670.076 303.209C669.52 302.515 669.094 301.726 668.821 300.879C667.322 297.159 665.362 293.643 662.985 290.412C654.589 289.708 646.283 286.231 638.899 282.167C631.516 278.104 624.599 273.248 617.306 269.021C616.041 268.259 614.725 267.586 613.367 267.007C611.087 266.095 608.527 265.622 606.366 264.547L605.933 264.317C605.443 264.054 604.979 263.745 604.548 263.394C604.317 263.203 604.097 262.998 603.89 262.78C602.81 261.527 601.954 260.097 601.357 258.554C600.198 255.988 599.782 252.887 598.628 250.321C599.16 249.825 599.756 249.403 600.401 249.066V249.066L600.682 248.925C601.14 248.711 601.617 248.538 602.106 248.407C602.387 248.329 602.669 248.272 602.944 248.222H602.978C604.286 248.011 605.625 248.117 606.884 248.531C608.718 249.156 610.26 250.394 611.813 251.57C614.261 253.422 616.805 255.166 619.028 257.288C620.3 258.509 621.465 259.848 622.832 260.957C623.972 261.837 625.174 262.635 626.428 263.343L648.68 276.596C651.19 278.087 653.705 279.584 656.159 281.171C659.89 283.574 663.475 286.18 667.077 288.786L673.43 293.389C674.126 293.84 674.736 294.412 675.231 295.077C675.667 295.823 675.937 296.654 676.024 297.514C676.552 300.98 676.255 304.522 675.158 307.852V307.852Z" fill="#FBBEBE"/>
<path d="M610.367 282.207C609.472 286.197 605.443 288.611 603.333 292.117C600.71 296.467 601.779 301.526 602.77 306.512L597.373 311.161C596.383 312.011 595.387 312.849 594.323 313.62C592.763 314.669 591.133 315.609 589.444 316.434L584.672 318.888C583.191 319.719 581.623 320.384 579.995 320.869C576.855 321.673 573.523 321.11 570.428 320.182C570.062 320.086 569.71 319.943 569.381 319.754C569.188 319.638 569.02 319.485 568.886 319.304C568.578 318.756 568.466 318.118 568.571 317.498C568.886 312.275 570.164 307.16 571.435 302.084C572.104 299.035 573.009 296.043 574.142 293.136C575.259 290.647 576.543 288.236 577.986 285.921C579.674 283.068 581.363 280.192 583.614 277.744C584.576 276.686 585.651 275.684 586.225 274.368C587.018 272.555 586.709 270.479 586.872 268.509C586.994 267.026 587.387 265.579 588.031 264.238V264.238C588.376 263.516 588.791 262.83 589.269 262.189C589.489 262.696 589.703 263.202 589.922 263.703L590.344 264.694C590.53 265.116 590.71 265.543 590.907 265.966C591.432 267.174 591.954 268.384 592.471 269.595C593.03 271.122 593.83 272.549 594.841 273.822C595.916 275.037 597.497 275.921 599.106 275.746C599.862 275.62 600.581 275.328 601.209 274.89C601.838 274.452 602.362 273.879 602.742 273.214C603.496 271.881 604.041 270.441 604.357 268.943C604.8 267.12 604.862 265.225 604.537 263.377C603.974 259.815 602.483 256.179 601.386 252.87C600.938 251.768 600.679 250.598 600.62 249.409C600.619 249.275 600.633 249.141 600.66 249.01V248.908C601.118 248.694 601.595 248.521 602.083 248.391C602.365 248.312 602.646 248.255 602.922 248.205C603.89 253.457 604.86 258.698 605.831 263.928C605.831 264.052 605.882 264.176 605.905 264.3C606.04 265.054 606.18 265.802 606.338 266.551C606.495 267.299 606.631 267.907 606.799 268.577C606.856 268.802 606.917 269.033 606.979 269.258C607.154 269.877 607.345 270.485 607.542 271.092C608.915 274.767 611.206 278.431 610.367 282.207Z" fill="#BF3329"/>
<path d="M663.908 338.297C663.86 339.072 664.009 339.847 664.342 340.548C665.163 342.057 667.155 342.4 668.844 342.541C678.858 343.366 688.933 343.06 698.878 341.629C699.418 341.589 699.942 341.426 700.409 341.151C701.821 340.16 700.972 337.746 699.407 336.969C697.843 336.193 696.031 336.406 694.342 336.052C692.658 335.626 691.054 334.931 689.593 333.992C686.16 332.019 682.783 329.955 679.463 327.802C677.476 326.524 675.13 325.163 672.895 325.922C666.823 327.971 663.863 331.764 663.908 338.297Z" fill="#2F2E41"/>
<path d="M590.085 262.949L590.034 263.225L589.95 263.686C589.674 265.105 589.331 266.5 588.943 267.924C587.868 271.801 586.433 275.623 585.003 279.382L573.517 309.658C572.549 312.202 571.587 314.723 570.49 317.233C570.124 318.06 569.747 318.921 569.364 319.743C568.019 322.765 566.725 325.888 566.297 329.113C566.016 331.246 565.734 333.424 566.156 335.534C566.578 337.644 567.845 339.71 569.876 340.486C570.855 340.869 572.257 341.381 571.987 342.4C571.846 342.962 571.21 343.233 570.636 343.323C569.883 343.444 569.113 343.397 568.381 343.186C567.648 342.975 566.971 342.605 566.398 342.101C565.329 341.156 564.502 339.676 563.078 339.518C562.093 339.411 561.187 340.002 560.264 340.413C556.578 342.101 552.29 340.92 548.418 339.721C548.722 338.157 550.298 337.121 551.857 336.812C553.416 336.502 555.036 336.716 556.635 336.676C557.146 336.703 557.653 336.571 558.086 336.299C558.478 335.949 558.758 335.491 558.891 334.983C559.917 331.94 560.679 328.814 561.17 325.641C561.688 322.32 561.902 318.955 562.634 315.68C563.196 313.125 564.085 310.649 564.84 308.139C566.303 302.973 567.504 297.737 568.436 292.449C568.908 290.254 569.246 288.033 569.449 285.797C569.578 283.94 569.516 282.072 569.696 280.226C569.995 277.821 570.496 275.445 571.193 273.124C571.88 270.586 572.561 268.059 573.247 265.527C574.26 261.779 575.346 257.89 577.912 254.98C578.803 253.955 579.895 253.124 581.121 252.538C582.347 251.952 583.68 251.625 585.037 251.576C585.546 251.573 586.054 251.628 586.551 251.739L586.798 251.801C587.342 251.941 587.863 252.157 588.346 252.442C589.14 251.936 589.539 252.116 590.068 252.887C590.527 253.71 590.744 254.647 590.693 255.588C590.733 258.056 590.53 260.522 590.085 262.949Z" fill="#FBBEBE"/>
<path d="M590.952 265.937L590.918 265.971L590.738 266.151L588.943 267.947L588.059 264.244L585.037 251.559C585.546 251.557 586.054 251.611 586.551 251.722C586.572 251.576 586.608 251.433 586.658 251.294L586.799 251.784L587.823 255.268L589.764 261.88L590.085 262.972L590.952 265.937Z" fill="#BF3329"/>
<path d="M601.031 216.521H585.915C582.185 216.521 579.162 219.545 579.162 223.275V227.659C579.162 231.388 582.185 234.412 585.915 234.412H601.031C604.76 234.412 607.784 231.388 607.784 227.659V223.275C607.784 219.545 604.76 216.521 601.031 216.521Z" fill="#3F3D56"/>
<path d="M609.455 226.139C614.518 226.139 618.623 222.035 618.623 216.972C618.623 211.909 614.518 207.804 609.455 207.804C604.392 207.804 600.288 211.909 600.288 216.972C600.288 222.035 604.392 226.139 609.455 226.139Z" fill="#3F3D56"/>
<path opacity="0.1" d="M609.236 207.799H608.898C611.26 207.9 613.49 208.91 615.125 210.616C616.76 212.323 617.672 214.595 617.672 216.958C617.672 219.321 616.76 221.593 615.125 223.3C613.49 225.006 611.26 226.015 608.898 226.117H609.236C611.667 226.117 613.999 225.151 615.718 223.432C617.438 221.712 618.403 219.381 618.403 216.949C618.403 214.518 617.438 212.186 615.718 210.467C613.999 208.748 611.667 207.782 609.236 207.782V207.799Z" fill="black"/>
<path opacity="0.1" d="M568.593 207.799H568.931C566.57 207.9 564.339 208.91 562.704 210.616C561.07 212.323 560.157 214.595 560.157 216.958C560.157 219.321 561.07 221.593 562.704 223.3C564.339 225.006 566.57 226.015 568.931 226.117H568.593C567.39 226.117 566.197 225.88 565.085 225.419C563.973 224.958 562.962 224.283 562.111 223.432C561.26 222.58 560.585 221.57 560.124 220.458C559.663 219.345 559.426 218.153 559.426 216.949C559.426 215.745 559.663 214.553 560.124 213.441C560.585 212.329 561.26 211.318 562.111 210.467C562.962 209.616 563.973 208.941 565.085 208.48C566.197 208.019 567.39 207.782 568.593 207.782V207.799Z" fill="black"/>
<path opacity="0.1" d="M608.065 232.616H584.835C584.124 232.616 583.442 232.334 582.938 231.832C582.435 231.33 582.152 230.649 582.15 229.938V231.722C582.152 232.433 582.435 233.115 582.938 233.618C583.441 234.121 584.123 234.405 584.835 234.406H608.088C608.799 234.405 609.481 234.121 609.984 233.618C610.487 233.115 610.771 232.433 610.772 231.722V229.938C610.771 230.291 610.699 230.641 610.563 230.968C610.426 231.294 610.226 231.59 609.974 231.839C609.723 232.087 609.425 232.284 609.097 232.418C608.77 232.551 608.419 232.619 608.065 232.616V232.616Z" fill="black"/>
<path d="M686.874 326.457C686.874 326.457 688.326 326.71 688.563 325.534C688.681 324.971 688.281 321.358 687.825 317.745C687.606 315.967 687.37 314.194 687.178 312.776C686.948 311.037 686.779 309.838 686.779 309.838L686.514 308.961L684.95 303.704L683.475 298.752L682.389 296.805L674.572 300.609L669.71 309.011L671.218 309.962L671.483 310.131L674.257 313.035L682.035 321.195L685.535 324.87L685.946 325.298L686.874 326.457Z" fill="#FFE09C"/>
<path d="M680.729 293.462C680.729 293.462 672.164 297.48 670.104 301.847C670.104 301.847 668.18 305.522 667.938 307.475C667.938 307.475 667.375 309.259 670.926 309.698C670.926 309.698 672.541 303.142 677.386 300.294L682.237 297.452L680.729 293.462Z" fill="#E7C4C3"/>
<path d="M682.961 303.549C683.379 301.99 682.647 300.44 681.326 300.086C680.006 299.732 678.597 300.709 678.179 302.267C677.761 303.826 678.493 305.377 679.814 305.73C681.134 306.084 682.543 305.108 682.961 303.549Z" fill="#FF7F8E"/>
<path d="M682.032 313.738C682.445 312.185 681.714 310.642 680.399 310.292C679.084 309.941 677.682 310.916 677.268 312.468C676.854 314.021 677.585 315.564 678.901 315.914C680.216 316.265 681.618 315.29 682.032 313.738Z" fill="#FF7F8E"/>
<path d="M674.257 313.035C674.706 312.853 675.105 312.566 675.421 312.199C675.737 311.832 675.961 311.395 676.075 310.925C676.491 309.371 675.76 307.824 674.443 307.475C673.126 307.126 671.725 308.1 671.314 309.653C671.282 309.758 671.257 309.865 671.241 309.974L671.505 310.142L674.257 313.035Z" fill="#FF7F8E"/>
<path d="M684.719 309.281C685.027 309.359 685.349 309.371 685.662 309.316C685.976 309.261 686.274 309.139 686.537 308.961L684.972 303.704C684.506 303.877 684.09 304.162 683.76 304.534C683.43 304.906 683.197 305.354 683.081 305.837C682.67 307.407 683.402 308.932 684.719 309.281Z" fill="#FF7F8E"/>
<path d="M685.625 318.375C686.019 318.468 686.429 318.459 686.818 318.349C687.207 318.239 687.562 318.031 687.848 317.745C687.629 315.967 687.392 314.194 687.201 312.776H687.128C685.811 312.421 684.41 313.401 683.993 314.954C683.577 316.507 684.314 318.026 685.625 318.375Z" fill="#FF7F8E"/>
<path d="M685.535 324.853C685.697 324.581 685.82 324.287 685.901 323.981C686.317 322.428 685.586 320.886 684.269 320.537C683.87 320.44 683.453 320.448 683.059 320.561C682.664 320.673 682.306 320.886 682.018 321.178L685.535 324.853Z" fill="#FF7F8E"/>
<path d="M681.669 301.318L682.569 301.56C682.215 302.212 682.006 302.931 681.956 303.671C681.953 303.719 681.953 303.768 681.956 303.817C682.074 304.746 681.055 303.575 681.055 303.575C681.055 303.575 681.23 301.667 681.669 301.318Z" fill="#94CC79"/>
<path d="M677.567 307.126L678.473 307.368C678.116 308.016 677.906 308.735 677.859 309.473C677.856 309.521 677.856 309.57 677.859 309.619C677.977 310.548 676.959 309.377 676.959 309.377C676.959 309.377 677.128 307.469 677.567 307.126Z" fill="#94CC79"/>
<path d="M680.369 309.045L681.269 309.281C680.915 309.932 680.706 310.652 680.656 311.392C680.653 311.44 680.653 311.489 680.656 311.538C680.78 312.467 679.755 311.296 679.755 311.296C679.755 311.296 679.941 309.388 680.369 309.045Z" fill="#94CC79"/>
<path d="M683.971 313.89L684.877 314.127C684.52 314.777 684.311 315.497 684.263 316.237C684.26 316.286 684.26 316.335 684.263 316.383C684.381 317.312 683.363 316.141 683.363 316.141C683.363 316.141 683.537 314.234 683.971 313.89Z" fill="#94CC79"/>
<path d="M686.216 321.865L687.117 322.106C686.763 322.756 686.554 323.474 686.503 324.211C686.5 324.26 686.5 324.309 686.503 324.358C686.627 325.286 685.603 324.121 685.603 324.121C685.603 324.121 685.777 322.208 686.216 321.865Z" fill="#94CC79"/>
<path d="M681.331 316.288L682.232 316.53C681.876 317.187 681.67 317.916 681.629 318.662C681.626 318.711 681.626 318.76 681.629 318.809C681.748 319.737 680.729 318.572 680.729 318.572C680.729 318.572 680.898 316.631 681.331 316.288Z" fill="#94CC79"/>
<path d="M683.515 294.205C683.515 294.205 682.226 291.284 680.701 293.462C680.829 295.23 681.411 296.936 682.389 298.414C682.389 298.414 687.055 311.105 686.666 313.046C686.666 313.046 688.506 325.303 688.051 325.99C688.051 325.99 688.557 326.856 688.917 323.598C689.277 320.34 687.696 310.767 687.696 310.767L685.383 300.817L683.836 297.441L683.515 294.205Z" fill="#E7C4C3"/>
<path opacity="0.2" d="M683.515 294.205C683.515 294.205 682.226 291.284 680.701 293.462C680.829 295.23 681.411 296.936 682.389 298.414C682.389 298.414 687.055 311.105 686.666 313.046C686.666 313.046 688.506 325.303 688.051 325.99C688.051 325.99 688.557 326.856 688.917 323.598C689.277 320.34 687.696 310.767 687.696 310.767L685.383 300.817L683.836 297.441L683.515 294.205Z" fill="white"/>
<path d="M668.039 299.045C668.039 299.045 670.352 305.708 672.468 303.935L670.779 295.229L668.039 299.045Z" fill="#FBBEBE"/>
<path d="M509.847 326.412C509.847 326.412 530.247 360.78 535.014 365.372C535.014 365.372 555.397 386.532 545.036 385.068C544.277 384.962 529.358 372.35 528.486 370.279C527.613 368.208 499.408 331.567 499.408 331.567L503.431 327.864L509.847 326.412Z" fill="#A0616A"/>
<path opacity="0.1" d="M509.847 326.412C509.847 326.412 530.247 360.78 535.014 365.372C535.014 365.372 555.397 386.532 545.036 385.068C544.277 384.962 529.358 372.35 528.486 370.279C527.613 368.208 499.408 331.567 499.408 331.567L503.431 327.864L509.847 326.412Z" fill="black"/>
<path d="M528.502 438.655C528.502 438.655 521.974 446.815 524.698 450.079C527.422 453.343 540.99 459.584 545.368 459.325C549.994 459.055 565.498 459.888 566.044 452.797C566.044 452.797 567.13 449.533 552.988 448.987C538.846 448.441 543.19 433.753 543.19 433.753L528.502 438.655Z" fill="#2F2E41"/>
<path d="M450.706 369.559C450.706 369.559 444.178 391.861 463.762 395.671L484.978 394.585C484.978 394.585 514.9 388.597 523.066 392.953C523.066 392.953 526.33 393.515 525.238 397.849C524.147 402.182 526.87 431.581 526.87 431.581V441.373C526.87 441.373 545.368 441.373 547.546 439.195C547.546 439.195 545.914 430.489 547.546 423.437C549.178 416.386 544.828 394.056 544.828 394.056L544.395 380.656C544.362 378.996 543.887 377.374 543.02 375.958C542.152 374.541 540.923 373.382 539.459 372.598C538.43 372.053 537.286 371.761 536.122 371.748C536.122 371.748 499.126 365.766 486.07 366.852C473.014 367.938 450.706 369.559 450.706 369.559Z" fill="#605D82"/>
<path d="M487.156 298.285C487.156 298.285 496.948 309.709 498.034 313.519C499.12 317.329 511.113 327.104 511.113 327.104C511.113 327.104 502.407 333.632 504.039 336.896C505.671 340.16 492.615 326.018 492.615 326.018L477.347 303.727L487.156 298.285Z" fill="#BF3329"/>
<path opacity="0.1" d="M487.156 298.285C487.156 298.285 496.948 309.709 498.034 313.519C499.12 317.329 511.113 327.104 511.113 327.104C511.113 327.104 502.407 333.632 504.039 336.896C505.671 340.16 492.615 326.018 492.615 326.018L477.347 303.727L487.156 298.285Z" fill="black"/>
<path d="M493.667 285.229C493.667 285.229 488.771 300.986 488.771 306.991C488.771 312.996 468.096 305.359 468.641 302.095C469.187 298.831 480.611 286.861 481.157 281.965C481.703 277.069 493.667 285.229 493.667 285.229Z" fill="#A0616A"/>
<path opacity="0.1" d="M477.347 296.107C477.347 296.107 458.303 291.211 455.585 318.961C452.867 346.71 457.758 349.969 449.597 366.835C441.437 383.701 505.091 369.013 505.091 369.013C505.091 369.013 501.827 365.203 491.489 366.835L486.593 352.147C486.593 352.147 484.961 345.619 494.213 345.619C503.465 345.619 499.109 326.575 499.109 326.575C499.109 326.575 494.213 310.255 491.489 308.623C488.766 306.991 483.892 297.199 477.347 296.107Z" fill="black"/>
<path d="M477.347 295.027C477.347 295.027 458.303 290.131 455.585 317.875C452.867 345.619 457.758 348.888 449.597 365.754C441.437 382.62 505.091 367.932 505.091 367.932C505.091 367.932 501.827 364.122 491.489 365.754L486.593 351.066C486.593 351.066 484.978 344.549 494.23 344.549C503.482 344.549 499.126 325.506 499.126 325.506C499.126 325.506 494.23 309.186 491.506 307.554C488.783 305.922 483.892 296.107 477.347 295.027Z" fill="#BF3329"/>
<path d="M488.788 295.021C498.703 295.021 506.74 286.983 506.74 277.069C506.74 267.154 498.703 259.117 488.788 259.117C478.874 259.117 470.836 267.154 470.836 277.069C470.836 286.983 478.874 295.021 488.788 295.021Z" fill="#A0616A"/>
<path d="M485.322 368.99L530.438 395.958L572.414 356.846L522.374 339.417L486.363 363.931L485.322 368.99Z" fill="#DADAE5"/>
<path d="M538.564 293.501L524.523 335.258L571.075 348.646L590.946 292.179L538.564 293.501Z" fill="#DADAE5"/>
<path opacity="0.03" d="M534.817 290.417L538.627 293.901L591.008 292.578L592.213 289.157L534.817 290.417Z" fill="black"/>
<path opacity="0.03" d="M520.99 332.856L534.817 290.418L538.626 293.901L524.94 334.611L520.99 332.856Z" fill="black"/>
<path d="M534.755 290.018L538.565 293.501L590.946 292.179L592.151 288.757L534.755 290.018Z" fill="#EFF0F4"/>
<path d="M520.927 332.461L534.755 290.018L538.564 293.502L524.878 334.212L520.927 332.461Z" fill="#EFF0F4"/>
<path opacity="0.03" d="M534.755 290.018L540.579 295.465L592.967 294.143L592.151 288.757L534.755 290.018Z" fill="black"/>
<path opacity="0.03" d="M520.927 332.461L534.755 290.018L540.579 295.466L526.893 336.176L520.927 332.461Z" fill="black"/>
<path opacity="0.03" d="M521.018 333.058L522.289 341.133L572.64 358.613L571.171 349.243L521.018 333.058Z" fill="black"/>
<path opacity="0.03" d="M483.797 359.598L521.018 333.058L522.644 341.128L486.081 368.32L483.797 359.598Z" fill="black"/>
<path d="M520.927 332.462L522.019 339.423L572.369 356.902L571.075 348.647L520.927 332.462Z" fill="#EFF0F4"/>
<path d="M483.701 358.996L520.928 332.462L522.374 339.417L485.811 366.61L483.701 358.996Z" fill="#EFF0F4"/>
<path opacity="0.03" d="M520.927 332.462L522.019 339.423L572.369 356.902L571.075 348.647L520.927 332.462Z" fill="black"/>
<path opacity="0.03" d="M483.701 358.996L520.928 332.462L522.374 339.417L485.811 366.61L483.701 358.996Z" fill="black"/>
<path d="M483.701 358.996L485.384 369.03L530.376 395.913L529.268 385.586L483.701 358.996Z" fill="#CCCAD6"/>
<path d="M504.202 357.409C504.202 357.409 503.42 358.9 504.613 359.586C505.176 359.913 509.245 360.712 513.33 361.477C515.334 361.849 517.343 362.209 518.958 362.49C520.927 362.839 522.289 363.053 522.289 363.053H523.325L529.583 363.171L535.469 363.284L537.962 362.772L536.527 352.991L529.076 344.803L527.517 346.12L527.253 346.345L523.156 348.337L511.597 353.964L506.397 356.497L505.789 356.795L504.202 357.409Z" fill="#FFE09C"/>
<path d="M542.172 362.13C542.172 362.13 540.77 351.438 536.73 347.69C536.73 347.69 533.41 344.313 531.367 343.39C531.367 343.39 529.628 342.158 527.917 345.872C527.917 345.872 534.484 349.89 535.903 356.142L537.315 362.395L542.172 362.13Z" fill="#E7C4C3"/>
<path d="M534.274 358.314C535.11 357.004 534.536 355.142 532.99 354.155C531.445 353.168 529.514 353.429 528.677 354.739C527.841 356.049 528.415 357.911 529.961 358.898C531.506 359.885 533.437 359.624 534.274 358.314Z" fill="#FF7F8E"/>
<path d="M524.008 355.991C524.845 354.682 524.27 352.82 522.725 351.833C521.179 350.846 519.249 351.107 518.412 352.417C517.575 353.726 518.15 355.588 519.695 356.575C521.241 357.562 523.172 357.301 524.008 355.991Z" fill="#FF7F8E"/>
<path d="M523.156 348.342C523.2 348.896 523.376 349.431 523.67 349.902C523.964 350.373 524.366 350.767 524.844 351.049C526.386 352.034 528.317 351.775 529.149 350.487C529.982 349.198 529.414 347.318 527.866 346.333C527.761 346.266 527.652 346.204 527.54 346.148L527.275 346.373L523.156 348.342Z" fill="#FF7F8E"/>
<path d="M523.606 360.999C523.415 361.308 523.29 361.653 523.241 362.013C523.191 362.372 523.218 362.738 523.319 363.087L529.577 363.205C529.553 362.632 529.386 362.075 529.091 361.583C528.796 361.092 528.383 360.682 527.889 360.391C526.369 359.429 524.439 359.694 523.606 360.999Z" fill="#FF7F8E"/>
<path d="M513.409 358.844C513.171 359.239 513.039 359.689 513.025 360.15C513.011 360.611 513.116 361.068 513.33 361.477C515.334 361.849 517.343 362.209 518.958 362.49L519.009 362.417C519.841 361.112 519.267 359.249 517.725 358.264C516.183 357.279 514.248 357.538 513.409 358.844Z" fill="#FF7F8E"/>
<path d="M506.397 356.508C506.638 356.777 506.915 357.012 507.219 357.206C508.761 358.191 510.691 357.932 511.524 356.643C511.764 356.246 511.896 355.794 511.909 355.33C511.922 354.867 511.814 354.408 511.597 353.998L506.397 356.508Z" fill="#FF7F8E"/>
<path d="M533.308 360.436L532.745 361.331C532.162 360.722 531.454 360.248 530.669 359.941L530.506 359.901C529.453 359.71 531.068 359.007 531.068 359.007C531.068 359.007 533.089 359.845 533.308 360.436Z" fill="#94CC79"/>
<path d="M528.418 353.976L527.855 354.876C527.273 354.265 526.564 353.789 525.779 353.481L525.615 353.441C524.569 353.255 526.178 352.546 526.178 352.546C526.178 352.546 528.199 353.385 528.418 353.976Z" fill="#94CC79"/>
<path d="M525.368 356.367L524.805 357.262C524.222 356.654 523.513 356.179 522.729 355.872L522.565 355.833C521.513 355.641 523.128 354.938 523.128 354.938C523.128 354.938 525.143 355.765 525.368 356.367Z" fill="#94CC79"/>
<path d="M518.857 358.619L518.294 359.519C517.712 358.908 517.003 358.432 516.217 358.123L516.054 358.084C515.002 357.898 516.617 357.189 516.617 357.189C516.617 357.189 518.632 358.005 518.857 358.619Z" fill="#94CC79"/>
<path d="M509.425 358.281L508.862 359.181C508.277 358.57 507.567 358.094 506.78 357.786L506.616 357.746C505.57 357.56 507.179 356.851 507.179 356.851C507.179 356.851 509.194 357.684 509.425 358.281Z" fill="#94CC79"/>
<path d="M517.163 354.905L516.6 355.799C516.018 355.188 515.309 354.712 514.523 354.404L514.36 354.364C513.308 354.179 514.923 353.469 514.923 353.469C514.923 353.469 516.937 354.308 517.163 354.905Z" fill="#94CC79"/>
<path d="M540.376 364.905C540.376 364.905 543.995 364.511 542.149 362.13C540.189 361.652 538.138 361.687 536.195 362.232C536.195 362.232 520.792 362.918 518.795 361.815C518.795 361.815 504.838 359.564 504.275 358.855C504.275 358.855 503.15 359.103 506.571 360.622C509.993 362.141 520.939 363.728 520.939 363.728L532.548 364.651L536.724 364.134L540.376 364.905Z" fill="#E7C4C3"/>
<path opacity="0.2" d="M540.376 364.905C540.376 364.905 543.995 364.511 542.149 362.13C540.189 361.652 538.138 361.687 536.195 362.232C536.195 362.232 520.792 362.918 518.795 361.815C518.795 361.815 504.838 359.564 504.275 358.855C504.275 358.855 503.15 359.103 506.571 360.622C509.993 362.141 520.939 363.728 520.939 363.728L532.548 364.651L536.724 364.134L540.376 364.905Z" fill="white"/>
<path d="M529.403 359.384C529.234 359.91 529.193 360.469 529.284 361.015C529.375 361.56 529.595 362.075 529.926 362.518C530.984 364.01 532.869 364.494 534.141 363.599C535.413 362.704 535.576 360.785 534.512 359.266C534.439 359.164 534.361 359.063 534.282 358.967L533.944 359.08L529.403 359.384Z" fill="#FF7F8E"/>
<path d="M529.268 385.586L571.075 348.646L572.358 356.801L530.376 395.913L529.268 385.586Z" fill="#CCCAD6"/>
<path d="M576.5 350.751L571.075 348.646L592.151 288.757L596.169 291.594L576.5 350.751Z" fill="#CCCAD6"/>
<g opacity="0.1">
<path opacity="0.1" d="M542.571 438.041C542.613 436.592 542.823 435.153 543.196 433.753L542.92 433.849C542.65 435.229 542.533 436.635 542.571 438.041Z" fill="white"/>
<path opacity="0.1" d="M545.368 458.228C540.99 458.486 527.416 452.24 524.698 448.976C524.339 448.536 524.12 447.999 524.068 447.434C523.987 447.893 524.002 448.363 524.11 448.816C524.219 449.269 524.419 449.695 524.698 450.068C527.416 453.332 540.99 459.573 545.368 459.314C549.994 459.044 565.498 459.876 566.044 452.786C566.082 452.595 566.056 452.397 565.971 452.223C564.722 458.74 549.876 457.974 545.368 458.228Z" fill="white"/>
</g>
<path d="M561.266 326.193C561.266 326.193 562.234 325.067 561.356 324.257C560.934 323.863 557.625 322.354 554.293 320.88C552.656 320.16 551.007 319.451 549.696 318.888L546.966 317.723L546.083 317.498L540.765 316.142L535.762 314.864L533.511 314.802L532.757 323.463L537.478 331.95L539.065 331.139L539.341 330.998L543.241 330.121L554.26 327.667L559.206 326.541L559.769 326.412L561.266 326.193Z" fill="#FFE09C"/>
<path d="M529.797 314.538C529.797 314.538 528.845 323.947 531.541 327.959C531.541 327.959 533.702 331.494 535.255 332.709C535.255 332.709 536.493 334.105 538.705 331.28C538.705 331.28 533.899 326.53 533.95 320.908L533.995 315.28L529.797 314.538Z" fill="#E7C4C3"/>
<path d="M539.831 323.602C540.808 322.653 540.691 320.95 539.571 319.798C538.451 318.646 536.752 318.481 535.775 319.43C534.799 320.379 534.916 322.082 536.036 323.234C537.156 324.386 538.855 324.551 539.831 323.602Z" fill="#FF7F8E"/>
<path d="M548.133 327.641C549.109 326.692 548.992 324.989 547.872 323.837C546.752 322.685 545.053 322.52 544.077 323.469C543.101 324.418 543.217 326.121 544.337 327.273C545.457 328.425 547.157 328.59 548.133 327.641Z" fill="#FF7F8E"/>
<path d="M543.264 330.126C543.338 329.647 543.298 329.157 543.145 328.697C542.992 328.237 542.732 327.82 542.386 327.481C541.26 326.355 539.572 326.164 538.587 327.115C537.602 328.066 537.732 329.766 538.852 330.919C538.926 330.999 539.005 331.074 539.088 331.145L539.364 331.004L543.264 330.126Z" fill="#FF7F8E"/>
<path d="M545.441 319.226C545.667 319.001 545.843 318.73 545.956 318.432C546.07 318.135 546.119 317.816 546.1 317.498L540.782 316.142C540.69 316.631 540.721 317.135 540.871 317.609C541.021 318.083 541.286 318.513 541.643 318.86C542.746 320.019 544.445 320.182 545.441 319.226Z" fill="#FF7F8E"/>
<path d="M553.691 323.12C553.976 322.828 554.181 322.467 554.287 322.073C554.392 321.679 554.395 321.264 554.294 320.869C552.656 320.148 551.007 319.439 549.696 318.876L549.634 318.927C548.66 319.878 548.779 321.583 549.898 322.737C551.018 323.891 552.718 324.071 553.691 323.12Z" fill="#FF7F8E"/>
<path d="M559.207 326.541C559.058 326.262 558.868 326.006 558.644 325.781C557.518 324.628 555.83 324.465 554.851 325.416C554.565 325.707 554.359 326.068 554.255 326.462C554.15 326.857 554.15 327.272 554.254 327.667L559.207 326.541Z" fill="#FF7F8E"/>
<path d="M537 317.762L537.67 317.115C538.047 317.751 538.558 318.299 539.167 318.719L539.296 318.786C540.157 319.158 538.626 319.434 538.626 319.434C538.626 319.434 537.096 318.314 537 317.762Z" fill="#94CC79"/>
<path d="M539.904 324.29L540.568 323.637C540.944 324.276 541.455 324.825 542.065 325.247L542.194 325.309C543.055 325.686 541.525 325.962 541.525 325.962C541.525 325.962 539.971 324.808 539.904 324.29Z" fill="#94CC79"/>
<path d="M542.982 322.844L543.652 322.191C544.028 322.83 544.539 323.379 545.149 323.801L545.278 323.863C546.139 324.24 544.609 324.515 544.609 324.515C544.609 324.515 543.055 323.395 542.982 322.844Z" fill="#94CC79"/>
<path d="M548.992 322.236L549.662 321.583C550.038 322.22 550.546 322.769 551.153 323.192L551.288 323.26C552.144 323.631 550.619 323.907 550.619 323.907C550.619 323.907 549.065 322.787 548.992 322.236Z" fill="#94CC79"/>
<path d="M556.989 324.408L557.659 323.756C558.032 324.395 558.542 324.944 559.15 325.365L559.285 325.427C560.141 325.804 558.616 326.08 558.616 326.08C558.616 326.08 557.062 324.954 556.989 324.408Z" fill="#94CC79"/>
<path d="M549.696 325.731L550.365 325.083C550.743 325.72 551.254 326.267 551.862 326.687C551.902 326.715 551.946 326.738 551.992 326.755C552.853 327.126 551.322 327.408 551.322 327.408C551.322 327.408 549.769 326.282 549.696 325.731Z" fill="#94CC79"/>
<path d="M531.867 312.523C531.867 312.523 528.699 312.134 529.796 314.537C531.374 315.343 533.131 315.73 534.901 315.663C534.901 315.663 548.187 318.173 549.673 319.512C549.673 319.512 561.137 324.228 561.491 324.96C561.491 324.96 562.498 324.96 559.887 322.984C557.276 321.009 548.255 317.436 548.255 317.436L538.53 314.312L534.861 313.913L531.867 312.523Z" fill="#E7C4C3"/>
<path opacity="0.2" d="M531.867 312.523C531.867 312.523 528.699 312.134 529.796 314.537C531.374 315.343 533.131 315.73 534.901 315.663C534.901 315.663 548.187 318.173 549.673 319.512C549.673 319.512 561.137 324.228 561.491 324.96C561.491 324.96 562.498 324.96 559.887 322.984C557.276 321.009 548.255 317.436 548.255 317.436L538.53 314.312L534.861 313.913L531.867 312.523Z" fill="white"/>
<path d="M515.666 325.63C517.282 324.781 518.745 323.669 519.993 322.337C520.556 321.673 521.029 320.925 521.608 320.272C523.07 318.711 524.968 317.628 527.056 317.166C529.127 316.711 531.245 316.505 533.365 316.552C534.783 316.462 536.206 316.634 537.563 317.059C538.241 317.281 538.852 317.671 539.339 318.194C539.825 318.717 540.17 319.354 540.343 320.047C540.652 321.735 539.549 323.373 538.227 324.459C536.995 325.464 535.546 326.167 533.995 326.513C532.73 326.732 531.455 326.88 530.174 326.958C522.644 327.746 515.925 331.842 509.352 335.574C503.555 338.854 500.269 338.703 494.253 341.55C494.016 339.749 491.293 341.145 491.332 339.327C491.366 337.971 491.433 335.9 492.716 335.101C494.208 334.172 496.656 333.975 498.344 333.413C502.223 332.141 506.011 330.608 509.684 328.826C511.713 327.832 513.707 326.766 515.666 325.63Z" fill="#A0616A"/>
<path opacity="0.1" d="M465.94 320.593L494.793 346.705C494.793 346.705 500.235 335.827 501.867 335.827C503.499 335.827 482.283 303.749 482.283 303.749C482.283 303.749 476.841 297.221 473.577 300.485C470.313 303.749 460.498 301.549 465.94 320.593Z" fill="black"/>
<path d="M465.394 319.507L494.23 345.619C494.23 345.619 499.672 334.735 501.304 334.735C502.936 334.735 481.714 302.658 481.714 302.658C481.714 302.658 476.272 296.124 473.008 299.388C469.744 302.652 459.952 300.463 465.394 319.507Z" fill="#BF3329"/>
<path d="M512.869 273.478C513.499 272.778 514.01 271.98 514.383 271.115C516.87 265.487 512.925 258.419 506.189 256.483C502.812 255.498 499.031 255.695 495.66 254.648C492.947 253.81 490.662 252.223 488.175 250.985C483.501 248.682 478.329 247.572 473.121 247.754C468.028 247.935 462.49 249.724 460.403 253.658C457.352 259.387 462.963 266.601 459.564 272.178C457.065 276.275 451.005 277.485 445.979 279.263C440.776 281.063 436.039 283.998 432.113 287.857C428.173 291.796 425.36 297.199 427.34 302.083C428.494 304.948 431.1 307.188 433.171 309.658C436.626 313.712 438.647 318.792 438.921 324.112C439.194 329.431 437.705 334.692 434.684 339.079C433.717 340.469 432.585 341.826 432.186 343.401C431.229 347.161 435.09 350.942 439.552 351.674C444.015 352.405 448.647 350.74 452.119 348.28C455.324 346.07 457.905 343.07 459.609 339.569C463.734 330.824 460.836 320.998 460.425 311.583C460.374 310.485 460.425 309.292 461.196 308.431C462.389 307.143 464.64 307.176 466.565 307.008C471.545 306.569 476.132 303.777 478.242 299.928C482.277 292.522 477.578 282.173 484.629 276.602C493.504 269.59 506.279 280.676 512.869 273.478Z" fill="#3F3D56"/>
<path opacity="0.1" d="M506.189 256.461H506.132C508.766 259.511 509.757 263.63 508.192 267.187C507.819 268.052 507.308 268.85 506.678 269.551C500.088 276.748 487.314 265.662 478.439 272.674C471.388 278.245 476.087 288.594 472.052 296C469.958 299.85 465.355 302.641 460.374 303.08C458.45 303.249 456.199 303.215 455.006 304.504C454.212 305.365 454.184 306.558 454.235 307.655C454.645 317.07 457.544 326.896 453.419 335.641C451.714 339.142 449.134 342.143 445.928 344.353C442.456 346.801 437.83 348.489 433.362 347.757L433.052 347.69C433.815 348.756 434.783 349.659 435.899 350.347C437.015 351.035 438.257 351.494 439.552 351.697C444.02 352.423 448.618 350.734 452.119 348.281C455.324 346.071 457.904 343.07 459.609 339.569C463.734 330.824 460.836 320.998 460.425 311.583C460.374 310.486 460.425 309.293 461.196 308.432C462.389 307.143 464.64 307.177 466.565 307.008C471.545 306.569 476.132 303.778 478.242 299.928C482.277 292.522 477.578 282.173 484.629 276.602C493.504 269.59 506.279 280.676 512.869 273.479C513.498 272.778 514.01 271.98 514.382 271.115C516.87 265.47 512.925 258.447 506.189 256.461Z" fill="black"/>
</g>
<defs>
<filter id="filter0_dddd_128:740" x="0.593262" y="0" width="821" height="518" filterUnits="userSpaceOnUse" color-interpolation-filters="sRGB">
<feFlood flood-opacity="0" result="BackgroundImageFix"/>
<feColorMatrix in="SourceAlpha" type="matrix" values="0 0 0 0 0 0 0 0 0 0 0 0 0 0 0 0 0 0 127 0" result="hardAlpha"/>
<feOffset/>
<feGaussianBlur stdDeviation="0.5"/>
<feColorMatrix type="matrix" values="0 0 0 0 0 0 0 0 0 0 0 0 0 0 0 0 0 0 0.04 0"/>
<feBlend mode="normal" in2="BackgroundImageFix" result="effect1_dropShadow_128:740"/>
<feColorMatrix in="SourceAlpha" type="matrix" values="0 0 0 0 0 0 0 0 0 0 0 0 0 0 0 0 0 0 127 0" result="hardAlpha"/>
<feOffset dy="4"/>
<feGaussianBlur stdDeviation="4"/>
<feColorMatrix type="matrix" values="0 0 0 0 0 0 0 0 0 0 0 0 0 0 0 0 0 0 0.04 0"/>
<feBlend mode="normal" in2="effect1_dropShadow_128:740" result="effect2_dropShadow_128:740"/>
<feColorMatrix in="SourceAlpha" type="matrix" values="0 0 0 0 0 0 0 0 0 0 0 0 0 0 0 0 0 0 127 0" result="hardAlpha"/>
<feOffset dy="16"/>
<feGaussianBlur stdDeviation="12"/>
<feColorMatrix type="matrix" values="0 0 0 0 0 0 0 0 0 0 0 0 0 0 0 0 0 0 0.04 0"/>
<feBlend mode="normal" in2="effect2_dropShadow_128:740" result="effect3_dropShadow_128:740"/>
<feColorMatrix in="SourceAlpha" type="matrix" values="0 0 0 0 0 0 0 0 0 0 0 0 0 0 0 0 0 0 127 0" result="hardAlpha"/>
<feOffset dy="24"/>
<feGaussianBlur stdDeviation="16"/>
<feColorMatrix type="matrix" values="0 0 0 0 0 0 0 0 0 0 0 0 0 0 0 0 0 0 0.04 0"/>
<feBlend mode="normal" in2="effect3_dropShadow_128:740" result="effect4_dropShadow_128:740"/>
<feBlend mode="normal" in="SourceGraphic" in2="effect4_dropShadow_128:740" result="shape"/>
</filter>
</defs>
</svg>
