<svg width="821" height="518" viewBox="0 0 821 518" fill="none" xmlns="http://www.w3.org/2000/svg">
<g filter="url(#filter0_dddd_128:1177)">
<rect x="32" y="8" width="757" height="454" rx="12" fill="#F6F6F6"/>
</g>
<path d="M101.016 95.248H87.256V85.2H127.384V95.248H113.688V130H101.016V95.248ZM159.871 121.296H140.927L137.407 130H124.479L144.255 85.2H156.735L176.575 130H163.391L159.871 121.296ZM156.159 111.952L150.399 97.616L144.639 111.952H156.159ZM222.792 85.2V130H210.12V112.528H192.84V130H180.168V85.2H192.84V102.032H210.12V85.2H222.792ZM252.402 130.896C245.746 130.896 240.562 129.083 236.85 125.456C233.181 121.829 231.346 116.688 231.346 110.032V85.2H244.018V109.648C244.018 116.816 246.855 120.4 252.53 120.4C258.162 120.4 260.978 116.816 260.978 109.648V85.2H273.458V110.032C273.458 116.688 271.602 121.829 267.89 125.456C264.221 129.083 259.058 130.896 252.402 130.896ZM317.948 113.744L313.212 118.8V130H300.668V85.2H313.212V103.824L330.556 85.2H344.508L326.204 105.04L345.468 130H330.748L317.948 113.744ZM376.684 121.296H357.74L354.22 130H341.291L361.068 85.2H373.548L393.388 130H380.204L376.684 121.296ZM372.972 111.952L367.212 97.616L361.452 111.952H372.972ZM437.428 130L437.3 106.256L425.78 125.584H420.148L408.692 106.896V130H396.98V85.2H407.412L423.156 111.056L438.516 85.2H448.948L449.076 130H437.428ZM478.715 130.896C472.059 130.896 466.875 129.083 463.163 125.456C459.493 121.829 457.659 116.688 457.659 110.032V85.2H470.331V109.648C470.331 116.816 473.168 120.4 478.843 120.4C484.475 120.4 487.291 116.816 487.291 109.648V85.2H499.771V110.032C499.771 116.688 497.915 121.829 494.203 125.456C490.533 129.083 485.371 130.896 478.715 130.896Z" fill="#FFB1C8"/>
<path d="M112.808 204H109.416L101.32 193.088L98.984 195.136V204H96.104V181.152H98.984V192.416C99.624 191.691 100.275 190.965 100.936 190.24C101.597 189.515 102.259 188.789 102.92 188.064L109.096 181.152H112.456L103.4 191.104L112.808 204ZM116.973 180.416C117.399 180.416 117.773 180.565 118.093 180.864C118.434 181.141 118.605 181.589 118.605 182.208C118.605 182.805 118.434 183.253 118.093 183.552C117.773 183.851 117.399 184 116.973 184C116.503 184 116.109 183.851 115.789 183.552C115.469 183.253 115.309 182.805 115.309 182.208C115.309 181.589 115.469 181.141 115.789 180.864C116.109 180.565 116.503 180.416 116.973 180.416ZM118.349 186.848V204H115.533V186.848H118.349ZM129.51 202.016C129.937 202.016 130.375 201.984 130.823 201.92C131.271 201.835 131.633 201.749 131.911 201.664V203.808C131.612 203.957 131.185 204.075 130.631 204.16C130.076 204.267 129.543 204.32 129.031 204.32C128.135 204.32 127.303 204.171 126.535 203.872C125.788 203.552 125.18 203.008 124.711 202.24C124.241 201.472 124.007 200.395 124.007 199.008V189.024H121.575V187.68L124.039 186.56L125.159 182.912H126.823V186.848H131.783V189.024H126.823V198.944C126.823 199.989 127.068 200.768 127.559 201.28C128.071 201.771 128.721 202.016 129.51 202.016ZM141.841 186.56C143.932 186.56 145.478 187.019 146.481 187.936C147.484 188.853 147.985 190.315 147.985 192.32V204H145.937L145.393 201.568H145.265C144.518 202.507 143.729 203.2 142.897 203.648C142.086 204.096 140.956 204.32 139.505 204.32C137.948 204.32 136.657 203.915 135.633 203.104C134.609 202.272 134.097 200.981 134.097 199.232C134.097 197.525 134.769 196.213 136.113 195.296C137.457 194.357 139.526 193.845 142.321 193.76L145.233 193.664V192.64C145.233 191.211 144.924 190.219 144.305 189.664C143.686 189.109 142.812 188.832 141.681 188.832C140.785 188.832 139.932 188.971 139.121 189.248C138.31 189.504 137.553 189.803 136.849 190.144L135.985 188.032C136.732 187.627 137.617 187.285 138.641 187.008C139.665 186.709 140.732 186.56 141.841 186.56ZM142.673 195.712C140.54 195.797 139.057 196.139 138.225 196.736C137.414 197.333 137.009 198.176 137.009 199.264C137.009 200.224 137.297 200.928 137.873 201.376C138.47 201.824 139.228 202.048 140.145 202.048C141.596 202.048 142.801 201.653 143.761 200.864C144.721 200.053 145.201 198.816 145.201 197.152V195.616L142.673 195.712ZM172.763 199.264C172.763 200.928 172.144 202.187 170.907 203.04C169.67 203.893 168.006 204.32 165.915 204.32C164.72 204.32 163.686 204.224 162.811 204.032C161.958 203.84 161.2 203.573 160.539 203.232V200.672C161.222 201.013 162.043 201.333 163.003 201.632C163.984 201.909 164.976 202.048 165.979 202.048C167.408 202.048 168.443 201.824 169.083 201.376C169.723 200.907 170.043 200.288 170.043 199.52C170.043 199.093 169.926 198.709 169.691 198.368C169.456 198.027 169.03 197.685 168.411 197.344C167.814 197.003 166.95 196.619 165.819 196.192C164.71 195.765 163.76 195.339 162.971 194.912C162.182 194.485 161.574 193.973 161.147 193.376C160.72 192.779 160.507 192.011 160.507 191.072C160.507 189.621 161.094 188.501 162.267 187.712C163.462 186.923 165.019 186.528 166.939 186.528C167.984 186.528 168.955 186.635 169.851 186.848C170.768 187.04 171.622 187.317 172.411 187.68L171.451 189.92C170.726 189.621 169.968 189.365 169.179 189.152C168.39 188.939 167.579 188.832 166.747 188.832C165.595 188.832 164.71 189.024 164.091 189.408C163.494 189.771 163.195 190.272 163.195 190.912C163.195 191.381 163.334 191.787 163.611 192.128C163.888 192.448 164.347 192.768 164.987 193.088C165.648 193.387 166.523 193.749 167.611 194.176C168.699 194.581 169.627 194.997 170.395 195.424C171.163 195.851 171.75 196.373 172.155 196.992C172.56 197.589 172.763 198.347 172.763 199.264ZM178.348 180.416C178.774 180.416 179.148 180.565 179.468 180.864C179.809 181.141 179.98 181.589 179.98 182.208C179.98 182.805 179.809 183.253 179.468 183.552C179.148 183.851 178.774 184 178.348 184C177.878 184 177.484 183.851 177.164 183.552C176.844 183.253 176.684 182.805 176.684 182.208C176.684 181.589 176.844 181.141 177.164 180.864C177.484 180.565 177.878 180.416 178.348 180.416ZM179.724 186.848V204H176.908V186.848H179.724ZM191.654 186.56C193.744 186.56 195.291 187.019 196.294 187.936C197.296 188.853 197.798 190.315 197.798 192.32V204H195.75L195.206 201.568H195.078C194.331 202.507 193.542 203.2 192.71 203.648C191.899 204.096 190.768 204.32 189.318 204.32C187.76 204.32 186.47 203.915 185.446 203.104C184.422 202.272 183.91 200.981 183.91 199.232C183.91 197.525 184.582 196.213 185.926 195.296C187.27 194.357 189.339 193.845 192.134 193.76L195.046 193.664V192.64C195.046 191.211 194.736 190.219 194.118 189.664C193.499 189.109 192.624 188.832 191.494 188.832C190.598 188.832 189.744 188.971 188.934 189.248C188.123 189.504 187.366 189.803 186.661 190.144L185.798 188.032C186.544 187.627 187.43 187.285 188.454 187.008C189.478 186.709 190.544 186.56 191.654 186.56ZM192.486 195.712C190.352 195.797 188.87 196.139 188.038 196.736C187.227 197.333 186.822 198.176 186.822 199.264C186.822 200.224 187.11 200.928 187.686 201.376C188.283 201.824 189.04 202.048 189.958 202.048C191.408 202.048 192.614 201.653 193.574 200.864C194.534 200.053 195.014 198.816 195.014 197.152V195.616L192.486 195.712ZM211.255 186.528C213.367 186.528 215.063 187.264 216.343 188.736C217.644 190.208 218.295 192.427 218.295 195.392C218.295 198.315 217.644 200.533 216.343 202.048C215.063 203.563 213.356 204.32 211.223 204.32C209.9 204.32 208.802 204.075 207.927 203.584C207.074 203.072 206.402 202.485 205.911 201.824H205.719C205.762 202.187 205.804 202.645 205.847 203.2C205.89 203.755 205.911 204.235 205.911 204.64V211.68H203.095V186.848H205.399L205.783 189.184H205.911C206.423 188.437 207.095 187.808 207.927 187.296C208.759 186.784 209.868 186.528 211.255 186.528ZM210.743 188.896C208.994 188.896 207.756 189.387 207.031 190.368C206.327 191.349 205.954 192.843 205.911 194.848V195.392C205.911 197.504 206.252 199.136 206.935 200.288C207.639 201.419 208.93 201.984 210.807 201.984C211.852 201.984 212.706 201.696 213.367 201.12C214.05 200.544 214.551 199.765 214.871 198.784C215.212 197.781 215.383 196.64 215.383 195.36C215.383 193.397 214.999 191.829 214.231 190.656C213.484 189.483 212.322 188.896 210.743 188.896ZM233.879 192.384C233.879 192.725 233.858 193.173 233.815 193.728C233.794 194.283 233.772 194.763 233.751 195.168H233.879C234.007 194.997 234.199 194.752 234.455 194.432C234.711 194.112 234.967 193.792 235.223 193.472C235.5 193.131 235.735 192.853 235.927 192.64L241.399 186.848H244.695L237.751 194.176L245.175 204H241.783L235.831 196L233.879 197.696V204H231.095V179.68H233.879V192.384ZM254.813 186.528C256.285 186.528 257.543 186.848 258.589 187.488C259.655 188.128 260.466 189.035 261.021 190.208C261.597 191.36 261.885 192.715 261.885 194.272V195.968H250.141C250.183 197.909 250.674 199.392 251.613 200.416C252.573 201.419 253.906 201.92 255.613 201.92C256.701 201.92 257.661 201.824 258.493 201.632C259.346 201.419 260.221 201.12 261.117 200.736V203.2C260.242 203.584 259.378 203.861 258.525 204.032C257.671 204.224 256.658 204.32 255.485 204.32C253.863 204.32 252.423 203.989 251.165 203.328C249.927 202.667 248.957 201.685 248.253 200.384C247.57 199.061 247.229 197.451 247.229 195.552C247.229 193.675 247.538 192.064 248.157 190.72C248.797 189.376 249.682 188.341 250.813 187.616C251.965 186.891 253.298 186.528 254.813 186.528ZM254.781 188.832C253.437 188.832 252.37 189.269 251.581 190.144C250.813 190.997 250.354 192.192 250.205 193.728H258.941C258.919 192.277 258.578 191.104 257.917 190.208C257.255 189.291 256.21 188.832 254.781 188.832ZM274.507 186.528C276.555 186.528 278.102 187.029 279.147 188.032C280.193 189.013 280.715 190.613 280.715 192.832V204H277.931V193.024C277.931 190.272 276.651 188.896 274.091 188.896C272.193 188.896 270.881 189.429 270.155 190.496C269.43 191.563 269.067 193.099 269.067 195.104V204H266.251V186.848H268.523L268.939 189.184H269.099C269.654 188.288 270.422 187.627 271.403 187.2C272.385 186.752 273.419 186.528 274.507 186.528ZM292.529 186.56C294.619 186.56 296.166 187.019 297.169 187.936C298.171 188.853 298.673 190.315 298.673 192.32V204H296.625L296.081 201.568H295.953C295.206 202.507 294.417 203.2 293.585 203.648C292.774 204.096 291.643 204.32 290.193 204.32C288.635 204.32 287.345 203.915 286.321 203.104C285.297 202.272 284.785 200.981 284.785 199.232C284.785 197.525 285.457 196.213 286.801 195.296C288.145 194.357 290.214 193.845 293.009 193.76L295.921 193.664V192.64C295.921 191.211 295.611 190.219 294.993 189.664C294.374 189.109 293.499 188.832 292.369 188.832C291.473 188.832 290.619 188.971 289.809 189.248C288.998 189.504 288.241 189.803 287.536 190.144L286.673 188.032C287.419 187.627 288.305 187.285 289.329 187.008C290.353 186.709 291.419 186.56 292.529 186.56ZM293.361 195.712C291.227 195.797 289.745 196.139 288.913 196.736C288.102 197.333 287.697 198.176 287.697 199.264C287.697 200.224 287.985 200.928 288.561 201.376C289.158 201.824 289.915 202.048 290.833 202.048C292.283 202.048 293.489 201.653 294.449 200.864C295.409 200.053 295.889 198.816 295.889 197.152V195.616L293.361 195.712ZM306.786 204H303.97V179.68H306.786V204ZM323.349 204H320.533V179.68H323.349V204ZM335.407 186.528C336.879 186.528 338.137 186.848 339.183 187.488C340.249 188.128 341.06 189.035 341.615 190.208C342.191 191.36 342.479 192.715 342.479 194.272V195.968H330.735C330.777 197.909 331.268 199.392 332.207 200.416C333.167 201.419 334.5 201.92 336.207 201.92C337.295 201.92 338.255 201.824 339.087 201.632C339.94 201.419 340.815 201.12 341.711 200.736V203.2C340.836 203.584 339.972 203.861 339.119 204.032C338.265 204.224 337.252 204.32 336.079 204.32C334.457 204.32 333.017 203.989 331.759 203.328C330.521 202.667 329.551 201.685 328.847 200.384C328.164 199.061 327.823 197.451 327.823 195.552C327.823 193.675 328.132 192.064 328.751 190.72C329.391 189.376 330.276 188.341 331.407 187.616C332.559 186.891 333.892 186.528 335.407 186.528ZM335.375 188.832C334.031 188.832 332.964 189.269 332.175 190.144C331.407 190.997 330.948 192.192 330.799 193.728H339.535C339.513 192.277 339.172 191.104 338.511 190.208C337.849 189.291 336.804 188.832 335.375 188.832ZM349.661 185.6C349.661 186.325 349.64 187.008 349.597 187.648C349.576 188.267 349.544 188.757 349.501 189.12H349.661C350.152 188.395 350.824 187.787 351.677 187.296C352.53 186.805 353.629 186.56 354.973 186.56C357.106 186.56 358.813 187.307 360.093 188.8C361.394 190.272 362.045 192.48 362.045 195.424C362.045 198.368 361.394 200.587 360.093 202.08C358.792 203.573 357.085 204.32 354.973 204.32C353.629 204.32 352.53 204.075 351.677 203.584C350.824 203.093 350.152 202.507 349.661 201.824H349.437L348.861 204H346.845V179.68H349.661V185.6ZM354.493 188.896C352.68 188.896 351.421 189.419 350.717 190.464C350.013 191.509 349.661 193.131 349.661 195.328V195.456C349.661 197.568 350.002 199.189 350.685 200.32C351.389 201.429 352.68 201.984 354.557 201.984C356.093 201.984 357.234 201.419 357.981 200.288C358.749 199.157 359.133 197.525 359.133 195.392C359.133 191.061 357.586 188.896 354.493 188.896ZM367.973 180.416C368.399 180.416 368.773 180.565 369.093 180.864C369.434 181.141 369.605 181.589 369.605 182.208C369.605 182.805 369.434 183.253 369.093 183.552C368.773 183.851 368.399 184 367.973 184C367.503 184 367.109 183.851 366.789 183.552C366.469 183.253 366.309 182.805 366.309 182.208C366.309 181.589 366.469 181.141 366.789 180.864C367.109 180.565 367.503 180.416 367.973 180.416ZM369.349 186.848V204H366.533V186.848H369.349ZM377.599 186.816C377.599 187.669 377.545 188.469 377.439 189.216H377.631C378.185 188.341 378.932 187.68 379.871 187.232C380.831 186.784 381.865 186.56 382.975 186.56C385.065 186.56 386.633 187.061 387.679 188.064C388.724 189.045 389.247 190.635 389.247 192.832V204H386.463V193.024C386.463 190.272 385.183 188.896 382.623 188.896C380.703 188.896 379.38 189.44 378.655 190.528C377.951 191.595 377.599 193.131 377.599 195.136V204H374.783V179.68H377.599V186.816ZM408.956 204.32C406.823 204.32 405.116 203.584 403.836 202.112C402.556 200.619 401.916 198.4 401.916 195.456C401.916 192.512 402.556 190.293 403.836 188.8C405.138 187.285 406.855 186.528 408.988 186.528C410.311 186.528 411.388 186.773 412.22 187.264C413.074 187.755 413.767 188.352 414.3 189.056H414.492C414.471 188.779 414.428 188.373 414.364 187.84C414.322 187.285 414.3 186.848 414.3 186.528V179.68H417.116V204H414.844L414.428 201.696H414.3C413.788 202.421 413.106 203.04 412.252 203.552C411.399 204.064 410.3 204.32 408.956 204.32ZM409.404 201.984C411.218 201.984 412.487 201.493 413.212 200.512C413.959 199.509 414.332 198.005 414.332 196V195.488C414.332 193.355 413.98 191.723 413.276 190.592C412.572 189.44 411.271 188.864 409.372 188.864C407.858 188.864 406.716 189.472 405.948 190.688C405.202 191.883 404.828 193.493 404.828 195.52C404.828 197.568 405.202 199.157 405.948 200.288C406.716 201.419 407.868 201.984 409.404 201.984ZM429.06 186.56C431.15 186.56 432.697 187.019 433.7 187.936C434.702 188.853 435.204 190.315 435.204 192.32V204H433.156L432.612 201.568H432.484C431.737 202.507 430.948 203.2 430.116 203.648C429.305 204.096 428.174 204.32 426.724 204.32C425.166 204.32 423.876 203.915 422.852 203.104C421.828 202.272 421.316 200.981 421.316 199.232C421.316 197.525 421.988 196.213 423.332 195.296C424.676 194.357 426.745 193.845 429.54 193.76L432.452 193.664V192.64C432.452 191.211 432.142 190.219 431.524 189.664C430.905 189.109 430.03 188.832 428.9 188.832C428.004 188.832 427.15 188.971 426.34 189.248C425.529 189.504 424.772 189.803 424.068 190.144L423.204 188.032C423.95 187.627 424.836 187.285 425.86 187.008C426.884 186.709 427.95 186.56 429.06 186.56ZM429.892 195.712C427.758 195.797 426.276 196.139 425.444 196.736C424.633 197.333 424.228 198.176 424.228 199.264C424.228 200.224 424.516 200.928 425.092 201.376C425.689 201.824 426.446 202.048 427.364 202.048C428.814 202.048 430.02 201.653 430.98 200.864C431.94 200.053 432.42 198.816 432.42 197.152V195.616L429.892 195.712ZM448.501 186.528C448.821 186.528 449.163 186.549 449.525 186.592C449.909 186.613 450.24 186.656 450.517 186.72L450.165 189.312C449.888 189.248 449.579 189.195 449.237 189.152C448.917 189.109 448.608 189.088 448.309 189.088C447.435 189.088 446.613 189.333 445.845 189.824C445.077 190.293 444.459 190.965 443.989 191.84C443.541 192.693 443.317 193.696 443.317 194.848V204H440.501V186.848H442.805L443.125 189.984H443.253C443.808 189.045 444.523 188.235 445.397 187.552C446.272 186.869 447.307 186.528 448.501 186.528ZM455.16 180.416C455.587 180.416 455.96 180.565 456.28 180.864C456.621 181.141 456.792 181.589 456.792 182.208C456.792 182.805 456.621 183.253 456.28 183.552C455.96 183.851 455.587 184 455.16 184C454.691 184 454.296 183.851 453.976 183.552C453.656 183.253 453.496 182.805 453.496 182.208C453.496 181.589 453.656 181.141 453.976 180.864C454.296 180.565 454.691 180.416 455.16 180.416ZM456.536 186.848V204H453.72V186.848H456.536ZM101.448 246.016C101.875 246.016 102.312 245.984 102.76 245.92C103.208 245.835 103.571 245.749 103.848 245.664V247.808C103.549 247.957 103.123 248.075 102.568 248.16C102.013 248.267 101.48 248.32 100.968 248.32C100.072 248.32 99.24 248.171 98.472 247.872C97.7253 247.552 97.1173 247.008 96.648 246.24C96.1787 245.472 95.944 244.395 95.944 243.008V233.024H93.512V231.68L95.976 230.56L97.096 226.912H98.76V230.848H103.72V233.024H98.76V242.944C98.76 243.989 99.0053 244.768 99.496 245.28C100.008 245.771 100.659 246.016 101.448 246.016ZM113.907 230.528C115.379 230.528 116.637 230.848 117.683 231.488C118.749 232.128 119.56 233.035 120.115 234.208C120.691 235.36 120.979 236.715 120.979 238.272V239.968H109.235C109.277 241.909 109.768 243.392 110.707 244.416C111.667 245.419 113 245.92 114.707 245.92C115.795 245.92 116.755 245.824 117.587 245.632C118.44 245.419 119.315 245.12 120.211 244.736V247.2C119.336 247.584 118.472 247.861 117.619 248.032C116.765 248.224 115.752 248.32 114.579 248.32C112.957 248.32 111.517 247.989 110.259 247.328C109.021 246.667 108.051 245.685 107.347 244.384C106.664 243.061 106.323 241.451 106.323 239.552C106.323 237.675 106.632 236.064 107.251 234.72C107.891 233.376 108.776 232.341 109.907 231.616C111.059 230.891 112.392 230.528 113.907 230.528ZM113.875 232.832C112.531 232.832 111.464 233.269 110.675 234.144C109.907 234.997 109.448 236.192 109.299 237.728H118.035C118.013 236.277 117.672 235.104 117.011 234.208C116.349 233.291 115.304 232.832 113.875 232.832ZM144.161 230.528C146.102 230.528 147.553 231.029 148.513 232.032C149.473 233.013 149.953 234.613 149.953 236.832V248H147.169V236.96C147.169 234.251 146.006 232.896 143.681 232.896C142.017 232.896 140.822 233.376 140.097 234.336C139.393 235.296 139.041 236.693 139.041 238.528V248H136.257V236.96C136.257 234.251 135.084 232.896 132.737 232.896C131.009 232.896 129.814 233.429 129.153 234.496C128.492 235.563 128.161 237.099 128.161 239.104V248H125.345V230.848H127.617L128.033 233.184H128.193C128.726 232.288 129.441 231.627 130.337 231.2C131.254 230.752 132.225 230.528 133.249 230.528C135.937 230.528 137.686 231.488 138.497 233.408H138.657C139.233 232.427 140.012 231.701 140.993 231.232C141.996 230.763 143.052 230.528 144.161 230.528ZM161.747 230.56C163.838 230.56 165.385 231.019 166.387 231.936C167.39 232.853 167.891 234.315 167.891 236.32V248H165.843L165.299 245.568H165.171C164.425 246.507 163.635 247.2 162.803 247.648C161.993 248.096 160.862 248.32 159.411 248.32C157.854 248.32 156.563 247.915 155.539 247.104C154.515 246.272 154.003 244.981 154.003 243.232C154.003 241.525 154.675 240.213 156.019 239.296C157.363 238.357 159.433 237.845 162.227 237.76L165.139 237.664V236.64C165.139 235.211 164.83 234.219 164.211 233.664C163.593 233.109 162.718 232.832 161.587 232.832C160.691 232.832 159.838 232.971 159.027 233.248C158.217 233.504 157.459 233.803 156.755 234.144L155.891 232.032C156.638 231.627 157.523 231.285 158.547 231.008C159.571 230.709 160.638 230.56 161.747 230.56ZM162.579 239.712C160.446 239.797 158.963 240.139 158.131 240.736C157.321 241.333 156.915 242.176 156.915 243.264C156.915 244.224 157.203 244.928 157.779 245.376C158.377 245.824 159.134 246.048 160.051 246.048C161.502 246.048 162.707 245.653 163.667 244.864C164.627 244.053 165.107 242.816 165.107 241.152V239.616L162.579 239.712ZM181.445 230.528C183.493 230.528 185.039 231.029 186.085 232.032C187.13 233.013 187.653 234.613 187.653 236.832V248H184.869V237.024C184.869 234.272 183.589 232.896 181.029 232.896C179.13 232.896 177.818 233.429 177.093 234.496C176.367 235.563 176.005 237.099 176.005 239.104V248H173.189V230.848H175.461L175.877 233.184H176.037C176.591 232.288 177.359 231.627 178.341 231.2C179.322 230.752 180.357 230.528 181.445 230.528Z" fill="black"/>
<mask id="mask0_128:1177" style="mask-type:alpha" maskUnits="userSpaceOnUse" x="32" y="8" width="757" height="454">
<rect x="32" y="8" width="757" height="454" rx="12" fill="#C4C4C4"/>
</mask>
<g mask="url(#mask0_128:1177)">
<g clip-path="url(#clip0_128:1177)">
<path d="M518.367 281.455C530.338 281.455 540.043 271.751 540.043 259.78C540.043 247.809 530.338 238.104 518.367 238.104C506.396 238.104 496.692 247.809 496.692 259.78C496.692 271.751 506.396 281.455 518.367 281.455Z" fill="#FFB1C8"/>
<path d="M728.694 454.958C728.694 454.958 731.791 465.625 733.855 468.378C735.92 471.131 737.64 475.604 736.608 476.293C735.576 476.981 733.511 485.239 736.264 485.583C739.017 485.927 745.21 476.637 745.555 473.54C745.899 470.443 747.275 459.432 747.275 459.432C747.275 459.432 749.684 449.797 745.899 449.109C742.114 448.421 736.264 448.076 736.264 448.076L728.694 454.958Z" fill="#2F2E41"/>
<path d="M683.616 359.299C683.616 359.299 678.111 396.461 682.928 408.505C687.746 420.548 692.563 423.989 692.563 423.989L729.038 458.055C729.038 458.055 740.393 452.205 739.361 448.42C739.361 448.42 736.952 447.044 736.608 446.012C736.264 444.979 731.79 444.635 731.79 444.635C731.79 444.635 729.726 442.226 729.726 440.85C729.726 439.474 711.833 415.043 705.983 413.322C705.983 413.322 702.886 409.537 703.23 408.849C703.574 408.161 702.198 405.752 702.198 405.752L705.639 392.332L727.317 388.891C727.317 388.891 736.264 357.234 728.693 354.825C721.123 352.417 683.616 359.299 683.616 359.299Z" fill="#2F2E41"/>
<path d="M726.629 383.386L727.317 388.891C727.317 388.891 727.317 403.343 726.629 404.72C725.941 406.096 725.597 408.161 726.629 409.537C727.662 410.914 729.382 414.355 728.694 415.731C728.006 417.107 730.07 455.991 727.317 458.743C724.565 461.496 725.597 464.937 725.941 465.281C726.285 465.625 725.597 467.002 725.597 467.002C725.597 467.002 711.489 469.41 712.521 467.002C713.554 464.593 713.554 463.217 714.242 462.528C714.93 461.84 714.242 460.808 714.242 460.808C714.242 460.808 715.274 449.797 714.242 449.109C713.209 448.42 710.113 415.387 710.113 415.043C710.113 414.699 709.08 414.011 709.08 412.634C709.08 411.258 709.08 406.784 707.36 406.096C705.639 405.408 705.983 388.547 705.983 388.547L726.629 383.386Z" fill="#2F2E41"/>
<path d="M702.198 260.542C702.198 260.542 703.574 270.865 707.704 272.93C711.833 274.994 714.586 276.027 714.586 276.027L711.145 288.07L709.768 298.393H693.94L685.337 291.511L688.09 280.156L689.466 278.091C689.466 278.091 691.187 270.521 689.81 268.112C688.434 265.704 702.198 260.542 702.198 260.542Z" fill="#FFB9B9"/>
<path d="M695.316 285.662L697.725 290.135C697.725 290.135 699.445 283.941 701.854 282.909C704.262 281.876 710.112 280.156 710.112 278.78C710.112 277.403 709.768 273.962 711.144 273.962C712.521 273.962 725.941 278.091 728.005 279.468C730.07 280.844 730.414 282.221 730.414 282.221L726.629 321.792C726.629 321.792 732.134 340.373 730.414 347.599C728.693 354.825 727.317 355.858 723.188 356.89C719.059 357.922 721.467 354.481 709.424 357.922C697.38 361.363 689.81 360.331 687.057 360.331C684.305 360.331 682.584 361.707 681.896 362.051C681.208 362.396 681.552 360.331 683.961 357.234C686.369 354.137 685.337 348.976 685.337 348.976C685.337 348.976 682.584 340.029 684.305 336.588C686.025 333.147 688.434 328.674 686.369 327.297C684.305 325.921 681.552 315.598 681.552 315.598L673.982 288.758L689.466 278.091C689.466 278.091 688.778 282.909 691.187 283.941C693.595 284.973 695.316 285.662 695.316 285.662Z" fill="#D0CDE1"/>
<path d="M676.047 288.414H673.982C673.982 288.414 670.541 294.264 670.541 298.393C670.541 302.522 672.262 325.921 672.262 325.921L682.24 336.244L684.649 328.33L685.337 310.781L676.047 288.414Z" fill="#D0CDE1"/>
<path d="M681.552 324.889C681.552 324.889 670.197 321.792 670.541 326.609C670.885 331.427 672.606 337.276 678.111 338.653C683.617 340.029 685.337 332.459 685.337 332.459C685.337 332.459 686.026 325.577 681.552 324.889Z" fill="#D0CDE1"/>
<path d="M724.22 340.717C724.22 340.717 723.532 356.546 719.403 358.266L729.381 360.675C729.381 360.675 734.199 344.158 733.511 343.47C732.822 342.782 724.22 340.717 724.22 340.717Z" fill="#FFB9B9"/>
<path d="M665.2 308.498L671.11 305.917C671.219 305.869 671.336 305.843 671.456 305.841C671.575 305.838 671.693 305.86 671.804 305.903C671.915 305.947 672.017 306.012 672.103 306.094C672.189 306.177 672.257 306.276 672.305 306.385L678.875 321.424C678.993 321.693 678.998 321.999 678.891 322.273C678.784 322.547 678.572 322.767 678.302 322.884L672.762 325.305C672.492 325.423 672.187 325.429 671.913 325.321C671.639 325.214 671.419 325.002 671.301 324.732L664.731 309.694C664.635 309.473 664.63 309.223 664.718 308.999C664.806 308.775 664.979 308.594 665.2 308.498Z" fill="#2F2E41"/>
<path opacity="0.1" d="M665.2 308.498L671.11 305.917C671.219 305.869 671.336 305.843 671.456 305.841C671.575 305.838 671.693 305.86 671.804 305.903C671.915 305.947 672.017 306.012 672.103 306.094C672.189 306.177 672.257 306.276 672.305 306.385L678.875 321.424C678.993 321.693 678.998 321.999 678.891 322.273C678.784 322.547 678.572 322.767 678.302 322.884L672.762 325.305C672.492 325.423 672.187 325.429 671.913 325.321C671.639 325.214 671.419 325.002 671.301 324.732L664.731 309.694C664.635 309.473 664.63 309.223 664.718 308.999C664.806 308.775 664.979 308.594 665.2 308.498Z" fill="black"/>
<path d="M665.536 309.266L670.688 307.015C670.908 306.919 671.158 306.914 671.383 307.002C671.607 307.09 671.787 307.263 671.883 307.484L678.118 321.755C678.235 322.025 678.241 322.33 678.134 322.604C678.027 322.878 677.815 323.098 677.545 323.215L672.762 325.305C672.492 325.423 672.187 325.429 671.913 325.321C671.639 325.214 671.419 325.002 671.301 324.733L665.067 310.462C664.971 310.241 664.966 309.991 665.054 309.767C665.142 309.542 665.315 309.362 665.536 309.266Z" fill="#2F2E41"/>
<path d="M670.274 315.354C671.11 314.988 671.488 314.004 671.118 313.157C670.747 312.309 669.769 311.918 668.932 312.283C668.096 312.649 667.718 313.632 668.088 314.48C668.459 315.328 669.437 315.719 670.274 315.354Z" fill="#F2F2F2"/>
<path opacity="0.1" d="M726.801 286.866L729.038 283.597C729.038 283.597 737.296 296.329 736.608 304.931C735.92 313.534 735.231 313.878 735.231 315.254C735.231 316.63 733.511 316.63 735.231 318.351C736.952 320.071 739.361 322.48 737.984 323.856C736.608 325.233 735.575 325.233 735.92 326.953C736.14 328.203 736.255 329.469 736.264 330.738C736.264 330.738 733.339 336.416 732.307 336.416C731.274 336.416 721.467 345.535 721.467 344.502C721.467 343.47 722.5 336.244 722.5 335.212C722.5 334.179 722.844 330.738 723.532 329.706C724.22 328.674 724.22 329.018 723.532 327.986C722.844 326.953 722.844 327.986 722.844 326.953C722.844 325.921 723.188 324.545 722.156 324.201C721.123 323.856 720.091 324.201 720.779 322.48C721.467 320.76 720.779 319.383 720.435 319.383C720.091 319.383 718.371 319.039 719.403 318.007C720.435 316.975 717.338 297.017 717.338 297.017C717.338 297.017 717.854 292.027 726.801 286.866Z" fill="black"/>
<path d="M724.908 279.468L730.758 282.221C730.758 282.221 739.016 294.952 738.328 303.555C737.64 312.157 736.952 312.501 736.952 313.878C736.952 315.254 735.231 315.254 736.952 316.975C738.672 318.695 741.081 321.104 739.705 322.48C738.328 323.857 737.296 323.857 737.64 325.577C737.86 326.827 737.975 328.093 737.984 329.362C737.984 329.362 734.887 345.879 733.855 345.879C732.823 345.879 723.188 344.159 723.188 343.126C723.188 342.094 724.22 334.868 724.22 333.836C724.22 332.803 724.564 329.362 725.252 328.33C725.941 327.298 725.941 327.642 725.252 326.61C724.564 325.577 724.564 326.61 724.564 325.577C724.564 324.545 724.908 323.169 723.876 322.824C722.844 322.48 721.811 322.824 722.5 321.104C723.188 319.383 722.5 318.007 722.156 318.007C721.811 318.007 720.091 317.663 721.123 316.631C722.156 315.598 719.059 295.641 719.059 295.641C719.059 295.641 715.962 284.63 724.908 279.468Z" fill="#D0CDE1"/>
<path d="M672.695 327.346C672.375 327.431 672.035 327.403 671.733 327.267C671.43 327.13 671.185 326.894 671.036 326.598C669.455 323.436 665.171 314.163 669.165 313.877C672.849 313.614 676.131 320.799 677.471 324.193C677.556 324.408 677.595 324.639 677.584 324.871C677.573 325.102 677.514 325.329 677.409 325.536C677.304 325.743 677.157 325.925 676.977 326.071C676.796 326.216 676.587 326.322 676.363 326.381L672.695 327.346Z" fill="#FFB9B9"/>
<path d="M692.563 270.177C699.595 270.177 705.295 264.477 705.295 257.446C705.295 250.414 699.595 244.714 692.563 244.714C685.532 244.714 679.832 250.414 679.832 257.446C679.832 264.477 685.532 270.177 692.563 270.177Z" fill="#FFB9B9"/>
<path d="M687.885 250.113C686.296 250.661 684.657 251.048 682.991 251.268C681.737 251.464 680.269 251.564 679.388 250.651C678.523 249.755 678.663 248.26 679.253 247.163C679.843 246.066 680.788 245.206 681.497 244.182C682.612 242.572 683.27 240.437 685.053 239.625C685.792 239.342 686.576 239.196 687.367 239.193C691.993 238.898 696.809 238.632 701.093 240.403C702.703 241.016 704.129 242.031 705.236 243.351C705.961 244.322 706.521 245.407 706.892 246.562C708.037 249.958 708.292 253.592 707.632 257.115C706.971 260.638 705.419 263.933 703.122 266.684C701.56 265.278 702.239 262.027 700.264 261.31C699.616 261.075 698.883 261.239 698.219 261.053C696.132 260.468 696.237 257.243 694.5 255.947C694.121 255.743 693.785 255.467 693.511 255.134C693.358 254.815 693.292 254.462 693.319 254.109C693.306 252.901 693.873 249.833 692.721 249.005C691.548 248.162 689.012 249.706 687.885 250.113Z" fill="#2F2E41"/>
<path d="M564.459 220.545H669.414V275.616H661.831V295.969L641.479 275.616H564.459V220.545Z" fill="#FFB1C8"/>
<path d="M616.937 259.868L615.085 258.197C608.508 252.159 604.167 248.241 604.167 243.359C604.15 242.43 604.321 241.507 604.667 240.645C605.014 239.783 605.53 239 606.185 238.341C606.84 237.682 607.62 237.161 608.48 236.809C609.34 236.458 610.261 236.282 611.19 236.292C612.287 236.298 613.368 236.543 614.361 237.009C615.353 237.475 616.232 238.151 616.937 238.991C617.642 238.151 618.521 237.474 619.513 237.009C620.505 236.543 621.587 236.298 622.683 236.292C623.612 236.282 624.534 236.458 625.394 236.809C626.253 237.161 627.034 237.682 627.689 238.341C628.344 239 628.86 239.783 629.206 240.645C629.553 241.507 629.723 242.43 629.707 243.359C629.707 248.241 625.365 252.16 618.789 258.197L616.937 259.868Z" fill="white"/>
<path d="M518.042 270.029L516.509 268.643C511.063 263.636 507.468 260.385 507.468 256.336C507.454 255.566 507.595 254.8 507.882 254.086C508.169 253.371 508.597 252.721 509.139 252.174C509.681 251.628 510.327 251.196 511.039 250.904C511.751 250.612 512.514 250.466 513.284 250.475C514.191 250.48 515.087 250.683 515.909 251.069C516.731 251.456 517.459 252.017 518.042 252.713C518.626 252.017 519.354 251.456 520.175 251.069C520.997 250.683 521.893 250.48 522.801 250.475C523.57 250.466 524.333 250.612 525.045 250.904C525.757 251.196 526.403 251.628 526.945 252.174C527.488 252.721 527.915 253.371 528.202 254.086C528.489 254.8 528.63 255.566 528.616 256.336C528.616 260.385 525.021 263.636 519.576 268.643L518.042 270.029Z" fill="white"/>
<path d="M365 355.638L465.961 326.963L481.007 379.939L473.714 382.011L479.274 401.589L454.136 387.572L380.046 408.614L365 355.638Z" fill="#FFB1C8"/>
<path d="M426.224 379.128L423.986 378.027C416.01 374.016 410.763 371.432 409.429 366.736C409.16 365.847 409.071 364.913 409.169 363.989C409.267 363.065 409.55 362.17 410 361.358C410.45 360.545 411.058 359.831 411.789 359.257C412.52 358.684 413.359 358.263 414.255 358.019C415.311 357.726 416.419 357.665 417.501 357.842C418.582 358.019 419.613 358.43 420.52 359.045C420.969 358.045 421.629 357.154 422.457 356.435C423.284 355.715 424.258 355.185 425.311 354.879C426.202 354.615 427.136 354.533 428.059 354.636C428.983 354.74 429.876 355.028 430.686 355.483C431.496 355.937 432.206 356.55 432.775 357.285C433.344 358.019 433.76 358.86 433.998 359.758C435.332 364.454 432.226 369.41 427.549 377.015L426.224 379.128Z" fill="white"/>
<path d="M480.903 323.55C480.903 323.55 477.491 333.788 479.387 336.063C481.282 338.338 468.011 329.237 468.011 329.237L475.216 320.896L480.903 323.55Z" fill="#A0616A"/>
<path d="M473.121 323.533C482.523 323.533 490.145 315.911 490.145 306.508C490.145 297.106 482.523 289.484 473.121 289.484C463.719 289.484 456.097 297.106 456.097 306.508C456.097 315.911 463.719 323.533 473.121 323.533Z" fill="#2F2E41"/>
<path d="M539.297 438.82L530.576 445.645L525.647 437.682L534.368 431.615L539.297 438.82Z" fill="#A0616A"/>
<path d="M482.989 354.074L486.022 371.516C486.022 371.516 518.253 368.103 520.528 374.549C522.803 380.995 523.561 382.891 523.561 382.891L517.115 385.166L514.082 379.478C513.158 379.151 512.177 379.016 511.199 379.081C510.221 379.147 509.266 379.411 508.394 379.858C505.361 381.374 478.818 385.166 476.922 380.237C475.026 375.308 469.718 357.107 469.718 357.107L477.681 350.661L482.989 354.074Z" fill="#A0616A"/>
<path opacity="0.1" d="M482.989 354.074L486.022 371.516C486.022 371.516 518.253 368.103 520.528 374.549C522.803 380.995 523.561 382.891 523.561 382.891L517.115 385.166L514.082 379.478C513.158 379.151 512.177 379.016 511.199 379.081C510.221 379.147 509.266 379.411 508.394 379.858C505.361 381.374 478.818 385.166 476.922 380.237C475.026 375.308 469.718 357.107 469.718 357.107L477.681 350.661L482.989 354.074Z" fill="black"/>
<path d="M500.81 404.504L503.464 413.604L510.29 448.489C510.29 448.489 511.048 474.273 512.185 477.306C513.323 480.34 513.323 480.719 512.185 481.856C511.048 482.994 508.773 486.786 512.185 489.061C515.598 491.336 527.732 493.99 528.111 491.336C528.49 488.682 528.49 484.511 528.111 482.615C527.732 480.719 529.248 451.143 529.248 451.143L524.698 406.021L509.152 398.816L500.81 404.504Z" fill="#2F2E41"/>
<path opacity="0.1" d="M500.81 404.504L503.464 413.604L510.29 448.489C510.29 448.489 511.048 474.273 512.185 477.306C513.323 480.34 513.323 480.719 512.185 481.856C511.048 482.994 508.773 486.786 512.185 489.061C515.598 491.336 527.732 493.99 528.111 491.336C528.49 488.682 528.49 484.511 528.111 482.615C527.732 480.719 529.248 451.143 529.248 451.143L524.698 406.021L509.152 398.816L500.81 404.504Z" fill="black"/>
<path d="M517.115 368.861L525.457 384.787C525.457 384.787 573.234 406.021 569.063 414.742C564.892 423.463 541.762 439.767 541.762 439.767C541.762 439.767 540.624 446.213 537.212 444.318C533.799 442.422 525.457 432.563 526.215 431.426C526.974 430.288 529.628 427.634 530.766 428.013C531.903 428.392 545.174 418.154 545.174 418.154L522.424 412.467C522.424 412.467 495.123 411.708 493.606 398.816C492.089 385.924 493.606 383.649 493.606 383.649L491.71 379.478L507.257 369.999L517.115 368.861Z" fill="#2F2E41"/>
<path d="M528.869 431.805L520.907 439.01C520.907 439.01 514.081 435.976 509.91 437.114C505.739 438.251 498.535 439.01 498.535 439.01L499.673 445.456L509.347 443.671L501.568 454.556C501.568 454.556 501.568 471.619 506.498 471.619C511.427 471.619 509.91 461.381 509.91 461.381L525.078 449.627C525.078 449.627 532.661 446.593 533.419 446.593C534.178 446.593 528.869 431.805 528.869 431.805Z" fill="#2F2E41"/>
<path d="M479.387 326.583C486.507 326.583 492.279 320.811 492.279 313.691C492.279 306.571 486.507 300.799 479.387 300.799C472.267 300.799 466.495 306.571 466.495 313.691C466.495 320.811 472.267 326.583 479.387 326.583Z" fill="#A0616A"/>
<path d="M466.684 323.739C466.684 323.739 472.751 322.222 474.647 323.739C476.543 325.256 476.922 328.668 479.576 329.048C482.231 329.427 484.506 329.427 484.885 329.806C485.264 330.185 493.985 340.802 493.985 340.802C493.985 340.802 499.294 343.836 500.431 348.006C501.569 352.177 512.944 366.207 514.461 367.724C515.978 369.24 504.602 376.824 500.81 379.478C497.019 382.133 486.022 383.27 482.61 377.203C479.197 371.136 460.617 331.702 466.684 323.739Z" fill="#575A89"/>
<path d="M481.093 348.386L484.127 365.828C484.127 365.828 516.357 362.415 518.632 368.861C520.907 375.307 521.665 377.203 521.665 377.203L515.219 379.478L512.186 373.79C511.262 373.463 510.281 373.328 509.303 373.393C508.325 373.459 507.371 373.723 506.498 374.17C503.465 375.686 476.922 379.478 475.026 374.549C473.131 369.62 467.822 351.419 467.822 351.419L475.785 344.973L481.093 348.386Z" fill="#A0616A"/>
<path d="M473.847 325.334C473.847 325.334 482.989 344.594 482.231 349.902C481.472 355.211 478.818 351.419 478.818 351.419C478.818 351.419 475.405 346.11 473.889 349.144C472.372 352.177 470.476 356.348 468.959 355.969C467.443 355.59 459.101 327.531 463.651 324.876C468.201 322.222 473.847 325.334 473.847 325.334Z" fill="#575A89"/>
<path d="M454.678 301.117C464.08 301.117 471.702 293.495 471.702 284.093C471.702 274.69 464.08 267.068 454.678 267.068C445.276 267.068 437.654 274.69 437.654 284.093C437.654 293.495 445.276 301.117 454.678 301.117Z" fill="#2F2E41"/>
<path d="M439.994 298.19C442.197 299.783 444.75 300.825 447.439 301.228C450.127 301.632 452.874 301.386 455.448 300.511C458.022 299.636 460.349 298.157 462.234 296.198C464.119 294.239 465.508 291.857 466.284 289.251C465.99 291.586 465.216 293.835 464.009 295.856C462.803 297.876 461.19 299.625 459.274 300.991C457.357 302.357 455.178 303.311 452.874 303.792C450.571 304.274 448.192 304.272 445.889 303.788C443.586 303.304 441.408 302.347 439.493 300.979C437.578 299.611 435.968 297.86 434.764 295.838C433.56 293.816 432.788 291.567 432.497 289.231C432.206 286.896 432.402 284.525 433.074 282.27C432.693 285.3 433.134 288.377 434.351 291.179C435.569 293.98 437.518 296.402 439.994 298.19V298.19Z" fill="#2F2E41"/>
<path d="M468.581 321.83C475.476 321.83 481.066 316.241 481.066 309.346C481.066 302.451 475.476 296.861 468.581 296.861C461.686 296.861 456.097 302.451 456.097 309.346C456.097 316.241 461.686 321.83 468.581 321.83Z" fill="#2F2E41"/>
<path d="M479.08 313.318C485.191 313.318 490.146 309.444 490.146 304.664C490.146 299.885 485.191 296.01 479.08 296.01C472.968 296.01 468.014 299.885 468.014 304.664C468.014 309.444 472.968 313.318 479.08 313.318Z" fill="#2F2E41"/>
<path d="M479.576 319.379C480.938 319.379 482.041 317.426 482.041 315.018C482.041 312.61 480.938 310.657 479.576 310.657C478.215 310.657 477.112 312.61 477.112 315.018C477.112 317.426 478.215 319.379 479.576 319.379Z" fill="#A0616A"/>
<path d="M513.408 379.313C513.408 379.313 520.121 375.461 521.367 376.427C522.613 377.393 523.167 380.415 523.167 380.415L515.409 383.46L513.134 379.289L513.408 379.313Z" fill="#2F2E41"/>
<path d="M481.421 470.953C485.039 470.953 487.972 468.02 487.972 464.401C487.972 460.783 485.039 457.85 481.421 457.85C477.802 457.85 474.869 460.783 474.869 464.401C474.869 468.02 477.802 470.953 481.421 470.953Z" fill="#3F3D56"/>
<path d="M680.954 476.411V430.082" stroke="#3F3D56" stroke-width="2" stroke-miterlimit="10"/>
<path d="M680.954 436.633C684.572 436.633 687.506 433.7 687.506 430.082C687.506 426.463 684.572 423.53 680.954 423.53C677.336 423.53 674.402 426.463 674.402 430.082C674.402 433.7 677.336 436.633 680.954 436.633Z" fill="#3F3D56"/>
<path d="M680.954 458.635C680.954 458.635 680.018 438.505 660.831 440.845Z" fill="#3F3D56"/>
<path d="M761.856 477.47V384.812" stroke="#3F3D56" stroke-width="2" stroke-miterlimit="10"/>
<path d="M761.856 391.363C765.474 391.363 768.407 388.43 768.407 384.812C768.407 381.193 765.474 378.26 761.856 378.26C758.237 378.26 755.304 381.193 755.304 384.812C755.304 388.43 758.237 391.363 761.856 391.363Z" fill="#3F3D56"/>
<path d="M761.856 411.493C761.856 411.493 762.792 391.363 781.978 393.703Z" fill="#3F3D56"/>
<path d="M761.855 475.669C761.855 475.669 757.644 438.629 781.978 436.757" stroke="#3F3D56" stroke-width="2" stroke-miterlimit="10"/>
<path d="M781.978 443.308C785.596 443.308 788.53 440.375 788.53 436.757C788.53 433.138 785.596 430.205 781.978 430.205C778.36 430.205 775.426 433.138 775.426 436.757C775.426 440.375 778.36 443.308 781.978 443.308Z" fill="#3F3D56"/>
</g>
</g>
<defs>
<filter id="filter0_dddd_128:1177" x="0" y="0" width="821" height="518" filterUnits="userSpaceOnUse" color-interpolation-filters="sRGB">
<feFlood flood-opacity="0" result="BackgroundImageFix"/>
<feColorMatrix in="SourceAlpha" type="matrix" values="0 0 0 0 0 0 0 0 0 0 0 0 0 0 0 0 0 0 127 0" result="hardAlpha"/>
<feOffset/>
<feGaussianBlur stdDeviation="0.5"/>
<feColorMatrix type="matrix" values="0 0 0 0 0 0 0 0 0 0 0 0 0 0 0 0 0 0 0.04 0"/>
<feBlend mode="normal" in2="BackgroundImageFix" result="effect1_dropShadow_128:1177"/>
<feColorMatrix in="SourceAlpha" type="matrix" values="0 0 0 0 0 0 0 0 0 0 0 0 0 0 0 0 0 0 127 0" result="hardAlpha"/>
<feOffset dy="4"/>
<feGaussianBlur stdDeviation="4"/>
<feColorMatrix type="matrix" values="0 0 0 0 0 0 0 0 0 0 0 0 0 0 0 0 0 0 0.04 0"/>
<feBlend mode="normal" in2="effect1_dropShadow_128:1177" result="effect2_dropShadow_128:1177"/>
<feColorMatrix in="SourceAlpha" type="matrix" values="0 0 0 0 0 0 0 0 0 0 0 0 0 0 0 0 0 0 127 0" result="hardAlpha"/>
<feOffset dy="16"/>
<feGaussianBlur stdDeviation="12"/>
<feColorMatrix type="matrix" values="0 0 0 0 0 0 0 0 0 0 0 0 0 0 0 0 0 0 0.04 0"/>
<feBlend mode="normal" in2="effect2_dropShadow_128:1177" result="effect3_dropShadow_128:1177"/>
<feColorMatrix in="SourceAlpha" type="matrix" values="0 0 0 0 0 0 0 0 0 0 0 0 0 0 0 0 0 0 127 0" result="hardAlpha"/>
<feOffset dy="24"/>
<feGaussianBlur stdDeviation="16"/>
<feColorMatrix type="matrix" values="0 0 0 0 0 0 0 0 0 0 0 0 0 0 0 0 0 0 0.04 0"/>
<feBlend mode="normal" in2="effect3_dropShadow_128:1177" result="effect4_dropShadow_128:1177"/>
<feBlend mode="normal" in="SourceGraphic" in2="effect4_dropShadow_128:1177" result="shape"/>
</filter>
<clipPath id="clip0_128:1177">
<rect width="423.53" height="325" fill="white" transform="translate(365 197)"/>
</clipPath>
</defs>
</svg>
