<svg width="821" height="518" viewBox="0 0 821 518" fill="none" xmlns="http://www.w3.org/2000/svg">
<g filter="url(#filter0_dddd_128:905)">
<rect x="32" y="8" width="757" height="454" rx="12" fill="#F6F6F6"/>
</g>
<mask id="mask0_128:905" style="mask-type:alpha" maskUnits="userSpaceOnUse" x="32" y="8" width="757" height="454">
<rect x="32" y="8" width="757" height="454" rx="12" fill="#F6F6F6"/>
</mask>
<g mask="url(#mask0_128:905)">
<path d="M561.099 410.831C561.099 410.831 566.573 401.85 573.6 407.16C580.628 412.47 593.642 421.428 593.642 421.428C593.642 421.428 596.307 427.159 589.408 425.006C582.509 422.854 559.988 419.39 559.988 419.39L561.099 410.831Z" fill="#FEB8B8"/>
<path d="M408.133 353.8C409.877 339.774 418.569 325.955 431.946 321.39C426.671 335.827 426.672 351.664 431.949 366.1C434.005 371.66 436.87 377.63 434.936 383.234C433.733 386.72 430.791 389.388 427.501 391.056C424.211 392.724 420.56 393.519 416.955 394.298L416.246 394.885C410.522 381.962 406.388 367.826 408.133 353.8Z" fill="#CCCCCC"/>
<path d="M432.079 321.654C424.289 330.383 419.447 341.344 418.242 352.98C417.938 355.481 418.03 358.014 418.514 360.486C419.064 362.878 420.245 365.08 421.933 366.862C423.475 368.555 425.247 370.109 426.35 372.147C426.899 373.199 427.219 374.355 427.29 375.539C427.361 376.723 427.18 377.909 426.761 379.019C425.787 381.811 423.869 384.087 421.915 386.248C419.745 388.647 417.454 391.104 416.532 394.284C416.42 394.669 415.829 394.473 415.941 394.089C417.545 388.556 422.916 385.413 425.477 380.429C426.673 378.104 427.174 375.404 426.054 372.95C425.074 370.803 423.248 369.2 421.672 367.499C420 365.784 418.772 363.686 418.097 361.388C417.488 358.949 417.298 356.424 417.537 353.921C417.983 348.278 419.314 342.741 421.481 337.511C423.92 331.529 427.365 326.008 431.667 321.187C431.933 320.889 432.343 321.358 432.079 321.654Z" fill="white"/>
<path d="M418.409 349.211C416.484 348.744 414.788 347.607 413.624 346.005C412.459 344.402 411.902 342.438 412.052 340.463C412.084 340.063 412.706 340.094 412.675 340.494C412.532 342.333 413.05 344.163 414.138 345.653C415.225 347.143 416.809 348.195 418.604 348.619C418.994 348.712 418.797 349.303 418.409 349.211Z" fill="white"/>
<path d="M421.039 366.106C424.516 364.03 427.083 360.72 428.227 356.836C428.34 356.451 428.932 356.647 428.819 357.031C427.62 361.071 424.942 364.51 421.32 366.662C420.974 366.867 420.696 366.309 421.039 366.106Z" fill="white"/>
<path d="M424.499 332.119C425.206 332.455 425.986 332.61 426.768 332.571C427.549 332.531 428.309 332.298 428.979 331.892C429.321 331.683 429.599 332.24 429.259 332.448C428.517 332.893 427.678 333.15 426.814 333.196C425.95 333.241 425.088 333.075 424.304 332.711C424.227 332.683 424.164 332.626 424.127 332.553C424.09 332.48 424.083 332.396 424.106 332.317C424.132 332.239 424.188 332.175 424.262 332.137C424.335 332.1 424.421 332.094 424.499 332.119Z" fill="white"/>
<path d="M472.72 346.442C472.51 346.579 472.3 346.715 472.089 346.857C469.272 348.71 466.61 350.788 464.13 353.072C463.935 353.245 463.74 353.424 463.551 353.603C457.634 359.168 452.801 365.784 449.298 373.113C447.907 376.031 446.74 379.051 445.807 382.146C444.519 386.42 443.462 391.157 440.912 394.653C440.651 395.021 440.366 395.372 440.061 395.705H417.017C416.965 395.678 416.912 395.657 416.859 395.631L415.939 395.673C415.976 395.51 416.018 395.342 416.055 395.179C416.076 395.084 416.102 394.99 416.123 394.895C416.139 394.832 416.155 394.769 416.165 394.711C416.171 394.69 416.176 394.669 416.181 394.653C416.192 394.595 416.208 394.543 416.218 394.49C416.449 393.549 416.688 392.608 416.933 391.667C416.933 391.662 416.933 391.662 416.938 391.656C418.826 384.491 421.328 377.419 424.824 370.952C424.93 370.758 425.035 370.558 425.15 370.364C426.743 367.457 428.57 364.686 430.613 362.078C431.737 360.653 432.932 359.286 434.193 357.982C437.46 354.619 441.236 351.791 445.381 349.602C453.646 345.238 463.215 343.566 472.047 346.232C472.273 346.3 472.494 346.368 472.72 346.442Z" fill="#CCCCCC"/>
<path d="M472.668 346.734C461.194 349.013 450.729 354.85 442.76 363.415C441.012 365.228 439.56 367.306 438.459 369.572C437.457 371.813 437.075 374.282 437.35 376.721C437.561 379.001 438.041 381.309 437.694 383.6C437.499 384.77 437.059 385.886 436.403 386.874C435.746 387.863 434.888 388.701 433.885 389.334C431.427 390.978 428.524 391.64 425.663 392.189C422.487 392.798 419.178 393.38 416.527 395.364C416.206 395.605 415.852 395.092 416.173 394.852C420.785 391.4 426.966 392.125 432.011 389.688C434.365 388.551 436.391 386.697 436.975 384.063C437.485 381.759 436.992 379.379 436.758 377.072C436.455 374.697 436.738 372.282 437.582 370.041C438.564 367.727 439.933 365.597 441.63 363.742C445.384 359.505 449.781 355.885 454.66 353.013C460.209 349.706 466.284 347.372 472.621 346.113C473.013 346.035 473.058 346.657 472.668 346.734H472.668Z" fill="white"/>
<path d="M445.163 360.506C443.908 358.974 443.238 357.045 443.273 355.065C443.308 353.084 444.046 351.18 445.355 349.694C445.621 349.394 446.099 349.793 445.833 350.093C444.611 351.475 443.924 353.249 443.895 355.093C443.866 356.937 444.498 358.731 445.675 360.151C445.931 360.46 445.417 360.813 445.163 360.506H445.163Z" fill="white"/>
<path d="M437.09 375.58C441.116 376.015 445.158 374.918 448.41 372.505C448.732 372.266 449.086 372.779 448.765 373.018C445.375 375.521 441.167 376.655 436.979 376.192C436.579 376.148 436.693 375.535 437.09 375.58Z" fill="white"/>
<path d="M460.314 350.525C460.677 351.219 461.206 351.812 461.854 352.251C462.502 352.69 463.249 352.962 464.028 353.041C464.428 353.08 464.314 353.693 463.917 353.654C463.057 353.562 462.232 353.262 461.515 352.778C460.798 352.295 460.21 351.643 459.802 350.88C459.758 350.811 459.741 350.728 459.756 350.648C459.771 350.567 459.815 350.495 459.881 350.446C459.949 350.4 460.033 350.382 460.114 350.397C460.195 350.411 460.267 350.458 460.314 350.525Z" fill="white"/>
<path d="M593.982 446.76C594.658 441.325 598.026 435.969 603.211 434.2C601.166 439.795 601.166 445.932 603.212 451.527C604.008 453.682 605.119 455.996 604.369 458.167C603.833 459.51 602.801 460.595 601.488 461.199C600.185 461.791 598.811 462.213 597.401 462.455L597.126 462.683C594.908 457.674 593.306 452.196 593.982 446.76Z" fill="#F0F0F0"/>
<path d="M603.262 434.303C600.243 437.685 598.367 441.933 597.9 446.443C597.782 447.412 597.818 448.394 598.005 449.352C598.219 450.279 598.676 451.132 599.331 451.823C599.982 452.434 600.557 453.122 601.042 453.871C601.255 454.279 601.379 454.727 601.406 455.186C601.434 455.645 601.364 456.104 601.202 456.534C600.769 457.585 600.131 458.537 599.323 459.336C598.483 460.266 597.595 461.218 597.237 462.45C597.194 462.6 596.965 462.524 597.008 462.375C597.63 460.23 599.711 459.012 600.704 457.081C600.96 456.647 601.113 456.16 601.152 455.657C601.191 455.155 601.114 454.65 600.927 454.182C600.477 453.392 599.904 452.679 599.229 452.07C598.581 451.405 598.105 450.592 597.844 449.702C597.608 448.756 597.534 447.778 597.627 446.808C597.8 444.621 598.315 442.475 599.155 440.448C600.101 438.129 601.436 435.99 603.103 434.121C603.206 434.006 603.365 434.188 603.262 434.303H603.262Z" fill="white"/>
<path d="M597.965 444.981C597.219 444.8 596.561 444.36 596.11 443.739C595.659 443.118 595.443 442.356 595.501 441.591C595.514 441.436 595.755 441.448 595.742 441.603C595.687 442.316 595.888 443.025 596.309 443.602C596.731 444.18 597.345 444.587 598.041 444.752C598.192 444.788 598.115 445.017 597.965 444.981H597.965Z" fill="white"/>
<path d="M598.983 451.53C600.331 450.725 601.325 449.443 601.769 447.937C601.813 447.788 602.042 447.864 601.998 448.013C601.534 449.579 600.496 450.911 599.092 451.746C598.958 451.825 598.85 451.609 598.983 451.53Z" fill="white"/>
<path d="M600.324 438.357C600.598 438.488 600.9 438.548 601.203 438.532C601.506 438.517 601.801 438.427 602.06 438.269C602.193 438.188 602.301 438.404 602.169 438.485C601.881 438.657 601.556 438.757 601.221 438.775C600.886 438.792 600.552 438.728 600.248 438.587C600.219 438.576 600.194 438.554 600.18 438.526C600.166 438.497 600.163 438.465 600.172 438.434C600.182 438.404 600.204 438.379 600.232 438.365C600.261 438.35 600.294 438.348 600.324 438.358L600.324 438.357Z" fill="white"/>
<path d="M619.012 443.908C618.93 443.961 618.849 444.014 618.767 444.069C617.676 444.786 616.644 445.592 615.683 446.477C615.607 446.544 615.532 446.613 615.459 446.683C613.165 448.84 611.292 451.403 609.935 454.244C609.396 455.375 608.943 456.545 608.582 457.745C608.082 459.401 607.673 461.237 606.685 462.592C606.583 462.734 606.473 462.871 606.355 462.999H597.424C597.404 462.989 597.383 462.981 597.363 462.971L597.006 462.987C597.021 462.924 597.037 462.859 597.051 462.796C597.059 462.759 597.07 462.722 597.078 462.686C597.084 462.661 597.09 462.637 597.094 462.614C597.096 462.606 597.098 462.598 597.1 462.592C597.104 462.57 597.11 462.549 597.114 462.529C597.204 462.164 597.296 461.799 597.391 461.435L597.393 461.431C598.091 458.644 599.117 455.951 600.45 453.407C600.491 453.331 600.531 453.254 600.576 453.178C601.193 452.052 601.901 450.978 602.693 449.967C603.129 449.415 603.592 448.885 604.081 448.38C605.347 447.077 606.81 445.981 608.417 445.132C611.62 443.441 615.328 442.793 618.751 443.826C618.839 443.853 618.924 443.879 619.012 443.908Z" fill="#F0F0F0"/>
<path d="M618.993 444.022C614.546 444.905 610.49 447.167 607.402 450.486C606.724 451.189 606.162 451.994 605.735 452.872C605.347 453.741 605.198 454.698 605.305 455.643C605.457 456.523 605.502 457.419 605.438 458.309C605.363 458.763 605.192 459.195 604.938 459.578C604.684 459.961 604.351 460.286 603.962 460.532C602.985 461.11 601.901 461.486 600.776 461.638C599.545 461.874 598.263 462.1 597.235 462.869C597.111 462.962 596.973 462.763 597.098 462.67C598.885 461.332 601.281 461.613 603.236 460.669C603.702 460.476 604.117 460.179 604.451 459.802C604.784 459.424 605.027 458.975 605.16 458.489C605.276 457.587 605.247 456.672 605.076 455.779C604.958 454.859 605.068 453.923 605.395 453.054C605.776 452.158 606.306 451.332 606.964 450.613C608.419 448.971 610.123 447.568 612.014 446.455C614.164 445.173 616.519 444.269 618.974 443.781C619.126 443.751 619.144 443.992 618.993 444.022H618.993Z" fill="white"/>
<path d="M608.333 449.358C607.846 448.765 607.587 448.017 607.6 447.25C607.614 446.482 607.9 445.744 608.407 445.168C608.51 445.052 608.695 445.207 608.592 445.323C608.119 445.859 607.853 446.546 607.841 447.261C607.83 447.975 608.075 448.671 608.531 449.221C608.63 449.341 608.431 449.477 608.333 449.358Z" fill="white"/>
<path d="M605.204 455.201C606.764 455.37 608.33 454.944 609.591 454.009C609.716 453.917 609.853 454.115 609.728 454.208C608.415 455.178 606.784 455.618 605.161 455.438C605.006 455.421 605.05 455.184 605.204 455.201H605.204Z" fill="white"/>
<path d="M614.205 445.491C614.345 445.76 614.55 445.99 614.801 446.16C615.053 446.33 615.342 446.435 615.644 446.466C615.799 446.481 615.755 446.718 615.601 446.703C615.268 446.668 614.948 446.551 614.67 446.364C614.392 446.177 614.164 445.924 614.006 445.628C613.989 445.602 613.983 445.569 613.988 445.538C613.994 445.507 614.011 445.479 614.037 445.46C614.063 445.442 614.096 445.435 614.127 445.441C614.159 445.447 614.186 445.465 614.205 445.491Z" fill="white"/>
<path d="M747.418 331.295C744.737 309.736 731.376 288.495 710.815 281.479C718.924 303.669 718.922 328.012 710.81 350.2C707.651 358.746 703.247 367.922 706.219 376.535C708.068 381.895 712.591 385.995 717.647 388.559C722.704 391.123 728.316 392.345 733.857 393.542L734.948 394.444C743.745 374.58 750.099 352.854 747.418 331.295Z" fill="#CCCCCC"/>
<path d="M710.612 281.886C722.585 295.302 730.027 312.149 731.88 330.035C732.254 333.87 732.3 337.792 731.461 341.571C730.616 345.249 728.801 348.633 726.206 351.372C723.837 353.975 721.113 356.362 719.418 359.495C717.631 362.798 717.563 366.55 718.786 370.058C720.282 374.35 723.232 377.848 726.235 381.169C729.569 384.856 733.091 388.633 734.508 393.521C734.68 394.113 735.589 393.812 735.417 393.221C732.951 384.716 724.696 379.885 720.759 372.226C718.921 368.651 718.15 364.502 719.873 360.729C721.379 357.43 724.186 354.965 726.607 352.35C729.149 349.605 731.099 346.593 732.103 342.959C733.13 339.241 733.238 335.309 732.964 331.482C732.278 322.808 730.232 314.296 726.902 306.258C723.152 297.063 717.857 288.577 711.246 281.168C710.836 280.709 710.205 281.43 710.612 281.886L710.612 281.886Z" fill="white"/>
<path d="M731.622 324.242C734.581 323.523 737.188 321.777 738.978 319.314C740.767 316.851 741.623 313.831 741.393 310.796C741.344 310.181 740.387 310.228 740.436 310.843C740.656 313.67 739.859 316.482 738.187 318.772C736.516 321.062 734.081 322.68 731.322 323.332C730.723 323.475 731.026 324.383 731.622 324.242H731.622Z" fill="white"/>
<path d="M727.579 350.211C722.236 347.02 718.291 341.933 716.531 335.962C716.358 335.371 715.449 335.672 715.622 336.263C717.465 342.472 721.581 347.758 727.149 351.066C727.68 351.381 728.107 350.524 727.579 350.211Z" fill="white"/>
<path d="M722.263 297.971C721.176 298.487 719.978 298.726 718.776 298.665C717.574 298.604 716.406 298.245 715.377 297.621C714.85 297.3 714.423 298.157 714.946 298.476C716.087 299.16 717.377 299.555 718.704 299.625C720.032 299.696 721.357 299.44 722.563 298.88C722.681 298.837 722.778 298.75 722.835 298.638C722.891 298.526 722.903 298.396 722.867 298.275C722.827 298.155 722.741 298.056 722.627 297.999C722.514 297.942 722.383 297.932 722.263 297.971Z" fill="white"/>
<path d="M648.144 319.985C648.467 320.195 648.79 320.405 649.114 320.624C653.444 323.471 657.535 326.665 661.348 330.175C661.647 330.442 661.946 330.717 662.237 330.991C671.333 339.546 678.761 349.714 684.145 360.98C686.283 365.465 688.077 370.106 689.511 374.863C691.491 381.433 693.115 388.714 697.034 394.088C697.437 394.653 697.874 395.193 698.343 395.704H733.762C733.843 395.664 733.924 395.631 734.005 395.591L735.419 395.656C735.362 395.405 735.298 395.147 735.241 394.896C735.208 394.751 735.168 394.605 735.136 394.46C735.112 394.363 735.087 394.266 735.071 394.177C735.063 394.145 735.055 394.112 735.047 394.088C735.031 393.999 735.006 393.918 734.99 393.838C734.635 392.391 734.268 390.945 733.891 389.498C733.891 389.49 733.891 389.49 733.883 389.482C730.982 378.467 727.136 367.598 721.762 357.659C721.6 357.36 721.439 357.053 721.261 356.754C718.814 352.287 716.006 348.027 712.865 344.018C711.138 341.828 709.301 339.727 707.361 337.723C702.34 332.554 696.537 328.207 690.165 324.842C677.462 318.135 662.754 315.565 649.178 319.662C648.831 319.767 648.491 319.872 648.144 319.985Z" fill="#CCCCCC"/>
<path d="M648.223 320.434C665.86 323.937 681.946 332.908 694.194 346.074C696.801 348.91 699.198 352.014 700.805 355.536C702.344 358.982 702.932 362.776 702.509 366.526C702.185 370.03 701.447 373.577 701.98 377.099C702.542 380.811 704.746 383.849 707.835 385.913C711.614 388.439 716.075 389.456 720.472 390.3C725.354 391.236 730.44 392.132 734.514 395.181C735.008 395.551 735.553 394.763 735.06 394.394C727.97 389.088 718.47 390.202 710.715 386.456C707.096 384.708 703.982 381.86 703.086 377.81C702.302 374.269 703.06 370.611 703.419 367.066C703.796 363.343 703.539 359.765 702.152 356.258C700.734 352.671 698.453 349.467 695.93 346.576C690.16 340.064 683.402 334.499 675.903 330.086C667.373 325.002 658.036 321.415 648.296 319.479C647.694 319.36 647.624 320.315 648.223 320.434Z" fill="white"/>
<path d="M690.501 341.603C692.431 339.248 693.461 336.284 693.407 333.239C693.353 330.195 692.219 327.269 690.207 324.984C689.798 324.523 689.063 325.137 689.472 325.598C691.35 327.723 692.406 330.448 692.45 333.283C692.495 336.118 691.524 338.875 689.714 341.057C689.321 341.532 690.111 342.075 690.501 341.603L690.501 341.603Z" fill="white"/>
<path d="M702.909 364.773C696.721 365.442 690.508 363.755 685.509 360.048C685.014 359.68 684.469 360.467 684.964 360.835C690.173 364.683 696.642 366.426 703.08 365.715C703.693 365.646 703.519 364.705 702.909 364.773Z" fill="white"/>
<path d="M667.212 326.262C666.655 327.329 665.842 328.24 664.846 328.915C663.849 329.59 662.701 330.007 661.504 330.128C660.89 330.189 661.065 331.13 661.675 331.07C662.997 330.93 664.265 330.468 665.367 329.725C666.47 328.982 667.373 327.98 667.999 326.807C668.067 326.701 668.093 326.574 668.07 326.45C668.048 326.326 667.979 326.216 667.878 326.141C667.774 326.069 667.645 326.042 667.52 326.064C667.395 326.087 667.285 326.158 667.212 326.262V326.262Z" fill="white"/>
<path d="M788.709 396.23H359.526C359.386 396.23 359.253 396.174 359.154 396.076C359.055 395.977 359 395.843 359 395.704C359 395.565 359.055 395.431 359.154 395.332C359.253 395.234 359.386 395.178 359.526 395.178H788.537C788.677 395.178 788.811 395.234 788.909 395.332C789.008 395.431 789.063 395.565 789.063 395.704C789.063 395.994 789 396.23 788.709 396.23Z" fill="#CACACA"/>
<path d="M509.536 442.496H414.729C414.59 442.496 414.456 442.44 414.358 442.342C414.259 442.243 414.204 442.11 414.204 441.97C414.204 441.831 414.259 441.697 414.358 441.598C414.456 441.5 414.59 441.444 414.729 441.444H509.364C509.504 441.444 509.638 441.5 509.736 441.598C509.835 441.697 509.89 441.831 509.89 441.97C509.89 442.26 509.827 442.496 509.536 442.496Z" fill="#CACACA"/>
<path d="M658.322 463H563.516C563.376 463 563.243 462.944 563.144 462.846C563.045 462.747 562.99 462.613 562.99 462.474C562.99 462.335 563.045 462.201 563.144 462.102C563.243 462.004 563.376 461.948 563.516 461.948H658.151C658.29 461.948 658.424 462.004 658.522 462.102C658.621 462.201 658.676 462.335 658.676 462.474C658.676 462.764 658.613 463 658.322 463Z" fill="#CACACA"/>
<path d="M747.701 441.97H652.894C652.755 441.97 652.621 441.915 652.523 441.816C652.424 441.717 652.369 441.584 652.369 441.444C652.369 441.305 652.424 441.171 652.523 441.072C652.621 440.974 652.755 440.918 652.894 440.918H747.529C747.669 440.918 747.802 440.974 747.901 441.072C748 441.171 748.055 441.305 748.055 441.444C748.055 441.735 747.991 441.97 747.701 441.97Z" fill="#CACACA"/>
<path d="M534.211 421.991C528.322 421.991 522.93 421.427 518.646 420.093C513.554 418.508 510.357 415.944 509.142 412.467C508.572 410.99 508.401 409.39 508.648 407.826C508.895 406.263 509.551 404.793 510.55 403.564C518.083 393.749 544.222 390.981 547.73 390.654L554.845 377.18C555.3 373.965 553.146 371.532 556.868 371.471L600.891 370.873C604.546 370.796 603.509 373.059 604.135 376.194L610.842 388.167L581.975 400.351L586.34 410.986L586.055 411.151C577.606 416.052 553.31 421.991 534.211 421.991Z" fill="#2F2E41"/>
<path d="M606.845 388.678C606.845 388.678 647.159 384.065 644.53 402.519C641.901 420.973 611.227 434.045 564.777 402.519L570.036 393.292C570.036 393.292 587.345 392.431 597.862 387.817L606.845 388.678Z" fill="#2F2E41"/>
<path d="M549.769 305.074C549.769 305.074 542.107 303.681 540.017 315.523C537.928 327.365 534.58 355.415 534.58 355.415L524.187 391.447C522.961 392.097 521.945 393.083 521.259 394.29C520.573 395.496 520.244 396.873 520.31 398.259C520.377 399.645 520.837 400.984 521.636 402.119C522.436 403.253 523.541 404.137 524.824 404.667C526.107 405.197 527.514 405.351 528.881 405.111C530.248 404.871 531.518 404.247 532.544 403.312C533.569 402.376 534.308 401.169 534.673 399.83C535.038 398.491 535.014 397.075 534.605 395.749L548.512 357.507L551.163 324.581V307.329C551.163 306.861 551.032 306.402 550.786 306.004C550.54 305.606 550.188 305.284 549.769 305.074Z" fill="#FEB8B8"/>
<path d="M603.704 305.074C603.704 305.074 611.366 303.681 613.456 315.523C615.546 327.365 618.893 355.415 618.893 355.415L629.287 391.447C630.513 392.097 631.528 393.083 632.215 394.29C632.901 395.496 633.23 396.873 633.163 398.259C633.096 399.645 632.636 400.984 631.837 402.119C631.038 403.253 629.932 404.137 628.65 404.667C627.367 405.197 625.96 405.351 624.593 405.111C623.226 404.871 621.955 404.247 620.93 403.312C619.904 402.376 619.166 401.169 618.801 399.83C618.436 398.491 618.46 397.075 618.869 395.749L604.962 357.507L602.311 324.581V307.329C602.311 306.861 602.441 306.402 602.687 306.004C602.933 305.606 603.286 305.284 603.704 305.074Z" fill="#FEB8B8"/>
<path d="M603.119 295.286L588.626 289.865L560.533 289.502L548.441 295.286L551.837 314.805C551.837 314.805 544.98 326.416 552.53 338.028L554.224 379.406C554.224 379.406 581.309 395.112 604.171 376.251L599.004 337.78C599.004 337.78 607.646 319.931 600.947 313.3L603.119 295.286Z" fill="#6C63FF"/>
<path d="M597.216 301.352L603.119 295.287C603.119 295.287 616.002 302.063 615.737 324.729L599.485 319.72L597.216 301.352Z" fill="#6C63FF"/>
<path d="M555 301.352L548.728 295.08C548.728 295.08 537.662 303.64 537.927 326.306L552.731 319.72L555 301.352Z" fill="#6C63FF"/>
<path d="M595.883 406.346C595.883 406.346 591.369 396.848 583.83 401.401C576.29 405.955 562.419 413.518 562.419 413.518C562.419 413.518 559.174 418.941 566.259 417.515C573.344 416.088 596.103 414.975 596.103 414.975L595.883 406.346Z" fill="#FEB8B8"/>
<path d="M583.341 236.551C583.405 236.49 583.472 236.435 583.535 236.372C587.569 232.338 588.387 226.615 585.361 223.589C582.502 220.73 577.235 221.307 573.26 224.783C569.851 221.538 565.281 220.633 562.322 222.874C558.911 225.457 558.938 231.238 562.382 235.786C562.618 236.098 562.865 236.392 563.12 236.676C558.536 238.353 554.579 241.399 551.783 245.399C548.987 249.4 547.487 254.163 547.487 259.044V281.715C547.487 282.38 547.618 283.038 547.873 283.652C548.127 284.266 548.5 284.824 548.97 285.294C549.44 285.764 549.998 286.137 550.612 286.392C551.226 286.646 551.885 286.777 552.55 286.777H594.449C595.747 286.777 596.991 286.261 597.909 285.344C598.826 284.426 599.342 283.182 599.342 281.885V259.044C599.341 254.098 597.8 249.274 594.933 245.243C592.065 241.212 588.014 238.174 583.341 236.551Z" fill="#2F2E41"/>
<path d="M588.136 278.691C595.901 270.926 595.901 258.337 588.136 250.572C580.371 242.807 567.782 242.807 560.018 250.572C552.253 258.337 552.253 270.926 560.018 278.691C567.782 286.455 580.371 286.455 588.136 278.691Z" fill="#FFB6B6"/>
<path d="M553.184 252.127C557.727 255.258 563.12 256.925 568.638 256.903C566.67 258.268 564.429 259.189 562.07 259.605C569.407 261.179 576.989 261.221 584.343 259.73C585.978 259.468 587.555 258.926 589.006 258.129C589.729 257.725 590.359 257.173 590.855 256.51C591.35 255.847 591.701 255.087 591.884 254.28C592.373 251.488 590.197 248.952 587.937 247.242C584.476 244.665 580.485 242.89 576.253 242.044C572.022 241.198 567.655 241.304 563.469 242.353C560.736 243.06 557.998 244.253 556.223 246.448C554.448 248.643 553.922 252.027 555.613 254.287L553.184 252.127Z" fill="#2F2E41"/>
<path d="M446.836 212.449L447.463 211.604L464.155 223.986C463.248 221.221 460.037 212.457 454.774 208.96C448.486 204.782 444.062 206.082 441.651 209.709C439.241 213.337 439.757 217.919 446.045 222.097C451.375 225.638 460.871 225.146 463.641 224.914L446.836 212.449Z" fill="#F2F2F2"/>
<path d="M697.986 144.662L698.761 145.373L684.711 160.687C687.555 160.072 696.606 157.791 700.631 152.919C705.44 147.1 704.608 142.565 701.25 139.79C697.893 137.016 693.282 137.053 688.473 142.872C684.396 147.805 683.899 157.3 683.841 160.079L697.986 144.662Z" fill="#F2F2F2"/>
<path d="M471.388 308.171L472.163 308.882L458.112 324.195C460.956 323.581 470.007 321.299 474.033 316.428C478.842 310.608 478.009 306.073 474.652 303.299C471.294 300.524 466.684 300.561 461.874 306.38C457.798 311.313 457.3 320.808 457.243 323.588L471.388 308.171Z" fill="#F2F2F2"/>
<path d="M590.196 162.21L591.106 162.737L580.697 180.726C583.341 179.511 591.685 175.327 594.563 169.701C598 162.98 596.207 158.731 592.33 156.748C588.452 154.765 583.958 155.797 580.52 162.518C577.606 168.216 579.172 177.594 579.717 180.32L590.196 162.21Z" fill="#F2F2F2"/>
<path d="M687.46 274.721L688.37 275.247L677.962 293.236C680.606 292.021 688.949 287.837 691.827 282.211C695.264 275.49 693.472 271.242 689.594 269.258C685.716 267.275 681.222 268.307 677.785 275.029C674.87 280.726 676.436 290.104 676.981 292.83L687.46 274.721Z" fill="#F2F2F2"/>
</g>
<path d="M101.016 95.248H87.256V85.2H127.384V95.248H113.688V130H101.016V95.248ZM159.871 121.296H140.927L137.407 130H124.479L144.255 85.2H156.735L176.575 130H163.391L159.871 121.296ZM156.159 111.952L150.399 97.616L144.639 111.952H156.159ZM222.792 85.2V130H210.12V112.528H192.84V130H180.168V85.2H192.84V102.032H210.12V85.2H222.792ZM252.402 130.896C245.746 130.896 240.562 129.083 236.85 125.456C233.181 121.829 231.346 116.688 231.346 110.032V85.2H244.018V109.648C244.018 116.816 246.855 120.4 252.53 120.4C258.162 120.4 260.978 116.816 260.978 109.648V85.2H273.458V110.032C273.458 116.688 271.602 121.829 267.89 125.456C264.221 129.083 259.058 130.896 252.402 130.896ZM300.668 85.2H321.852C326.758 85.2 331.11 86.1173 334.908 87.952C338.705 89.7867 341.649 92.3893 343.74 95.76C345.83 99.1307 346.876 103.077 346.876 107.6C346.876 112.123 345.83 116.069 343.74 119.44C341.649 122.811 338.705 125.413 334.908 127.248C331.11 129.083 326.758 130 321.852 130H300.668V85.2ZM321.34 119.888C325.18 119.888 328.252 118.8 330.556 116.624C332.902 114.448 334.076 111.44 334.076 107.6C334.076 103.76 332.902 100.752 330.556 98.576C328.252 96.4 325.18 95.312 321.34 95.312H313.34V119.888H321.34ZM353.543 85.2H366.215V130H353.543V85.2ZM394.814 118.096H387.902V130H375.23V85.2H395.71C399.763 85.2 403.283 85.8827 406.27 87.248C409.257 88.5707 411.561 90.4907 413.182 93.008C414.803 95.4827 415.614 98.4053 415.614 101.776C415.614 105.019 414.846 107.856 413.31 110.288C411.817 112.677 409.662 114.555 406.846 115.92L416.51 130H402.942L394.814 118.096ZM402.814 101.776C402.814 99.6853 402.153 98.064 400.83 96.912C399.507 95.76 397.545 95.184 394.942 95.184H387.902V108.304H394.942C397.545 108.304 399.507 107.749 400.83 106.64C402.153 105.488 402.814 103.867 402.814 101.776ZM422.605 85.2H435.277V130H422.605V85.2Z" fill="#6F81FC"/>
<path d="M110.44 204L107.688 196.928H98.632L95.912 204H93L101.928 181.056H104.52L113.416 204H110.44ZM104.264 187.456C104.2 187.285 104.093 186.976 103.944 186.528C103.795 186.08 103.645 185.621 103.496 185.152C103.368 184.661 103.261 184.288 103.176 184.032C103.027 184.693 102.856 185.344 102.664 185.984C102.472 186.603 102.312 187.093 102.184 187.456L99.592 194.368H106.824L104.264 187.456ZM124.318 186.528C126.43 186.528 128.126 187.264 129.406 188.736C130.707 190.208 131.358 192.427 131.358 195.392C131.358 198.315 130.707 200.533 129.406 202.048C128.126 203.563 126.419 204.32 124.286 204.32C122.963 204.32 121.864 204.075 120.99 203.584C120.136 203.072 119.464 202.485 118.974 201.824H118.782C118.824 202.187 118.867 202.645 118.91 203.2C118.952 203.755 118.974 204.235 118.974 204.64V211.68H116.158V186.848H118.462L118.846 189.184H118.974C119.486 188.437 120.158 187.808 120.99 187.296C121.822 186.784 122.931 186.528 124.318 186.528ZM123.806 188.896C122.056 188.896 120.819 189.387 120.094 190.368C119.39 191.349 119.016 192.843 118.974 194.848V195.392C118.974 197.504 119.315 199.136 119.998 200.288C120.702 201.419 121.992 201.984 123.87 201.984C124.915 201.984 125.768 201.696 126.43 201.12C127.112 200.544 127.614 199.765 127.934 198.784C128.275 197.781 128.446 196.64 128.446 195.36C128.446 193.397 128.062 191.829 127.294 190.656C126.547 189.483 125.384 188.896 123.806 188.896ZM142.341 186.56C144.432 186.56 145.978 187.019 146.981 187.936C147.984 188.853 148.485 190.315 148.485 192.32V204H146.437L145.893 201.568H145.765C145.018 202.507 144.229 203.2 143.397 203.648C142.586 204.096 141.456 204.32 140.005 204.32C138.448 204.32 137.157 203.915 136.133 203.104C135.109 202.272 134.597 200.981 134.597 199.232C134.597 197.525 135.269 196.213 136.613 195.296C137.957 194.357 140.026 193.845 142.821 193.76L145.733 193.664V192.64C145.733 191.211 145.424 190.219 144.805 189.664C144.186 189.109 143.312 188.832 142.181 188.832C141.285 188.832 140.432 188.971 139.621 189.248C138.81 189.504 138.053 189.803 137.349 190.144L136.485 188.032C137.232 187.627 138.117 187.285 139.141 187.008C140.165 186.709 141.232 186.56 142.341 186.56ZM143.173 195.712C141.04 195.797 139.557 196.139 138.725 196.736C137.914 197.333 137.509 198.176 137.509 199.264C137.509 200.224 137.797 200.928 138.373 201.376C138.97 201.824 139.728 202.048 140.645 202.048C142.096 202.048 143.301 201.653 144.261 200.864C145.221 200.053 145.701 198.816 145.701 197.152V195.616L143.173 195.712ZM156.567 192.384C156.567 192.725 156.545 193.173 156.503 193.728C156.481 194.283 156.46 194.763 156.439 195.168H156.567C156.695 194.997 156.887 194.752 157.143 194.432C157.399 194.112 157.655 193.792 157.911 193.472C158.188 193.131 158.423 192.853 158.615 192.64L164.087 186.848H167.383L160.439 194.176L167.863 204H164.471L158.519 196L156.567 197.696V204H153.783V179.68H156.567V192.384ZM177.372 186.56C179.463 186.56 181.01 187.019 182.012 187.936C183.015 188.853 183.516 190.315 183.516 192.32V204H181.468L180.924 201.568H180.796C180.05 202.507 179.26 203.2 178.428 203.648C177.618 204.096 176.487 204.32 175.036 204.32C173.479 204.32 172.188 203.915 171.164 203.104C170.14 202.272 169.628 200.981 169.628 199.232C169.628 197.525 170.3 196.213 171.644 195.296C172.988 194.357 175.058 193.845 177.852 193.76L180.764 193.664V192.64C180.764 191.211 180.455 190.219 179.836 189.664C179.218 189.109 178.343 188.832 177.212 188.832C176.316 188.832 175.463 188.971 174.652 189.248C173.842 189.504 173.084 189.803 172.38 190.144L171.516 188.032C172.263 187.627 173.148 187.285 174.172 187.008C175.196 186.709 176.263 186.56 177.372 186.56ZM178.204 195.712C176.071 195.797 174.588 196.139 173.756 196.736C172.946 197.333 172.54 198.176 172.54 199.264C172.54 200.224 172.828 200.928 173.404 201.376C174.002 201.824 174.759 202.048 175.676 202.048C177.127 202.048 178.332 201.653 179.292 200.864C180.252 200.053 180.732 198.816 180.732 197.152V195.616L178.204 195.712ZM191.63 186.816C191.63 187.669 191.576 188.469 191.47 189.216H191.662C192.216 188.341 192.963 187.68 193.902 187.232C194.862 186.784 195.896 186.56 197.006 186.56C199.096 186.56 200.664 187.061 201.71 188.064C202.755 189.045 203.278 190.635 203.278 192.832V204H200.494V193.024C200.494 190.272 199.214 188.896 196.654 188.896C194.734 188.896 193.411 189.44 192.686 190.528C191.982 191.595 191.63 193.131 191.63 195.136V204H188.814V179.68H191.63V186.816ZM223.404 186.56C225.494 186.56 227.041 187.019 228.044 187.936C229.046 188.853 229.548 190.315 229.548 192.32V204H227.5L226.956 201.568H226.828C226.081 202.507 225.292 203.2 224.46 203.648C223.649 204.096 222.518 204.32 221.068 204.32C219.51 204.32 218.22 203.915 217.196 203.104C216.172 202.272 215.66 200.981 215.66 199.232C215.66 197.525 216.332 196.213 217.676 195.296C219.02 194.357 221.089 193.845 223.884 193.76L226.796 193.664V192.64C226.796 191.211 226.486 190.219 225.868 189.664C225.249 189.109 224.374 188.832 223.244 188.832C222.348 188.832 221.494 188.971 220.684 189.248C219.873 189.504 219.116 189.803 218.411 190.144L217.548 188.032C218.294 187.627 219.18 187.285 220.204 187.008C221.228 186.709 222.294 186.56 223.404 186.56ZM224.236 195.712C222.102 195.797 220.62 196.139 219.788 196.736C218.977 197.333 218.572 198.176 218.572 199.264C218.572 200.224 218.86 200.928 219.436 201.376C220.033 201.824 220.79 202.048 221.708 202.048C223.158 202.048 224.364 201.653 225.324 200.864C226.284 200.053 226.764 198.816 226.764 197.152V195.616L224.236 195.712ZM237.629 192.384C237.629 192.725 237.608 193.173 237.565 193.728C237.544 194.283 237.522 194.763 237.501 195.168H237.629C237.757 194.997 237.949 194.752 238.205 194.432C238.461 194.112 238.717 193.792 238.973 193.472C239.25 193.131 239.485 192.853 239.677 192.64L245.149 186.848H248.445L241.501 194.176L248.925 204H245.533L239.581 196L237.629 197.696V204H234.845V179.68H237.629V192.384ZM266.275 186.848V204H263.971L263.555 201.728H263.427C262.872 202.624 262.104 203.285 261.123 203.712C260.141 204.117 259.096 204.32 257.987 204.32C255.917 204.32 254.36 203.829 253.315 202.848C252.269 201.845 251.747 200.256 251.747 198.08V186.848H254.595V197.888C254.595 200.619 255.864 201.984 258.403 201.984C260.301 201.984 261.613 201.451 262.339 200.384C263.085 199.317 263.459 197.781 263.459 195.776V186.848H266.275ZM286.913 204.32C285.398 204.32 284.043 204.011 282.849 203.392C281.675 202.773 280.747 201.813 280.065 200.512C279.403 199.211 279.073 197.547 279.073 195.52C279.073 193.408 279.425 191.691 280.129 190.368C280.833 189.045 281.782 188.075 282.977 187.456C284.193 186.837 285.569 186.528 287.105 186.528C287.979 186.528 288.822 186.624 289.633 186.816C290.443 186.987 291.105 187.2 291.617 187.456L290.753 189.792C290.241 189.6 289.643 189.419 288.961 189.248C288.278 189.077 287.638 188.992 287.041 188.992C283.67 188.992 281.985 191.157 281.985 195.488C281.985 197.557 282.39 199.147 283.201 200.256C284.033 201.344 285.259 201.888 286.881 201.888C287.819 201.888 288.641 201.792 289.345 201.6C290.07 201.408 290.731 201.173 291.329 200.896V203.392C290.753 203.691 290.113 203.915 289.409 204.064C288.726 204.235 287.894 204.32 286.913 204.32ZM309.744 186.848V204H307.44L307.024 201.728H306.896C306.341 202.624 305.573 203.285 304.592 203.712C303.61 204.117 302.565 204.32 301.456 204.32C299.386 204.32 297.829 203.829 296.784 202.848C295.738 201.845 295.216 200.256 295.216 198.08V186.848H298.064V197.888C298.064 200.619 299.333 201.984 301.872 201.984C303.77 201.984 305.082 201.451 305.808 200.384C306.554 199.317 306.928 197.781 306.928 195.776V186.848H309.744ZM317.973 192.384C317.973 192.725 317.951 193.173 317.909 193.728C317.887 194.283 317.866 194.763 317.845 195.168H317.973C318.101 194.997 318.293 194.752 318.549 194.432C318.805 194.112 319.061 193.792 319.317 193.472C319.594 193.131 319.829 192.853 320.021 192.64L325.493 186.848H328.789L321.845 194.176L329.269 204H325.877L319.925 196L317.973 197.696V204H315.189V179.68H317.973V192.384ZM346.619 186.848V204H344.315L343.899 201.728H343.771C343.216 202.624 342.448 203.285 341.467 203.712C340.485 204.117 339.44 204.32 338.331 204.32C336.261 204.32 334.704 203.829 333.659 202.848C332.613 201.845 332.091 200.256 332.091 198.08V186.848H334.939V197.888C334.939 200.619 336.208 201.984 338.747 201.984C340.645 201.984 341.957 201.451 342.683 200.384C343.429 199.317 343.803 197.781 343.803 195.776V186.848H346.619ZM360.224 186.528C362.336 186.528 364.032 187.264 365.312 188.736C366.613 190.208 367.264 192.427 367.264 195.392C367.264 198.315 366.613 200.533 365.312 202.048C364.032 203.563 362.325 204.32 360.192 204.32C358.869 204.32 357.77 204.075 356.896 203.584C356.042 203.072 355.37 202.485 354.88 201.824H354.688C354.73 202.187 354.773 202.645 354.816 203.2C354.858 203.755 354.88 204.235 354.88 204.64V211.68H352.064V186.848H354.368L354.752 189.184H354.88C355.392 188.437 356.064 187.808 356.896 187.296C357.728 186.784 358.837 186.528 360.224 186.528ZM359.712 188.896C357.962 188.896 356.725 189.387 356 190.368C355.296 191.349 354.922 192.843 354.88 194.848V195.392C354.88 197.504 355.221 199.136 355.904 200.288C356.608 201.419 357.898 201.984 359.776 201.984C360.821 201.984 361.674 201.696 362.336 201.12C363.018 200.544 363.52 199.765 363.84 198.784C364.181 197.781 364.352 196.64 364.352 195.36C364.352 193.397 363.968 191.829 363.2 190.656C362.453 189.483 361.29 188.896 359.712 188.896ZM114.536 230.528C116.477 230.528 117.928 231.029 118.888 232.032C119.848 233.013 120.328 234.613 120.328 236.832V248H117.544V236.96C117.544 234.251 116.381 232.896 114.056 232.896C112.392 232.896 111.197 233.376 110.472 234.336C109.768 235.296 109.416 236.693 109.416 238.528V248H106.632V236.96C106.632 234.251 105.459 232.896 103.112 232.896C101.384 232.896 100.189 233.429 99.528 234.496C98.8667 235.563 98.536 237.099 98.536 239.104V248H95.72V230.848H97.992L98.408 233.184H98.568C99.1013 232.288 99.816 231.627 100.712 231.2C101.629 230.752 102.6 230.528 103.624 230.528C106.312 230.528 108.061 231.488 108.872 233.408H109.032C109.608 232.427 110.387 231.701 111.368 231.232C112.371 230.763 113.427 230.528 114.536 230.528ZM132.25 230.528C133.722 230.528 134.981 230.848 136.026 231.488C137.093 232.128 137.904 233.035 138.458 234.208C139.034 235.36 139.322 236.715 139.322 238.272V239.968H127.578C127.621 241.909 128.112 243.392 129.05 244.416C130.01 245.419 131.344 245.92 133.05 245.92C134.138 245.92 135.098 245.824 135.93 245.632C136.784 245.419 137.658 245.12 138.554 244.736V247.2C137.68 247.584 136.816 247.861 135.962 248.032C135.109 248.224 134.096 248.32 132.922 248.32C131.301 248.32 129.861 247.989 128.602 247.328C127.365 246.667 126.394 245.685 125.69 244.384C125.008 243.061 124.666 241.451 124.666 239.552C124.666 237.675 124.976 236.064 125.594 234.72C126.234 233.376 127.12 232.341 128.25 231.616C129.402 230.891 130.736 230.528 132.25 230.528ZM132.218 232.832C130.874 232.832 129.808 233.269 129.018 234.144C128.25 234.997 127.792 236.192 127.642 237.728H136.378C136.357 236.277 136.016 235.104 135.354 234.208C134.693 233.291 133.648 232.832 132.218 232.832ZM151.945 230.528C153.993 230.528 155.539 231.029 156.585 232.032C157.63 233.013 158.153 234.613 158.153 236.832V248H155.369V237.024C155.369 234.272 154.089 232.896 151.529 232.896C149.63 232.896 148.318 233.429 147.593 234.496C146.867 235.563 146.505 237.099 146.505 239.104V248H143.689V230.848H145.961L146.377 233.184H146.537C147.091 232.288 147.859 231.627 148.841 231.2C149.822 230.752 150.857 230.528 151.945 230.528ZM169.55 230.528C170.681 230.528 171.694 230.741 172.59 231.168C173.507 231.595 174.286 232.245 174.926 233.12H175.086L175.47 230.848H177.71V248.288C177.71 250.741 177.081 252.587 175.822 253.824C174.585 255.061 172.654 255.68 170.03 255.68C167.513 255.68 165.454 255.317 163.854 254.592V252C165.539 252.896 167.651 253.344 170.19 253.344C171.662 253.344 172.814 252.907 173.646 252.032C174.499 251.179 174.926 250.005 174.926 248.512V247.84C174.926 247.584 174.937 247.221 174.958 246.752C174.979 246.261 175.001 245.92 175.022 245.728H174.894C173.742 247.456 171.971 248.32 169.582 248.32C167.363 248.32 165.625 247.541 164.366 245.984C163.129 244.427 162.51 242.251 162.51 239.456C162.51 236.725 163.129 234.56 164.366 232.96C165.625 231.339 167.353 230.528 169.55 230.528ZM169.934 232.896C168.505 232.896 167.395 233.472 166.606 234.624C165.817 235.755 165.422 237.376 165.422 239.488C165.422 241.6 165.806 243.221 166.574 244.352C167.363 245.461 168.505 246.016 169.998 246.016C171.726 246.016 172.985 245.557 173.774 244.64C174.563 243.701 174.958 242.197 174.958 240.128V239.456C174.958 237.109 174.553 235.435 173.742 234.432C172.931 233.408 171.662 232.896 169.934 232.896ZM189.782 230.528C191.254 230.528 192.512 230.848 193.558 231.488C194.624 232.128 195.435 233.035 195.99 234.208C196.566 235.36 196.854 236.715 196.854 238.272V239.968H185.11C185.152 241.909 185.643 243.392 186.582 244.416C187.542 245.419 188.875 245.92 190.582 245.92C191.67 245.92 192.63 245.824 193.462 245.632C194.315 245.419 195.19 245.12 196.086 244.736V247.2C195.211 247.584 194.347 247.861 193.494 248.032C192.64 248.224 191.627 248.32 190.454 248.32C188.832 248.32 187.392 247.989 186.134 247.328C184.896 246.667 183.926 245.685 183.222 244.384C182.539 243.061 182.198 241.451 182.198 239.552C182.198 237.675 182.507 236.064 183.126 234.72C183.766 233.376 184.651 232.341 185.782 231.616C186.934 230.891 188.267 230.528 189.782 230.528ZM189.75 232.832C188.406 232.832 187.339 233.269 186.55 234.144C185.782 234.997 185.323 236.192 185.174 237.728H193.91C193.888 236.277 193.547 235.104 192.886 234.208C192.224 233.291 191.179 232.832 189.75 232.832ZM209.476 230.528C211.524 230.528 213.071 231.029 214.116 232.032C215.161 233.013 215.684 234.613 215.684 236.832V248H212.9V237.024C212.9 234.272 211.62 232.896 209.06 232.896C207.161 232.896 205.849 233.429 205.124 234.496C204.399 235.563 204.036 237.099 204.036 239.104V248H201.22V230.848H203.492L203.908 233.184H204.068C204.623 232.288 205.391 231.627 206.372 231.2C207.353 230.752 208.388 230.528 209.476 230.528ZM227.497 230.56C229.588 230.56 231.135 231.019 232.137 231.936C233.14 232.853 233.641 234.315 233.641 236.32V248H231.593L231.049 245.568H230.921C230.175 246.507 229.385 247.2 228.553 247.648C227.743 248.096 226.612 248.32 225.161 248.32C223.604 248.32 222.313 247.915 221.289 247.104C220.265 246.272 219.753 244.981 219.753 243.232C219.753 241.525 220.425 240.213 221.769 239.296C223.113 238.357 225.183 237.845 227.977 237.76L230.889 237.664V236.64C230.889 235.211 230.58 234.219 229.961 233.664C229.343 233.109 228.468 232.832 227.337 232.832C226.441 232.832 225.588 232.971 224.777 233.248C223.967 233.504 223.209 233.803 222.505 234.144L221.641 232.032C222.388 231.627 223.273 231.285 224.297 231.008C225.321 230.709 226.388 230.56 227.497 230.56ZM228.329 239.712C226.196 239.797 224.713 240.139 223.881 240.736C223.071 241.333 222.665 242.176 222.665 243.264C222.665 244.224 222.953 244.928 223.529 245.376C224.127 245.824 224.884 246.048 225.801 246.048C227.252 246.048 228.457 245.653 229.417 244.864C230.377 244.053 230.857 242.816 230.857 241.152V239.616L228.329 239.712ZM241.755 248H238.939V223.68H241.755V248ZM261.581 248.32C259.448 248.32 257.741 247.584 256.461 246.112C255.181 244.619 254.541 242.4 254.541 239.456C254.541 236.512 255.181 234.293 256.461 232.8C257.763 231.285 259.48 230.528 261.613 230.528C262.936 230.528 264.013 230.773 264.845 231.264C265.699 231.755 266.392 232.352 266.925 233.056H267.117C267.096 232.779 267.053 232.373 266.989 231.84C266.947 231.285 266.925 230.848 266.925 230.528V223.68H269.741V248H267.469L267.053 245.696H266.925C266.413 246.421 265.731 247.04 264.877 247.552C264.024 248.064 262.925 248.32 261.581 248.32ZM262.029 245.984C263.843 245.984 265.112 245.493 265.837 244.512C266.584 243.509 266.957 242.005 266.957 240V239.488C266.957 237.355 266.605 235.723 265.901 234.592C265.197 233.44 263.896 232.864 261.997 232.864C260.483 232.864 259.341 233.472 258.573 234.688C257.827 235.883 257.453 237.493 257.453 239.52C257.453 241.568 257.827 243.157 258.573 244.288C259.341 245.419 260.493 245.984 262.029 245.984ZM276.629 224.416C277.055 224.416 277.429 224.565 277.749 224.864C278.09 225.141 278.261 225.589 278.261 226.208C278.261 226.805 278.09 227.253 277.749 227.552C277.429 227.851 277.055 228 276.629 228C276.159 228 275.765 227.851 275.445 227.552C275.125 227.253 274.965 226.805 274.965 226.208C274.965 225.589 275.125 225.141 275.445 224.864C275.765 224.565 276.159 224.416 276.629 224.416ZM278.005 230.848V248H275.189V230.848H278.005ZM291.439 230.528C291.759 230.528 292.1 230.549 292.463 230.592C292.847 230.613 293.177 230.656 293.455 230.72L293.103 233.312C292.825 233.248 292.516 233.195 292.175 233.152C291.855 233.109 291.545 233.088 291.247 233.088C290.372 233.088 289.551 233.333 288.783 233.824C288.015 234.293 287.396 234.965 286.927 235.84C286.479 236.693 286.255 237.696 286.255 238.848V248H283.439V230.848H285.743L286.063 233.984H286.191C286.745 233.045 287.46 232.235 288.335 231.552C289.209 230.869 290.244 230.528 291.439 230.528ZM298.098 224.416C298.524 224.416 298.898 224.565 299.218 224.864C299.559 225.141 299.73 225.589 299.73 226.208C299.73 226.805 299.559 227.253 299.218 227.552C298.898 227.851 298.524 228 298.098 228C297.628 228 297.234 227.851 296.914 227.552C296.594 227.253 296.434 226.805 296.434 226.208C296.434 225.589 296.594 225.141 296.914 224.864C297.234 224.565 297.628 224.416 298.098 224.416ZM299.474 230.848V248H296.658V230.848H299.474ZM307.692 236.384C307.692 236.725 307.67 237.173 307.628 237.728C307.606 238.283 307.585 238.763 307.564 239.168H307.692C307.82 238.997 308.012 238.752 308.268 238.432C308.524 238.112 308.78 237.792 309.036 237.472C309.313 237.131 309.548 236.853 309.74 236.64L315.212 230.848H318.508L311.564 238.176L318.988 248H315.596L309.644 240L307.692 241.696V248H304.908V223.68H307.692V236.384ZM336.337 230.848V248H334.033L333.617 245.728H333.489C332.935 246.624 332.167 247.285 331.185 247.712C330.204 248.117 329.159 248.32 328.049 248.32C325.98 248.32 324.423 247.829 323.377 246.848C322.332 245.845 321.809 244.256 321.809 242.08V230.848H324.657V241.888C324.657 244.619 325.927 245.984 328.465 245.984C330.364 245.984 331.676 245.451 332.401 244.384C333.148 243.317 333.521 241.781 333.521 239.776V230.848H336.337ZM351.535 224.416C351.962 224.416 352.335 224.565 352.655 224.864C352.996 225.141 353.167 225.589 353.167 226.208C353.167 226.805 352.996 227.253 352.655 227.552C352.335 227.851 351.962 228 351.535 228C351.066 228 350.671 227.851 350.351 227.552C350.031 227.253 349.871 226.805 349.871 226.208C349.871 225.589 350.031 225.141 350.351 224.864C350.671 224.565 351.066 224.416 351.535 224.416ZM352.911 230.848V248H350.095V230.848H352.911ZM366.601 230.528C368.649 230.528 370.196 231.029 371.241 232.032C372.286 233.013 372.809 234.613 372.809 236.832V248H370.025V237.024C370.025 234.272 368.745 232.896 366.185 232.896C364.286 232.896 362.974 233.429 362.249 234.496C361.524 235.563 361.161 237.099 361.161 239.104V248H358.345V230.848H360.617L361.033 233.184H361.193C361.748 232.288 362.516 231.627 363.497 231.2C364.478 230.752 365.513 230.528 366.601 230.528ZM379.566 224.416C379.993 224.416 380.366 224.565 380.686 224.864C381.028 225.141 381.198 225.589 381.198 226.208C381.198 226.805 381.028 227.253 380.686 227.552C380.366 227.851 379.993 228 379.566 228C379.097 228 378.702 227.851 378.382 227.552C378.062 227.253 377.902 226.805 377.902 226.208C377.902 225.589 378.062 225.141 378.382 224.864C378.702 224.565 379.097 224.416 379.566 224.416ZM380.942 230.848V248H378.126V230.848H380.942ZM388.136 240.704C388.136 239.893 388.211 239.2 388.36 238.624C388.531 238.027 388.808 237.461 389.192 236.928C389.598 236.395 390.142 235.84 390.824 235.264C391.656 234.56 392.296 233.973 392.744 233.504C393.214 233.035 393.544 232.576 393.736 232.128C393.928 231.68 394.024 231.136 394.024 230.496C394.024 229.472 393.694 228.683 393.032 228.128C392.371 227.573 391.411 227.296 390.152 227.296C389.107 227.296 388.179 227.435 387.368 227.712C386.558 227.968 385.779 228.277 385.032 228.64L384.04 226.4C384.894 225.952 385.832 225.579 386.856 225.28C387.902 224.981 389.064 224.832 390.344 224.832C392.371 224.832 393.939 225.333 395.048 226.336C396.158 227.339 396.712 228.704 396.712 230.432C396.712 231.392 396.552 232.213 396.232 232.896C395.934 233.557 395.496 234.176 394.92 234.752C394.366 235.307 393.704 235.904 392.936 236.544C392.232 237.141 391.688 237.664 391.304 238.112C390.942 238.56 390.696 239.008 390.568 239.456C390.44 239.883 390.376 240.405 390.376 241.024V241.568H388.136V240.704ZM387.4 246.272C387.4 245.483 387.582 244.928 387.944 244.608C388.328 244.288 388.808 244.128 389.384 244.128C389.918 244.128 390.376 244.288 390.76 244.608C391.144 244.928 391.336 245.483 391.336 246.272C391.336 247.04 391.144 247.595 390.76 247.936C390.376 248.277 389.918 248.448 389.384 248.448C388.808 248.448 388.328 248.277 387.944 247.936C387.582 247.595 387.4 247.04 387.4 246.272Z" fill="black"/>
<defs>
<filter id="filter0_dddd_128:905" x="0" y="0" width="821" height="518" filterUnits="userSpaceOnUse" color-interpolation-filters="sRGB">
<feFlood flood-opacity="0" result="BackgroundImageFix"/>
<feColorMatrix in="SourceAlpha" type="matrix" values="0 0 0 0 0 0 0 0 0 0 0 0 0 0 0 0 0 0 127 0" result="hardAlpha"/>
<feOffset/>
<feGaussianBlur stdDeviation="0.5"/>
<feColorMatrix type="matrix" values="0 0 0 0 0 0 0 0 0 0 0 0 0 0 0 0 0 0 0.04 0"/>
<feBlend mode="normal" in2="BackgroundImageFix" result="effect1_dropShadow_128:905"/>
<feColorMatrix in="SourceAlpha" type="matrix" values="0 0 0 0 0 0 0 0 0 0 0 0 0 0 0 0 0 0 127 0" result="hardAlpha"/>
<feOffset dy="4"/>
<feGaussianBlur stdDeviation="4"/>
<feColorMatrix type="matrix" values="0 0 0 0 0 0 0 0 0 0 0 0 0 0 0 0 0 0 0.04 0"/>
<feBlend mode="normal" in2="effect1_dropShadow_128:905" result="effect2_dropShadow_128:905"/>
<feColorMatrix in="SourceAlpha" type="matrix" values="0 0 0 0 0 0 0 0 0 0 0 0 0 0 0 0 0 0 127 0" result="hardAlpha"/>
<feOffset dy="16"/>
<feGaussianBlur stdDeviation="12"/>
<feColorMatrix type="matrix" values="0 0 0 0 0 0 0 0 0 0 0 0 0 0 0 0 0 0 0.04 0"/>
<feBlend mode="normal" in2="effect2_dropShadow_128:905" result="effect3_dropShadow_128:905"/>
<feColorMatrix in="SourceAlpha" type="matrix" values="0 0 0 0 0 0 0 0 0 0 0 0 0 0 0 0 0 0 127 0" result="hardAlpha"/>
<feOffset dy="24"/>
<feGaussianBlur stdDeviation="16"/>
<feColorMatrix type="matrix" values="0 0 0 0 0 0 0 0 0 0 0 0 0 0 0 0 0 0 0.04 0"/>
<feBlend mode="normal" in2="effect3_dropShadow_128:905" result="effect4_dropShadow_128:905"/>
<feBlend mode="normal" in="SourceGraphic" in2="effect4_dropShadow_128:905" result="shape"/>
</filter>
</defs>
</svg>
