<svg width="821" height="518" viewBox="0 0 821 518" fill="none" xmlns="http://www.w3.org/2000/svg">
<g filter="url(#filter0_dddd_128:1247)">
<rect x="32" y="8" width="757" height="454" rx="12" fill="#F6F6F6"/>
</g>
<path d="M101.016 92.248H87.256V82.2H127.384V92.248H113.688V127H101.016V92.248ZM159.871 118.296H140.927L137.407 127H124.479L144.255 82.2H156.735L176.575 127H163.391L159.871 118.296ZM156.159 108.952L150.399 94.616L144.639 108.952H156.159ZM222.792 82.2V127H210.12V109.528H192.84V127H180.168V82.2H192.84V99.032H210.12V82.2H222.792ZM252.402 127.896C245.746 127.896 240.562 126.083 236.85 122.456C233.181 118.829 231.346 113.688 231.346 107.032V82.2H244.018V106.648C244.018 113.816 246.855 117.4 252.53 117.4C258.162 117.4 260.978 113.816 260.978 106.648V82.2H273.458V107.032C273.458 113.688 271.602 118.829 267.89 122.456C264.221 126.083 259.058 127.896 252.402 127.896ZM317.948 110.744L313.212 115.8V127H300.668V82.2H313.212V100.824L330.556 82.2H344.508L326.204 102.04L345.468 127H330.748L317.948 110.744ZM384.761 117.208V127H348.793V82.2H383.929V91.992H361.337V99.544H381.241V109.016H361.337V117.208H384.761ZM391.793 82.2H404.465V116.952H425.841V127H391.793V82.2ZM451.09 127.896C444.434 127.896 439.25 126.083 435.538 122.456C431.868 118.829 430.034 113.688 430.034 107.032V82.2H442.706V106.648C442.706 113.816 445.543 117.4 451.218 117.4C456.85 117.4 459.666 113.816 459.666 106.648V82.2H472.146V107.032C472.146 113.688 470.29 118.829 466.578 122.456C462.908 126.083 457.746 127.896 451.09 127.896ZM509.809 118.296H490.865L487.345 127H474.416L494.193 82.2H506.673L526.513 127H513.329L509.809 118.296ZM506.097 108.952L500.337 94.616L494.577 108.952H506.097ZM549.689 115.096H542.777V127H530.105V82.2H550.585C554.638 82.2 558.158 82.8827 561.145 84.248C564.132 85.5707 566.436 87.4907 568.057 90.008C569.678 92.4827 570.489 95.4053 570.489 98.776C570.489 102.019 569.721 104.856 568.185 107.288C566.692 109.677 564.537 111.555 561.721 112.92L571.385 127H557.817L549.689 115.096ZM557.689 98.776C557.689 96.6853 557.028 95.064 555.705 93.912C554.382 92.76 552.42 92.184 549.817 92.184H542.777V105.304H549.817C552.42 105.304 554.382 104.749 555.705 103.64C557.028 102.488 557.689 100.867 557.689 98.776ZM607.496 103.64H618.696V122.2C616.136 124.035 613.192 125.443 609.864 126.424C606.536 127.405 603.208 127.896 599.88 127.896C595.187 127.896 590.963 126.915 587.208 124.952C583.453 122.947 580.509 120.173 578.376 116.632C576.243 113.091 575.176 109.08 575.176 104.6C575.176 100.12 576.243 96.1093 578.376 92.568C580.509 89.0267 583.475 86.2747 587.272 84.312C591.069 82.3067 595.357 81.304 600.136 81.304C604.317 81.304 608.072 82.008 611.4 83.416C614.728 84.824 617.501 86.8507 619.72 89.496L611.656 96.792C608.627 93.464 605 91.8 600.776 91.8C596.936 91.8 593.843 92.9733 591.496 95.32C589.149 97.624 587.976 100.717 587.976 104.6C587.976 107.075 588.509 109.293 589.576 111.256C590.643 113.176 592.136 114.691 594.056 115.8C595.976 116.867 598.173 117.4 600.648 117.4C603.08 117.4 605.363 116.909 607.496 115.928V103.64ZM656.746 118.296H637.802L634.282 127H621.354L641.13 82.2H653.61L673.45 127H660.266L656.746 118.296ZM653.034 108.952L647.274 94.616L641.514 108.952H653.034Z" fill="#65BA2C"/>
<path d="M110.44 201L107.688 193.928H98.632L95.912 201H93L101.928 178.056H104.52L113.416 201H110.44ZM104.264 184.456C104.2 184.285 104.093 183.976 103.944 183.528C103.795 183.08 103.645 182.621 103.496 182.152C103.368 181.661 103.261 181.288 103.176 181.032C103.027 181.693 102.856 182.344 102.664 182.984C102.472 183.603 102.312 184.093 102.184 184.456L99.592 191.368H106.824L104.264 184.456ZM124.318 183.528C126.43 183.528 128.126 184.264 129.406 185.736C130.707 187.208 131.358 189.427 131.358 192.392C131.358 195.315 130.707 197.533 129.406 199.048C128.126 200.563 126.419 201.32 124.286 201.32C122.963 201.32 121.864 201.075 120.99 200.584C120.136 200.072 119.464 199.485 118.974 198.824H118.782C118.824 199.187 118.867 199.645 118.91 200.2C118.952 200.755 118.974 201.235 118.974 201.64V208.68H116.158V183.848H118.462L118.846 186.184H118.974C119.486 185.437 120.158 184.808 120.99 184.296C121.822 183.784 122.931 183.528 124.318 183.528ZM123.806 185.896C122.056 185.896 120.819 186.387 120.094 187.368C119.39 188.349 119.016 189.843 118.974 191.848V192.392C118.974 194.504 119.315 196.136 119.998 197.288C120.702 198.419 121.992 198.984 123.87 198.984C124.915 198.984 125.768 198.696 126.43 198.12C127.112 197.544 127.614 196.765 127.934 195.784C128.275 194.781 128.446 193.64 128.446 192.36C128.446 190.397 128.062 188.829 127.294 187.656C126.547 186.483 125.384 185.896 123.806 185.896ZM142.341 183.56C144.432 183.56 145.978 184.019 146.981 184.936C147.984 185.853 148.485 187.315 148.485 189.32V201H146.437L145.893 198.568H145.765C145.018 199.507 144.229 200.2 143.397 200.648C142.586 201.096 141.456 201.32 140.005 201.32C138.448 201.32 137.157 200.915 136.133 200.104C135.109 199.272 134.597 197.981 134.597 196.232C134.597 194.525 135.269 193.213 136.613 192.296C137.957 191.357 140.026 190.845 142.821 190.76L145.733 190.664V189.64C145.733 188.211 145.424 187.219 144.805 186.664C144.186 186.109 143.312 185.832 142.181 185.832C141.285 185.832 140.432 185.971 139.621 186.248C138.81 186.504 138.053 186.803 137.349 187.144L136.485 185.032C137.232 184.627 138.117 184.285 139.141 184.008C140.165 183.709 141.232 183.56 142.341 183.56ZM143.173 192.712C141.04 192.797 139.557 193.139 138.725 193.736C137.914 194.333 137.509 195.176 137.509 196.264C137.509 197.224 137.797 197.928 138.373 198.376C138.97 198.824 139.728 199.048 140.645 199.048C142.096 199.048 143.301 198.653 144.261 197.864C145.221 197.053 145.701 195.816 145.701 194.152V192.616L143.173 192.712ZM156.567 189.384C156.567 189.725 156.545 190.173 156.503 190.728C156.481 191.283 156.46 191.763 156.439 192.168H156.567C156.695 191.997 156.887 191.752 157.143 191.432C157.399 191.112 157.655 190.792 157.911 190.472C158.188 190.131 158.423 189.853 158.615 189.64L164.087 183.848H167.383L160.439 191.176L167.863 201H164.471L158.519 193L156.567 194.696V201H153.783V176.68H156.567V189.384ZM177.372 183.56C179.463 183.56 181.01 184.019 182.012 184.936C183.015 185.853 183.516 187.315 183.516 189.32V201H181.468L180.924 198.568H180.796C180.05 199.507 179.26 200.2 178.428 200.648C177.618 201.096 176.487 201.32 175.036 201.32C173.479 201.32 172.188 200.915 171.164 200.104C170.14 199.272 169.628 197.981 169.628 196.232C169.628 194.525 170.3 193.213 171.644 192.296C172.988 191.357 175.058 190.845 177.852 190.76L180.764 190.664V189.64C180.764 188.211 180.455 187.219 179.836 186.664C179.218 186.109 178.343 185.832 177.212 185.832C176.316 185.832 175.463 185.971 174.652 186.248C173.842 186.504 173.084 186.803 172.38 187.144L171.516 185.032C172.263 184.627 173.148 184.285 174.172 184.008C175.196 183.709 176.263 183.56 177.372 183.56ZM178.204 192.712C176.071 192.797 174.588 193.139 173.756 193.736C172.946 194.333 172.54 195.176 172.54 196.264C172.54 197.224 172.828 197.928 173.404 198.376C174.002 198.824 174.759 199.048 175.676 199.048C177.127 199.048 178.332 198.653 179.292 197.864C180.252 197.053 180.732 195.816 180.732 194.152V192.616L178.204 192.712ZM191.63 183.816C191.63 184.669 191.576 185.469 191.47 186.216H191.662C192.216 185.341 192.963 184.68 193.902 184.232C194.862 183.784 195.896 183.56 197.006 183.56C199.096 183.56 200.664 184.061 201.71 185.064C202.755 186.045 203.278 187.635 203.278 189.832V201H200.494V190.024C200.494 187.272 199.214 185.896 196.654 185.896C194.734 185.896 193.411 186.44 192.686 187.528C191.982 188.595 191.63 190.131 191.63 192.136V201H188.814V176.68H191.63V183.816ZM219.692 189.384C219.692 189.725 219.67 190.173 219.628 190.728C219.606 191.283 219.585 191.763 219.564 192.168H219.692C219.82 191.997 220.012 191.752 220.268 191.432C220.524 191.112 220.78 190.792 221.036 190.472C221.313 190.131 221.548 189.853 221.74 189.64L227.212 183.848H230.508L223.564 191.176L230.988 201H227.596L221.644 193L219.692 194.696V201H216.908V176.68H219.692V189.384ZM235.441 177.416C235.868 177.416 236.241 177.565 236.561 177.864C236.903 178.141 237.073 178.589 237.073 179.208C237.073 179.805 236.903 180.253 236.561 180.552C236.241 180.851 235.868 181 235.441 181C234.972 181 234.577 180.851 234.257 180.552C233.937 180.253 233.777 179.805 233.777 179.208C233.777 178.589 233.937 178.141 234.257 177.864C234.577 177.565 234.972 177.416 235.441 177.416ZM236.817 183.848V201H234.001V183.848H236.817ZM247.979 199.016C248.406 199.016 248.843 198.984 249.291 198.92C249.739 198.835 250.102 198.749 250.379 198.664V200.808C250.081 200.957 249.654 201.075 249.099 201.16C248.545 201.267 248.011 201.32 247.499 201.32C246.603 201.32 245.771 201.171 245.003 200.872C244.257 200.552 243.649 200.008 243.179 199.24C242.71 198.472 242.475 197.395 242.475 196.008V186.024H240.043V184.68L242.507 183.56L243.627 179.912H245.291V183.848H250.251V186.024H245.291V195.944C245.291 196.989 245.537 197.768 246.027 198.28C246.539 198.771 247.19 199.016 247.979 199.016ZM260.31 183.56C262.4 183.56 263.947 184.019 264.95 184.936C265.952 185.853 266.454 187.315 266.454 189.32V201H264.406L263.862 198.568H263.734C262.987 199.507 262.198 200.2 261.366 200.648C260.555 201.096 259.424 201.32 257.974 201.32C256.416 201.32 255.126 200.915 254.102 200.104C253.078 199.272 252.566 197.981 252.566 196.232C252.566 194.525 253.238 193.213 254.582 192.296C255.926 191.357 257.995 190.845 260.79 190.76L263.702 190.664V189.64C263.702 188.211 263.392 187.219 262.774 186.664C262.155 186.109 261.28 185.832 260.15 185.832C259.254 185.832 258.4 185.971 257.59 186.248C256.779 186.504 256.022 186.803 255.318 187.144L254.454 185.032C255.2 184.627 256.086 184.285 257.11 184.008C258.134 183.709 259.2 183.56 260.31 183.56ZM261.142 192.712C259.008 192.797 257.526 193.139 256.694 193.736C255.883 194.333 255.478 195.176 255.478 196.264C255.478 197.224 255.766 197.928 256.342 198.376C256.939 198.824 257.696 199.048 258.614 199.048C260.064 199.048 261.27 198.653 262.23 197.864C263.19 197.053 263.67 195.816 263.67 194.152V192.616L261.142 192.712ZM282.88 182.6C282.88 183.325 282.858 184.008 282.816 184.648C282.794 185.267 282.762 185.757 282.72 186.12H282.88C283.37 185.395 284.042 184.787 284.896 184.296C285.749 183.805 286.848 183.56 288.192 183.56C290.325 183.56 292.032 184.307 293.312 185.8C294.613 187.272 295.264 189.48 295.264 192.424C295.264 195.368 294.613 197.587 293.312 199.08C292.01 200.573 290.304 201.32 288.192 201.32C286.848 201.32 285.749 201.075 284.896 200.584C284.042 200.093 283.37 199.507 282.88 198.824H282.656L282.08 201H280.064V176.68H282.88V182.6ZM287.712 185.896C285.898 185.896 284.64 186.419 283.936 187.464C283.232 188.509 282.88 190.131 282.88 192.328V192.456C282.88 194.568 283.221 196.189 283.904 197.32C284.608 198.429 285.898 198.984 287.776 198.984C289.312 198.984 290.453 198.419 291.2 197.288C291.968 196.157 292.352 194.525 292.352 192.392C292.352 188.061 290.805 185.896 287.712 185.896ZM301.191 177.416C301.618 177.416 301.991 177.565 302.311 177.864C302.653 178.141 302.823 178.589 302.823 179.208C302.823 179.805 302.653 180.253 302.311 180.552C301.991 180.851 301.618 181 301.191 181C300.722 181 300.327 180.851 300.007 180.552C299.687 180.253 299.527 179.805 299.527 179.208C299.527 178.589 299.687 178.141 300.007 177.864C300.327 177.565 300.722 177.416 301.191 177.416ZM302.567 183.848V201H299.751V183.848H302.567ZM319.169 196.264C319.169 197.928 318.551 199.187 317.313 200.04C316.076 200.893 314.412 201.32 312.321 201.32C311.127 201.32 310.092 201.224 309.217 201.032C308.364 200.84 307.607 200.573 306.945 200.232V197.672C307.628 198.013 308.449 198.333 309.409 198.632C310.391 198.909 311.383 199.048 312.385 199.048C313.815 199.048 314.849 198.824 315.489 198.376C316.129 197.907 316.449 197.288 316.449 196.52C316.449 196.093 316.332 195.709 316.097 195.368C315.863 195.027 315.436 194.685 314.817 194.344C314.22 194.003 313.356 193.619 312.225 193.192C311.116 192.765 310.167 192.339 309.377 191.912C308.588 191.485 307.98 190.973 307.553 190.376C307.127 189.779 306.913 189.011 306.913 188.072C306.913 186.621 307.5 185.501 308.673 184.712C309.868 183.923 311.425 183.528 313.345 183.528C314.391 183.528 315.361 183.635 316.257 183.848C317.175 184.04 318.028 184.317 318.817 184.68L317.857 186.92C317.132 186.621 316.375 186.365 315.585 186.152C314.796 185.939 313.985 185.832 313.153 185.832C312.001 185.832 311.116 186.024 310.497 186.408C309.9 186.771 309.601 187.272 309.601 187.912C309.601 188.381 309.74 188.787 310.017 189.128C310.295 189.448 310.753 189.768 311.393 190.088C312.055 190.387 312.929 190.749 314.017 191.176C315.105 191.581 316.033 191.997 316.801 192.424C317.569 192.851 318.156 193.373 318.561 193.992C318.967 194.589 319.169 195.347 319.169 196.264ZM329.81 183.56C331.9 183.56 333.447 184.019 334.45 184.936C335.452 185.853 335.954 187.315 335.954 189.32V201H333.906L333.362 198.568H333.234C332.487 199.507 331.698 200.2 330.866 200.648C330.055 201.096 328.924 201.32 327.474 201.32C325.916 201.32 324.626 200.915 323.602 200.104C322.578 199.272 322.066 197.981 322.066 196.232C322.066 194.525 322.738 193.213 324.082 192.296C325.426 191.357 327.495 190.845 330.29 190.76L333.202 190.664V189.64C333.202 188.211 332.892 187.219 332.274 186.664C331.655 186.109 330.78 185.832 329.65 185.832C328.754 185.832 327.9 185.971 327.09 186.248C326.279 186.504 325.522 186.803 324.818 187.144L323.954 185.032C324.7 184.627 325.586 184.285 326.61 184.008C327.634 183.709 328.7 183.56 329.81 183.56ZM330.642 192.712C328.508 192.797 327.026 193.139 326.194 193.736C325.383 194.333 324.978 195.176 324.978 196.264C324.978 197.224 325.266 197.928 325.842 198.376C326.439 198.824 327.196 199.048 328.114 199.048C329.564 199.048 330.77 198.653 331.73 197.864C332.69 197.053 333.17 195.816 333.17 194.152V192.616L330.642 192.712ZM368.38 183.528C370.321 183.528 371.772 184.029 372.732 185.032C373.692 186.013 374.172 187.613 374.172 189.832V201H371.388V189.96C371.388 187.251 370.225 185.896 367.9 185.896C366.236 185.896 365.041 186.376 364.316 187.336C363.612 188.296 363.26 189.693 363.26 191.528V201H360.476V189.96C360.476 187.251 359.302 185.896 356.956 185.896C355.228 185.896 354.033 186.429 353.372 187.496C352.71 188.563 352.38 190.099 352.38 192.104V201H349.564V183.848H351.836L352.252 186.184H352.412C352.945 185.288 353.66 184.627 354.556 184.2C355.473 183.752 356.444 183.528 357.468 183.528C360.156 183.528 361.905 184.488 362.716 186.408H362.876C363.452 185.427 364.23 184.701 365.212 184.232C366.214 183.763 367.27 183.528 368.38 183.528ZM386.094 183.528C387.566 183.528 388.825 183.848 389.87 184.488C390.937 185.128 391.747 186.035 392.302 187.208C392.878 188.36 393.166 189.715 393.166 191.272V192.968H381.422C381.465 194.909 381.955 196.392 382.894 197.416C383.854 198.419 385.187 198.92 386.894 198.92C387.982 198.92 388.942 198.824 389.774 198.632C390.627 198.419 391.502 198.12 392.398 197.736V200.2C391.523 200.584 390.659 200.861 389.806 201.032C388.953 201.224 387.939 201.32 386.766 201.32C385.145 201.32 383.705 200.989 382.446 200.328C381.209 199.667 380.238 198.685 379.534 197.384C378.851 196.061 378.51 194.451 378.51 192.552C378.51 190.675 378.819 189.064 379.438 187.72C380.078 186.376 380.963 185.341 382.094 184.616C383.246 183.891 384.579 183.528 386.094 183.528ZM386.062 185.832C384.718 185.832 383.651 186.269 382.862 187.144C382.094 187.997 381.635 189.192 381.486 190.728H390.222C390.201 189.277 389.859 188.104 389.198 187.208C388.537 186.291 387.491 185.832 386.062 185.832ZM405.789 183.528C407.837 183.528 409.383 184.029 410.429 185.032C411.474 186.013 411.997 187.613 411.997 189.832V201H409.213V190.024C409.213 187.272 407.933 185.896 405.373 185.896C403.474 185.896 402.162 186.429 401.437 187.496C400.711 188.563 400.349 190.099 400.349 192.104V201H397.533V183.848H399.805L400.221 186.184H400.381C400.935 185.288 401.703 184.627 402.685 184.2C403.666 183.752 404.701 183.528 405.789 183.528ZM423.938 183.528C425.41 183.528 426.668 183.848 427.714 184.488C428.78 185.128 429.591 186.035 430.146 187.208C430.722 188.36 431.01 189.715 431.01 191.272V192.968H419.266C419.308 194.909 419.799 196.392 420.738 197.416C421.698 198.419 423.031 198.92 424.738 198.92C425.826 198.92 426.786 198.824 427.618 198.632C428.471 198.419 429.346 198.12 430.242 197.736V200.2C429.367 200.584 428.503 200.861 427.65 201.032C426.796 201.224 425.783 201.32 424.61 201.32C422.988 201.32 421.548 200.989 420.29 200.328C419.052 199.667 418.082 198.685 417.378 197.384C416.695 196.061 416.354 194.451 416.354 192.552C416.354 190.675 416.663 189.064 417.282 187.72C417.922 186.376 418.807 185.341 419.938 184.616C421.09 183.891 422.423 183.528 423.938 183.528ZM423.906 185.832C422.562 185.832 421.495 186.269 420.706 187.144C419.938 187.997 419.479 189.192 419.33 190.728H428.066C428.044 189.277 427.703 188.104 427.042 187.208C426.38 186.291 425.335 185.832 423.906 185.832ZM443.376 183.528C443.696 183.528 444.038 183.549 444.4 183.592C444.784 183.613 445.115 183.656 445.392 183.72L445.04 186.312C444.763 186.248 444.454 186.195 444.112 186.152C443.792 186.109 443.483 186.088 443.184 186.088C442.31 186.088 441.488 186.333 440.72 186.824C439.952 187.293 439.334 187.965 438.864 188.84C438.416 189.693 438.192 190.696 438.192 191.848V201H435.376V183.848H437.68L438 186.984H438.128C438.683 186.045 439.398 185.235 440.272 184.552C441.147 183.869 442.182 183.528 443.376 183.528ZM450.035 177.416C450.462 177.416 450.835 177.565 451.155 177.864C451.496 178.141 451.667 178.589 451.667 179.208C451.667 179.805 451.496 180.253 451.155 180.552C450.835 180.851 450.462 181 450.035 181C449.566 181 449.171 180.851 448.851 180.552C448.531 180.253 448.371 179.805 448.371 179.208C448.371 178.589 448.531 178.141 448.851 177.864C449.171 177.565 449.566 177.416 450.035 177.416ZM451.411 183.848V201H448.595V183.848H451.411ZM475.661 183.528C477.602 183.528 479.053 184.029 480.013 185.032C480.973 186.013 481.453 187.613 481.453 189.832V201H478.669V189.96C478.669 187.251 477.506 185.896 475.181 185.896C473.517 185.896 472.322 186.376 471.597 187.336C470.893 188.296 470.541 189.693 470.541 191.528V201H467.757V189.96C467.757 187.251 466.584 185.896 464.237 185.896C462.509 185.896 461.314 186.429 460.653 187.496C459.992 188.563 459.661 190.099 459.661 192.104V201H456.845V183.848H459.117L459.533 186.184H459.693C460.226 185.288 460.941 184.627 461.837 184.2C462.754 183.752 463.725 183.528 464.749 183.528C467.437 183.528 469.186 184.488 469.997 186.408H470.157C470.733 185.427 471.512 184.701 472.493 184.232C473.496 183.763 474.552 183.528 475.661 183.528ZM493.247 183.56C495.338 183.56 496.885 184.019 497.887 184.936C498.89 185.853 499.391 187.315 499.391 189.32V201H497.343L496.799 198.568H496.671C495.925 199.507 495.135 200.2 494.303 200.648C493.493 201.096 492.362 201.32 490.911 201.32C489.354 201.32 488.063 200.915 487.039 200.104C486.015 199.272 485.503 197.981 485.503 196.232C485.503 194.525 486.175 193.213 487.519 192.296C488.863 191.357 490.933 190.845 493.727 190.76L496.639 190.664V189.64C496.639 188.211 496.33 187.219 495.711 186.664C495.093 186.109 494.218 185.832 493.087 185.832C492.191 185.832 491.338 185.971 490.527 186.248C489.717 186.504 488.959 186.803 488.255 187.144L487.391 185.032C488.138 184.627 489.023 184.285 490.047 184.008C491.071 183.709 492.138 183.56 493.247 183.56ZM494.079 192.712C491.946 192.797 490.463 193.139 489.631 193.736C488.821 194.333 488.415 195.176 488.415 196.264C488.415 197.224 488.703 197.928 489.279 198.376C489.877 198.824 490.634 199.048 491.551 199.048C493.002 199.048 494.207 198.653 495.167 197.864C496.127 197.053 496.607 195.816 496.607 194.152V192.616L494.079 192.712ZM106.888 240.264C106.888 241.928 106.269 243.187 105.032 244.04C103.795 244.893 102.131 245.32 100.04 245.32C98.8453 245.32 97.8107 245.224 96.936 245.032C96.0827 244.84 95.3253 244.573 94.664 244.232V241.672C95.3467 242.013 96.168 242.333 97.128 242.632C98.1093 242.909 99.1013 243.048 100.104 243.048C101.533 243.048 102.568 242.824 103.208 242.376C103.848 241.907 104.168 241.288 104.168 240.52C104.168 240.093 104.051 239.709 103.816 239.368C103.581 239.027 103.155 238.685 102.536 238.344C101.939 238.003 101.075 237.619 99.944 237.192C98.8347 236.765 97.8853 236.339 97.096 235.912C96.3067 235.485 95.6987 234.973 95.272 234.376C94.8453 233.779 94.632 233.011 94.632 232.072C94.632 230.621 95.2187 229.501 96.392 228.712C97.5867 227.923 99.144 227.528 101.064 227.528C102.109 227.528 103.08 227.635 103.976 227.848C104.893 228.04 105.747 228.317 106.536 228.68L105.576 230.92C104.851 230.621 104.093 230.365 103.304 230.152C102.515 229.939 101.704 229.832 100.872 229.832C99.72 229.832 98.8347 230.024 98.216 230.408C97.6187 230.771 97.32 231.272 97.32 231.912C97.32 232.381 97.4587 232.787 97.736 233.128C98.0133 233.448 98.472 233.768 99.112 234.088C99.7733 234.387 100.648 234.749 101.736 235.176C102.824 235.581 103.752 235.997 104.52 236.424C105.288 236.851 105.875 237.373 106.28 237.992C106.685 238.589 106.888 239.347 106.888 240.264ZM117.657 227.528C119.129 227.528 120.387 227.848 121.433 228.488C122.499 229.128 123.31 230.035 123.865 231.208C124.441 232.36 124.729 233.715 124.729 235.272V236.968H112.985C113.027 238.909 113.518 240.392 114.457 241.416C115.417 242.419 116.75 242.92 118.457 242.92C119.545 242.92 120.505 242.824 121.337 242.632C122.19 242.419 123.065 242.12 123.961 241.736V244.2C123.086 244.584 122.222 244.861 121.369 245.032C120.515 245.224 119.502 245.32 118.329 245.32C116.707 245.32 115.267 244.989 114.009 244.328C112.771 243.667 111.801 242.685 111.097 241.384C110.414 240.061 110.073 238.451 110.073 236.552C110.073 234.675 110.382 233.064 111.001 231.72C111.641 230.376 112.526 229.341 113.657 228.616C114.809 227.891 116.142 227.528 117.657 227.528ZM117.625 229.832C116.281 229.832 115.214 230.269 114.425 231.144C113.657 231.997 113.198 233.192 113.049 234.728H121.785C121.763 233.277 121.422 232.104 120.761 231.208C120.099 230.291 119.054 229.832 117.625 229.832ZM131.911 245H129.095V220.68H131.911V245ZM151.681 227.848V245H149.377L148.961 242.728H148.833C148.278 243.624 147.51 244.285 146.529 244.712C145.548 245.117 144.502 245.32 143.393 245.32C141.324 245.32 139.766 244.829 138.721 243.848C137.676 242.845 137.153 241.256 137.153 239.08V227.848H140.001V238.888C140.001 241.619 141.27 242.984 143.809 242.984C145.708 242.984 147.02 242.451 147.745 241.384C148.492 240.317 148.865 238.781 148.865 236.776V227.848H151.681ZM165.126 227.528C165.446 227.528 165.788 227.549 166.15 227.592C166.534 227.613 166.865 227.656 167.142 227.72L166.79 230.312C166.513 230.248 166.204 230.195 165.862 230.152C165.542 230.109 165.233 230.088 164.934 230.088C164.06 230.088 163.238 230.333 162.47 230.824C161.702 231.293 161.084 231.965 160.614 232.84C160.166 233.693 159.942 234.696 159.942 235.848V245H157.126V227.848H159.43L159.75 230.984H159.878C160.433 230.045 161.148 229.235 162.022 228.552C162.897 227.869 163.932 227.528 165.126 227.528ZM184.681 227.848V245H182.377L181.961 242.728H181.833C181.278 243.624 180.51 244.285 179.529 244.712C178.548 245.117 177.502 245.32 176.393 245.32C174.324 245.32 172.766 244.829 171.721 243.848C170.676 242.845 170.153 241.256 170.153 239.08V227.848H173.001V238.888C173.001 241.619 174.27 242.984 176.809 242.984C178.708 242.984 180.02 242.451 180.745 241.384C181.492 240.317 181.865 238.781 181.865 236.776V227.848H184.681ZM192.942 227.816C192.942 228.669 192.889 229.469 192.782 230.216H192.974C193.529 229.341 194.276 228.68 195.214 228.232C196.174 227.784 197.209 227.56 198.318 227.56C200.409 227.56 201.977 228.061 203.022 229.064C204.068 230.045 204.59 231.635 204.59 233.832V245H201.806V234.024C201.806 231.272 200.526 229.896 197.966 229.896C196.046 229.896 194.724 230.44 193.998 231.528C193.294 232.595 192.942 234.131 192.942 236.136V245H190.126V220.68H192.942V227.816ZM218.164 227.528C220.212 227.528 221.758 228.029 222.804 229.032C223.849 230.013 224.372 231.613 224.372 233.832V245H221.588V234.024C221.588 231.272 220.308 229.896 217.748 229.896C215.849 229.896 214.537 230.429 213.812 231.496C213.086 232.563 212.724 234.099 212.724 236.104V245H209.908V227.848H212.18L212.596 230.184H212.756C213.31 229.288 214.078 228.627 215.06 228.2C216.041 227.752 217.076 227.528 218.164 227.528ZM227.001 227.848H230.009L233.721 237.608C234.041 238.461 234.329 239.283 234.585 240.072C234.841 240.84 235.033 241.576 235.161 242.28H235.289C235.417 241.747 235.619 241.053 235.897 240.2C236.174 239.325 236.462 238.451 236.761 237.576L240.249 227.848H243.289L235.897 247.368C235.299 248.989 234.521 250.28 233.561 251.24C232.622 252.2 231.321 252.68 229.657 252.68C229.145 252.68 228.697 252.648 228.313 252.584C227.929 252.541 227.598 252.488 227.321 252.424V250.184C227.555 250.227 227.833 250.269 228.153 250.312C228.494 250.355 228.846 250.376 229.209 250.376C230.19 250.376 230.979 250.099 231.577 249.544C232.195 248.989 232.675 248.253 233.017 247.336L233.913 245.064L227.001 227.848ZM252.497 227.56C254.588 227.56 256.135 228.019 257.137 228.936C258.14 229.853 258.641 231.315 258.641 233.32V245H256.593L256.049 242.568H255.921C255.175 243.507 254.385 244.2 253.553 244.648C252.743 245.096 251.612 245.32 250.161 245.32C248.604 245.32 247.313 244.915 246.289 244.104C245.265 243.272 244.753 241.981 244.753 240.232C244.753 238.525 245.425 237.213 246.769 236.296C248.113 235.357 250.183 234.845 252.977 234.76L255.889 234.664V233.64C255.889 232.211 255.58 231.219 254.961 230.664C254.343 230.109 253.468 229.832 252.337 229.832C251.441 229.832 250.588 229.971 249.777 230.248C248.967 230.504 248.209 230.803 247.505 231.144L246.641 229.032C247.388 228.627 248.273 228.285 249.297 228.008C250.321 227.709 251.388 227.56 252.497 227.56ZM253.329 236.712C251.196 236.797 249.713 237.139 248.881 237.736C248.071 238.333 247.665 239.176 247.665 240.264C247.665 241.224 247.953 241.928 248.529 242.376C249.127 242.824 249.884 243.048 250.801 243.048C252.252 243.048 253.457 242.653 254.417 241.864C255.377 241.053 255.857 239.816 255.857 238.152V236.616L253.329 236.712ZM265.699 237.704C265.699 236.893 265.773 236.2 265.923 235.624C266.093 235.027 266.371 234.461 266.755 233.928C267.16 233.395 267.704 232.84 268.387 232.264C269.219 231.56 269.859 230.973 270.307 230.504C270.776 230.035 271.107 229.576 271.299 229.128C271.491 228.68 271.587 228.136 271.587 227.496C271.587 226.472 271.256 225.683 270.595 225.128C269.933 224.573 268.973 224.296 267.715 224.296C266.669 224.296 265.741 224.435 264.931 224.712C264.12 224.968 263.341 225.277 262.595 225.64L261.603 223.4C262.456 222.952 263.395 222.579 264.419 222.28C265.464 221.981 266.627 221.832 267.907 221.832C269.933 221.832 271.501 222.333 272.611 223.336C273.72 224.339 274.275 225.704 274.275 227.432C274.275 228.392 274.115 229.213 273.795 229.896C273.496 230.557 273.059 231.176 272.483 231.752C271.928 232.307 271.267 232.904 270.499 233.544C269.795 234.141 269.251 234.664 268.867 235.112C268.504 235.56 268.259 236.008 268.131 236.456C268.003 236.883 267.939 237.405 267.939 238.024V238.568H265.699V237.704ZM264.963 243.272C264.963 242.483 265.144 241.928 265.507 241.608C265.891 241.288 266.371 241.128 266.947 241.128C267.48 241.128 267.939 241.288 268.323 241.608C268.707 241.928 268.899 242.483 268.899 243.272C268.899 244.04 268.707 244.595 268.323 244.936C267.939 245.277 267.48 245.448 266.947 245.448C266.371 245.448 265.891 245.277 265.507 244.936C265.144 244.595 264.963 244.04 264.963 243.272Z" fill="black"/>
<mask id="mask0_128:1247" style="mask-type:alpha" maskUnits="userSpaceOnUse" x="32" y="8" width="757" height="454">
<rect x="32" y="8" width="757" height="454" rx="12" fill="white"/>
</mask>
<g mask="url(#mask0_128:1247)">
<path d="M560.456 155.11C560.456 155.11 562.216 157.17 559.2 161.157C556.185 165.144 558.62 173.794 564.349 174.015C570.077 174.235 572.856 176.687 571.474 179.916C570.093 183.145 568.434 190.818 574.673 189.651C580.912 188.484 582.884 191.022 581.779 192.972C580.674 194.922 584.561 189.094 584.561 189.094C584.561 189.094 588.038 194.385 592.305 190.681C596.572 186.977 598.269 153.399 589.569 152.83C580.87 152.261 560.456 155.11 560.456 155.11Z" fill="#2F2E41"/>
<path d="M603.931 311.837L605.9 326.052H614.762L611.808 309.806L603.931 311.837Z" fill="#9F616A"/>
<path d="M616.003 316.575C616.003 316.575 628.141 327.749 625.107 328.765C622.072 329.781 610.945 341.972 608.922 342.988C607.112 343.896 587.679 350.099 590.714 342.988C593.749 335.877 600.829 331.813 600.829 331.813L602.853 319.622L616.003 316.575Z" fill="#A8A8A8"/>
<path d="M616.117 301.006L618.087 315.222H626.948L623.995 298.976L616.117 301.006Z" fill="#9F616A"/>
<path d="M578.208 263.966L591.637 221.179C591.637 221.179 569.096 201.434 584.465 195.51C599.834 189.586 603.932 219.205 603.932 219.205L598.809 270.544H578.317L578.208 263.966Z" fill="#FFB8B8"/>
<path d="M609.007 232.635C609.007 232.635 582.76 265.371 586.743 270.235C590.727 275.099 597.836 304.725 597.836 304.725C597.836 304.725 596.82 316.576 600.882 316.576C604.944 316.576 615.1 314.601 615.1 311.638C615.1 308.676 605.96 271.149 605.96 271.149L632.364 237.573L609.007 232.635Z" fill="#65BA2C"/>
<path d="M610.618 234.471L636.271 220.449C636.271 220.449 654.031 229.464 649.098 237.476C644.164 245.489 621.471 266.522 621.471 266.522C621.471 266.522 628.378 300.576 627.391 301.578C626.405 302.58 615.551 306.586 612.591 305.584C609.631 304.583 593.845 265.521 597.792 263.518C601.738 261.514 614.565 240.481 614.565 240.481L610.618 234.471Z" fill="#65BA2C"/>
<path d="M541.76 402.913C541.76 402.913 544.715 417.755 549.64 428.64C554.566 439.525 548.655 490.979 545.7 498.895C542.745 506.811 514.178 600.815 523.044 601.804C531.909 602.794 549.64 601.804 549.64 601.804L578.207 511.759L573.282 391.039L541.76 402.913Z" fill="#575A88"/>
<path opacity="0.1" d="M541.76 402.913C541.76 402.913 544.715 417.755 549.64 428.64C554.566 439.525 548.655 490.979 545.7 498.895C542.745 506.811 514.178 600.815 523.044 601.804C531.909 602.794 549.64 601.804 549.64 601.804L578.207 511.759L573.282 391.039L541.76 402.913Z" fill="black"/>
<path d="M547.636 402.996C547.636 402.996 551.584 429.687 560.466 435.618C569.348 441.549 566.388 447.48 566.388 447.48L562.44 499.874C562.44 499.874 523.951 594.775 535.794 606.637C547.636 618.5 558.492 613.557 563.427 612.569C568.361 611.58 577.244 590.821 572.309 584.889C567.375 578.958 582.178 543.37 586.126 537.439C590.073 531.507 586.126 523.599 591.06 521.622C595.995 519.645 606.851 506.794 606.851 497.897C606.851 489 620.667 394.099 611.785 388.167C602.903 382.236 545.969 400.409 545.969 400.409L547.636 402.996Z" fill="#575A88"/>
<path d="M528.79 265.127C541.128 265.127 551.129 255.126 551.129 242.788C551.129 230.451 541.128 220.449 528.79 220.449C516.453 220.449 506.451 230.451 506.451 242.788C506.451 255.126 516.453 265.127 528.79 265.127Z" fill="#FFB8B8"/>
<path d="M578.208 181.187C587.928 181.187 595.808 173.307 595.808 163.586C595.808 153.866 587.928 145.986 578.208 145.986C568.487 145.986 560.607 153.866 560.607 163.586C560.607 173.307 568.487 181.187 578.208 181.187Z" fill="#9F616A"/>
<path d="M543.361 243.465C543.361 243.465 555.238 264.646 561.176 264.646C567.115 264.646 537.423 286.79 537.423 286.79C537.423 286.79 527.525 258.87 525.546 257.907C523.566 256.944 543.361 243.465 543.361 243.465Z" fill="#FFB8B8"/>
<path d="M547.638 262.916C547.638 262.916 521.975 271.785 522.962 274.741C523.949 277.698 516.053 284.596 516.053 287.552C516.053 290.508 514.079 317.115 525.923 338.794C537.767 360.473 556.521 376.24 547.638 386.094C538.754 395.948 524.936 412.7 539.741 412.7C554.547 412.7 578.236 391.021 599.95 398.904C621.665 406.788 616.73 377.225 616.73 377.225C616.73 377.225 619.691 354.56 613.769 347.663C607.847 340.765 587.119 291.494 587.119 285.581C587.119 279.669 567.378 257.004 562.443 257.004C557.508 257.004 547.638 262.916 547.638 262.916Z" fill="#8985A8"/>
<path d="M583.624 174.697C583.624 174.697 591.772 190.334 592.201 193.12C592.63 195.906 606.64 174.697 606.64 174.697L590.628 163.587L583.624 174.697Z" fill="#9F616A"/>
<path d="M585.864 186.757L603.005 169.002L623.171 177.88C623.171 177.88 641.978 218.322 643.162 221.281C644.345 224.24 613.088 238.05 610.063 238.05C607.038 238.05 585.864 207.472 585.864 207.472C585.864 207.472 580.823 192.676 585.864 186.757Z" fill="#CCCCCC"/>
<path d="M578.208 209.619V228.573H590.393L586.386 209.619H578.208Z" fill="#9F616A"/>
<path d="M585.334 223.158C583.875 223.138 582.443 223.578 581.232 224.419C580.02 225.261 579.086 226.464 578.553 227.868C577.8 229.971 578.056 232.181 581.631 233.105C589.332 235.094 590.295 233.105 590.295 233.105C590.295 233.105 603.664 231.115 600.83 227.137C597.996 223.158 590.295 223.158 590.295 223.158H585.334Z" fill="#9F616A"/>
<path d="M628.187 309.806C628.187 309.806 640.326 320.472 637.291 321.442C634.256 322.412 623.129 334.048 621.106 335.018C619.297 335.885 599.864 341.806 602.898 335.018C605.933 328.23 613.014 324.351 613.014 324.351L615.037 312.715L628.187 309.806Z" fill="#CCCCCC"/>
<path d="M520.914 225.634C522.302 224.828 523.941 223.823 523.981 222.228C523.945 221.642 523.737 221.079 523.383 220.609C523.029 220.138 522.544 219.78 521.988 219.579C520.869 219.196 519.684 219.038 518.503 219.114C518.05 219.091 517.596 219.135 517.156 219.246C516.008 219.597 515.346 220.754 514.442 221.539C513.128 222.679 511.319 223.014 509.63 223.449C506.8 224.177 504.085 225.293 501.565 226.764C501.068 227.014 500.632 227.369 500.289 227.806C499.892 228.609 499.715 229.502 499.776 230.395C499.548 233.788 497.497 236.742 495.966 239.785C494.435 242.828 493.429 246.618 495.227 249.515C495.94 250.416 496.605 251.353 497.221 252.323C498.494 254.956 496.905 258.197 497.825 260.971C498.237 262.063 498.897 263.045 499.755 263.842C501.526 265.611 503.707 266.921 506.108 267.658C508.399 268.358 511.242 268.824 512.139 271.029C512.524 271.975 512.446 273.09 512.989 273.956C513.661 275.029 515.048 275.376 516.301 275.605C517.708 275.924 519.155 276.028 520.593 275.913C521.312 275.851 522.011 275.645 522.647 275.307C523.284 274.969 523.844 274.507 524.295 273.947C524.701 273.158 525.204 272.421 525.793 271.754C527.253 270.544 529.471 271.5 531.346 271.179C532.105 271.037 532.808 270.683 533.372 270.158C533.936 269.633 534.337 268.96 534.528 268.217C534.579 267.425 534.799 266.653 535.174 265.952C536.338 264.474 539.401 265.518 540.17 263.804C540.67 262.69 539.625 261.514 538.614 260.82C536.967 259.69 535.125 258.82 533.647 257.478C532.169 256.136 531.076 254.128 531.538 252.194C532.232 249.294 536.049 247.698 536.175 244.72C536.248 243.014 535.012 241.517 533.629 240.501C532.245 239.485 530.642 238.755 529.405 237.568C528.501 236.7 527.82 235.61 526.837 234.831C525.06 233.421 522.628 233.25 520.365 233.02C519.151 232.896 514.308 232.34 514.499 230.505C514.657 228.982 519.682 226.351 520.914 225.634Z" fill="#2F2E41"/>
<path d="M586.304 185.249C586.304 185.249 575.063 189.22 575.063 194.185C575.063 199.149 569.953 215.034 575.063 215.034C580.172 215.034 590.392 211.223 590.392 211.223L586.304 185.249Z" fill="#CCCCCC"/>
<path d="M583.066 256.937C583.066 256.937 612.082 247.006 613.082 247.006C614.083 247.006 628.091 239.061 627.09 236.081L623.088 211.253C623.088 211.253 607.079 178.479 618.085 178.479C629.091 178.479 635.095 204.301 635.095 204.301C635.095 204.301 659.108 248.992 646.101 258.923C633.094 268.855 579.063 286.731 576.062 283.752C573.06 280.772 583.066 256.937 583.066 256.937Z" fill="#FFB8B8"/>
<path d="M611.297 192.397L617.902 198.991L609.339 207.603C609.339 207.603 597.595 202.535 598.574 205.576C599.553 208.617 605.425 217.741 609.339 217.741C613.254 217.741 633.628 204.562 633.717 200.507C633.806 196.452 621.083 182.26 618.147 181.246C615.211 180.232 611.297 192.397 611.297 192.397Z" fill="#9F616A"/>
<path d="M598.516 185.688C598.516 185.688 612.769 198.788 614.709 198.788C616.65 198.788 620.178 179.106 620.178 179.106C620.178 179.106 608.678 171.305 604.418 173.432C600.158 175.559 598.516 185.688 598.516 185.688Z" fill="#CCCCCC"/>
<path d="M547.069 268.392C547.069 268.392 547.069 254.297 577.295 254.297H590.393L584.348 287.52L564.197 293.56L547.069 268.392Z" fill="#8985A8"/>
<path d="M612.49 156.509C609.6 156.495 606.713 156.312 603.843 155.962C601.589 150.378 598.718 145.692 595.613 143.945C593.409 141.923 590.009 140.453 587.342 139.291C580.792 136.438 569.889 138.218 569.252 141.462C556.363 147.777 559.62 158.865 559.62 158.865C561.623 163.206 566.116 161.282 569.927 159.317C570.9 162.463 573.199 165.133 576.491 165.26C582.785 165.503 585.837 168.206 584.319 171.766C582.802 175.326 580.979 183.786 587.833 182.5C594.687 181.214 596.854 184.011 595.64 186.162C594.427 188.312 598.697 181.885 598.697 181.885C598.697 181.885 602.516 187.72 607.204 183.636C607.678 183.167 608.016 182.574 608.181 181.92C610.361 182.882 612.088 183.247 613.068 182.798C618.684 180.222 615.196 174.172 615.196 174.172C615.196 174.172 622.693 172.993 620.277 173.189C617.862 173.384 616.334 170.174 620.421 164.388C624.508 158.601 616.277 156.64 612.49 156.509Z" fill="#2F2E41"/>
<path d="M574.247 151.943L571.428 151.005L568.614 159.462L571.433 160.4L574.247 151.943Z" fill="#65BA2C"/>
<path d="M377.852 383.453C339.344 383.631 308 384.201 308 384.201C308 384.201 345.257 334.75 377.712 353.071C410.167 371.393 447.45 383.557 447.45 383.557C447.45 383.557 416.36 383.275 377.852 383.453Z" fill="#E4E4E4"/>
<path d="M743.852 193.453C705.344 193.631 674 194.201 674 194.201C674 194.201 711.257 144.75 743.712 163.071C776.167 181.393 813.45 193.557 813.45 193.557C813.45 193.557 782.36 193.275 743.852 193.453Z" fill="#E4E4E4"/>
<path d="M739.869 323.951C778.377 324.129 809.721 324.699 809.721 324.699C809.721 324.699 772.464 275.248 740.009 293.569C707.554 311.891 670.271 324.055 670.271 324.055C670.271 324.055 701.361 323.773 739.869 323.951Z" fill="#E4E4E4"/>
</g>
<defs>
<filter id="filter0_dddd_128:1247" x="0" y="0" width="821" height="518" filterUnits="userSpaceOnUse" color-interpolation-filters="sRGB">
<feFlood flood-opacity="0" result="BackgroundImageFix"/>
<feColorMatrix in="SourceAlpha" type="matrix" values="0 0 0 0 0 0 0 0 0 0 0 0 0 0 0 0 0 0 127 0" result="hardAlpha"/>
<feOffset/>
<feGaussianBlur stdDeviation="0.5"/>
<feColorMatrix type="matrix" values="0 0 0 0 0 0 0 0 0 0 0 0 0 0 0 0 0 0 0.04 0"/>
<feBlend mode="normal" in2="BackgroundImageFix" result="effect1_dropShadow_128:1247"/>
<feColorMatrix in="SourceAlpha" type="matrix" values="0 0 0 0 0 0 0 0 0 0 0 0 0 0 0 0 0 0 127 0" result="hardAlpha"/>
<feOffset dy="4"/>
<feGaussianBlur stdDeviation="4"/>
<feColorMatrix type="matrix" values="0 0 0 0 0 0 0 0 0 0 0 0 0 0 0 0 0 0 0.04 0"/>
<feBlend mode="normal" in2="effect1_dropShadow_128:1247" result="effect2_dropShadow_128:1247"/>
<feColorMatrix in="SourceAlpha" type="matrix" values="0 0 0 0 0 0 0 0 0 0 0 0 0 0 0 0 0 0 127 0" result="hardAlpha"/>
<feOffset dy="16"/>
<feGaussianBlur stdDeviation="12"/>
<feColorMatrix type="matrix" values="0 0 0 0 0 0 0 0 0 0 0 0 0 0 0 0 0 0 0.04 0"/>
<feBlend mode="normal" in2="effect2_dropShadow_128:1247" result="effect3_dropShadow_128:1247"/>
<feColorMatrix in="SourceAlpha" type="matrix" values="0 0 0 0 0 0 0 0 0 0 0 0 0 0 0 0 0 0 127 0" result="hardAlpha"/>
<feOffset dy="24"/>
<feGaussianBlur stdDeviation="16"/>
<feColorMatrix type="matrix" values="0 0 0 0 0 0 0 0 0 0 0 0 0 0 0 0 0 0 0.04 0"/>
<feBlend mode="normal" in2="effect3_dropShadow_128:1247" result="effect4_dropShadow_128:1247"/>
<feBlend mode="normal" in="SourceGraphic" in2="effect4_dropShadow_128:1247" result="shape"/>
</filter>
</defs>
</svg>
