<svg width="821" height="518" viewBox="0 0 821 518" fill="none" xmlns="http://www.w3.org/2000/svg">
<g filter="url(#filter0_dddd_128:1117)">
<rect x="32" y="8" width="757" height="454" rx="12" fill="#F6F6F6"/>
</g>
<path d="M101.016 95.248H87.256V85.2H127.384V95.248H113.688V130H101.016V95.248ZM159.871 121.296H140.927L137.407 130H124.479L144.255 85.2H156.735L176.575 130H163.391L159.871 121.296ZM156.159 111.952L150.399 97.616L144.639 111.952H156.159ZM222.792 85.2V130H210.12V112.528H192.84V130H180.168V85.2H192.84V102.032H210.12V85.2H222.792ZM252.402 130.896C245.746 130.896 240.562 129.083 236.85 125.456C233.181 121.829 231.346 116.688 231.346 110.032V85.2H244.018V109.648C244.018 116.816 246.855 120.4 252.53 120.4C258.162 120.4 260.978 116.816 260.978 109.648V85.2H273.458V110.032C273.458 116.688 271.602 121.829 267.89 125.456C264.221 129.083 259.058 130.896 252.402 130.896ZM341.116 130L340.988 106.256L329.468 125.584H323.836L312.38 106.896V130H300.668V85.2H311.1L326.844 111.056L342.204 85.2H352.636L352.764 130H341.116ZM391.746 121.296H372.802L369.282 130H356.354L376.13 85.2H388.61L408.45 130H395.266L391.746 121.296ZM388.034 111.952L382.274 97.616L376.514 111.952H388.034ZM412.043 85.2H424.715V119.952H446.091V130H412.043V85.2ZM471.34 130.896C464.684 130.896 459.5 129.083 455.788 125.456C452.118 121.829 450.284 116.688 450.284 110.032V85.2H462.956V109.648C462.956 116.816 465.793 120.4 471.468 120.4C477.1 120.4 479.916 116.816 479.916 109.648V85.2H492.396V110.032C492.396 116.688 490.54 121.829 486.828 125.456C483.158 129.083 477.996 130.896 471.34 130.896Z" fill="#F4C413"/>
<path d="M102.632 181.152C105.491 181.152 107.645 181.579 109.096 182.432C110.568 183.264 111.304 184.725 111.304 186.816C111.304 188.16 110.931 189.28 110.184 190.176C109.437 191.051 108.36 191.616 106.952 191.872V192.032C107.912 192.181 108.776 192.459 109.544 192.864C110.333 193.269 110.952 193.845 111.4 194.592C111.848 195.339 112.072 196.309 112.072 197.504C112.072 199.573 111.357 201.173 109.928 202.304C108.52 203.435 106.589 204 104.136 204H96.104V181.152H102.632ZM103.208 190.88C105.171 190.88 106.515 190.571 107.24 189.952C107.965 189.312 108.328 188.373 108.328 187.136C108.328 185.877 107.88 184.981 106.984 184.448C106.109 183.893 104.701 183.616 102.76 183.616H98.984V190.88H103.208ZM98.984 193.28V201.568H103.592C105.619 201.568 107.027 201.173 107.816 200.384C108.605 199.595 109 198.56 109 197.28C109 196.085 108.584 195.125 107.752 194.4C106.941 193.653 105.48 193.28 103.368 193.28H98.984ZM130.869 186.848V204H128.565L128.149 201.728H128.021C127.466 202.624 126.698 203.285 125.717 203.712C124.735 204.117 123.69 204.32 122.581 204.32C120.511 204.32 118.954 203.829 117.909 202.848C116.863 201.845 116.341 200.256 116.341 198.08V186.848H119.189V197.888C119.189 200.619 120.458 201.984 122.997 201.984C124.895 201.984 126.207 201.451 126.933 200.384C127.679 199.317 128.053 197.781 128.053 195.776V186.848H130.869ZM142.81 186.56C144.9 186.56 146.447 187.019 147.45 187.936C148.452 188.853 148.954 190.315 148.954 192.32V204H146.906L146.362 201.568H146.234C145.487 202.507 144.698 203.2 143.866 203.648C143.055 204.096 141.924 204.32 140.474 204.32C138.916 204.32 137.626 203.915 136.602 203.104C135.578 202.272 135.066 200.981 135.066 199.232C135.066 197.525 135.738 196.213 137.082 195.296C138.426 194.357 140.495 193.845 143.29 193.76L146.202 193.664V192.64C146.202 191.211 145.892 190.219 145.274 189.664C144.655 189.109 143.78 188.832 142.65 188.832C141.754 188.832 140.9 188.971 140.09 189.248C139.279 189.504 138.522 189.803 137.818 190.144L136.954 188.032C137.7 187.627 138.586 187.285 139.61 187.008C140.634 186.709 141.7 186.56 142.81 186.56ZM143.642 195.712C141.508 195.797 140.026 196.139 139.194 196.736C138.383 197.333 137.978 198.176 137.978 199.264C137.978 200.224 138.266 200.928 138.842 201.376C139.439 201.824 140.196 202.048 141.114 202.048C142.564 202.048 143.77 201.653 144.73 200.864C145.69 200.053 146.17 198.816 146.17 197.152V195.616L143.642 195.712ZM159.979 202.016C160.406 202.016 160.843 201.984 161.291 201.92C161.739 201.835 162.102 201.749 162.379 201.664V203.808C162.081 203.957 161.654 204.075 161.099 204.16C160.545 204.267 160.011 204.32 159.499 204.32C158.603 204.32 157.771 204.171 157.003 203.872C156.257 203.552 155.649 203.008 155.179 202.24C154.71 201.472 154.475 200.395 154.475 199.008V189.024H152.043V187.68L154.507 186.56L155.627 182.912H157.291V186.848H162.251V189.024H157.291V198.944C157.291 199.989 157.537 200.768 158.027 201.28C158.539 201.771 159.19 202.016 159.979 202.016ZM176.91 192.384C176.91 192.725 176.889 193.173 176.846 193.728C176.825 194.283 176.804 194.763 176.782 195.168H176.91C177.038 194.997 177.23 194.752 177.486 194.432C177.742 194.112 177.998 193.792 178.254 193.472C178.532 193.131 178.766 192.853 178.958 192.64L184.43 186.848H187.726L180.782 194.176L188.206 204H184.814L178.862 196L176.91 197.696V204H174.126V179.68H176.91V192.384ZM197.716 186.56C199.807 186.56 201.353 187.019 202.356 187.936C203.359 188.853 203.86 190.315 203.86 192.32V204H201.812L201.268 201.568H201.14C200.393 202.507 199.604 203.2 198.772 203.648C197.961 204.096 196.831 204.32 195.38 204.32C193.823 204.32 192.532 203.915 191.508 203.104C190.484 202.272 189.972 200.981 189.972 199.232C189.972 197.525 190.644 196.213 191.988 195.296C193.332 194.357 195.401 193.845 198.196 193.76L201.108 193.664V192.64C201.108 191.211 200.799 190.219 200.18 189.664C199.561 189.109 198.687 188.832 197.556 188.832C196.66 188.832 195.807 188.971 194.996 189.248C194.185 189.504 193.428 189.803 192.724 190.144L191.86 188.032C192.607 187.627 193.492 187.285 194.516 187.008C195.54 186.709 196.607 186.56 197.716 186.56ZM198.548 195.712C196.415 195.797 194.932 196.139 194.1 196.736C193.289 197.333 192.884 198.176 192.884 199.264C192.884 200.224 193.172 200.928 193.748 201.376C194.345 201.824 195.103 202.048 196.02 202.048C197.471 202.048 198.676 201.653 199.636 200.864C200.596 200.053 201.076 198.816 201.076 197.152V195.616L198.548 195.712ZM227.974 186.528C229.915 186.528 231.366 187.029 232.326 188.032C233.286 189.013 233.766 190.613 233.766 192.832V204H230.982V192.96C230.982 190.251 229.819 188.896 227.494 188.896C225.83 188.896 224.635 189.376 223.91 190.336C223.206 191.296 222.854 192.693 222.854 194.528V204H220.07V192.96C220.07 190.251 218.896 188.896 216.55 188.896C214.822 188.896 213.627 189.429 212.966 190.496C212.304 191.563 211.974 193.099 211.974 195.104V204H209.158V186.848H211.43L211.846 189.184H212.006C212.539 188.288 213.254 187.627 214.15 187.2C215.067 186.752 216.038 186.528 217.062 186.528C219.75 186.528 221.499 187.488 222.31 189.408H222.47C223.046 188.427 223.824 187.701 224.806 187.232C225.808 186.763 226.864 186.528 227.974 186.528ZM253.4 186.848V204H251.096L250.68 201.728H250.552C249.997 202.624 249.229 203.285 248.248 203.712C247.266 204.117 246.221 204.32 245.112 204.32C243.042 204.32 241.485 203.829 240.44 202.848C239.394 201.845 238.872 200.256 238.872 198.08V186.848H241.72V197.888C241.72 200.619 242.989 201.984 245.528 201.984C247.426 201.984 248.738 201.451 249.464 200.384C250.21 199.317 250.584 197.781 250.584 195.776V186.848H253.4ZM264.47 186.848H267.478L271.19 196.608C271.51 197.461 271.798 198.283 272.054 199.072C272.31 199.84 272.502 200.576 272.63 201.28H272.758C272.886 200.747 273.088 200.053 273.366 199.2C273.643 198.325 273.931 197.451 274.23 196.576L277.718 186.848H280.758L273.366 206.368C272.768 207.989 271.99 209.28 271.03 210.24C270.091 211.2 268.79 211.68 267.126 211.68C266.614 211.68 266.166 211.648 265.782 211.584C265.398 211.541 265.067 211.488 264.79 211.424V209.184C265.024 209.227 265.302 209.269 265.622 209.312C265.963 209.355 266.315 209.376 266.678 209.376C267.659 209.376 268.448 209.099 269.046 208.544C269.664 207.989 270.144 207.253 270.486 206.336L271.382 204.064L264.47 186.848ZM289.966 186.56C292.057 186.56 293.603 187.019 294.606 187.936C295.609 188.853 296.11 190.315 296.11 192.32V204H294.062L293.518 201.568H293.39C292.643 202.507 291.854 203.2 291.022 203.648C290.211 204.096 289.081 204.32 287.63 204.32C286.073 204.32 284.782 203.915 283.758 203.104C282.734 202.272 282.222 200.981 282.222 199.232C282.222 197.525 282.894 196.213 284.238 195.296C285.582 194.357 287.651 193.845 290.446 193.76L293.358 193.664V192.64C293.358 191.211 293.049 190.219 292.43 189.664C291.811 189.109 290.937 188.832 289.806 188.832C288.91 188.832 288.057 188.971 287.246 189.248C286.435 189.504 285.678 189.803 284.974 190.144L284.11 188.032C284.857 187.627 285.742 187.285 286.766 187.008C287.79 186.709 288.857 186.56 289.966 186.56ZM290.798 195.712C288.665 195.797 287.182 196.139 286.35 196.736C285.539 197.333 285.134 198.176 285.134 199.264C285.134 200.224 285.422 200.928 285.998 201.376C286.595 201.824 287.353 202.048 288.27 202.048C289.721 202.048 290.926 201.653 291.886 200.864C292.846 200.053 293.326 198.816 293.326 197.152V195.616L290.798 195.712ZM309.664 186.528C311.712 186.528 313.258 187.029 314.304 188.032C315.349 189.013 315.872 190.613 315.872 192.832V204H313.088V193.024C313.088 190.272 311.808 188.896 309.248 188.896C307.349 188.896 306.037 189.429 305.312 190.496C304.586 191.563 304.224 193.099 304.224 195.104V204H301.408V186.848H303.68L304.096 189.184H304.256C304.81 188.288 305.578 187.627 306.56 187.2C307.541 186.752 308.576 186.528 309.664 186.528ZM327.269 186.528C328.399 186.528 329.413 186.741 330.309 187.168C331.226 187.595 332.005 188.245 332.645 189.12H332.805L333.189 186.848H335.429V204.288C335.429 206.741 334.799 208.587 333.541 209.824C332.303 211.061 330.373 211.68 327.749 211.68C325.231 211.68 323.173 211.317 321.573 210.592V208C323.258 208.896 325.37 209.344 327.909 209.344C329.381 209.344 330.533 208.907 331.365 208.032C332.218 207.179 332.645 206.005 332.645 204.512V203.84C332.645 203.584 332.655 203.221 332.677 202.752C332.698 202.261 332.719 201.92 332.741 201.728H332.613C331.461 203.456 329.69 204.32 327.301 204.32C325.082 204.32 323.343 203.541 322.085 201.984C320.847 200.427 320.229 198.251 320.229 195.456C320.229 192.725 320.847 190.56 322.085 188.96C323.343 187.339 325.071 186.528 327.269 186.528ZM327.653 188.896C326.223 188.896 325.114 189.472 324.325 190.624C323.535 191.755 323.141 193.376 323.141 195.488C323.141 197.6 323.525 199.221 324.293 200.352C325.082 201.461 326.223 202.016 327.717 202.016C329.445 202.016 330.703 201.557 331.493 200.64C332.282 199.701 332.677 198.197 332.677 196.128V195.456C332.677 193.109 332.271 191.435 331.461 190.432C330.65 189.408 329.381 188.896 327.653 188.896ZM368.005 186.528C369.946 186.528 371.397 187.029 372.357 188.032C373.317 189.013 373.797 190.613 373.797 192.832V204H371.013V192.96C371.013 190.251 369.85 188.896 367.525 188.896C365.861 188.896 364.666 189.376 363.941 190.336C363.237 191.296 362.885 192.693 362.885 194.528V204H360.101V192.96C360.101 190.251 358.927 188.896 356.581 188.896C354.853 188.896 353.658 189.429 352.997 190.496C352.335 191.563 352.005 193.099 352.005 195.104V204H349.189V186.848H351.461L351.877 189.184H352.037C352.57 188.288 353.285 187.627 354.181 187.2C355.098 186.752 356.069 186.528 357.093 186.528C359.781 186.528 361.53 187.488 362.341 189.408H362.501C363.077 188.427 363.855 187.701 364.837 187.232C365.839 186.763 366.895 186.528 368.005 186.528ZM385.591 186.56C387.682 186.56 389.228 187.019 390.231 187.936C391.234 188.853 391.735 190.315 391.735 192.32V204H389.687L389.143 201.568H389.015C388.268 202.507 387.479 203.2 386.647 203.648C385.836 204.096 384.706 204.32 383.255 204.32C381.698 204.32 380.407 203.915 379.383 203.104C378.359 202.272 377.847 200.981 377.847 199.232C377.847 197.525 378.519 196.213 379.863 195.296C381.207 194.357 383.276 193.845 386.071 193.76L388.983 193.664V192.64C388.983 191.211 388.674 190.219 388.055 189.664C387.436 189.109 386.562 188.832 385.431 188.832C384.535 188.832 383.682 188.971 382.871 189.248C382.06 189.504 381.303 189.803 380.599 190.144L379.735 188.032C380.482 187.627 381.367 187.285 382.391 187.008C383.415 186.709 384.482 186.56 385.591 186.56ZM386.423 195.712C384.29 195.797 382.807 196.139 381.975 196.736C381.164 197.333 380.759 198.176 380.759 199.264C380.759 200.224 381.047 200.928 381.623 201.376C382.22 201.824 382.978 202.048 383.895 202.048C385.346 202.048 386.551 201.653 387.511 200.864C388.471 200.053 388.951 198.816 388.951 197.152V195.616L386.423 195.712ZM411.369 186.848V204H409.065L408.649 201.728H408.521C407.966 202.624 407.198 203.285 406.217 203.712C405.235 204.117 404.19 204.32 403.081 204.32C401.011 204.32 399.454 203.829 398.409 202.848C397.363 201.845 396.841 200.256 396.841 198.08V186.848H399.689V197.888C399.689 200.619 400.958 201.984 403.497 201.984C405.395 201.984 406.707 201.451 407.433 200.384C408.179 199.317 408.553 197.781 408.553 195.776V186.848H411.369ZM98.536 229.6C98.536 230.325 98.5147 231.008 98.472 231.648C98.4507 232.267 98.4187 232.757 98.376 233.12H98.536C99.0267 232.395 99.6987 231.787 100.552 231.296C101.405 230.805 102.504 230.56 103.848 230.56C105.981 230.56 107.688 231.307 108.968 232.8C110.269 234.272 110.92 236.48 110.92 239.424C110.92 242.368 110.269 244.587 108.968 246.08C107.667 247.573 105.96 248.32 103.848 248.32C102.504 248.32 101.405 248.075 100.552 247.584C99.6987 247.093 99.0267 246.507 98.536 245.824H98.312L97.736 248H95.72V223.68H98.536V229.6ZM103.368 232.896C101.555 232.896 100.296 233.419 99.592 234.464C98.888 235.509 98.536 237.131 98.536 239.328V239.456C98.536 241.568 98.8773 243.189 99.56 244.32C100.264 245.429 101.555 245.984 103.432 245.984C104.968 245.984 106.109 245.419 106.856 244.288C107.624 243.157 108.008 241.525 108.008 239.392C108.008 235.061 106.461 232.896 103.368 232.896ZM122.032 230.528C123.504 230.528 124.762 230.848 125.808 231.488C126.874 232.128 127.685 233.035 128.24 234.208C128.816 235.36 129.104 236.715 129.104 238.272V239.968H117.36C117.402 241.909 117.893 243.392 118.832 244.416C119.792 245.419 121.125 245.92 122.832 245.92C123.92 245.92 124.88 245.824 125.712 245.632C126.565 245.419 127.44 245.12 128.336 244.736V247.2C127.461 247.584 126.597 247.861 125.744 248.032C124.89 248.224 123.877 248.32 122.704 248.32C121.082 248.32 119.642 247.989 118.384 247.328C117.146 246.667 116.176 245.685 115.472 244.384C114.789 243.061 114.448 241.451 114.448 239.552C114.448 237.675 114.757 236.064 115.376 234.72C116.016 233.376 116.901 232.341 118.032 231.616C119.184 230.891 120.517 230.528 122.032 230.528ZM122 232.832C120.656 232.832 119.589 233.269 118.8 234.144C118.032 234.997 117.573 236.192 117.424 237.728H126.16C126.138 236.277 125.797 235.104 125.136 234.208C124.474 233.291 123.429 232.832 122 232.832ZM141.47 230.528C141.79 230.528 142.131 230.549 142.494 230.592C142.878 230.613 143.209 230.656 143.486 230.72L143.134 233.312C142.857 233.248 142.547 233.195 142.206 233.152C141.886 233.109 141.577 233.088 141.278 233.088C140.403 233.088 139.582 233.333 138.814 233.824C138.046 234.293 137.427 234.965 136.958 235.84C136.51 236.693 136.286 237.696 136.286 238.848V248H133.47V230.848H135.774L136.094 233.984H136.222C136.777 233.045 137.491 232.235 138.366 231.552C139.241 230.869 140.275 230.528 141.47 230.528ZM152.944 248.32C151.429 248.32 150.074 248.011 148.88 247.392C147.706 246.773 146.778 245.813 146.096 244.512C145.434 243.211 145.104 241.547 145.104 239.52C145.104 237.408 145.456 235.691 146.16 234.368C146.864 233.045 147.813 232.075 149.008 231.456C150.224 230.837 151.6 230.528 153.136 230.528C154.01 230.528 154.853 230.624 155.664 230.816C156.474 230.987 157.136 231.2 157.648 231.456L156.784 233.792C156.272 233.6 155.674 233.419 154.992 233.248C154.309 233.077 153.669 232.992 153.072 232.992C149.701 232.992 148.016 235.157 148.016 239.488C148.016 241.557 148.421 243.147 149.232 244.256C150.064 245.344 151.29 245.888 152.912 245.888C153.85 245.888 154.672 245.792 155.376 245.6C156.101 245.408 156.762 245.173 157.36 244.896V247.392C156.784 247.691 156.144 247.915 155.44 248.064C154.757 248.235 153.925 248.32 152.944 248.32ZM167.935 230.56C170.025 230.56 171.572 231.019 172.575 231.936C173.577 232.853 174.079 234.315 174.079 236.32V248H172.031L171.487 245.568H171.359C170.612 246.507 169.823 247.2 168.991 247.648C168.18 248.096 167.049 248.32 165.599 248.32C164.041 248.32 162.751 247.915 161.727 247.104C160.703 246.272 160.191 244.981 160.191 243.232C160.191 241.525 160.863 240.213 162.207 239.296C163.551 238.357 165.62 237.845 168.415 237.76L171.327 237.664V236.64C171.327 235.211 171.017 234.219 170.399 233.664C169.78 233.109 168.905 232.832 167.775 232.832C166.879 232.832 166.025 232.971 165.215 233.248C164.404 233.504 163.647 233.803 162.943 234.144L162.079 232.032C162.825 231.627 163.711 231.285 164.735 231.008C165.759 230.709 166.825 230.56 167.935 230.56ZM168.767 239.712C166.633 239.797 165.151 240.139 164.319 240.736C163.508 241.333 163.103 242.176 163.103 243.264C163.103 244.224 163.391 244.928 163.967 245.376C164.564 245.824 165.321 246.048 166.239 246.048C167.689 246.048 168.895 245.653 169.855 244.864C170.815 244.053 171.295 242.816 171.295 241.152V239.616L168.767 239.712ZM187.632 230.528C189.68 230.528 191.227 231.029 192.272 232.032C193.318 233.013 193.84 234.613 193.84 236.832V248H191.056V237.024C191.056 234.272 189.776 232.896 187.216 232.896C185.318 232.896 184.006 233.429 183.28 234.496C182.555 235.563 182.192 237.099 182.192 239.104V248H179.376V230.848H181.648L182.064 233.184H182.224C182.779 232.288 183.547 231.627 184.528 231.2C185.51 230.752 186.544 230.528 187.632 230.528ZM205.238 248.32C203.104 248.32 201.398 247.584 200.118 246.112C198.838 244.619 198.198 242.4 198.198 239.456C198.198 236.512 198.838 234.293 200.118 232.8C201.419 231.285 203.136 230.528 205.27 230.528C206.592 230.528 207.67 230.773 208.502 231.264C209.355 231.755 210.048 232.352 210.582 233.056H210.774C210.752 232.779 210.71 232.373 210.646 231.84C210.603 231.285 210.582 230.848 210.582 230.528V223.68H213.398V248H211.126L210.71 245.696H210.582C210.07 246.421 209.387 247.04 208.534 247.552C207.68 248.064 206.582 248.32 205.238 248.32ZM205.686 245.984C207.499 245.984 208.768 245.493 209.494 244.512C210.24 243.509 210.614 242.005 210.614 240V239.488C210.614 237.355 210.262 235.723 209.558 234.592C208.854 233.44 207.552 232.864 205.654 232.864C204.139 232.864 202.998 233.472 202.23 234.688C201.483 235.883 201.11 237.493 201.11 239.52C201.11 241.568 201.483 243.157 202.23 244.288C202.998 245.419 204.15 245.984 205.686 245.984ZM225.341 230.56C227.432 230.56 228.978 231.019 229.981 231.936C230.984 232.853 231.485 234.315 231.485 236.32V248H229.437L228.893 245.568H228.765C228.018 246.507 227.229 247.2 226.397 247.648C225.586 248.096 224.456 248.32 223.005 248.32C221.448 248.32 220.157 247.915 219.133 247.104C218.109 246.272 217.597 244.981 217.597 243.232C217.597 241.525 218.269 240.213 219.613 239.296C220.957 238.357 223.026 237.845 225.821 237.76L228.733 237.664V236.64C228.733 235.211 228.424 234.219 227.805 233.664C227.186 233.109 226.312 232.832 225.181 232.832C224.285 232.832 223.432 232.971 222.621 233.248C221.81 233.504 221.053 233.803 220.349 234.144L219.485 232.032C220.232 231.627 221.117 231.285 222.141 231.008C223.165 230.709 224.232 230.56 225.341 230.56ZM226.173 239.712C224.04 239.797 222.557 240.139 221.725 240.736C220.914 241.333 220.509 242.176 220.509 243.264C220.509 244.224 220.797 244.928 221.373 245.376C221.97 245.824 222.728 246.048 223.645 246.048C225.096 246.048 226.301 245.653 227.261 244.864C228.221 244.053 228.701 242.816 228.701 241.152V239.616L226.173 239.712ZM250.823 246.016C251.25 246.016 251.687 245.984 252.135 245.92C252.583 245.835 252.946 245.749 253.223 245.664V247.808C252.924 247.957 252.498 248.075 251.943 248.16C251.388 248.267 250.855 248.32 250.343 248.32C249.447 248.32 248.615 248.171 247.847 247.872C247.1 247.552 246.492 247.008 246.023 246.24C245.554 245.472 245.319 244.395 245.319 243.008V233.024H242.887V231.68L245.351 230.56L246.471 226.912H248.135V230.848H253.095V233.024H248.135V242.944C248.135 243.989 248.38 244.768 248.871 245.28C249.383 245.771 250.034 246.016 250.823 246.016ZM263.154 230.56C265.244 230.56 266.791 231.019 267.794 231.936C268.796 232.853 269.298 234.315 269.298 236.32V248H267.25L266.706 245.568H266.578C265.831 246.507 265.042 247.2 264.21 247.648C263.399 248.096 262.268 248.32 260.818 248.32C259.26 248.32 257.97 247.915 256.946 247.104C255.922 246.272 255.41 244.981 255.41 243.232C255.41 241.525 256.082 240.213 257.426 239.296C258.77 238.357 260.839 237.845 263.634 237.76L266.546 237.664V236.64C266.546 235.211 266.236 234.219 265.618 233.664C264.999 233.109 264.124 232.832 262.994 232.832C262.098 232.832 261.244 232.971 260.434 233.248C259.623 233.504 258.866 233.803 258.161 234.144L257.298 232.032C258.044 231.627 258.93 231.285 259.954 231.008C260.978 230.709 262.044 230.56 263.154 230.56ZM263.986 239.712C261.852 239.797 260.37 240.139 259.538 240.736C258.727 241.333 258.322 242.176 258.322 243.264C258.322 244.224 258.61 244.928 259.186 245.376C259.783 245.824 260.54 246.048 261.458 246.048C262.908 246.048 264.114 245.653 265.074 244.864C266.034 244.053 266.514 242.816 266.514 241.152V239.616L263.986 239.712ZM282.755 230.528C284.867 230.528 286.563 231.264 287.843 232.736C289.144 234.208 289.795 236.427 289.795 239.392C289.795 242.315 289.144 244.533 287.843 246.048C286.563 247.563 284.856 248.32 282.723 248.32C281.4 248.32 280.302 248.075 279.427 247.584C278.574 247.072 277.902 246.485 277.411 245.824H277.219C277.262 246.187 277.304 246.645 277.347 247.2C277.39 247.755 277.411 248.235 277.411 248.64V255.68H274.595V230.848H276.899L277.283 233.184H277.411C277.923 232.437 278.595 231.808 279.427 231.296C280.259 230.784 281.368 230.528 282.755 230.528ZM282.243 232.896C280.494 232.896 279.256 233.387 278.531 234.368C277.827 235.349 277.454 236.843 277.411 238.848V239.392C277.411 241.504 277.752 243.136 278.435 244.288C279.139 245.419 280.43 245.984 282.307 245.984C283.352 245.984 284.206 245.696 284.867 245.12C285.55 244.544 286.051 243.765 286.371 242.784C286.712 241.781 286.883 240.64 286.883 239.36C286.883 237.397 286.499 235.829 285.731 234.656C284.984 233.483 283.822 232.896 282.243 232.896ZM295.723 224.416C296.149 224.416 296.523 224.565 296.843 224.864C297.184 225.141 297.355 225.589 297.355 226.208C297.355 226.805 297.184 227.253 296.843 227.552C296.523 227.851 296.149 228 295.723 228C295.253 228 294.859 227.851 294.539 227.552C294.219 227.253 294.059 226.805 294.059 226.208C294.059 225.589 294.219 225.141 294.539 224.864C294.859 224.565 295.253 224.416 295.723 224.416ZM297.099 230.848V248H294.283V230.848H297.099ZM329.661 230.528C331.602 230.528 333.053 231.029 334.013 232.032C334.973 233.013 335.453 234.613 335.453 236.832V248H332.669V236.96C332.669 234.251 331.506 232.896 329.181 232.896C327.517 232.896 326.322 233.376 325.597 234.336C324.893 235.296 324.541 236.693 324.541 238.528V248H321.757V236.96C321.757 234.251 320.584 232.896 318.237 232.896C316.509 232.896 315.314 233.429 314.653 234.496C313.992 235.563 313.661 237.099 313.661 239.104V248H310.845V230.848H313.117L313.533 233.184H313.693C314.226 232.288 314.941 231.627 315.837 231.2C316.754 230.752 317.725 230.528 318.749 230.528C321.437 230.528 323.186 231.488 323.997 233.408H324.157C324.733 232.427 325.512 231.701 326.493 231.232C327.496 230.763 328.552 230.528 329.661 230.528ZM347.247 230.56C349.338 230.56 350.885 231.019 351.887 231.936C352.89 232.853 353.391 234.315 353.391 236.32V248H351.343L350.799 245.568H350.671C349.925 246.507 349.135 247.2 348.303 247.648C347.493 248.096 346.362 248.32 344.911 248.32C343.354 248.32 342.063 247.915 341.039 247.104C340.015 246.272 339.503 244.981 339.503 243.232C339.503 241.525 340.175 240.213 341.519 239.296C342.863 238.357 344.933 237.845 347.727 237.76L350.639 237.664V236.64C350.639 235.211 350.33 234.219 349.711 233.664C349.093 233.109 348.218 232.832 347.087 232.832C346.191 232.832 345.338 232.971 344.527 233.248C343.717 233.504 342.959 233.803 342.255 234.144L341.391 232.032C342.138 231.627 343.023 231.285 344.047 231.008C345.071 230.709 346.138 230.56 347.247 230.56ZM348.079 239.712C345.946 239.797 344.463 240.139 343.631 240.736C342.821 241.333 342.415 242.176 342.415 243.264C342.415 244.224 342.703 244.928 343.279 245.376C343.877 245.824 344.634 246.048 345.551 246.048C347.002 246.048 348.207 245.653 349.167 244.864C350.127 244.053 350.607 242.816 350.607 241.152V239.616L348.079 239.712ZM369.857 243.264C369.857 244.928 369.238 246.187 368.001 247.04C366.763 247.893 365.099 248.32 363.009 248.32C361.814 248.32 360.779 248.224 359.905 248.032C359.051 247.84 358.294 247.573 357.633 247.232V244.672C358.315 245.013 359.137 245.333 360.097 245.632C361.078 245.909 362.07 246.048 363.073 246.048C364.502 246.048 365.537 245.824 366.177 245.376C366.817 244.907 367.137 244.288 367.137 243.52C367.137 243.093 367.019 242.709 366.785 242.368C366.55 242.027 366.123 241.685 365.505 241.344C364.907 241.003 364.043 240.619 362.913 240.192C361.803 239.765 360.854 239.339 360.065 238.912C359.275 238.485 358.667 237.973 358.241 237.376C357.814 236.779 357.601 236.011 357.601 235.072C357.601 233.621 358.187 232.501 359.361 231.712C360.555 230.923 362.113 230.528 364.033 230.528C365.078 230.528 366.049 230.635 366.945 230.848C367.862 231.04 368.715 231.317 369.505 231.68L368.545 233.92C367.819 233.621 367.062 233.365 366.273 233.152C365.483 232.939 364.673 232.832 363.841 232.832C362.689 232.832 361.803 233.024 361.185 233.408C360.587 233.771 360.289 234.272 360.289 234.912C360.289 235.381 360.427 235.787 360.705 236.128C360.982 236.448 361.441 236.768 362.081 237.088C362.742 237.387 363.617 237.749 364.705 238.176C365.793 238.581 366.721 238.997 367.489 239.424C368.257 239.851 368.843 240.373 369.249 240.992C369.654 241.589 369.857 242.347 369.857 243.264ZM375.441 224.416C375.868 224.416 376.241 224.565 376.561 224.864C376.903 225.141 377.073 225.589 377.073 226.208C377.073 226.805 376.903 227.253 376.561 227.552C376.241 227.851 375.868 228 375.441 228C374.972 228 374.577 227.851 374.257 227.552C373.937 227.253 373.777 226.805 373.777 226.208C373.777 225.589 373.937 225.141 374.257 224.864C374.577 224.565 374.972 224.416 375.441 224.416ZM376.817 230.848V248H374.001V230.848H376.817ZM385.067 230.816C385.067 231.669 385.014 232.469 384.907 233.216H385.099C385.654 232.341 386.401 231.68 387.339 231.232C388.299 230.784 389.334 230.56 390.443 230.56C392.534 230.56 394.102 231.061 395.147 232.064C396.193 233.045 396.715 234.635 396.715 236.832V248H393.931V237.024C393.931 234.272 392.651 232.896 390.091 232.896C388.171 232.896 386.849 233.44 386.123 234.528C385.419 235.595 385.067 237.131 385.067 239.136V248H382.251V223.68H385.067V230.816ZM114.536 274.528C116.477 274.528 117.928 275.029 118.888 276.032C119.848 277.013 120.328 278.613 120.328 280.832V292H117.544V280.96C117.544 278.251 116.381 276.896 114.056 276.896C112.392 276.896 111.197 277.376 110.472 278.336C109.768 279.296 109.416 280.693 109.416 282.528V292H106.632V280.96C106.632 278.251 105.459 276.896 103.112 276.896C101.384 276.896 100.189 277.429 99.528 278.496C98.8667 279.563 98.536 281.099 98.536 283.104V292H95.72V274.848H97.992L98.408 277.184H98.568C99.1013 276.288 99.816 275.627 100.712 275.2C101.629 274.752 102.6 274.528 103.624 274.528C106.312 274.528 108.061 275.488 108.872 277.408H109.032C109.608 276.427 110.387 275.701 111.368 275.232C112.371 274.763 113.427 274.528 114.536 274.528ZM132.122 274.56C134.213 274.56 135.76 275.019 136.762 275.936C137.765 276.853 138.266 278.315 138.266 280.32V292H136.218L135.674 289.568H135.546C134.8 290.507 134.01 291.2 133.178 291.648C132.368 292.096 131.237 292.32 129.786 292.32C128.229 292.32 126.938 291.915 125.914 291.104C124.89 290.272 124.378 288.981 124.378 287.232C124.378 285.525 125.05 284.213 126.394 283.296C127.738 282.357 129.808 281.845 132.602 281.76L135.514 281.664V280.64C135.514 279.211 135.205 278.219 134.586 277.664C133.968 277.109 133.093 276.832 131.962 276.832C131.066 276.832 130.213 276.971 129.402 277.248C128.592 277.504 127.834 277.803 127.13 278.144L126.266 276.032C127.013 275.627 127.898 275.285 128.922 275.008C129.946 274.709 131.013 274.56 132.122 274.56ZM132.954 283.712C130.821 283.797 129.338 284.139 128.506 284.736C127.696 285.333 127.29 286.176 127.29 287.264C127.29 288.224 127.578 288.928 128.154 289.376C128.752 289.824 129.509 290.048 130.426 290.048C131.877 290.048 133.082 289.653 134.042 288.864C135.002 288.053 135.482 286.816 135.482 285.152V283.616L132.954 283.712ZM146.38 292H143.564V267.68H146.38V292ZM166.15 274.848V292H163.846L163.43 289.728H163.302C162.747 290.624 161.979 291.285 160.998 291.712C160.016 292.117 158.971 292.32 157.862 292.32C155.792 292.32 154.235 291.829 153.19 290.848C152.144 289.845 151.622 288.256 151.622 286.08V274.848H154.47V285.888C154.47 288.619 155.739 289.984 158.278 289.984C160.176 289.984 161.488 289.451 162.214 288.384C162.96 287.317 163.334 285.781 163.334 283.776V274.848H166.15ZM170.155 284.672V282.176H177.899V284.672H170.155ZM200.724 274.528C202.665 274.528 204.116 275.029 205.076 276.032C206.036 277.013 206.516 278.613 206.516 280.832V292H203.732V280.96C203.732 278.251 202.569 276.896 200.244 276.896C198.58 276.896 197.385 277.376 196.66 278.336C195.956 279.296 195.604 280.693 195.604 282.528V292H192.82V280.96C192.82 278.251 191.646 276.896 189.3 276.896C187.572 276.896 186.377 277.429 185.716 278.496C185.054 279.563 184.724 281.099 184.724 283.104V292H181.908V274.848H184.18L184.596 277.184H184.756C185.289 276.288 186.004 275.627 186.9 275.2C187.817 274.752 188.788 274.528 189.812 274.528C192.5 274.528 194.249 275.488 195.06 277.408H195.22C195.796 276.427 196.574 275.701 197.556 275.232C198.558 274.763 199.614 274.528 200.724 274.528ZM218.31 274.56C220.4 274.56 221.947 275.019 222.95 275.936C223.952 276.853 224.454 278.315 224.454 280.32V292H222.406L221.862 289.568H221.734C220.987 290.507 220.198 291.2 219.366 291.648C218.555 292.096 217.424 292.32 215.974 292.32C214.416 292.32 213.126 291.915 212.102 291.104C211.078 290.272 210.566 288.981 210.566 287.232C210.566 285.525 211.238 284.213 212.582 283.296C213.926 282.357 215.995 281.845 218.79 281.76L221.702 281.664V280.64C221.702 279.211 221.392 278.219 220.774 277.664C220.155 277.109 219.28 276.832 218.15 276.832C217.254 276.832 216.4 276.971 215.59 277.248C214.779 277.504 214.022 277.803 213.318 278.144L212.454 276.032C213.2 275.627 214.086 275.285 215.11 275.008C216.134 274.709 217.2 274.56 218.31 274.56ZM219.142 283.712C217.008 283.797 215.526 284.139 214.694 284.736C213.883 285.333 213.478 286.176 213.478 287.264C213.478 288.224 213.766 288.928 214.342 289.376C214.939 289.824 215.696 290.048 216.614 290.048C218.064 290.048 219.27 289.653 220.23 288.864C221.19 288.053 221.67 286.816 221.67 285.152V283.616L219.142 283.712ZM232.567 292H229.751V267.68H232.567V292ZM252.337 274.848V292H250.033L249.617 289.728H249.489C248.935 290.624 248.167 291.285 247.185 291.712C246.204 292.117 245.159 292.32 244.049 292.32C241.98 292.32 240.423 291.829 239.377 290.848C238.332 289.845 237.809 288.256 237.809 286.08V274.848H240.657V285.888C240.657 288.619 241.927 289.984 244.465 289.984C246.364 289.984 247.676 289.451 248.401 288.384C249.148 287.317 249.521 285.781 249.521 283.776V274.848H252.337ZM284.911 274.528C286.852 274.528 288.303 275.029 289.263 276.032C290.223 277.013 290.703 278.613 290.703 280.832V292H287.919V280.96C287.919 278.251 286.756 276.896 284.431 276.896C282.767 276.896 281.572 277.376 280.847 278.336C280.143 279.296 279.791 280.693 279.791 282.528V292H277.007V280.96C277.007 278.251 275.834 276.896 273.487 276.896C271.759 276.896 270.564 277.429 269.903 278.496C269.242 279.563 268.911 281.099 268.911 283.104V292H266.095V274.848H268.367L268.783 277.184H268.943C269.476 276.288 270.191 275.627 271.087 275.2C272.004 274.752 272.975 274.528 273.999 274.528C276.687 274.528 278.436 275.488 279.247 277.408H279.407C279.983 276.427 280.762 275.701 281.743 275.232C282.746 274.763 283.802 274.528 284.911 274.528ZM302.625 274.528C304.097 274.528 305.356 274.848 306.401 275.488C307.468 276.128 308.279 277.035 308.833 278.208C309.409 279.36 309.697 280.715 309.697 282.272V283.968H297.953C297.996 285.909 298.487 287.392 299.425 288.416C300.385 289.419 301.719 289.92 303.425 289.92C304.513 289.92 305.473 289.824 306.305 289.632C307.159 289.419 308.033 289.12 308.929 288.736V291.2C308.055 291.584 307.191 291.861 306.337 292.032C305.484 292.224 304.471 292.32 303.297 292.32C301.676 292.32 300.236 291.989 298.977 291.328C297.74 290.667 296.769 289.685 296.065 288.384C295.383 287.061 295.041 285.451 295.041 283.552C295.041 281.675 295.351 280.064 295.969 278.72C296.609 277.376 297.495 276.341 298.625 275.616C299.777 274.891 301.111 274.528 302.625 274.528ZM302.593 276.832C301.249 276.832 300.183 277.269 299.393 278.144C298.625 278.997 298.167 280.192 298.017 281.728H306.753C306.732 280.277 306.391 279.104 305.729 278.208C305.068 277.291 304.023 276.832 302.593 276.832ZM328.976 283.392C328.976 286.229 328.25 288.427 326.8 289.984C325.37 291.541 323.429 292.32 320.976 292.32C319.461 292.32 318.106 291.979 316.912 291.296C315.738 290.592 314.81 289.579 314.128 288.256C313.445 286.912 313.104 285.291 313.104 283.392C313.104 280.555 313.818 278.368 315.248 276.832C316.677 275.296 318.618 274.528 321.072 274.528C322.629 274.528 323.994 274.88 325.168 275.584C326.362 276.267 327.29 277.269 327.952 278.592C328.634 279.893 328.976 281.493 328.976 283.392ZM316.016 283.392C316.016 285.419 316.41 287.029 317.2 288.224C318.01 289.397 319.29 289.984 321.04 289.984C322.768 289.984 324.037 289.397 324.848 288.224C325.658 287.029 326.064 285.419 326.064 283.392C326.064 281.365 325.658 279.776 324.848 278.624C324.037 277.472 322.757 276.896 321.008 276.896C319.258 276.896 317.989 277.472 317.2 278.624C316.41 279.776 316.016 281.365 316.016 283.392ZM341.695 274.528C343.743 274.528 345.289 275.029 346.335 276.032C347.38 277.013 347.903 278.613 347.903 280.832V292H345.119V281.024C345.119 278.272 343.839 276.896 341.279 276.896C339.38 276.896 338.068 277.429 337.343 278.496C336.617 279.563 336.255 281.099 336.255 283.104V292H333.439V274.848H335.711L336.127 277.184H336.287C336.841 276.288 337.609 275.627 338.591 275.2C339.572 274.752 340.607 274.528 341.695 274.528ZM359.3 274.528C360.431 274.528 361.444 274.741 362.34 275.168C363.257 275.595 364.036 276.245 364.676 277.12H364.836L365.22 274.848H367.46V292.288C367.46 294.741 366.831 296.587 365.572 297.824C364.335 299.061 362.404 299.68 359.78 299.68C357.263 299.68 355.204 299.317 353.604 298.592V296C355.289 296.896 357.401 297.344 359.94 297.344C361.412 297.344 362.564 296.907 363.396 296.032C364.249 295.179 364.676 294.005 364.676 292.512V291.84C364.676 291.584 364.687 291.221 364.708 290.752C364.729 290.261 364.751 289.92 364.772 289.728H364.644C363.492 291.456 361.721 292.32 359.332 292.32C357.113 292.32 355.375 291.541 354.116 289.984C352.879 288.427 352.26 286.251 352.26 283.456C352.26 280.725 352.879 278.56 354.116 276.96C355.375 275.339 357.103 274.528 359.3 274.528ZM359.684 276.896C358.255 276.896 357.145 277.472 356.356 278.624C355.567 279.755 355.172 281.376 355.172 283.488C355.172 285.6 355.556 287.221 356.324 288.352C357.113 289.461 358.255 290.016 359.748 290.016C361.476 290.016 362.735 289.557 363.524 288.64C364.313 287.701 364.708 286.197 364.708 284.128V283.456C364.708 281.109 364.303 279.435 363.492 278.432C362.681 277.408 361.412 276.896 359.684 276.896ZM372.492 290.272C372.492 289.483 372.684 288.928 373.068 288.608C373.452 288.288 373.91 288.128 374.444 288.128C374.998 288.128 375.468 288.288 375.852 288.608C376.257 288.928 376.46 289.483 376.46 290.272C376.46 291.04 376.257 291.595 375.852 291.936C375.468 292.277 374.998 292.448 374.444 292.448C373.91 292.448 373.452 292.277 373.068 291.936C372.684 291.595 372.492 291.04 372.492 290.272Z" fill="black"/>
<mask id="mask0_128:1117" style="mask-type:alpha" maskUnits="userSpaceOnUse" x="32" y="8" width="757" height="454">
<rect x="32" y="8" width="757" height="454" rx="12" fill="#F6F6F6"/>
</mask>
<g mask="url(#mask0_128:1117)">
<path d="M666.502 303.675C667.038 304.416 667.729 305.029 668.527 305.473C669.324 305.916 670.209 306.178 671.118 306.241C672.027 306.303 672.939 306.165 673.789 305.835C674.639 305.505 675.407 304.992 676.039 304.332L689.308 309.538L694.424 302.208L675.582 295.12C674.408 294.127 672.912 293.602 671.378 293.644C669.845 293.685 668.379 294.291 667.26 295.345C666.141 296.4 665.445 297.831 665.306 299.366C665.166 300.901 665.592 302.434 666.502 303.675V303.675Z" fill="#9E616A"/>
<path d="M745.668 348.397L727.984 354.189L733.891 479.947L747.539 480.286L754.524 391.6L756.11 479.936L772.986 480.87L779.207 348.397H745.668Z" fill="#2F2E41"/>
<path d="M733.77 274.381L779.428 264.496L784.506 303.669L780.278 322.387L781.971 350.832C781.971 350.832 745.869 368.736 727.984 354.163C727.984 354.163 742.359 316.542 734.027 298.93L733.77 274.381Z" fill="#E4E4E4"/>
<path d="M741.702 279.809L733.775 274.225C733.775 274.225 733.307 273.575 726.702 281.31C720.096 289.046 706.696 301.35 706.696 301.35L684.362 292.961L680.294 308.019L706.25 320.135L742.997 295.552L741.702 279.809Z" fill="#E4E4E4"/>
<path d="M781.344 365.424C782.188 365.023 782.934 364.441 783.531 363.72C784.127 362.998 784.558 362.154 784.795 361.247C785.031 360.339 785.066 359.391 784.898 358.469C784.73 357.546 784.363 356.672 783.822 355.908L791.571 343.486L785.203 336.916L774.505 354.612C773.287 355.61 772.475 357.021 772.224 358.58C771.973 360.139 772.3 361.736 773.143 363.068C773.985 364.401 775.286 365.377 776.797 365.811C778.309 366.245 779.926 366.107 781.344 365.424V365.424Z" fill="#9E616A"/>
<path d="M772.141 272.442L779.276 264.711C779.276 264.711 787.225 261.952 793.719 276.207C800.214 290.461 807.467 319.374 807.467 319.374L790.508 351.928L777.337 346.064L790.508 319.144L776.57 299.209L772.141 272.442Z" fill="#E4E4E4"/>
<path d="M759.959 261.084C767.142 257.157 769.782 248.15 765.856 240.966C761.929 233.782 752.922 231.142 745.738 235.069C738.554 238.996 735.914 248.003 739.841 255.187C743.768 262.371 752.775 265.011 759.959 261.084Z" fill="#9E616A"/>
<path d="M765.862 234.618C765.151 231.693 762.663 229.384 759.802 228.301C756.94 227.219 753.753 227.229 750.729 227.733C745.709 228.569 741.021 230.691 736.403 232.791L739.963 234.461L735.05 234.737L738.846 236.662C737.832 237.418 737.061 238.443 736.624 239.616C736.187 240.789 736.102 242.06 736.38 243.279C736.576 244.076 737.098 244.955 737.934 244.983C738.945 245.016 739.472 243.861 740.18 243.153C741.122 242.211 742.608 242.001 743.942 242.179C745.275 242.357 746.54 242.859 747.855 243.137C749.518 243.477 751.237 243.458 752.892 243.083C754.547 242.707 756.099 241.983 757.441 240.96L762.174 252.134C762.13 251.712 762.185 251.287 762.336 250.89C762.487 250.493 762.73 250.135 763.045 249.846C763.36 249.556 763.739 249.341 764.153 249.219C764.567 249.096 765.004 249.069 765.43 249.139C765.856 249.21 766.26 249.376 766.61 249.625C766.96 249.873 767.246 250.198 767.447 250.573C767.648 250.948 767.757 251.364 767.767 251.787C767.777 252.211 767.687 252.631 767.504 253.015C769.553 249.985 771.201 246.543 771.258 242.908C771.314 239.273 769.475 235.444 766.109 233.919" fill="#2F2E41"/>
<path d="M593.501 461.713L587.341 471.657L590.93 458.713C583.354 450.597 572.866 444.66 572.866 444.66C572.866 444.66 559.952 466.45 563.428 479.854C566.904 493.258 575.879 495.817 585.453 493.2C595.027 490.583 601.575 483.782 598.099 470.378C597.325 467.394 595.645 464.465 593.501 461.713Z" fill="#CCCCCC"/>
<path d="M585.506 473.115L585.692 473.786C587.816 481.601 588.133 488.041 586.632 493.016C586.611 493.089 586.586 493.159 586.565 493.232L586.215 493.133L585.88 493.034C587.581 487.641 586.822 480.827 584.971 474.01C584.914 473.789 584.856 473.566 584.79 473.344C583.98 470.465 582.988 467.597 581.908 464.84C581.826 464.626 581.74 464.41 581.654 464.193C580.209 460.562 578.63 457.142 577.166 454.195C577.064 453.986 576.958 453.779 576.853 453.574C574.355 448.595 572.238 445.068 571.762 444.289C571.706 444.193 571.673 444.141 571.666 444.129L571.97 443.955L571.972 443.951L572.28 443.776C572.287 443.788 572.398 443.963 572.593 444.29C573.329 445.512 575.283 448.839 577.537 453.31C577.637 453.513 577.743 453.72 577.846 453.929C579.036 456.32 580.297 459.009 581.497 461.863C581.8 462.579 582.089 463.288 582.366 463.99C582.455 464.206 582.541 464.422 582.623 464.636C583.791 467.616 584.752 470.442 585.506 473.115Z" fill="white"/>
<path d="M578.051 453.837C577.839 453.931 577.625 454.027 577.405 454.116C576.808 454.36 576.199 454.571 575.582 454.747C572.954 455.504 570.201 455.617 567.526 455.077C567.435 455.304 567.344 455.53 567.25 455.76C570.07 456.356 572.98 456.251 575.757 455.452C576.416 455.263 577.064 455.037 577.701 454.775C577.918 454.686 578.132 454.591 578.343 454.493C580.086 453.694 581.705 452.616 583.146 451.294C582.958 451.141 582.773 450.99 582.592 450.842C581.224 452.075 579.694 453.084 578.051 453.837V453.837Z" fill="white"/>
<path d="M582.112 463.492C581.891 463.562 581.668 463.626 581.444 463.683C581.376 463.704 581.305 463.722 581.236 463.74C578.407 464.464 575.438 464.519 572.582 463.902C569.726 463.285 567.068 462.013 564.833 460.194C564.754 460.412 564.675 460.63 564.601 460.85C566.91 462.677 569.64 463.949 572.563 464.56C575.486 465.171 578.519 465.105 581.41 464.365C581.501 464.342 581.592 464.318 581.682 464.292C581.909 464.23 582.131 464.167 582.353 464.1C585.778 463.04 588.813 461.055 591.095 458.381C590.94 458.223 590.785 458.066 590.626 457.909C588.414 460.527 585.455 462.467 582.112 463.492V463.492Z" fill="white"/>
<path d="M711.203 219.847C711.203 196.707 694.794 177.949 674.552 177.949C654.311 177.949 637.902 196.707 637.902 219.847C637.902 240.834 651.399 258.216 669.012 261.269V265.218C669.012 265.964 669.314 266.679 669.85 267.206C670.386 267.734 671.114 268.03 671.873 268.03H677.232C677.991 268.03 678.718 267.734 679.255 267.206C679.791 266.679 680.093 265.964 680.093 265.218V261.269C697.705 258.216 711.203 240.834 711.203 219.847Z" fill="#F4C413"/>
<path d="M668.339 265.385C669.465 264.321 670.806 263.515 672.271 263.022C673.735 262.529 675.288 262.36 676.823 262.529C678.371 262.709 679.855 263.249 681.16 264.105C682.464 264.961 683.553 266.111 684.341 267.463C685.13 268.775 685.625 270.243 685.792 271.767C685.96 273.291 685.797 274.833 685.313 276.287C684.367 279.186 682.357 281.599 680.296 283.774C678.134 286.055 675.783 288.159 673.751 290.564C670.399 294.552 668.059 299.299 666.93 304.398C665.802 309.496 665.919 314.794 667.272 319.837C669.055 326.229 672.737 331.919 677.825 336.145C678.471 336.676 679.136 337.182 679.821 337.663C680.613 338.221 681.363 336.914 680.577 336.361C675.054 332.428 670.972 326.774 668.963 320.272C667.439 315.205 667.244 309.828 668.397 304.662C669.549 299.497 672.01 294.72 675.54 290.796C677.684 288.413 680.085 286.281 682.228 283.898C684.281 281.615 686.153 279.039 686.955 276.023C687.361 274.49 687.462 272.891 687.251 271.318C687.041 269.745 686.523 268.23 685.728 266.859C684.937 265.458 683.867 264.236 682.585 263.271C681.303 262.305 679.836 261.617 678.277 261.248C675.141 260.562 671.863 261.133 669.139 262.84C668.471 263.269 667.848 263.764 667.279 264.318C666.583 264.993 667.644 266.059 668.339 265.385V265.385Z" fill="#3F3D56"/>
<path d="M570.388 202.118C559.273 176.554 532.448 163.583 510.473 173.146C488.498 182.71 479.695 211.186 490.81 236.75C500.891 259.935 523.894 272.761 544.482 267.813L546.378 272.175C546.737 272.999 547.407 273.647 548.243 273.976C549.079 274.305 550.011 274.289 550.835 273.931L556.653 271.399C557.477 271.04 558.124 270.369 558.453 269.533C558.782 268.697 558.766 267.764 558.408 266.94L556.511 262.578C574.165 250.884 580.469 225.303 570.388 202.118Z" fill="#F4C413"/>
<path d="M544.942 272.088C545.673 270.41 546.749 268.903 548.102 267.666C549.454 266.428 551.053 265.488 552.793 264.906C554.502 264.332 556.316 264.138 558.108 264.336C559.901 264.535 561.628 265.121 563.169 266.055C564.756 266.992 566.125 268.256 567.184 269.762C568.243 271.269 568.967 272.983 569.309 274.79C570.094 278.979 568.82 283.245 567.372 287.145C565.855 291.233 563.964 295.203 562.908 299.448C561.44 305.415 561.41 311.643 562.822 317.623C564.233 323.603 567.046 329.165 571.03 333.853C576.047 339.648 582.655 343.855 590.04 345.954C590.946 346.209 591.862 346.426 592.784 346.612C593.747 346.806 594.159 345.335 593.191 345.14C585.507 343.563 578.505 339.645 573.152 333.929C567.478 327.814 564.05 319.963 563.428 311.657C563.095 307.448 563.482 303.214 564.572 299.135C565.736 294.831 567.707 290.801 569.193 286.607C570.61 282.605 571.615 278.307 570.724 274.072C569.905 270.343 567.635 267.091 564.412 265.029C562.868 264.014 561.136 263.315 559.318 262.972C557.5 262.63 555.632 262.651 553.822 263.035C550.127 263.869 546.889 266.076 544.767 269.206C544.251 269.986 543.815 270.816 543.464 271.683C543.088 272.59 544.569 272.985 544.942 272.088L544.942 272.088Z" fill="#3F3D56"/>
<path d="M518.678 378.425L516.731 381.073L509.846 376.657L511.793 374.008L518.678 378.425Z" fill="#E4E4E4"/>
<path d="M526.526 389.021L528.392 391.595L520.544 395.204L518.678 392.63L526.526 389.021Z" fill="#E4E4E4"/>
<path d="M534.01 377.541L537.223 377.658L536.903 384.606L533.69 384.489L534.01 377.541Z" fill="#E4E4E4"/>
<path d="M649.202 488.818L655.566 487.862L651.203 438.479L637.02 441.029L649.202 488.818Z" fill="#FFB6B6"/>
<path d="M584.913 487.672L591.288 487.934L599.043 444.66L584.989 444.66L584.913 487.672Z" fill="#FFB6B6"/>
<path d="M597.15 345.538C596.855 345.455 596.554 345.4 596.25 345.371L600.136 313.746L613.322 285.983C614.151 284.236 614.284 282.242 613.693 280.402C613.102 278.562 611.831 277.014 610.137 276.069C608.442 275.124 606.451 274.853 604.563 275.311C602.676 275.769 601.034 276.921 599.967 278.536V278.536C596.511 283.767 593.897 289.503 592.219 295.535L586.679 315.449L590.73 349.601C590.575 350.563 590.702 351.55 591.098 352.442C591.493 353.334 592.14 354.094 592.959 354.629C593.778 355.165 594.736 355.453 595.716 355.46C596.697 355.467 597.659 355.193 598.486 354.669C599.313 354.146 599.97 353.396 600.379 352.509C600.787 351.623 600.93 350.638 600.788 349.674C600.647 348.709 600.229 347.805 599.583 347.072C598.938 346.338 598.092 345.805 597.15 345.538H597.15Z" fill="#FFB6B6"/>
<path d="M604.918 316.603L588.446 297.867L596.606 278.782C597.674 276.283 599.683 274.298 602.203 273.251C604.723 272.204 607.554 272.177 610.093 273.177C612.633 274.177 614.678 276.124 615.794 278.603C616.909 281.082 617.006 283.896 616.064 286.445L604.918 316.603Z" fill="#2F2E41"/>
<path d="M632.682 256.526C636.667 249.235 633.988 240.093 626.696 236.107C619.405 232.121 610.263 234.801 606.277 242.092C602.292 249.384 604.971 258.526 612.263 262.511C619.554 266.497 628.696 263.817 632.682 256.526Z" fill="#FFB6B6"/>
<path d="M621.643 230.938H612.117C605.873 230.938 600.81 236.788 600.81 244.004L601.251 261.508C607.999 262.37 614.598 264.184 620.864 266.897L621.753 262.997L623.507 268.133C625.067 268.909 626.613 269.758 628.146 270.679C626.357 262.043 625.62 253.426 626.849 246.732H630.075V243.106L631.17 246.732H637.019V246.732C637.02 244.658 636.622 242.604 635.849 240.688C635.076 238.772 633.944 237.03 632.516 235.564C631.088 234.097 629.393 232.934 627.527 232.14C625.662 231.346 623.662 230.937 621.643 230.938V230.938Z" fill="#2F2E41"/>
<path d="M653.4 441.584L652.005 441.925L650.834 419.818L642.309 353.644L632.531 328.447L637.294 310.885C637.294 310.885 642.81 298.668 629.02 289.251L617.988 270.417C610.368 265.359 604.098 268.666 600.756 277.263C597.844 284.754 595.583 294.231 596.927 304.013C599.939 325.925 602.443 328.447 602.443 328.447C602.443 328.447 583.639 349.572 587.651 376.55L585.415 446.402L583.369 446.317L583.145 451.865L601.015 452.609L601.239 447.061L599.757 446.999L606.204 419.309L615.732 382.659L632.28 427.454L637.846 445.387L636.012 445.835L637.293 451.233L654.68 446.983L653.4 441.584Z" fill="#2F2E41"/>
<path d="M666.157 316.123C665.951 316.346 665.767 316.588 665.605 316.845L638.894 299.35L619.811 275.344C618.611 273.834 616.876 272.83 614.957 272.536C613.038 272.241 611.078 272.677 609.471 273.756C607.865 274.836 606.731 276.477 606.3 278.351C605.869 280.224 606.172 282.189 607.148 283.85V283.85C610.31 289.233 614.301 294.095 618.978 298.261L634.416 312.014L666.944 323.608C667.74 324.174 668.685 324.499 669.664 324.546C670.643 324.593 671.615 324.358 672.463 323.871C673.31 323.384 673.998 322.665 674.442 321.801C674.886 320.937 675.069 319.964 674.967 318.999C674.866 318.035 674.485 317.12 673.87 316.364C673.255 315.609 672.433 315.045 671.502 314.741C670.571 314.438 669.572 314.406 668.623 314.651C667.675 314.896 666.818 315.407 666.157 316.123H666.157Z" fill="#FFB6B6"/>
<path d="M644.084 296.074L619.636 302.472L605.983 286.391C604.195 284.286 603.298 281.562 603.483 278.802C603.669 276.042 604.922 273.464 606.976 271.618C609.029 269.772 611.72 268.805 614.475 268.922C617.229 269.04 619.829 270.232 621.719 272.246L644.084 296.074Z" fill="#2F2E41"/>
</g>
<defs>
<filter id="filter0_dddd_128:1117" x="0" y="0" width="821" height="518" filterUnits="userSpaceOnUse" color-interpolation-filters="sRGB">
<feFlood flood-opacity="0" result="BackgroundImageFix"/>
<feColorMatrix in="SourceAlpha" type="matrix" values="0 0 0 0 0 0 0 0 0 0 0 0 0 0 0 0 0 0 127 0" result="hardAlpha"/>
<feOffset/>
<feGaussianBlur stdDeviation="0.5"/>
<feColorMatrix type="matrix" values="0 0 0 0 0 0 0 0 0 0 0 0 0 0 0 0 0 0 0.04 0"/>
<feBlend mode="normal" in2="BackgroundImageFix" result="effect1_dropShadow_128:1117"/>
<feColorMatrix in="SourceAlpha" type="matrix" values="0 0 0 0 0 0 0 0 0 0 0 0 0 0 0 0 0 0 127 0" result="hardAlpha"/>
<feOffset dy="4"/>
<feGaussianBlur stdDeviation="4"/>
<feColorMatrix type="matrix" values="0 0 0 0 0 0 0 0 0 0 0 0 0 0 0 0 0 0 0.04 0"/>
<feBlend mode="normal" in2="effect1_dropShadow_128:1117" result="effect2_dropShadow_128:1117"/>
<feColorMatrix in="SourceAlpha" type="matrix" values="0 0 0 0 0 0 0 0 0 0 0 0 0 0 0 0 0 0 127 0" result="hardAlpha"/>
<feOffset dy="16"/>
<feGaussianBlur stdDeviation="12"/>
<feColorMatrix type="matrix" values="0 0 0 0 0 0 0 0 0 0 0 0 0 0 0 0 0 0 0.04 0"/>
<feBlend mode="normal" in2="effect2_dropShadow_128:1117" result="effect3_dropShadow_128:1117"/>
<feColorMatrix in="SourceAlpha" type="matrix" values="0 0 0 0 0 0 0 0 0 0 0 0 0 0 0 0 0 0 127 0" result="hardAlpha"/>
<feOffset dy="24"/>
<feGaussianBlur stdDeviation="16"/>
<feColorMatrix type="matrix" values="0 0 0 0 0 0 0 0 0 0 0 0 0 0 0 0 0 0 0.04 0"/>
<feBlend mode="normal" in2="effect3_dropShadow_128:1117" result="effect4_dropShadow_128:1117"/>
<feBlend mode="normal" in="SourceGraphic" in2="effect4_dropShadow_128:1117" result="shape"/>
</filter>
</defs>
</svg>
