<svg width="821" height="518" viewBox="0 0 821 518" fill="none" xmlns="http://www.w3.org/2000/svg">
<g filter="url(#filter0_dddd_128:1295)">
<rect x="32" y="8" width="757" height="454" rx="12" fill="#F6F6F6"/>
</g>
<path d="M101.016 95.248H87.256V85.2H127.384V95.248H113.688V130H101.016V95.248ZM159.871 121.296H140.927L137.407 130H124.479L144.255 85.2H156.735L176.575 130H163.391L159.871 121.296ZM156.159 111.952L150.399 97.616L144.639 111.952H156.159ZM222.792 85.2V130H210.12V112.528H192.84V130H180.168V85.2H192.84V102.032H210.12V85.2H222.792ZM252.402 130.896C245.746 130.896 240.562 129.083 236.85 125.456C233.181 121.829 231.346 116.688 231.346 110.032V85.2H244.018V109.648C244.018 116.816 246.855 120.4 252.53 120.4C258.162 120.4 260.978 116.816 260.978 109.648V85.2H273.458V110.032C273.458 116.688 271.602 121.829 267.89 125.456C264.221 129.083 259.058 130.896 252.402 130.896ZM317.948 113.744L313.212 118.8V130H300.668V85.2H313.212V103.824L330.556 85.2H344.508L326.204 105.04L345.468 130H330.748L317.948 113.744ZM348.793 85.2H361.465V130H348.793V85.2ZM380.016 95.248H366.256V85.2H406.384V95.248H392.688V130H380.016V95.248ZM438.871 121.296H419.927L416.407 130H403.479L423.255 85.2H435.735L455.575 130H442.391L438.871 121.296ZM435.159 111.952L429.399 97.616L423.639 111.952H435.159Z" fill="#E52760"/>
<path d="M110.44 204L107.688 196.928H98.632L95.912 204H93L101.928 181.056H104.52L113.416 204H110.44ZM104.264 187.456C104.2 187.285 104.093 186.976 103.944 186.528C103.795 186.08 103.645 185.621 103.496 185.152C103.368 184.661 103.261 184.288 103.176 184.032C103.027 184.693 102.856 185.344 102.664 185.984C102.472 186.603 102.312 187.093 102.184 187.456L99.592 194.368H106.824L104.264 187.456ZM118.942 192.384C118.942 192.725 118.92 193.173 118.878 193.728C118.856 194.283 118.835 194.763 118.814 195.168H118.942C119.07 194.997 119.262 194.752 119.518 194.432C119.774 194.112 120.03 193.792 120.286 193.472C120.563 193.131 120.798 192.853 120.99 192.64L126.462 186.848H129.758L122.814 194.176L130.238 204H126.846L120.894 196L118.942 197.696V204H116.158V179.68H118.942V192.384ZM147.587 186.848V204H145.283L144.867 201.728H144.739C144.185 202.624 143.417 203.285 142.435 203.712C141.454 204.117 140.409 204.32 139.299 204.32C137.23 204.32 135.673 203.829 134.627 202.848C133.582 201.845 133.059 200.256 133.059 198.08V186.848H135.907V197.888C135.907 200.619 137.177 201.984 139.715 201.984C141.614 201.984 142.926 201.451 143.651 200.384C144.398 199.317 144.771 197.781 144.771 195.776V186.848H147.587ZM158.657 186.848H161.665L165.377 196.608C165.697 197.461 165.985 198.283 166.241 199.072C166.497 199.84 166.689 200.576 166.817 201.28H166.945C167.073 200.747 167.276 200.053 167.553 199.2C167.83 198.325 168.118 197.451 168.417 196.576L171.905 186.848H174.945L167.553 206.368C166.956 207.989 166.177 209.28 165.217 210.24C164.278 211.2 162.977 211.68 161.313 211.68C160.801 211.68 160.353 211.648 159.969 211.584C159.585 211.541 159.254 211.488 158.977 211.424V209.184C159.212 209.227 159.489 209.269 159.809 209.312C160.15 209.355 160.502 209.376 160.865 209.376C161.846 209.376 162.636 209.099 163.233 208.544C163.852 207.989 164.332 207.253 164.673 206.336L165.569 204.064L158.657 186.848ZM184.154 186.56C186.244 186.56 187.791 187.019 188.794 187.936C189.796 188.853 190.298 190.315 190.298 192.32V204H188.25L187.706 201.568H187.578C186.831 202.507 186.042 203.2 185.21 203.648C184.399 204.096 183.268 204.32 181.818 204.32C180.26 204.32 178.97 203.915 177.946 203.104C176.922 202.272 176.41 200.981 176.41 199.232C176.41 197.525 177.082 196.213 178.426 195.296C179.77 194.357 181.839 193.845 184.634 193.76L187.546 193.664V192.64C187.546 191.211 187.236 190.219 186.618 189.664C185.999 189.109 185.124 188.832 183.994 188.832C183.098 188.832 182.244 188.971 181.434 189.248C180.623 189.504 179.866 189.803 179.161 190.144L178.298 188.032C179.044 187.627 179.93 187.285 180.954 187.008C181.978 186.709 183.044 186.56 184.154 186.56ZM184.986 195.712C182.852 195.797 181.37 196.139 180.538 196.736C179.727 197.333 179.322 198.176 179.322 199.264C179.322 200.224 179.61 200.928 180.186 201.376C180.783 201.824 181.54 202.048 182.458 202.048C183.908 202.048 185.114 201.653 186.074 200.864C187.034 200.053 187.514 198.816 187.514 197.152V195.616L184.986 195.712ZM198.379 192.384C198.379 192.725 198.358 193.173 198.315 193.728C198.294 194.283 198.272 194.763 198.251 195.168H198.379C198.507 194.997 198.699 194.752 198.955 194.432C199.211 194.112 199.467 193.792 199.723 193.472C200 193.131 200.235 192.853 200.427 192.64L205.899 186.848H209.195L202.251 194.176L209.675 204H206.283L200.331 196L198.379 197.696V204H195.595V179.68H198.379V192.384ZM214.129 180.416C214.555 180.416 214.929 180.565 215.249 180.864C215.59 181.141 215.761 181.589 215.761 182.208C215.761 182.805 215.59 183.253 215.249 183.552C214.929 183.851 214.555 184 214.129 184C213.659 184 213.265 183.851 212.945 183.552C212.625 183.253 212.465 182.805 212.465 182.208C212.465 181.589 212.625 181.141 212.945 180.864C213.265 180.565 213.659 180.416 214.129 180.416ZM215.505 186.848V204H212.689V186.848H215.505ZM229.195 186.528C231.243 186.528 232.789 187.029 233.835 188.032C234.88 189.013 235.403 190.613 235.403 192.832V204H232.619V193.024C232.619 190.272 231.339 188.896 228.779 188.896C226.88 188.896 225.568 189.429 224.843 190.496C224.117 191.563 223.755 193.099 223.755 195.104V204H220.939V186.848H223.211L223.627 189.184H223.787C224.341 188.288 225.109 187.627 226.091 187.2C227.072 186.752 228.107 186.528 229.195 186.528ZM251.817 192.384C251.817 192.725 251.795 193.173 251.753 193.728C251.731 194.283 251.71 194.763 251.689 195.168H251.817C251.945 194.997 252.137 194.752 252.393 194.432C252.649 194.112 252.905 193.792 253.161 193.472C253.438 193.131 253.673 192.853 253.865 192.64L259.337 186.848H262.633L255.689 194.176L263.113 204H259.721L253.769 196L251.817 197.696V204H249.033V179.68H251.817V192.384ZM272.622 186.56C274.713 186.56 276.26 187.019 277.262 187.936C278.265 188.853 278.766 190.315 278.766 192.32V204H276.718L276.174 201.568H276.046C275.3 202.507 274.51 203.2 273.678 203.648C272.868 204.096 271.737 204.32 270.286 204.32C268.729 204.32 267.438 203.915 266.414 203.104C265.39 202.272 264.878 200.981 264.878 199.232C264.878 197.525 265.55 196.213 266.894 195.296C268.238 194.357 270.308 193.845 273.102 193.76L276.014 193.664V192.64C276.014 191.211 275.705 190.219 275.086 189.664C274.468 189.109 273.593 188.832 272.462 188.832C271.566 188.832 270.713 188.971 269.902 189.248C269.092 189.504 268.334 189.803 267.63 190.144L266.766 188.032C267.513 187.627 268.398 187.285 269.422 187.008C270.446 186.709 271.513 186.56 272.622 186.56ZM273.454 195.712C271.321 195.797 269.838 196.139 269.006 196.736C268.196 197.333 267.79 198.176 267.79 199.264C267.79 200.224 268.078 200.928 268.654 201.376C269.252 201.824 270.009 202.048 270.926 202.048C272.377 202.048 273.582 201.653 274.542 200.864C275.502 200.053 275.982 198.816 275.982 197.152V195.616L273.454 195.712ZM286.88 204H284.064V179.68H286.88V204ZM298.81 186.56C300.9 186.56 302.447 187.019 303.45 187.936C304.452 188.853 304.954 190.315 304.954 192.32V204H302.906L302.362 201.568H302.234C301.487 202.507 300.698 203.2 299.866 203.648C299.055 204.096 297.924 204.32 296.474 204.32C294.916 204.32 293.626 203.915 292.602 203.104C291.578 202.272 291.066 200.981 291.066 199.232C291.066 197.525 291.738 196.213 293.082 195.296C294.426 194.357 296.495 193.845 299.29 193.76L302.202 193.664V192.64C302.202 191.211 301.892 190.219 301.274 189.664C300.655 189.109 299.78 188.832 298.65 188.832C297.754 188.832 296.9 188.971 296.09 189.248C295.279 189.504 294.522 189.803 293.818 190.144L292.954 188.032C293.7 187.627 294.586 187.285 295.61 187.008C296.634 186.709 297.7 186.56 298.81 186.56ZM299.642 195.712C297.508 195.797 296.026 196.139 295.194 196.736C294.383 197.333 293.978 198.176 293.978 199.264C293.978 200.224 294.266 200.928 294.842 201.376C295.439 201.824 296.196 202.048 297.114 202.048C298.564 202.048 299.77 201.653 300.73 200.864C301.69 200.053 302.17 198.816 302.17 197.152V195.616L299.642 195.712ZM324.587 186.848V204H322.283L321.867 201.728H321.739C321.185 202.624 320.417 203.285 319.435 203.712C318.454 204.117 317.409 204.32 316.299 204.32C314.23 204.32 312.673 203.829 311.627 202.848C310.582 201.845 310.059 200.256 310.059 198.08V186.848H312.907V197.888C312.907 200.619 314.177 201.984 316.715 201.984C318.614 201.984 319.926 201.451 320.651 200.384C321.398 199.317 321.771 197.781 321.771 195.776V186.848H324.587ZM341.129 192.384C341.129 192.725 341.108 193.173 341.065 193.728C341.044 194.283 341.022 194.763 341.001 195.168H341.129C341.257 194.997 341.449 194.752 341.705 194.432C341.961 194.112 342.217 193.792 342.473 193.472C342.75 193.131 342.985 192.853 343.177 192.64L348.649 186.848H351.945L345.001 194.176L352.425 204H349.033L343.081 196L341.129 197.696V204H338.345V179.68H341.129V192.384ZM356.879 180.416C357.305 180.416 357.679 180.565 357.999 180.864C358.34 181.141 358.511 181.589 358.511 182.208C358.511 182.805 358.34 183.253 357.999 183.552C357.679 183.851 357.305 184 356.879 184C356.409 184 356.015 183.851 355.695 183.552C355.375 183.253 355.215 182.805 355.215 182.208C355.215 181.589 355.375 181.141 355.695 180.864C356.015 180.565 356.409 180.416 356.879 180.416ZM358.255 186.848V204H355.439V186.848H358.255ZM369.417 202.016C369.843 202.016 370.281 201.984 370.729 201.92C371.177 201.835 371.539 201.749 371.817 201.664V203.808C371.518 203.957 371.091 204.075 370.537 204.16C369.982 204.267 369.449 204.32 368.937 204.32C368.041 204.32 367.209 204.171 366.441 203.872C365.694 203.552 365.086 203.008 364.617 202.24C364.147 201.472 363.913 200.395 363.913 199.008V189.024H361.481V187.68L363.945 186.56L365.065 182.912H366.729V186.848H371.689V189.024H366.729V198.944C366.729 199.989 366.974 200.768 367.465 201.28C367.977 201.771 368.627 202.016 369.417 202.016ZM381.747 186.56C383.838 186.56 385.385 187.019 386.387 187.936C387.39 188.853 387.891 190.315 387.891 192.32V204H385.843L385.299 201.568H385.171C384.425 202.507 383.635 203.2 382.803 203.648C381.993 204.096 380.862 204.32 379.411 204.32C377.854 204.32 376.563 203.915 375.539 203.104C374.515 202.272 374.003 200.981 374.003 199.232C374.003 197.525 374.675 196.213 376.019 195.296C377.363 194.357 379.433 193.845 382.227 193.76L385.139 193.664V192.64C385.139 191.211 384.83 190.219 384.211 189.664C383.593 189.109 382.718 188.832 381.587 188.832C380.691 188.832 379.838 188.971 379.027 189.248C378.217 189.504 377.459 189.803 376.755 190.144L375.891 188.032C376.638 187.627 377.523 187.285 378.547 187.008C379.571 186.709 380.638 186.56 381.747 186.56ZM382.579 195.712C380.446 195.797 378.963 196.139 378.131 196.736C377.321 197.333 376.915 198.176 376.915 199.264C376.915 200.224 377.203 200.928 377.779 201.376C378.377 201.824 379.134 202.048 380.051 202.048C381.502 202.048 382.707 201.653 383.667 200.864C384.627 200.053 385.107 198.816 385.107 197.152V195.616L382.579 195.712ZM404.317 204H401.501V179.68H404.317V204ZM416.375 186.528C417.847 186.528 419.106 186.848 420.151 187.488C421.218 188.128 422.029 189.035 422.583 190.208C423.159 191.36 423.447 192.715 423.447 194.272V195.968H411.703C411.746 197.909 412.237 199.392 413.175 200.416C414.135 201.419 415.469 201.92 417.175 201.92C418.263 201.92 419.223 201.824 420.055 201.632C420.909 201.419 421.783 201.12 422.679 200.736V203.2C421.805 203.584 420.941 203.861 420.087 204.032C419.234 204.224 418.221 204.32 417.047 204.32C415.426 204.32 413.986 203.989 412.727 203.328C411.49 202.667 410.519 201.685 409.815 200.384C409.133 199.061 408.791 197.451 408.791 195.552C408.791 193.675 409.101 192.064 409.719 190.72C410.359 189.376 411.245 188.341 412.375 187.616C413.527 186.891 414.861 186.528 416.375 186.528ZM416.343 188.832C414.999 188.832 413.933 189.269 413.143 190.144C412.375 190.997 411.917 192.192 411.767 193.728H420.503C420.482 192.277 420.141 191.104 419.479 190.208C418.818 189.291 417.773 188.832 416.343 188.832ZM430.63 185.6C430.63 186.325 430.608 187.008 430.566 187.648C430.544 188.267 430.512 188.757 430.47 189.12H430.63C431.12 188.395 431.792 187.787 432.646 187.296C433.499 186.805 434.598 186.56 435.942 186.56C438.075 186.56 439.782 187.307 441.062 188.8C442.363 190.272 443.014 192.48 443.014 195.424C443.014 198.368 442.363 200.587 441.062 202.08C439.76 203.573 438.054 204.32 435.942 204.32C434.598 204.32 433.499 204.075 432.646 203.584C431.792 203.093 431.12 202.507 430.63 201.824H430.406L429.83 204H427.814V179.68H430.63V185.6ZM435.462 188.896C433.648 188.896 432.39 189.419 431.686 190.464C430.982 191.509 430.63 193.131 430.63 195.328V195.456C430.63 197.568 430.971 199.189 431.654 200.32C432.358 201.429 433.648 201.984 435.526 201.984C437.062 201.984 438.203 201.419 438.95 200.288C439.718 199.157 440.102 197.525 440.102 195.392C440.102 191.061 438.555 188.896 435.462 188.896ZM448.941 180.416C449.368 180.416 449.741 180.565 450.061 180.864C450.403 181.141 450.573 181.589 450.573 182.208C450.573 182.805 450.403 183.253 450.061 183.552C449.741 183.851 449.368 184 448.941 184C448.472 184 448.077 183.851 447.757 183.552C447.437 183.253 447.277 182.805 447.277 182.208C447.277 181.589 447.437 181.141 447.757 180.864C448.077 180.565 448.472 180.416 448.941 180.416ZM450.317 186.848V204H447.501V186.848H450.317ZM458.567 186.816C458.567 187.669 458.514 188.469 458.407 189.216H458.599C459.154 188.341 459.901 187.68 460.839 187.232C461.799 186.784 462.834 186.56 463.943 186.56C466.034 186.56 467.602 187.061 468.647 188.064C469.693 189.045 470.215 190.635 470.215 192.832V204H467.431V193.024C467.431 190.272 466.151 188.896 463.591 188.896C461.671 188.896 460.349 189.44 459.623 190.528C458.919 191.595 458.567 193.131 458.567 195.136V204H455.751V179.68H458.567V186.816ZM101.8 248.32C99.6667 248.32 97.96 247.584 96.68 246.112C95.4 244.619 94.76 242.4 94.76 239.456C94.76 236.512 95.4 234.293 96.68 232.8C97.9813 231.285 99.6987 230.528 101.832 230.528C103.155 230.528 104.232 230.773 105.064 231.264C105.917 231.755 106.611 232.352 107.144 233.056H107.336C107.315 232.779 107.272 232.373 107.208 231.84C107.165 231.285 107.144 230.848 107.144 230.528V223.68H109.96V248H107.688L107.272 245.696H107.144C106.632 246.421 105.949 247.04 105.096 247.552C104.243 248.064 103.144 248.32 101.8 248.32ZM102.248 245.984C104.061 245.984 105.331 245.493 106.056 244.512C106.803 243.509 107.176 242.005 107.176 240V239.488C107.176 237.355 106.824 235.723 106.12 234.592C105.416 233.44 104.115 232.864 102.216 232.864C100.701 232.864 99.56 233.472 98.792 234.688C98.0453 235.883 97.672 237.493 97.672 239.52C97.672 241.568 98.0453 243.157 98.792 244.288C99.56 245.419 100.712 245.984 102.248 245.984ZM121.904 230.56C123.994 230.56 125.541 231.019 126.544 231.936C127.546 232.853 128.048 234.315 128.048 236.32V248H126L125.456 245.568H125.328C124.581 246.507 123.792 247.2 122.96 247.648C122.149 248.096 121.018 248.32 119.568 248.32C118.01 248.32 116.72 247.915 115.696 247.104C114.672 246.272 114.16 244.981 114.16 243.232C114.16 241.525 114.832 240.213 116.176 239.296C117.52 238.357 119.589 237.845 122.384 237.76L125.296 237.664V236.64C125.296 235.211 124.986 234.219 124.368 233.664C123.749 233.109 122.874 232.832 121.744 232.832C120.848 232.832 119.994 232.971 119.184 233.248C118.373 233.504 117.616 233.803 116.911 234.144L116.048 232.032C116.794 231.627 117.68 231.285 118.704 231.008C119.728 230.709 120.794 230.56 121.904 230.56ZM122.736 239.712C120.602 239.797 119.12 240.139 118.288 240.736C117.477 241.333 117.072 242.176 117.072 243.264C117.072 244.224 117.36 244.928 117.936 245.376C118.533 245.824 119.29 246.048 120.208 246.048C121.658 246.048 122.864 245.653 123.824 244.864C124.784 244.053 125.264 242.816 125.264 241.152V239.616L122.736 239.712ZM141.345 230.528C141.665 230.528 142.006 230.549 142.369 230.592C142.753 230.613 143.084 230.656 143.361 230.72L143.009 233.312C142.732 233.248 142.422 233.195 142.081 233.152C141.761 233.109 141.452 233.088 141.153 233.088C140.278 233.088 139.457 233.333 138.689 233.824C137.921 234.293 137.302 234.965 136.833 235.84C136.385 236.693 136.161 237.696 136.161 238.848V248H133.345V230.848H135.649L135.969 233.984H136.097C136.652 233.045 137.366 232.235 138.241 231.552C139.116 230.869 140.15 230.528 141.345 230.528ZM148.004 224.416C148.43 224.416 148.804 224.565 149.124 224.864C149.465 225.141 149.636 225.589 149.636 226.208C149.636 226.805 149.465 227.253 149.124 227.552C148.804 227.851 148.43 228 148.004 228C147.534 228 147.14 227.851 146.82 227.552C146.5 227.253 146.34 226.805 146.34 226.208C146.34 225.589 146.5 225.141 146.82 224.864C147.14 224.565 147.534 224.416 148.004 224.416ZM149.38 230.848V248H146.564V230.848H149.38ZM164.566 224.416C164.993 224.416 165.366 224.565 165.686 224.864C166.028 225.141 166.198 225.589 166.198 226.208C166.198 226.805 166.028 227.253 165.686 227.552C165.366 227.851 164.993 228 164.566 228C164.097 228 163.702 227.851 163.382 227.552C163.062 227.253 162.902 226.805 162.902 226.208C162.902 225.589 163.062 225.141 163.382 224.864C163.702 224.565 164.097 224.416 164.566 224.416ZM165.942 230.848V248H163.126V230.848H165.942ZM179.632 230.528C181.68 230.528 183.227 231.029 184.272 232.032C185.318 233.013 185.84 234.613 185.84 236.832V248H183.056V237.024C183.056 234.272 181.776 232.896 179.216 232.896C177.318 232.896 176.006 233.429 175.28 234.496C174.555 235.563 174.192 237.099 174.192 239.104V248H171.376V230.848H173.648L174.064 233.184H174.224C174.779 232.288 175.547 231.627 176.528 231.2C177.51 230.752 178.544 230.528 179.632 230.528ZM192.598 224.416C193.024 224.416 193.398 224.565 193.718 224.864C194.059 225.141 194.23 225.589 194.23 226.208C194.23 226.805 194.059 227.253 193.718 227.552C193.398 227.851 193.024 228 192.598 228C192.128 228 191.734 227.851 191.414 227.552C191.094 227.253 190.934 226.805 190.934 226.208C190.934 225.589 191.094 225.141 191.414 224.864C191.734 224.565 192.128 224.416 192.598 224.416ZM193.974 230.848V248H191.158V230.848H193.974Z" fill="black"/>
<mask id="mask0_128:1295" style="mask-type:alpha" maskUnits="userSpaceOnUse" x="32" y="8" width="757" height="454">
<rect x="32" y="8" width="757" height="454" rx="12" fill="#C4C4C4"/>
</mask>
<g mask="url(#mask0_128:1295)">
<g clip-path="url(#clip0_128:1295)">
<path d="M641.155 299.415C639.567 298.048 637.629 297.15 635.559 296.822C633.489 296.494 631.368 296.749 629.435 297.559C623.605 300.102 621.066 307.245 621.473 313.592C621.881 319.94 624.526 325.894 626.239 332.02C628.54 340.248 629.137 349.166 626.441 357.273C623.744 365.379 617.399 372.524 609.168 374.815C601.529 376.943 593.426 374.81 585.786 372.683" stroke="#3F3D56" stroke-miterlimit="10"/>
<path d="M654.986 286.731C655.037 285.858 654.915 284.983 654.628 284.156C654.34 283.33 653.893 282.568 653.311 281.915C652.729 281.261 652.024 280.729 651.236 280.348C650.449 279.967 649.594 279.745 648.72 279.694C647.846 279.644 646.972 279.766 646.145 280.054C645.319 280.342 644.557 280.79 643.904 281.372C643.251 281.954 642.719 282.66 642.339 283.448C641.958 284.236 641.737 285.091 641.687 285.964L640.92 299.263L654.219 300.031C655.092 300.081 655.967 299.959 656.793 299.671C657.619 299.384 658.38 298.936 659.033 298.354C659.686 297.772 660.218 297.067 660.599 296.28C660.98 295.493 661.201 294.638 661.252 293.765C661.302 292.891 661.18 292.017 660.892 291.191C660.605 290.365 660.157 289.603 659.575 288.95C658.994 288.297 658.289 287.765 657.501 287.384C656.714 287.004 655.859 286.782 654.986 286.731V286.731Z" fill="#E52760"/>
<path d="M640.685 321.36C640.786 319.596 640.183 317.864 639.008 316.545C637.833 315.226 636.182 314.428 634.419 314.326C632.655 314.225 630.923 314.828 629.604 316.003C628.286 317.178 627.487 318.829 627.386 320.593L626.619 333.892L639.918 334.659C641.681 334.759 643.411 334.156 644.729 332.981C646.047 331.806 646.845 330.155 646.947 328.392C647.048 326.63 646.446 324.898 645.272 323.58C644.097 322.261 642.448 321.462 640.685 321.36V321.36Z" fill="#E52760"/>
<path d="M621.522 284.265C620.852 283.702 620.077 283.277 619.243 283.014C618.408 282.751 617.53 282.655 616.658 282.732C615.786 282.809 614.938 283.056 614.162 283.461C613.386 283.865 612.697 284.419 612.135 285.09C611.573 285.76 611.149 286.535 610.887 287.37C610.624 288.205 610.529 289.083 610.606 289.955C610.684 290.827 610.932 291.675 611.337 292.45C611.742 293.226 612.296 293.914 612.967 294.476L623.178 303.031L631.733 292.82C632.296 292.149 632.721 291.375 632.984 290.54C633.247 289.706 633.343 288.827 633.266 287.956C633.189 287.084 632.942 286.236 632.537 285.46C632.133 284.684 631.579 283.995 630.908 283.433C630.238 282.871 629.463 282.447 628.628 282.184C627.793 281.922 626.915 281.827 626.043 281.904C625.171 281.981 624.323 282.229 623.548 282.635C622.772 283.04 622.084 283.594 621.522 284.265H621.522Z" fill="#E52760"/>
<path d="M701.065 293.352C699.898 291.611 698.27 290.229 696.362 289.362C694.454 288.494 692.342 288.175 690.263 288.441C683.966 289.339 679.616 295.547 678.318 301.774C677.02 308.001 677.984 314.445 678.003 320.806C678.029 329.349 676.229 338.104 671.471 345.199C666.712 352.295 658.693 357.491 650.149 357.507C642.219 357.523 634.977 353.308 628.18 349.224" stroke="#3F3D56" stroke-miterlimit="10"/>
<path d="M717.774 284.811C718.055 283.983 718.171 283.107 718.113 282.234C718.056 281.362 717.828 280.509 717.441 279.724C717.054 278.94 716.516 278.239 715.859 277.662C715.201 277.086 714.436 276.644 713.608 276.363C712.78 276.082 711.904 275.967 711.031 276.024C710.159 276.081 709.306 276.31 708.521 276.696C707.737 277.083 707.036 277.621 706.459 278.278C705.883 278.936 705.441 279.701 705.16 280.529L700.878 293.143L713.492 297.425C714.32 297.706 715.196 297.822 716.069 297.765C716.942 297.707 717.795 297.479 718.579 297.092C719.364 296.705 720.064 296.167 720.641 295.51C721.218 294.852 721.659 294.087 721.94 293.259C722.221 292.431 722.337 291.555 722.279 290.683C722.222 289.81 721.994 288.957 721.607 288.172C721.22 287.388 720.682 286.687 720.025 286.11C719.367 285.534 718.602 285.092 717.774 284.811V284.811Z" fill="#E52760"/>
<path d="M694.767 314.378C695.334 312.705 695.214 310.876 694.433 309.291C693.652 307.707 692.273 306.498 690.6 305.93C688.928 305.362 687.098 305.482 685.513 306.264C683.929 307.045 682.72 308.424 682.152 310.096L677.87 322.711L690.485 326.993C692.157 327.56 693.987 327.44 695.572 326.659C697.156 325.878 698.365 324.499 698.933 322.826C699.501 321.154 699.381 319.324 698.599 317.739C697.818 316.155 696.439 314.946 694.767 314.378V314.378Z" fill="#E52760"/>
<path d="M686.178 273.519C685.681 272.799 685.048 272.183 684.313 271.707C683.579 271.231 682.758 270.905 681.897 270.747C681.037 270.588 680.153 270.601 679.298 270.784C678.442 270.968 677.631 271.318 676.91 271.814C676.19 272.311 675.575 272.945 675.099 273.68C674.624 274.415 674.298 275.236 674.141 276.097C673.983 276.957 673.996 277.841 674.18 278.696C674.364 279.552 674.714 280.363 675.212 281.083L682.775 292.049L693.741 284.485C695.195 283.482 696.191 281.943 696.51 280.205C696.829 278.468 696.445 276.675 695.442 275.221C694.439 273.767 692.9 272.77 691.162 272.451C689.425 272.132 687.632 272.517 686.178 273.519V273.519Z" fill="#E52760"/>
<path d="M672.359 204.552C674.429 204.226 676.549 204.483 678.482 205.294C680.414 206.105 682.082 207.439 683.299 209.145C686.917 214.377 685.314 221.786 681.625 226.968C677.936 232.15 672.552 235.819 667.87 240.125C661.581 245.908 656.378 253.174 654.401 261.486C652.425 269.798 654.057 279.213 659.848 285.495C665.222 291.326 673.234 293.78 680.848 295.995" stroke="#3F3D56" stroke-miterlimit="10"/>
<path d="M667.28 186.486C667.697 185.717 668.262 185.038 668.941 184.487C669.621 183.937 670.402 183.525 671.24 183.276C672.079 183.027 672.958 182.946 673.828 183.037C674.698 183.128 675.542 183.39 676.311 183.807C677.079 184.224 677.759 184.788 678.309 185.468C678.86 186.147 679.272 186.928 679.521 187.767C679.769 188.605 679.851 189.485 679.76 190.355C679.668 191.225 679.407 192.068 678.99 192.837L672.639 204.547L660.929 198.196C660.16 197.779 659.481 197.215 658.93 196.535C658.38 195.856 657.968 195.074 657.719 194.236C657.47 193.397 657.389 192.518 657.48 191.648C657.571 190.778 657.833 189.935 658.25 189.166C658.667 188.397 659.231 187.718 659.911 187.167C660.59 186.616 661.371 186.204 662.21 185.956C663.049 185.707 663.928 185.626 664.798 185.717C665.668 185.808 666.511 186.069 667.28 186.486V186.486Z" fill="#E52760"/>
<path d="M661.203 223.455C661.62 222.686 662.184 222.007 662.864 221.456C663.543 220.905 664.325 220.494 665.163 220.245C666.002 219.996 666.881 219.915 667.751 220.006C668.621 220.097 669.464 220.358 670.233 220.775C671.002 221.192 671.681 221.757 672.232 222.436C672.783 223.116 673.195 223.897 673.443 224.736C673.692 225.574 673.773 226.454 673.682 227.323C673.591 228.193 673.33 229.037 672.913 229.806L666.562 241.516L654.852 235.165C654.083 234.748 653.404 234.183 652.853 233.504C652.302 232.824 651.891 232.043 651.642 231.205C651.393 230.366 651.312 229.487 651.403 228.617C651.494 227.747 651.756 226.903 652.173 226.134C652.59 225.366 653.154 224.686 653.833 224.136C654.513 223.585 655.294 223.173 656.133 222.924C656.971 222.676 657.851 222.594 658.721 222.685C659.591 222.776 660.434 223.038 661.203 223.455L661.203 223.455Z" fill="#E52760"/>
<path d="M697.027 202.01C697.893 201.885 698.775 201.932 699.623 202.148C700.471 202.364 701.269 202.745 701.969 203.269C702.67 203.793 703.261 204.45 703.707 205.203C704.154 205.955 704.448 206.788 704.573 207.654C704.697 208.521 704.65 209.403 704.433 210.251C704.217 211.099 703.835 211.896 703.311 212.596C702.786 213.296 702.128 213.886 701.375 214.333C700.623 214.779 699.789 215.072 698.923 215.196L685.737 217.092L683.841 203.906C683.59 202.158 684.043 200.381 685.102 198.967C686.161 197.553 687.738 196.617 689.486 196.366C691.235 196.114 693.011 196.568 694.426 197.626C695.84 198.685 696.775 200.262 697.027 202.01Z" fill="#E52760"/>
<path d="M558.502 345.52H546.23V351.901H558.502V345.52Z" fill="#FBBEBE"/>
<path opacity="0.1" d="M558.502 345.52H546.23V351.901H558.502V345.52Z" fill="black"/>
<path d="M523.65 253.726C532.325 253.726 539.358 246.693 539.358 238.018C539.358 229.342 532.325 222.31 523.65 222.31C514.974 222.31 507.942 229.342 507.942 238.018C507.942 246.693 514.974 253.726 523.65 253.726Z" fill="#2F2E41"/>
<path d="M559.238 342.329C559.238 342.329 554.329 340.856 553.348 341.347C552.366 341.838 556.784 345.765 556.784 345.765L559.238 342.329Z" fill="#FBBEBE"/>
<path opacity="0.1" d="M559.238 342.329C559.238 342.329 554.329 340.856 553.348 341.347C552.366 341.838 556.784 345.765 556.784 345.765L559.238 342.329Z" fill="black"/>
<path d="M531.258 435.596C531.258 435.596 524.877 462.594 525.859 464.067C526.84 465.539 528.804 469.466 526.84 470.939C524.877 472.411 517.023 472.902 517.023 472.902L519.477 458.667L522.913 441.486L531.258 435.596Z" fill="#2F2E41"/>
<path d="M513.587 378.654L519.968 407.616C519.968 407.616 520.95 421.851 518.495 427.251C516.041 432.65 502.787 489.592 502.787 489.592C502.787 489.592 516.532 490.083 519.477 488.61C522.422 487.138 527.39 453.137 527.39 453.137C527.39 453.137 543.53 420.869 543.039 414.488C542.548 408.106 545.478 375.69 541.313 373.245C537.149 370.8 513.587 378.654 513.587 378.654Z" fill="#2F2E41"/>
<path d="M590.164 370.309L603.908 369.327L613.235 374.236L612.253 380.127L608.326 381.108C608.326 381.108 597.527 376.691 591.145 378.163C584.764 379.636 590.164 370.309 590.164 370.309Z" fill="#A0616A"/>
<path d="M606.362 372.273C606.362 372.273 611.762 378.179 606.362 380.38C606.362 380.38 607.344 382.09 611.271 382.581C615.198 383.072 620.598 386.508 622.07 386.508C623.543 386.508 629.924 385.526 625.997 380.127C622.07 374.727 606.362 362.946 606.362 362.946C606.362 362.946 601.944 360.982 600.472 364.909C598.999 368.836 598.222 369.733 598.222 369.733C598.222 369.733 605.381 371.291 606.362 372.273Z" fill="#2F2E41"/>
<path d="M565.129 419.397C565.129 419.397 569.547 436.086 569.547 437.068C569.547 438.05 575.437 433.141 575.437 433.141L576.419 424.305C576.419 424.305 572.492 420.378 572.492 417.924C572.492 415.47 565.129 419.397 565.129 419.397Z" fill="#A0616A"/>
<path d="M573.964 431.178C573.964 431.178 570.528 435.596 568.074 434.123L569.547 450.813C569.547 450.813 570.528 459.158 573.964 455.722C577.401 452.286 580.837 435.105 580.837 435.105C580.837 435.105 585.746 424.796 581.819 423.324C579.589 422.47 577.29 421.813 574.946 421.36C574.946 421.36 574.946 431.669 573.964 431.178Z" fill="#2F2E41"/>
<path d="M542.058 375.218L556.784 405.652C556.784 405.652 561.693 422.833 563.656 423.324C565.62 423.815 572.983 420.379 573.965 419.888C574.946 419.397 565.62 400.253 565.62 396.816C565.62 393.38 554.33 374.236 554.33 374.236L542.058 375.218Z" fill="#FF6584"/>
<path opacity="0.1" d="M542.058 375.218L556.784 405.652C556.784 405.652 561.693 422.833 563.656 423.324C565.62 423.815 572.983 420.379 573.965 419.888C574.946 419.397 565.62 400.253 565.62 396.816C565.62 393.38 554.33 374.236 554.33 374.236L542.058 375.218Z" fill="black"/>
<path d="M552.366 322.203C552.366 322.203 552.857 332.511 550.893 339.384C548.93 346.256 553.348 368.836 553.348 368.836C553.348 368.836 560.711 369.327 562.674 368.836C564.638 368.345 591.145 367.855 592.618 368.836C594.09 369.818 593.6 386.999 592.618 386.508C591.636 386.017 566.11 380.617 553.839 382.581C541.567 384.544 540.094 381.599 539.603 380.617C539.112 379.636 530.767 353.128 530.767 353.128L527.822 340.365L523.895 326.621L526.349 313.367L552.366 322.203Z" fill="#FF6584"/>
<path d="M522.668 258.144C529.988 258.144 535.922 252.21 535.922 244.89C535.922 237.57 529.988 231.636 522.668 231.636C515.348 231.636 509.414 237.57 509.414 244.89C509.414 252.21 515.348 258.144 522.668 258.144Z" fill="#A0616A"/>
<path d="M497.879 289.314C505.198 289.314 511.132 283.38 511.132 276.061C511.132 268.741 505.198 262.807 497.879 262.807C490.559 262.807 484.625 268.741 484.625 276.061C484.625 283.38 490.559 289.314 497.879 289.314Z" fill="#FBBEBE"/>
<path d="M526.349 253.971C526.349 253.971 535.185 259.861 533.713 263.297C532.24 266.734 528.313 270.661 528.313 270.661L527.822 276.06L535.185 278.515L553.838 279.496C553.838 279.496 552.857 262.807 546.966 258.389C541.076 253.971 534.203 251.026 533.222 247.099C532.24 243.172 526.349 253.971 526.349 253.971Z" fill="#A0616A"/>
<path d="M550.705 266.079C547.493 260.078 538.454 260.807 536.581 267.351C536.336 268.144 536.259 268.979 536.357 269.803C536.455 270.627 536.725 271.421 537.149 272.134C540.585 278.024 543.04 282.442 543.04 282.442L553.839 281.46C553.839 281.46 554.051 272.33 550.705 266.079Z" fill="#A0616A"/>
<path d="M529.927 268.9C529.927 268.9 517.023 277.042 518.005 282.442C518.987 287.841 519.968 297.168 519.968 300.604C519.968 304.04 523.405 314.84 528.313 316.803C533.222 318.767 533.222 313.367 540.094 319.748C546.967 326.13 554.33 329.075 553.839 330.057C553.348 331.039 555.803 321.221 551.875 317.294C547.948 313.367 543.531 302.077 547.458 297.168C551.385 292.259 554.821 279.497 554.821 279.497C554.821 279.497 554.33 276.551 551.385 277.042C548.439 277.533 530.277 275.57 529.295 273.115C529.009 272.421 528.916 271.663 529.028 270.92C529.139 270.178 529.45 269.48 529.927 268.9V268.9Z" fill="#2F2E41"/>
<path d="M528.095 273.063C528.095 273.063 541.567 258.389 543.53 258.88C545.494 259.371 551.148 265.18 551.148 265.18L543.53 259.862L528.095 273.89L528.095 273.063Z" fill="#2F2E41"/>
<path d="M509.169 278.515C509.169 278.515 511.013 298.369 513.527 300.223C516.041 302.077 494.442 301.586 494.442 301.586C494.442 301.586 499.351 286.369 496.406 284.405C493.461 282.442 509.169 278.515 509.169 278.515Z" fill="#FBBEBE"/>
<path d="M514.078 294.714C514.078 294.714 497.388 290.296 495.424 292.75C493.461 295.205 489.534 316.312 489.534 316.312C489.534 316.312 491.497 330.548 494.933 340.856C498.369 351.165 502.787 387.489 506.224 387.489C509.66 387.489 515.55 382.09 517.023 382.09C518.495 382.09 527.331 377.672 532.731 378.654C535.833 379.264 539.037 379.095 542.058 378.163C542.058 378.163 539.603 357.546 533.713 352.146C527.822 346.747 524.877 309.44 524.877 309.44C524.877 309.44 516.532 293.732 514.078 294.714Z" fill="#3F3D56"/>
<path d="M539.603 341.347C539.603 341.347 545.185 348.923 550.739 349.308L553.838 349.201C553.838 349.201 548.93 361.964 551.384 362.455C553.838 362.946 561.202 353.128 558.747 347.729C556.293 342.329 548.93 333.984 548.93 333.984L539.603 341.347Z" fill="#FBBEBE"/>
<path d="M559.239 341.347C559.239 341.347 550.894 349.201 554.33 352.637C557.766 356.074 562.184 352.637 562.184 352.637C562.184 352.637 565.62 347.729 559.239 341.347Z" fill="#FBBEBE"/>
<path opacity="0.1" d="M559.239 341.347C559.239 341.347 550.894 349.201 554.33 352.637C557.766 356.074 562.184 352.637 562.184 352.637C562.184 352.637 565.62 347.729 559.239 341.347Z" fill="black"/>
<path d="M527.086 250.78C535.761 250.78 542.794 243.748 542.794 235.072C542.794 226.397 535.761 219.364 527.086 219.364C518.41 219.364 511.378 226.397 511.378 235.072C511.378 243.748 518.41 250.78 527.086 250.78Z" fill="#2F2E41"/>
<path d="M534.449 231.145C539.6 231.145 543.776 226.97 543.776 221.819C543.776 216.668 539.6 212.492 534.449 212.492C529.298 212.492 525.122 216.668 525.122 221.819C525.122 226.97 529.298 231.145 534.449 231.145Z" fill="#2F2E41"/>
<path d="M527.086 218.874C527.086 216.57 527.939 214.348 529.479 212.636C531.02 210.923 533.14 209.842 535.431 209.599C535.105 209.565 534.777 209.547 534.449 209.547C533.182 209.546 531.929 209.803 530.765 210.303C529.601 210.802 528.551 211.534 527.679 212.453C526.807 213.371 526.131 214.458 525.693 215.647C525.254 216.835 525.063 218.1 525.129 219.365C525.196 220.63 525.52 221.868 526.081 223.004C526.642 224.14 527.428 225.149 528.392 225.971C529.356 226.793 530.477 227.409 531.687 227.784C532.897 228.158 534.171 228.282 535.431 228.148C533.14 227.905 531.02 226.824 529.479 225.111C527.939 223.399 527.086 221.177 527.086 218.874V218.874Z" fill="#2F2E41"/>
<path d="M521.932 250.781C528.845 250.781 534.449 246.605 534.449 241.454C534.449 236.303 528.845 232.127 521.932 232.127C515.019 232.127 509.414 236.303 509.414 241.454C509.414 246.605 515.019 250.781 521.932 250.781Z" fill="#2F2E41"/>
<path d="M498.432 271.14C498.26 272.061 497.851 272.987 498.196 273.936C498.452 274.639 499.075 275.196 499.449 275.862C500.203 277.202 499.704 278.918 498.408 279.443C497.679 279.022 496.823 278.878 495.997 279.035C495.62 279.12 495.288 279.34 495.063 279.654C494.839 279.968 494.738 280.354 494.78 280.737C494.953 281.871 496.274 282.597 496.946 283.608C497.359 284.366 497.637 285.189 497.767 286.042C498.097 287.366 498.679 288.68 498.747 290.004C498.814 291.329 498.17 292.728 496.856 292.918C495.751 293.077 494.563 292.328 493.764 291.419C492.965 290.51 492.426 289.432 491.694 288.475C489.315 285.365 485.25 283.916 482.498 281.093C478.97 277.477 478.223 272.12 479.485 267.85C480.015 266.057 480.892 264.343 482.382 263.249C483.946 262.101 486.034 261.734 487.785 260.841C489.658 259.886 491.095 258.359 492.751 257.112C494.407 255.865 496.459 254.866 498.72 255.202C500.297 255.436 501.792 256.295 503.357 256.699C505.058 257.164 506.868 257.015 508.47 256.278L507.016 257.838C508.063 258.253 509.189 258.424 510.311 258.337C509.859 259.264 509.067 259.979 508.1 260.335C508.882 260.947 509.866 261.244 510.856 261.166C509.777 262.399 508.618 263.681 506.956 264.111C506.141 264.321 505.255 264.311 504.414 264.449C502.622 264.741 501.114 265.687 499.651 266.616C498.882 267.103 497.916 267.656 497.922 268.668C497.926 269.51 498.607 270.198 498.432 271.14Z" fill="#2F2E41"/>
<path d="M504.26 299.622C504.26 299.622 499.843 315.821 507.697 319.258C515.551 322.694 531.75 335.456 534.695 339.874C537.64 344.292 541.076 345.765 541.076 345.765C541.076 345.765 552.857 335.947 550.403 333.002C547.948 330.057 538.131 321.221 538.131 321.221C538.131 321.221 513.096 294.223 504.26 299.622Z" fill="#3F3D56"/>
<path d="M543.039 300.114C543.039 300.114 525.005 294.958 519.541 294.1C514.078 293.241 499.842 294.714 502.787 297.168C505.733 299.623 522.913 301.586 522.913 301.586L543.53 309.44L543.039 300.114Z" fill="#A0616A"/>
<path d="M543.039 279.988C543.039 279.988 544.512 289.805 544.512 293.241C544.512 296.677 546.966 299.623 545.003 299.623C543.039 299.623 541.567 297.659 541.567 299.623C541.567 301.586 538.622 313.367 541.567 313.367C544.512 313.367 551.875 311.404 553.348 311.404C554.82 311.404 559.729 310.422 559.238 305.022C558.748 299.623 556.784 293.732 557.766 292.75C558.748 291.769 559.238 286.86 558.257 285.878C557.275 284.896 554.82 278.515 554.82 278.515L543.039 279.988Z" fill="#2F2E41"/>
<g opacity="0.3">
<path opacity="0.3" d="M646.796 379.905C645.89 379.796 644.978 380.051 644.261 380.615C643.543 381.179 643.079 382.004 642.97 382.91C642.861 383.816 643.117 384.728 643.681 385.446C644.244 386.163 645.07 386.627 645.976 386.736L652.807 387.557L653.628 380.725C653.682 380.276 653.646 379.822 653.525 379.387C653.403 378.952 653.196 378.545 652.917 378.19C652.638 377.834 652.292 377.537 651.898 377.316C651.504 377.095 651.071 376.953 650.622 376.899C650.173 376.845 649.719 376.88 649.284 377.002C648.849 377.124 648.442 377.33 648.087 377.609C647.731 377.889 647.434 378.235 647.213 378.629C646.992 379.023 646.85 379.456 646.796 379.905V379.905Z" fill="#E52760"/>
</g>
<g opacity="0.3">
<path opacity="0.3" d="M729.131 347.077C728.336 346.63 727.396 346.517 726.518 346.762C725.64 347.008 724.895 347.592 724.448 348.386C724 349.181 723.886 350.12 724.13 350.998C724.375 351.877 724.958 352.622 725.752 353.071L731.746 356.449L735.125 350.455C735.347 350.062 735.49 349.628 735.545 349.179C735.599 348.731 735.565 348.276 735.444 347.84C735.323 347.404 735.117 346.997 734.838 346.641C734.559 346.285 734.213 345.988 733.819 345.766C733.425 345.544 732.991 345.402 732.543 345.347C732.094 345.293 731.639 345.328 731.203 345.45C730.768 345.571 730.361 345.778 730.005 346.057C729.649 346.336 729.352 346.683 729.131 347.077V347.077Z" fill="#E52760"/>
</g>
<g opacity="0.3">
<path opacity="0.3" d="M692.448 393.649C691.999 393.595 691.544 393.63 691.109 393.752C690.674 393.874 690.267 394.081 689.912 394.36C689.557 394.639 689.26 394.985 689.039 395.379C688.817 395.773 688.676 396.206 688.622 396.655C688.568 397.103 688.603 397.558 688.725 397.993C688.847 398.428 689.053 398.835 689.332 399.19C689.611 399.546 689.958 399.842 690.351 400.064C690.745 400.285 691.179 400.427 691.627 400.481L698.459 401.301L699.279 394.47C699.388 393.564 699.133 392.652 698.569 391.934C698.005 391.217 697.18 390.752 696.274 390.644C695.368 390.535 694.456 390.79 693.738 391.354C693.021 391.918 692.556 392.743 692.448 393.649Z" fill="#E52760"/>
</g>
</g>
</g>
<defs>
<filter id="filter0_dddd_128:1295" x="0" y="0" width="821" height="518" filterUnits="userSpaceOnUse" color-interpolation-filters="sRGB">
<feFlood flood-opacity="0" result="BackgroundImageFix"/>
<feColorMatrix in="SourceAlpha" type="matrix" values="0 0 0 0 0 0 0 0 0 0 0 0 0 0 0 0 0 0 127 0" result="hardAlpha"/>
<feOffset/>
<feGaussianBlur stdDeviation="0.5"/>
<feColorMatrix type="matrix" values="0 0 0 0 0 0 0 0 0 0 0 0 0 0 0 0 0 0 0.04 0"/>
<feBlend mode="normal" in2="BackgroundImageFix" result="effect1_dropShadow_128:1295"/>
<feColorMatrix in="SourceAlpha" type="matrix" values="0 0 0 0 0 0 0 0 0 0 0 0 0 0 0 0 0 0 127 0" result="hardAlpha"/>
<feOffset dy="4"/>
<feGaussianBlur stdDeviation="4"/>
<feColorMatrix type="matrix" values="0 0 0 0 0 0 0 0 0 0 0 0 0 0 0 0 0 0 0.04 0"/>
<feBlend mode="normal" in2="effect1_dropShadow_128:1295" result="effect2_dropShadow_128:1295"/>
<feColorMatrix in="SourceAlpha" type="matrix" values="0 0 0 0 0 0 0 0 0 0 0 0 0 0 0 0 0 0 127 0" result="hardAlpha"/>
<feOffset dy="16"/>
<feGaussianBlur stdDeviation="12"/>
<feColorMatrix type="matrix" values="0 0 0 0 0 0 0 0 0 0 0 0 0 0 0 0 0 0 0.04 0"/>
<feBlend mode="normal" in2="effect2_dropShadow_128:1295" result="effect3_dropShadow_128:1295"/>
<feColorMatrix in="SourceAlpha" type="matrix" values="0 0 0 0 0 0 0 0 0 0 0 0 0 0 0 0 0 0 127 0" result="hardAlpha"/>
<feOffset dy="24"/>
<feGaussianBlur stdDeviation="16"/>
<feColorMatrix type="matrix" values="0 0 0 0 0 0 0 0 0 0 0 0 0 0 0 0 0 0 0.04 0"/>
<feBlend mode="normal" in2="effect3_dropShadow_128:1295" result="effect4_dropShadow_128:1295"/>
<feBlend mode="normal" in="SourceGraphic" in2="effect4_dropShadow_128:1295" result="shape"/>
</filter>
<clipPath id="clip0_128:1295">
<rect width="488.42" height="325" fill="white" transform="translate(330 183)"/>
</clipPath>
</defs>
</svg>
