<svg width="821" height="618" viewBox="0 0 821 618" fill="none" xmlns="http://www.w3.org/2000/svg">
<g filter="url(#filter0_dddd_128:1056)">
<rect x="32" y="8" width="757" height="454" rx="12" fill="#F6F6F6"/>
</g>
<path d="M101.016 92.248H87.256V82.2H127.384V92.248H113.688V127H101.016V92.248ZM132.105 82.2H144.777V127H132.105V82.2ZM153.793 82.2H174.977C179.883 82.2 184.235 83.1173 188.033 84.952C191.83 86.7867 194.774 89.3893 196.865 92.76C198.955 96.1307 200.001 100.077 200.001 104.6C200.001 109.123 198.955 113.069 196.865 116.44C194.774 119.811 191.83 122.413 188.033 124.248C184.235 126.083 179.883 127 174.977 127H153.793V82.2ZM174.465 116.888C178.305 116.888 181.377 115.8 183.681 113.624C186.027 111.448 187.201 108.44 187.201 104.6C187.201 100.76 186.027 97.752 183.681 95.576C181.377 93.4 178.305 92.312 174.465 92.312H166.465V116.888H174.465ZM236.059 118.296H217.115L213.595 127H200.666L220.443 82.2H232.923L252.763 127H239.579L236.059 118.296ZM232.347 108.952L226.587 94.616L220.827 108.952H232.347ZM273.635 110.744L268.899 115.8V127H256.355V82.2H268.899V100.824L286.243 82.2H300.195L281.891 102.04L301.155 127H286.435L273.635 110.744ZM332.641 92.248H318.881V82.2H359.009V92.248H345.313V127H332.641V92.248ZM391.496 118.296H372.552L369.032 127H356.104L375.88 82.2H388.36L408.2 127H395.016L391.496 118.296ZM387.784 108.952L382.024 94.616L376.264 108.952H387.784ZM454.417 82.2V127H441.745V109.528H424.465V127H411.793V82.2H424.465V99.032H441.745V82.2H454.417ZM484.027 127.896C477.371 127.896 472.187 126.083 468.475 122.456C464.806 118.829 462.971 113.688 462.971 107.032V82.2H475.643V106.648C475.643 113.816 478.48 117.4 484.155 117.4C489.787 117.4 492.603 113.816 492.603 106.648V82.2H505.083V107.032C505.083 113.688 503.227 118.829 499.515 122.456C495.846 126.083 490.683 127.896 484.027 127.896ZM572.741 127L572.613 103.256L561.093 122.584H555.461L544.005 103.896V127H532.293V82.2H542.725L558.469 108.056L573.829 82.2H584.261L584.389 127H572.741ZM623.371 118.296H604.427L600.907 127H587.979L607.755 82.2H620.235L640.075 127H626.891L623.371 118.296ZM619.659 108.952L613.899 94.616L608.139 108.952H619.659ZM643.668 82.2H656.34V116.952H677.716V127H643.668V82.2ZM702.965 127.896C696.309 127.896 691.125 126.083 687.413 122.456C683.743 118.829 681.909 113.688 681.909 107.032V82.2H694.581V106.648C694.581 113.816 697.418 117.4 703.093 117.4C708.725 117.4 711.541 113.816 711.541 106.648V82.2H724.021V107.032C724.021 113.688 722.165 118.829 718.453 122.456C714.783 126.083 709.621 127.896 702.965 127.896Z" fill="#FF734C"/>
<path d="M113.48 192.936C113.48 194.515 113.16 195.944 112.52 197.224C111.88 198.483 110.899 199.485 109.576 200.232C108.275 200.957 106.611 201.32 104.584 201.32C101.747 201.32 99.5813 200.552 98.088 199.016C96.616 197.459 95.88 195.411 95.88 192.872V178.152H98.76V192.968C98.76 194.824 99.2507 196.264 100.232 197.288C101.235 198.312 102.739 198.824 104.744 198.824C106.813 198.824 108.307 198.28 109.224 197.192C110.163 196.083 110.632 194.664 110.632 192.936V178.152H113.48V192.936ZM127.382 183.528C129.43 183.528 130.977 184.029 132.022 185.032C133.068 186.013 133.59 187.613 133.59 189.832V201H130.806V190.024C130.806 187.272 129.526 185.896 126.966 185.896C125.068 185.896 123.756 186.429 123.03 187.496C122.305 188.563 121.942 190.099 121.942 192.104V201H119.126V183.848H121.398L121.814 186.184H121.974C122.529 185.288 123.297 184.627 124.278 184.2C125.26 183.752 126.294 183.528 127.382 183.528ZM144.635 199.016C145.062 199.016 145.5 198.984 145.948 198.92C146.396 198.835 146.758 198.749 147.036 198.664V200.808C146.737 200.957 146.31 201.075 145.756 201.16C145.201 201.267 144.668 201.32 144.156 201.32C143.26 201.32 142.428 201.171 141.66 200.872C140.913 200.552 140.305 200.008 139.836 199.24C139.366 198.472 139.132 197.395 139.132 196.008V186.024H136.7V184.68L139.164 183.56L140.284 179.912H141.948V183.848H146.908V186.024H141.948V195.944C141.948 196.989 142.193 197.768 142.684 198.28C143.196 198.771 143.846 199.016 144.635 199.016ZM164.806 183.848V201H162.502L162.086 198.728H161.958C161.403 199.624 160.635 200.285 159.654 200.712C158.673 201.117 157.627 201.32 156.518 201.32C154.449 201.32 152.891 200.829 151.846 199.848C150.801 198.845 150.278 197.256 150.278 195.08V183.848H153.126V194.888C153.126 197.619 154.395 198.984 156.934 198.984C158.833 198.984 160.145 198.451 160.87 197.384C161.617 196.317 161.99 194.781 161.99 192.776V183.848H164.806ZM173.035 189.384C173.035 189.725 173.014 190.173 172.971 190.728C172.95 191.283 172.929 191.763 172.907 192.168H173.035C173.163 191.997 173.355 191.752 173.611 191.432C173.867 191.112 174.123 190.792 174.379 190.472C174.657 190.131 174.891 189.853 175.083 189.64L180.555 183.848H183.851L176.907 191.176L184.331 201H180.939L174.987 193L173.035 194.696V201H170.251V176.68H173.035V189.384ZM198.442 189.384C198.442 189.725 198.42 190.173 198.378 190.728C198.356 191.283 198.335 191.763 198.314 192.168H198.442C198.57 191.997 198.762 191.752 199.018 191.432C199.274 191.112 199.53 190.792 199.786 190.472C200.063 190.131 200.298 189.853 200.49 189.64L205.962 183.848H209.258L202.314 191.176L209.738 201H206.346L200.394 193L198.442 194.696V201H195.658V176.68H198.442V189.384ZM219.247 183.56C221.338 183.56 222.885 184.019 223.887 184.936C224.89 185.853 225.391 187.315 225.391 189.32V201H223.343L222.799 198.568H222.671C221.925 199.507 221.135 200.2 220.303 200.648C219.493 201.096 218.362 201.32 216.911 201.32C215.354 201.32 214.063 200.915 213.039 200.104C212.015 199.272 211.503 197.981 211.503 196.232C211.503 194.525 212.175 193.213 213.519 192.296C214.863 191.357 216.933 190.845 219.727 190.76L222.639 190.664V189.64C222.639 188.211 222.33 187.219 221.711 186.664C221.093 186.109 220.218 185.832 219.087 185.832C218.191 185.832 217.338 185.971 216.527 186.248C215.717 186.504 214.959 186.803 214.255 187.144L213.391 185.032C214.138 184.627 215.023 184.285 216.047 184.008C217.071 183.709 218.138 183.56 219.247 183.56ZM220.079 192.712C217.946 192.797 216.463 193.139 215.631 193.736C214.821 194.333 214.415 195.176 214.415 196.264C214.415 197.224 214.703 197.928 215.279 198.376C215.877 198.824 216.634 199.048 217.551 199.048C219.002 199.048 220.207 198.653 221.167 197.864C222.127 197.053 222.607 195.816 222.607 194.152V192.616L220.079 192.712ZM249.505 183.528C251.446 183.528 252.897 184.029 253.857 185.032C254.817 186.013 255.297 187.613 255.297 189.832V201H252.513V189.96C252.513 187.251 251.35 185.896 249.025 185.896C247.361 185.896 246.166 186.376 245.441 187.336C244.737 188.296 244.385 189.693 244.385 191.528V201H241.601V189.96C241.601 187.251 240.427 185.896 238.081 185.896C236.353 185.896 235.158 186.429 234.497 187.496C233.835 188.563 233.505 190.099 233.505 192.104V201H230.689V183.848H232.961L233.377 186.184H233.537C234.07 185.288 234.785 184.627 235.681 184.2C236.598 183.752 237.569 183.528 238.593 183.528C241.281 183.528 243.03 184.488 243.841 186.408H244.001C244.577 185.427 245.355 184.701 246.337 184.232C247.339 183.763 248.395 183.528 249.505 183.528ZM274.931 183.848V201H272.627L272.211 198.728H272.083C271.528 199.624 270.76 200.285 269.779 200.712C268.798 201.117 267.752 201.32 266.643 201.32C264.574 201.32 263.016 200.829 261.971 199.848C260.926 198.845 260.403 197.256 260.403 195.08V183.848H263.251V194.888C263.251 197.619 264.52 198.984 267.059 198.984C268.958 198.984 270.27 198.451 270.995 197.384C271.742 196.317 272.115 194.781 272.115 192.776V183.848H274.931ZM286.001 183.848H289.009L292.721 193.608C293.041 194.461 293.329 195.283 293.585 196.072C293.841 196.84 294.033 197.576 294.161 198.28H294.289C294.417 197.747 294.619 197.053 294.897 196.2C295.174 195.325 295.462 194.451 295.761 193.576L299.249 183.848H302.289L294.897 203.368C294.299 204.989 293.521 206.28 292.561 207.24C291.622 208.2 290.321 208.68 288.657 208.68C288.145 208.68 287.697 208.648 287.313 208.584C286.929 208.541 286.598 208.488 286.321 208.424V206.184C286.555 206.227 286.833 206.269 287.153 206.312C287.494 206.355 287.846 206.376 288.209 206.376C289.19 206.376 289.979 206.099 290.577 205.544C291.195 204.989 291.675 204.253 292.017 203.336L292.913 201.064L286.001 183.848ZM311.497 183.56C313.588 183.56 315.135 184.019 316.137 184.936C317.14 185.853 317.641 187.315 317.641 189.32V201H315.593L315.049 198.568H314.921C314.175 199.507 313.385 200.2 312.553 200.648C311.743 201.096 310.612 201.32 309.161 201.32C307.604 201.32 306.313 200.915 305.289 200.104C304.265 199.272 303.753 197.981 303.753 196.232C303.753 194.525 304.425 193.213 305.769 192.296C307.113 191.357 309.183 190.845 311.977 190.76L314.889 190.664V189.64C314.889 188.211 314.58 187.219 313.961 186.664C313.343 186.109 312.468 185.832 311.337 185.832C310.441 185.832 309.588 185.971 308.777 186.248C307.967 186.504 307.209 186.803 306.505 187.144L305.641 185.032C306.388 184.627 307.273 184.285 308.297 184.008C309.321 183.709 310.388 183.56 311.497 183.56ZM312.329 192.712C310.196 192.797 308.713 193.139 307.881 193.736C307.071 194.333 306.665 195.176 306.665 196.264C306.665 197.224 306.953 197.928 307.529 198.376C308.127 198.824 308.884 199.048 309.801 199.048C311.252 199.048 312.457 198.653 313.417 197.864C314.377 197.053 314.857 195.816 314.857 194.152V192.616L312.329 192.712ZM331.195 183.528C333.243 183.528 334.789 184.029 335.835 185.032C336.88 186.013 337.403 187.613 337.403 189.832V201H334.619V190.024C334.619 187.272 333.339 185.896 330.779 185.896C328.88 185.896 327.568 186.429 326.843 187.496C326.117 188.563 325.755 190.099 325.755 192.104V201H322.939V183.848H325.211L325.627 186.184H325.787C326.341 185.288 327.109 184.627 328.091 184.2C329.072 183.752 330.107 183.528 331.195 183.528ZM348.8 183.528C349.931 183.528 350.944 183.741 351.84 184.168C352.757 184.595 353.536 185.245 354.176 186.12H354.336L354.72 183.848H356.96V201.288C356.96 203.741 356.331 205.587 355.072 206.824C353.835 208.061 351.904 208.68 349.28 208.68C346.763 208.68 344.704 208.317 343.104 207.592V205C344.789 205.896 346.901 206.344 349.44 206.344C350.912 206.344 352.064 205.907 352.896 205.032C353.749 204.179 354.176 203.005 354.176 201.512V200.84C354.176 200.584 354.187 200.221 354.208 199.752C354.229 199.261 354.251 198.92 354.272 198.728H354.144C352.992 200.456 351.221 201.32 348.832 201.32C346.613 201.32 344.875 200.541 343.616 198.984C342.379 197.427 341.76 195.251 341.76 192.456C341.76 189.725 342.379 187.56 343.616 185.96C344.875 184.339 346.603 183.528 348.8 183.528ZM349.184 185.896C347.755 185.896 346.645 186.472 345.856 187.624C345.067 188.755 344.672 190.376 344.672 192.488C344.672 194.6 345.056 196.221 345.824 197.352C346.613 198.461 347.755 199.016 349.248 199.016C350.976 199.016 352.235 198.557 353.024 197.64C353.813 196.701 354.208 195.197 354.208 193.128V192.456C354.208 190.109 353.803 188.435 352.992 187.432C352.181 186.408 350.912 185.896 349.184 185.896ZM385.056 183.848V201H382.752L382.336 198.728H382.208C381.653 199.624 380.885 200.285 379.904 200.712C378.923 201.117 377.877 201.32 376.768 201.32C374.699 201.32 373.141 200.829 372.096 199.848C371.051 198.845 370.528 197.256 370.528 195.08V183.848H373.376V194.888C373.376 197.619 374.645 198.984 377.184 198.984C379.083 198.984 380.395 198.451 381.12 197.384C381.867 196.317 382.24 194.781 382.24 192.776V183.848H385.056ZM398.501 183.528C398.821 183.528 399.163 183.549 399.525 183.592C399.909 183.613 400.24 183.656 400.517 183.72L400.165 186.312C399.888 186.248 399.579 186.195 399.237 186.152C398.917 186.109 398.608 186.088 398.309 186.088C397.435 186.088 396.613 186.333 395.845 186.824C395.077 187.293 394.459 187.965 393.989 188.84C393.541 189.693 393.317 190.696 393.317 191.848V201H390.501V183.848H392.805L393.125 186.984H393.253C393.808 186.045 394.523 185.235 395.397 184.552C396.272 183.869 397.307 183.528 398.501 183.528ZM409.591 183.56C411.682 183.56 413.228 184.019 414.231 184.936C415.234 185.853 415.735 187.315 415.735 189.32V201H413.687L413.143 198.568H413.015C412.268 199.507 411.479 200.2 410.647 200.648C409.836 201.096 408.706 201.32 407.255 201.32C405.698 201.32 404.407 200.915 403.383 200.104C402.359 199.272 401.847 197.981 401.847 196.232C401.847 194.525 402.519 193.213 403.863 192.296C405.207 191.357 407.276 190.845 410.071 190.76L412.983 190.664V189.64C412.983 188.211 412.674 187.219 412.055 186.664C411.436 186.109 410.562 185.832 409.431 185.832C408.535 185.832 407.682 185.971 406.871 186.248C406.06 186.504 405.303 186.803 404.599 187.144L403.735 185.032C404.482 184.627 405.367 184.285 406.391 184.008C407.415 183.709 408.482 183.56 409.591 183.56ZM410.423 192.712C408.29 192.797 406.807 193.139 405.975 193.736C405.164 194.333 404.759 195.176 404.759 196.264C404.759 197.224 405.047 197.928 405.623 198.376C406.22 198.824 406.978 199.048 407.895 199.048C409.346 199.048 410.551 198.653 411.511 197.864C412.471 197.053 412.951 195.816 412.951 194.152V192.616L410.423 192.712ZM426.76 199.016C427.187 199.016 427.625 198.984 428.073 198.92C428.521 198.835 428.883 198.749 429.161 198.664V200.808C428.862 200.957 428.435 201.075 427.881 201.16C427.326 201.267 426.793 201.32 426.281 201.32C425.385 201.32 424.553 201.171 423.785 200.872C423.038 200.552 422.43 200.008 421.961 199.24C421.491 198.472 421.257 197.395 421.257 196.008V186.024H418.825V184.68L421.289 183.56L422.409 179.912H424.073V183.848H429.033V186.024H424.073V195.944C424.073 196.989 424.318 197.768 424.809 198.28C425.321 198.771 425.971 199.016 426.76 199.016ZM114.536 227.528C116.477 227.528 117.928 228.029 118.888 229.032C119.848 230.013 120.328 231.613 120.328 233.832V245H117.544V233.96C117.544 231.251 116.381 229.896 114.056 229.896C112.392 229.896 111.197 230.376 110.472 231.336C109.768 232.296 109.416 233.693 109.416 235.528V245H106.632V233.96C106.632 231.251 105.459 229.896 103.112 229.896C101.384 229.896 100.189 230.429 99.528 231.496C98.8667 232.563 98.536 234.099 98.536 236.104V245H95.72V227.848H97.992L98.408 230.184H98.568C99.1013 229.288 99.816 228.627 100.712 228.2C101.629 227.752 102.6 227.528 103.624 227.528C106.312 227.528 108.061 228.488 108.872 230.408H109.032C109.608 229.427 110.387 228.701 111.368 228.232C112.371 227.763 113.427 227.528 114.536 227.528ZM132.122 227.56C134.213 227.56 135.76 228.019 136.762 228.936C137.765 229.853 138.266 231.315 138.266 233.32V245H136.218L135.674 242.568H135.546C134.8 243.507 134.01 244.2 133.178 244.648C132.368 245.096 131.237 245.32 129.786 245.32C128.229 245.32 126.938 244.915 125.914 244.104C124.89 243.272 124.378 241.981 124.378 240.232C124.378 238.525 125.05 237.213 126.394 236.296C127.738 235.357 129.808 234.845 132.602 234.76L135.514 234.664V233.64C135.514 232.211 135.205 231.219 134.586 230.664C133.968 230.109 133.093 229.832 131.962 229.832C131.066 229.832 130.213 229.971 129.402 230.248C128.592 230.504 127.834 230.803 127.13 231.144L126.266 229.032C127.013 228.627 127.898 228.285 128.922 228.008C129.946 227.709 131.013 227.56 132.122 227.56ZM132.954 236.712C130.821 236.797 129.338 237.139 128.506 237.736C127.696 238.333 127.29 239.176 127.29 240.264C127.29 241.224 127.578 241.928 128.154 242.376C128.752 242.824 129.509 243.048 130.426 243.048C131.877 243.048 133.082 242.653 134.042 241.864C135.002 241.053 135.482 239.816 135.482 238.152V236.616L132.954 236.712ZM146.38 245H143.564V220.68H146.38V245ZM166.15 227.848V245H163.846L163.43 242.728H163.302C162.747 243.624 161.979 244.285 160.998 244.712C160.016 245.117 158.971 245.32 157.862 245.32C155.792 245.32 154.235 244.829 153.19 243.848C152.144 242.845 151.622 241.256 151.622 239.08V227.848H154.47V238.888C154.47 241.619 155.739 242.984 158.278 242.984C160.176 242.984 161.488 242.451 162.214 241.384C162.96 240.317 163.334 238.781 163.334 236.776V227.848H166.15ZM179.851 227.528C181.899 227.528 183.446 228.029 184.491 229.032C185.536 230.013 186.059 231.613 186.059 233.832V245H183.275V234.024C183.275 231.272 181.995 229.896 179.435 229.896C177.536 229.896 176.224 230.429 175.499 231.496C174.774 232.563 174.411 234.099 174.411 236.104V245H171.595V227.848H173.867L174.283 230.184H174.443C174.998 229.288 175.766 228.627 176.747 228.2C177.728 227.752 178.763 227.528 179.851 227.528ZM188.688 227.848H191.696L195.408 237.608C195.728 238.461 196.016 239.283 196.272 240.072C196.528 240.84 196.72 241.576 196.848 242.28H196.976C197.104 241.747 197.307 241.053 197.584 240.2C197.862 239.325 198.15 238.451 198.448 237.576L201.936 227.848H204.976L197.584 247.368C196.987 248.989 196.208 250.28 195.248 251.24C194.31 252.2 193.008 252.68 191.344 252.68C190.832 252.68 190.384 252.648 190 252.584C189.616 252.541 189.286 252.488 189.008 252.424V250.184C189.243 250.227 189.52 250.269 189.84 250.312C190.182 250.355 190.534 250.376 190.896 250.376C191.878 250.376 192.667 250.099 193.264 249.544C193.883 248.989 194.363 248.253 194.704 247.336L195.6 245.064L188.688 227.848ZM214.185 227.56C216.275 227.56 217.822 228.019 218.825 228.936C219.827 229.853 220.329 231.315 220.329 233.32V245H218.281L217.737 242.568H217.609C216.862 243.507 216.073 244.2 215.241 244.648C214.43 245.096 213.299 245.32 211.849 245.32C210.291 245.32 209.001 244.915 207.977 244.104C206.953 243.272 206.441 241.981 206.441 240.232C206.441 238.525 207.113 237.213 208.457 236.296C209.801 235.357 211.87 234.845 214.665 234.76L217.577 234.664V233.64C217.577 232.211 217.267 231.219 216.649 230.664C216.03 230.109 215.155 229.832 214.025 229.832C213.129 229.832 212.275 229.971 211.465 230.248C210.654 230.504 209.897 230.803 209.193 231.144L208.329 229.032C209.075 228.627 209.961 228.285 210.985 228.008C212.009 227.709 213.075 227.56 214.185 227.56ZM215.017 236.712C212.883 236.797 211.401 237.139 210.569 237.736C209.758 238.333 209.353 239.176 209.353 240.264C209.353 241.224 209.641 241.928 210.217 242.376C210.814 242.824 211.571 243.048 212.489 243.048C213.939 243.048 215.145 242.653 216.105 241.864C217.065 241.053 217.545 239.816 217.545 238.152V236.616L215.017 236.712ZM245.107 240.264C245.107 241.928 244.488 243.187 243.251 244.04C242.013 244.893 240.349 245.32 238.259 245.32C237.064 245.32 236.029 245.224 235.155 245.032C234.301 244.84 233.544 244.573 232.883 244.232V241.672C233.565 242.013 234.387 242.333 235.347 242.632C236.328 242.909 237.32 243.048 238.323 243.048C239.752 243.048 240.787 242.824 241.427 242.376C242.067 241.907 242.387 241.288 242.387 240.52C242.387 240.093 242.269 239.709 242.035 239.368C241.8 239.027 241.373 238.685 240.755 238.344C240.157 238.003 239.293 237.619 238.163 237.192C237.053 236.765 236.104 236.339 235.315 235.912C234.525 235.485 233.917 234.973 233.491 234.376C233.064 233.779 232.851 233.011 232.851 232.072C232.851 230.621 233.437 229.501 234.611 228.712C235.805 227.923 237.363 227.528 239.283 227.528C240.328 227.528 241.299 227.635 242.195 227.848C243.112 228.04 243.965 228.317 244.755 228.68L243.795 230.92C243.069 230.621 242.312 230.365 241.523 230.152C240.733 229.939 239.923 229.832 239.091 229.832C237.939 229.832 237.053 230.024 236.435 230.408C235.837 230.771 235.539 231.272 235.539 231.912C235.539 232.381 235.677 232.787 235.955 233.128C236.232 233.448 236.691 233.768 237.331 234.088C237.992 234.387 238.867 234.749 239.955 235.176C241.043 235.581 241.971 235.997 242.739 236.424C243.507 236.851 244.093 237.373 244.499 237.992C244.904 238.589 245.107 239.347 245.107 240.264ZM263.587 227.848V245H261.283L260.867 242.728H260.739C260.185 243.624 259.417 244.285 258.435 244.712C257.454 245.117 256.409 245.32 255.299 245.32C253.23 245.32 251.673 244.829 250.627 243.848C249.582 242.845 249.059 241.256 249.059 239.08V227.848H251.907V238.888C251.907 241.619 253.177 242.984 255.715 242.984C257.614 242.984 258.926 242.451 259.651 241.384C260.398 240.317 260.771 238.781 260.771 236.776V227.848H263.587ZM275.113 245.32C272.979 245.32 271.273 244.584 269.993 243.112C268.713 241.619 268.073 239.4 268.073 236.456C268.073 233.512 268.713 231.293 269.993 229.8C271.294 228.285 273.011 227.528 275.145 227.528C276.467 227.528 277.545 227.773 278.377 228.264C279.23 228.755 279.923 229.352 280.457 230.056H280.649C280.627 229.779 280.585 229.373 280.521 228.84C280.478 228.285 280.457 227.848 280.457 227.528V220.68H283.273V245H281.001L280.585 242.696H280.457C279.945 243.421 279.262 244.04 278.409 244.552C277.555 245.064 276.457 245.32 275.113 245.32ZM275.561 242.984C277.374 242.984 278.643 242.493 279.369 241.512C280.115 240.509 280.489 239.005 280.489 237V236.488C280.489 234.355 280.137 232.723 279.433 231.592C278.729 230.44 277.427 229.864 275.529 229.864C274.014 229.864 272.873 230.472 272.105 231.688C271.358 232.883 270.985 234.493 270.985 236.52C270.985 238.568 271.358 240.157 272.105 241.288C272.873 242.419 274.025 242.984 275.561 242.984ZM295.216 227.56C297.307 227.56 298.853 228.019 299.856 228.936C300.859 229.853 301.36 231.315 301.36 233.32V245H299.312L298.768 242.568H298.64C297.893 243.507 297.104 244.2 296.272 244.648C295.461 245.096 294.331 245.32 292.88 245.32C291.323 245.32 290.032 244.915 289.008 244.104C287.984 243.272 287.472 241.981 287.472 240.232C287.472 238.525 288.144 237.213 289.488 236.296C290.832 235.357 292.901 234.845 295.696 234.76L298.608 234.664V233.64C298.608 232.211 298.299 231.219 297.68 230.664C297.061 230.109 296.187 229.832 295.056 229.832C294.16 229.832 293.307 229.971 292.496 230.248C291.685 230.504 290.928 230.803 290.224 231.144L289.36 229.032C290.107 228.627 290.992 228.285 292.016 228.008C293.04 227.709 294.107 227.56 295.216 227.56ZM296.048 236.712C293.915 236.797 292.432 237.139 291.6 237.736C290.789 238.333 290.384 239.176 290.384 240.264C290.384 241.224 290.672 241.928 291.248 242.376C291.845 242.824 292.603 243.048 293.52 243.048C294.971 243.048 296.176 242.653 297.136 241.864C298.096 241.053 298.576 239.816 298.576 238.152V236.616L296.048 236.712ZM309.474 227.816C309.474 228.669 309.42 229.469 309.314 230.216H309.506C310.06 229.341 310.807 228.68 311.746 228.232C312.706 227.784 313.74 227.56 314.85 227.56C316.94 227.56 318.508 228.061 319.554 229.064C320.599 230.045 321.122 231.635 321.122 233.832V245H318.338V234.024C318.338 231.272 317.058 229.896 314.498 229.896C312.578 229.896 311.255 230.44 310.53 231.528C309.826 232.595 309.474 234.131 309.474 236.136V245H306.658V220.68H309.474V227.816ZM342.911 227.528C345.023 227.528 346.719 228.264 347.999 229.736C349.301 231.208 349.951 233.427 349.951 236.392C349.951 239.315 349.301 241.533 347.999 243.048C346.719 244.563 345.013 245.32 342.879 245.32C341.557 245.32 340.458 245.075 339.583 244.584C338.73 244.072 338.058 243.485 337.567 242.824H337.375C337.418 243.187 337.461 243.645 337.503 244.2C337.546 244.755 337.567 245.235 337.567 245.64V252.68H334.751V227.848H337.055L337.439 230.184H337.567C338.079 229.437 338.751 228.808 339.583 228.296C340.415 227.784 341.525 227.528 342.911 227.528ZM342.399 229.896C340.65 229.896 339.413 230.387 338.687 231.368C337.983 232.349 337.61 233.843 337.567 235.848V236.392C337.567 238.504 337.909 240.136 338.591 241.288C339.295 242.419 340.586 242.984 342.463 242.984C343.509 242.984 344.362 242.696 345.023 242.12C345.706 241.544 346.207 240.765 346.527 239.784C346.869 238.781 347.039 237.64 347.039 236.36C347.039 234.397 346.655 232.829 345.887 231.656C345.141 230.483 343.978 229.896 342.399 229.896ZM368.775 227.848V245H366.471L366.055 242.728H365.927C365.372 243.624 364.604 244.285 363.623 244.712C362.641 245.117 361.596 245.32 360.487 245.32C358.417 245.32 356.86 244.829 355.815 243.848C354.769 242.845 354.247 241.256 354.247 239.08V227.848H357.095V238.888C357.095 241.619 358.364 242.984 360.903 242.984C362.801 242.984 364.113 242.451 364.839 241.384C365.585 240.317 365.959 238.781 365.959 236.776V227.848H368.775ZM379.948 243.016C380.375 243.016 380.812 242.984 381.26 242.92C381.708 242.835 382.071 242.749 382.348 242.664V244.808C382.049 244.957 381.623 245.075 381.068 245.16C380.513 245.267 379.98 245.32 379.468 245.32C378.572 245.32 377.74 245.171 376.972 244.872C376.225 244.552 375.617 244.008 375.148 243.24C374.679 242.472 374.444 241.395 374.444 240.008V230.024H372.012V228.68L374.476 227.56L375.596 223.912H377.26V227.848H382.22V230.024H377.26V239.944C377.26 240.989 377.505 241.768 377.996 242.28C378.508 242.771 379.159 243.016 379.948 243.016ZM400.119 227.848V245H397.815L397.399 242.728H397.271C396.716 243.624 395.948 244.285 394.967 244.712C393.985 245.117 392.94 245.32 391.831 245.32C389.761 245.32 388.204 244.829 387.159 243.848C386.113 242.845 385.591 241.256 385.591 239.08V227.848H388.439V238.888C388.439 241.619 389.708 242.984 392.247 242.984C394.145 242.984 395.457 242.451 396.183 241.384C396.929 240.317 397.303 238.781 397.303 236.776V227.848H400.119ZM416.732 240.264C416.732 241.928 416.113 243.187 414.876 244.04C413.638 244.893 411.974 245.32 409.884 245.32C408.689 245.32 407.654 245.224 406.78 245.032C405.926 244.84 405.169 244.573 404.508 244.232V241.672C405.19 242.013 406.012 242.333 406.972 242.632C407.953 242.909 408.945 243.048 409.948 243.048C411.377 243.048 412.412 242.824 413.052 242.376C413.692 241.907 414.012 241.288 414.012 240.52C414.012 240.093 413.894 239.709 413.66 239.368C413.425 239.027 412.998 238.685 412.38 238.344C411.782 238.003 410.918 237.619 409.788 237.192C408.678 236.765 407.729 236.339 406.94 235.912C406.15 235.485 405.542 234.973 405.116 234.376C404.689 233.779 404.476 233.011 404.476 232.072C404.476 230.621 405.062 229.501 406.236 228.712C407.43 227.923 408.988 227.528 410.908 227.528C411.953 227.528 412.924 227.635 413.82 227.848C414.737 228.04 415.59 228.317 416.38 228.68L415.42 230.92C414.694 230.621 413.937 230.365 413.148 230.152C412.358 229.939 411.548 229.832 410.716 229.832C409.564 229.832 408.678 230.024 408.06 230.408C407.462 230.771 407.164 231.272 407.164 231.912C407.164 232.381 407.302 232.787 407.58 233.128C407.857 233.448 408.316 233.768 408.956 234.088C409.617 234.387 410.492 234.749 411.58 235.176C412.668 235.581 413.596 235.997 414.364 236.424C415.132 236.851 415.718 237.373 416.124 237.992C416.529 238.589 416.732 239.347 416.732 240.264ZM420.46 243.272C420.46 242.483 420.652 241.928 421.036 241.608C421.42 241.288 421.879 241.128 422.412 241.128C422.967 241.128 423.436 241.288 423.82 241.608C424.226 241.928 424.428 242.483 424.428 243.272C424.428 244.04 424.226 244.595 423.82 244.936C423.436 245.277 422.967 245.448 422.412 245.448C421.879 245.448 421.42 245.277 421.036 244.936C420.652 244.595 420.46 244.04 420.46 243.272Z" fill="black"/>
<mask id="mask0_128:1056" style="mask-type:alpha" maskUnits="userSpaceOnUse" x="32" y="8" width="757" height="454">
<rect x="32" y="8" width="757" height="454" rx="12" fill="#F6F6F6"/>
</mask>
<g mask="url(#mask0_128:1056)">
<path d="M550.23 284.947L512.59 263.216L490.858 300.856L528.498 322.587L550.23 284.947Z" fill="#CCCCCC"/>
<path d="M743.443 265.81C761.078 265.81 775.375 251.514 775.375 233.878C775.375 216.243 761.078 201.946 743.443 201.946C725.807 201.946 711.511 216.243 711.511 233.878C711.511 251.514 725.807 265.81 743.443 265.81Z" fill="#FF734C"/>
<path d="M723.918 189.6C727.898 199.359 738.027 204.455 738.027 204.455C738.027 204.455 741.703 193.728 737.723 183.969C733.743 174.21 723.614 169.114 723.614 169.114C723.614 169.114 719.938 179.841 723.918 189.6Z" fill="#3F3D56"/>
<path d="M727.662 186.933C736.06 193.302 738.362 204.405 738.362 204.405C738.362 204.405 727.05 205.181 718.653 198.812C710.256 192.443 707.953 181.34 707.953 181.34C707.953 181.34 719.265 180.564 727.662 186.933Z" fill="#FF734C"/>
<path d="M739.625 184.021C735.725 193.812 739.489 204.508 739.489 204.508C739.489 204.508 749.575 199.329 753.475 189.538C757.375 179.747 753.612 169.051 753.612 169.051C753.612 169.051 743.525 174.23 739.625 184.021Z" fill="#3F3D56"/>
<path d="M744.172 184.697C745.805 195.11 739.765 204.705 739.765 204.705C739.765 204.705 731.077 197.42 729.443 187.008C727.81 176.596 733.85 167 733.85 167C733.85 167 742.539 174.285 744.172 184.697Z" fill="#FF734C"/>
<path d="M741.687 246.93C750.749 246.93 758.096 239.583 758.096 230.521C758.096 221.458 750.749 214.111 741.687 214.111C732.624 214.111 725.277 221.458 725.277 230.521C725.277 239.583 732.624 246.93 741.687 246.93Z" fill="#F2F2F2"/>
<path d="M734.794 231.266C737.733 231.266 740.116 228.883 740.116 225.944C740.116 223.005 737.733 220.622 734.794 220.622C731.854 220.622 729.472 223.005 729.472 225.944C729.472 228.883 731.854 231.266 734.794 231.266Z" fill="#3F3D56"/>
<path d="M790.192 430.829C788.262 430.829 786.375 430.257 784.771 429.185C783.166 428.113 781.916 426.589 781.177 424.806C780.439 423.023 780.246 421.062 780.622 419.169C780.999 417.276 781.928 415.538 783.292 414.173C784.657 412.809 786.395 411.879 788.288 411.503C790.181 411.126 792.143 411.32 793.925 412.058C795.708 412.797 797.232 414.047 798.304 415.652C799.376 417.256 799.949 419.143 799.949 421.072C799.946 423.659 798.917 426.139 797.088 427.968C795.258 429.798 792.778 430.826 790.192 430.829V430.829ZM790.192 412.202C788.437 412.202 786.722 412.723 785.264 413.697C783.805 414.672 782.668 416.057 781.997 417.678C781.325 419.299 781.15 421.082 781.492 422.803C781.834 424.523 782.679 426.104 783.92 427.344C785.16 428.585 786.741 429.43 788.461 429.772C790.182 430.114 791.965 429.939 793.586 429.267C795.207 428.596 796.592 427.459 797.567 426C798.541 424.542 799.062 422.827 799.062 421.072C799.059 418.721 798.124 416.466 796.461 414.803C794.798 413.14 792.543 412.205 790.192 412.202V412.202Z" fill="#3F3D56"/>
<path d="M529.414 330.155C527.484 330.155 525.598 329.582 523.994 328.51C522.389 327.438 521.138 325.914 520.4 324.131C519.661 322.349 519.468 320.387 519.845 318.494C520.221 316.601 521.15 314.863 522.515 313.498C523.88 312.134 525.618 311.205 527.511 310.828C529.403 310.452 531.365 310.645 533.148 311.383C534.931 312.122 536.455 313.372 537.527 314.977C538.599 316.581 539.171 318.468 539.171 320.398C539.168 322.984 538.139 325.464 536.31 327.294C534.481 329.123 532.001 330.152 529.414 330.155V330.155ZM529.414 311.528C527.66 311.528 525.945 312.048 524.486 313.022C523.028 313.997 521.891 315.382 521.219 317.003C520.548 318.624 520.372 320.407 520.715 322.128C521.057 323.849 521.902 325.429 523.142 326.67C524.383 327.91 525.963 328.755 527.684 329.097C529.404 329.439 531.188 329.264 532.809 328.592C534.429 327.921 535.815 326.784 536.789 325.325C537.764 323.867 538.284 322.152 538.284 320.398C538.282 318.046 537.346 315.791 535.683 314.128C534.02 312.466 531.766 311.53 529.414 311.528V311.528Z" fill="#3F3D56"/>
<path d="M763.821 238.633L711.941 296.536C714.731 298.7 717.044 301.415 718.739 304.513C720.433 307.61 721.472 311.023 721.79 314.539C722.108 318.055 721.698 321.599 720.587 324.95C719.476 328.301 717.686 331.387 715.331 334.016C712.975 336.646 710.103 338.762 706.894 340.233C703.684 341.704 700.206 342.499 696.677 342.568C693.147 342.636 689.641 341.977 686.377 340.632C683.113 339.287 680.161 337.284 677.704 334.748L605.439 415.404C626.275 431.597 651.92 440.369 678.308 440.33C744.019 440.33 797.288 387.061 797.288 321.35C797.327 290.472 785.321 260.796 763.821 238.633V238.633Z" fill="#CCCCCC"/>
<path d="M697.057 333.703C705.629 333.703 712.579 326.753 712.579 318.181C712.579 309.608 705.629 302.658 697.057 302.658C688.484 302.658 681.534 309.608 681.534 318.181C681.534 326.753 688.484 333.703 697.057 333.703Z" fill="#CCCCCC"/>
<path d="M615.882 213.9C624.156 213.9 630.864 207.192 630.864 198.918C630.864 190.644 624.156 183.937 615.882 183.937C607.608 183.937 600.9 190.644 600.9 198.918C600.9 207.192 607.608 213.9 615.882 213.9Z" fill="#2F2E41"/>
<path d="M587.709 304.809L591.185 372.582C591.185 372.582 590.605 421.239 594.081 421.819C597.556 422.398 603.928 426.453 605.666 423.556C607.404 420.66 616.093 331.454 616.093 331.454C616.093 331.454 618.41 424.136 625.361 424.715C632.312 425.294 640.421 421.819 641.58 422.398C642.739 422.977 642.159 306.546 642.159 306.546L587.709 304.809Z" fill="#2F2E41"/>
<path d="M598.136 421.24C598.136 421.24 594.081 421.24 592.922 422.978C591.764 424.715 587.709 433.404 587.709 433.404C587.709 433.404 580.179 440.319 588.288 440.898C596.398 441.478 600.453 439.776 600.453 438.617C600.453 437.459 600.453 434.563 602.19 433.983C603.928 433.404 605.666 430.508 605.666 429.349C605.666 428.191 603.928 420.66 598.136 421.24Z" fill="#2F2E41"/>
<path d="M629.415 421.819C629.415 421.819 626.519 433.404 629.415 433.984C632.311 434.563 634.049 435.721 634.629 437.459C635.208 439.197 641 441.206 645.634 440.627C650.269 440.048 652.586 436.88 650.848 435.142C649.11 433.404 640.421 423.557 639.842 421.819C639.263 420.081 629.415 421.819 629.415 421.819Z" fill="#2F2E41"/>
<path d="M609.141 209.81C609.141 209.81 607.983 218.499 605.666 219.658C603.349 220.816 606.824 227.188 606.824 227.188L617.251 228.926L626.519 221.395C626.519 221.395 624.781 210.389 624.781 209.81C624.781 209.231 609.141 209.81 609.141 209.81Z" fill="#9F616A"/>
<path opacity="0.1" d="M609.141 209.81C609.141 209.81 607.983 218.499 605.666 219.658C603.349 220.816 606.824 227.188 606.824 227.188L617.251 228.926L626.519 221.395C626.519 221.395 624.781 210.389 624.781 209.81C624.781 209.231 609.141 209.81 609.141 209.81Z" fill="black"/>
<path d="M615.513 217.341C623.191 217.341 629.415 211.117 629.415 203.439C629.415 195.761 623.191 189.537 615.513 189.537C607.835 189.537 601.61 195.761 601.61 203.439C601.61 211.117 607.835 217.341 615.513 217.341Z" fill="#9F616A"/>
<path d="M615.223 226.899C615.223 226.899 609.431 217.051 606.534 217.631C603.638 218.21 594.66 219.658 593.501 219.079C592.343 218.499 584.812 245.145 584.812 245.145C584.812 245.145 576.703 297.858 581.916 304.23C587.129 310.601 605.086 307.126 607.403 313.498C609.72 319.87 646.214 310.022 646.214 306.547C646.214 303.071 646.793 249.779 647.372 245.725C647.951 241.67 642.159 220.237 642.159 220.237C642.159 220.237 628.546 216.472 626.229 217.631C623.912 218.789 622.754 222.265 615.223 226.899Z" fill="#575A88"/>
<path d="M594.659 220.817L593.501 219.079C593.501 219.079 581.336 220.817 577.861 220.238C574.385 219.659 563.959 220.817 563.959 220.817C563.959 220.817 566.276 214.445 568.593 213.866C570.91 213.287 573.806 211.549 573.806 211.549C573.806 211.549 568.013 202.86 573.806 199.964C573.806 199.964 547.16 210.391 545.422 220.238C543.684 230.085 585.97 245.146 585.97 245.146L594.659 220.817Z" fill="#575A88"/>
<path d="M637.524 221.396L642.158 220.237L665.329 222.554L657.798 214.445C657.798 214.445 662.433 208.652 659.536 205.756C659.536 205.756 690.237 217.341 686.761 224.871C683.286 232.402 646.793 245.725 645.055 246.304C643.317 246.883 637.524 221.396 637.524 221.396Z" fill="#575A88"/>
<path d="M576.962 201.523C578.396 201.808 579.621 202.704 580.795 203.576C581.932 204.388 583.023 205.265 584.063 206.2C589.331 211.125 591.267 218.556 592.943 225.571C591.75 226.576 589.802 225.74 589.002 224.401C588.201 223.062 588.146 221.427 587.831 219.899C587.516 218.372 586.747 216.73 585.261 216.257C585.573 217.227 584.819 218.28 583.875 218.666C582.932 219.051 581.87 218.944 580.857 218.832C580.386 218.806 579.923 218.7 579.487 218.52C578.701 218.139 578.242 217.322 577.814 216.561C576.699 214.577 575.473 212.658 574.141 210.813C573.839 210.336 573.445 209.924 572.983 209.601C571.127 208.468 569.135 206.987 570.059 204.298C570.821 202.078 574.938 201.121 576.962 201.523Z" fill="#9F616A"/>
<path d="M653.978 204.971C651.893 205.075 650.096 206.432 648.569 207.855C642.18 213.854 638.066 221.881 636.928 230.57C636.853 231.153 636.83 231.839 637.276 232.221C637.778 232.65 638.605 232.396 639.017 231.88C639.378 231.325 639.604 230.692 639.677 230.033C640.082 228.063 640.773 226.163 641.728 224.393C642.217 223.486 642.898 222.53 643.917 222.369C645.434 222.13 646.568 223.737 648.018 224.246C649.728 224.846 651.644 223.771 652.684 222.286C653.724 220.801 654.13 218.981 654.703 217.261C655.276 215.541 656.126 213.777 657.689 212.86C659.353 211.883 663.186 211.205 661.561 208.464C660.38 206.472 656.16 204.862 653.978 204.971Z" fill="#9F616A"/>
<path d="M600.455 195.747C600.455 195.747 596.761 186.141 602.118 183.001L603.596 187.25C603.596 187.25 617.08 179.122 620.589 180.969L617.264 185.403C617.264 185.403 632.965 185.403 634.073 191.498L628.532 191.683C628.532 191.683 634.443 195.562 634.628 201.842L622.806 202.581L628.532 205.906C628.532 205.906 607.105 208.861 601.933 200.364L600.455 195.747Z" fill="#2F2E41"/>
<path d="M564.828 206.625L573.517 199.674C573.517 199.674 570.62 208.363 573.517 211.259L562.511 213.576L564.828 206.625Z" fill="#575A88"/>
<path d="M666.198 210.679L658.668 204.887C658.668 204.887 659.826 212.417 657.509 214.155C655.192 215.893 663.881 216.472 663.881 216.472L666.198 210.679Z" fill="#575A88"/>
<path d="M490.668 456.349C508.304 456.349 522.6 442.053 522.6 424.417C522.6 406.782 508.304 392.485 490.668 392.485C473.033 392.485 458.736 406.782 458.736 424.417C458.736 442.053 473.033 456.349 490.668 456.349Z" fill="#FF734C"/>
<path d="M460.364 386.688C466.731 395.087 477.833 397.392 477.833 397.392C477.833 397.392 478.612 386.081 472.246 377.681C465.879 369.282 454.777 366.977 454.777 366.977C454.777 366.977 453.998 378.288 460.364 386.688Z" fill="#3F3D56"/>
<path d="M463.293 383.144C473.051 387.127 478.144 397.258 478.144 397.258C478.144 397.258 467.417 400.931 457.659 396.948C447.901 392.965 442.808 382.834 442.808 382.834C442.808 382.834 453.535 379.161 463.293 383.144Z" fill="#FF734C"/>
<path d="M474.095 377.24C472.858 387.707 479.258 397.067 479.258 397.067C479.258 397.067 487.664 389.457 488.901 378.991C490.138 368.524 483.739 359.164 483.739 359.164C483.739 359.164 475.333 366.774 474.095 377.24Z" fill="#3F3D56"/>
<path d="M478.664 376.718C482.933 386.355 479.577 397.186 479.577 397.186C479.577 397.186 469.301 392.393 465.033 382.756C460.764 373.12 464.12 362.289 464.12 362.289C464.12 362.289 474.396 367.082 478.664 376.718Z" fill="#FF734C"/>
<path d="M478.346 442.472C487.409 442.472 494.755 435.125 494.755 426.063C494.755 417 487.409 409.653 478.346 409.653C469.283 409.653 461.937 417 461.937 426.063C461.937 435.125 469.283 442.472 478.346 442.472Z" fill="#F2F2F2"/>
<path d="M472.122 436.592C475.061 436.592 477.444 434.209 477.444 431.27C477.444 428.331 475.061 425.948 472.122 425.948C469.183 425.948 466.8 428.331 466.8 431.27C466.8 434.209 469.183 436.592 472.122 436.592Z" fill="#3F3D56"/>
<path d="M616.34 441.473C633.976 441.473 648.272 427.177 648.272 409.541C648.272 391.906 633.976 377.609 616.34 377.609C598.705 377.609 584.408 391.906 584.408 409.541C584.408 427.177 598.705 441.473 616.34 441.473Z" fill="#FF734C"/>
<path d="M602.398 363.201C605.15 373.374 614.577 379.675 614.577 379.675C614.577 379.675 619.541 369.481 616.789 359.308C614.037 349.134 604.61 342.833 604.61 342.833C604.61 342.833 599.645 353.027 602.398 363.201Z" fill="#3F3D56"/>
<path d="M606.442 361.015C613.994 368.366 614.917 379.667 614.917 379.667C614.917 379.667 603.595 379.049 596.043 371.698C588.491 364.346 587.568 353.045 587.568 353.045C587.568 353.045 598.89 353.663 606.442 361.015Z" fill="#FF734C"/>
<path d="M618.67 359.593C613.598 368.831 616.021 379.908 616.021 379.908C616.021 379.908 626.667 376.006 631.739 366.768C636.811 357.529 634.389 346.452 634.389 346.452C634.389 346.452 623.743 350.354 618.67 359.593Z" fill="#3F3D56"/>
<path d="M623.1 360.822C623.443 371.356 616.271 380.138 616.271 380.138C616.271 380.138 608.542 371.841 608.199 361.307C607.856 350.773 615.029 341.991 615.029 341.991C615.029 341.991 622.757 350.288 623.1 360.822Z" fill="#FF734C"/>
<path d="M615.009 422.403C624.072 422.403 631.419 415.056 631.419 405.993C631.419 396.931 624.072 389.584 615.009 389.584C605.946 389.584 598.6 396.931 598.6 405.993C598.6 415.056 605.946 422.403 615.009 422.403Z" fill="#F2F2F2"/>
<path d="M615.009 402.001C617.949 402.001 620.331 399.619 620.331 396.679C620.331 393.74 617.949 391.357 615.009 391.357C612.07 391.357 609.688 393.74 609.688 396.679C609.688 399.619 612.07 402.001 615.009 402.001Z" fill="#3F3D56"/>
<path d="M704.596 440.586H538.284V441.473H704.596V440.586Z" fill="#2F2E41"/>
<path d="M771.786 256.09C776.807 256.09 780.878 252.913 780.878 248.994C780.878 245.075 776.807 241.898 771.786 241.898C766.765 241.898 762.694 245.075 762.694 248.994C762.694 252.913 766.765 256.09 771.786 256.09Z" fill="#FF734C"/>
<path d="M520.605 398.911L535.147 387.266Z" fill="#3F3D56"/>
<path d="M521.536 407.885C525.931 404.334 530.48 400.986 535.184 397.843Z" fill="#3F3D56"/>
<path d="M531.235 406.941C536.372 404.499 541.057 401.205 545.095 397.199Z" fill="#3F3D56"/>
<path d="M494.821 454.778C499.23 454.778 502.804 451.204 502.804 446.795C502.804 442.387 499.23 438.812 494.821 438.812C490.412 438.812 486.838 442.387 486.838 446.795C486.838 451.204 490.412 454.778 494.821 454.778Z" fill="#3F3D56"/>
<path d="M691.291 441.03C689.361 441.03 687.475 440.457 685.87 439.385C684.266 438.313 683.015 436.789 682.277 435.006C681.538 433.224 681.345 431.262 681.722 429.369C682.098 427.476 683.027 425.738 684.392 424.373C685.756 423.009 687.495 422.08 689.388 421.703C691.28 421.327 693.242 421.52 695.025 422.258C696.808 422.997 698.332 424.247 699.404 425.852C700.476 427.456 701.048 429.343 701.048 431.273C701.045 433.859 700.016 436.339 698.187 438.169C696.358 439.998 693.878 441.027 691.291 441.03V441.03ZM691.291 422.403C689.537 422.403 687.822 422.923 686.363 423.897C684.905 424.872 683.768 426.257 683.096 427.878C682.425 429.499 682.249 431.282 682.592 433.003C682.934 434.724 683.779 436.304 685.019 437.545C686.26 438.785 687.84 439.63 689.561 439.972C691.281 440.314 693.065 440.139 694.686 439.467C696.306 438.796 697.692 437.659 698.666 436.2C699.641 434.742 700.161 433.027 700.161 431.273C700.159 428.921 699.223 426.666 697.56 425.003C695.897 423.341 693.643 422.405 691.291 422.403V422.403Z" fill="#3F3D56"/>
</g>
<defs>
<filter id="filter0_dddd_128:1056" x="0" y="0" width="821" height="518" filterUnits="userSpaceOnUse" color-interpolation-filters="sRGB">
<feFlood flood-opacity="0" result="BackgroundImageFix"/>
<feColorMatrix in="SourceAlpha" type="matrix" values="0 0 0 0 0 0 0 0 0 0 0 0 0 0 0 0 0 0 127 0" result="hardAlpha"/>
<feOffset/>
<feGaussianBlur stdDeviation="0.5"/>
<feColorMatrix type="matrix" values="0 0 0 0 0 0 0 0 0 0 0 0 0 0 0 0 0 0 0.04 0"/>
<feBlend mode="normal" in2="BackgroundImageFix" result="effect1_dropShadow_128:1056"/>
<feColorMatrix in="SourceAlpha" type="matrix" values="0 0 0 0 0 0 0 0 0 0 0 0 0 0 0 0 0 0 127 0" result="hardAlpha"/>
<feOffset dy="4"/>
<feGaussianBlur stdDeviation="4"/>
<feColorMatrix type="matrix" values="0 0 0 0 0 0 0 0 0 0 0 0 0 0 0 0 0 0 0.04 0"/>
<feBlend mode="normal" in2="effect1_dropShadow_128:1056" result="effect2_dropShadow_128:1056"/>
<feColorMatrix in="SourceAlpha" type="matrix" values="0 0 0 0 0 0 0 0 0 0 0 0 0 0 0 0 0 0 127 0" result="hardAlpha"/>
<feOffset dy="16"/>
<feGaussianBlur stdDeviation="12"/>
<feColorMatrix type="matrix" values="0 0 0 0 0 0 0 0 0 0 0 0 0 0 0 0 0 0 0.04 0"/>
<feBlend mode="normal" in2="effect2_dropShadow_128:1056" result="effect3_dropShadow_128:1056"/>
<feColorMatrix in="SourceAlpha" type="matrix" values="0 0 0 0 0 0 0 0 0 0 0 0 0 0 0 0 0 0 127 0" result="hardAlpha"/>
<feOffset dy="24"/>
<feGaussianBlur stdDeviation="16"/>
<feColorMatrix type="matrix" values="0 0 0 0 0 0 0 0 0 0 0 0 0 0 0 0 0 0 0.04 0"/>
<feBlend mode="normal" in2="effect3_dropShadow_128:1056" result="effect4_dropShadow_128:1056"/>
<feBlend mode="normal" in="SourceGraphic" in2="effect4_dropShadow_128:1056" result="shape"/>
</filter>
</defs>
</svg>
