<svg width="500" height="629" viewBox="0 0 500 629" fill="none" xmlns="http://www.w3.org/2000/svg">
<path d="M481.187 45.5328V524.116C481.181 529.817 478.913 535.282 474.881 539.312C470.848 543.342 465.381 545.606 459.68 545.608H265.389C262.565 545.613 259.767 545.061 257.156 543.983C254.546 542.904 252.173 541.322 250.175 539.325C248.177 537.329 246.593 534.957 245.513 532.347C244.433 529.737 243.879 526.94 243.882 524.116V45.5328C243.882 42.7084 244.438 39.9115 245.518 37.302C246.599 34.6925 248.183 32.3214 250.181 30.3242C252.178 28.327 254.549 26.7428 257.158 25.662C259.768 24.5813 262.565 24.0251 265.389 24.0254H294.465V27.7539C294.464 32.4505 296.329 36.9549 299.649 40.2766C302.969 43.5982 307.473 45.465 312.17 45.4664H410.987C414.767 45.4744 418.449 44.2626 421.486 42.011C422.1 41.5645 422.682 41.076 423.229 40.5491C424.958 38.8975 426.334 36.9117 427.274 34.7123C428.213 32.5128 428.695 30.1455 428.692 27.7539V24.0254H459.68C462.504 24.0245 465.301 24.5802 467.911 25.6608C470.521 26.7413 472.892 28.3255 474.89 30.3228C476.887 32.3202 478.471 34.6915 479.552 37.3013C480.632 39.911 481.188 42.7082 481.187 45.5328Z" fill="white"/>
<g filter="url(#filter0_ddd_324:13)">
<rect x="333.36" y="422.309" width="47.937" height="62.234" rx="18.169" fill="white"/>
</g>
<g filter="url(#filter1_ddd_324:13)">
<rect x="335.884" y="425.253" width="47.937" height="61.393" rx="18.169" fill="white"/>
</g>
<g filter="url(#filter2_ddd_324:13)">
<rect x="338.407" y="427.355" width="48.778" height="62.234" rx="18.169" fill="white"/>
</g>
<g clip-path="url(#clip0_324:13)">
<path d="M373.308 454.267V462.022C373.308 467.655 368.8 472.243 363.211 472.348C357.431 472.454 352.703 467.607 352.703 461.82V454.267C352.703 453.96 352.952 453.701 353.268 453.701H358.972C359.287 453.701 359.536 453.951 359.536 454.267V462.022C359.536 463.96 361.125 465.534 363.068 465.496C364.972 465.458 366.475 463.817 366.475 461.907V460.553H363.565C363.259 460.553 363.001 460.304 363.001 459.987V454.267C363.001 453.96 363.249 453.701 363.565 453.701H372.743C373.049 453.701 373.308 453.96 373.308 454.267Z" fill="#FF4A3D"/>
<path d="M356.119 450.927C357.747 450.927 359.067 449.604 359.067 447.972C359.067 446.339 357.747 445.016 356.119 445.016C354.492 445.016 353.172 446.339 353.172 447.972C353.172 449.604 354.492 450.927 356.119 450.927Z" fill="#FF4A3D"/>
<path d="M369.891 450.927C371.519 450.927 372.839 449.604 372.839 447.972C372.839 446.339 371.519 445.016 369.891 445.016C368.263 445.016 366.943 446.339 366.943 447.972C366.943 449.604 368.263 450.927 369.891 450.927Z" fill="#FF4A3D"/>
</g>
<g filter="url(#filter3_ddd_324:13)">
<rect x="441.262" y="52.3711" width="24.9482" height="24.9482" rx="12" fill="white"/>
</g>
<path d="M456.057 64.5329L459.072 61.5186C459.442 61.1487 459.442 60.549 459.072 60.1788L458.402 59.5089C458.032 59.139 457.432 59.139 457.062 59.5089L454.048 62.5232L451.033 59.5089C450.663 59.139 450.064 59.139 449.693 59.5089L449.024 60.1788C448.654 60.5487 448.654 61.1484 449.024 61.5186L452.038 64.5329L449.024 67.5473C448.654 67.9172 448.654 68.5169 449.024 68.8871L449.693 69.557C450.063 69.9269 450.663 69.9269 451.033 69.557L454.048 66.5427L457.062 69.557C457.432 69.9269 458.032 69.9269 458.402 69.557L459.072 68.8871C459.442 68.5172 459.442 67.9175 459.072 67.5473L456.057 64.5329Z" fill="#FF4A3D"/>
<g filter="url(#filter4_dddd_324:13)">
<rect x="266.625" y="121.603" width="187.112" height="240.751" rx="18.5907" fill="#FF4A3D"/>
</g>
<path d="M401.827 224.115V255.429C401.827 278.179 383.574 296.704 360.94 297.13C337.532 297.556 318.387 277.985 318.387 254.615V224.115C318.387 222.875 319.394 221.828 320.673 221.828H343.772C345.051 221.828 346.058 222.836 346.058 224.115V255.429C346.058 263.258 352.492 269.614 360.359 269.459C368.071 269.304 374.156 262.676 374.156 254.964V249.5H362.374C361.134 249.5 360.088 248.492 360.088 247.213V224.115C360.088 222.875 361.095 221.828 362.374 221.828H399.541C400.781 221.828 401.827 222.875 401.827 224.115Z" fill="white"/>
<path d="M332.223 210.627C338.815 210.627 344.16 205.283 344.16 198.691C344.16 192.098 338.815 186.754 332.223 186.754C325.63 186.754 320.286 192.098 320.286 198.691C320.286 205.283 325.63 210.627 332.223 210.627Z" fill="white"/>
<path d="M387.992 210.627C394.585 210.627 399.929 205.283 399.929 198.691C399.929 192.098 394.585 186.754 387.992 186.754C381.4 186.754 376.056 192.098 376.056 198.691C376.056 205.283 381.4 210.627 387.992 210.627Z" fill="white"/>
<path d="M473.806 573.902H248.934C243.87 573.917 238.906 572.488 234.626 569.782C231.194 567.645 228.358 564.676 226.378 561.151C224.399 557.626 223.341 553.658 223.303 549.616V25.2637C223.303 11.8631 234.801 0.960952 248.934 0.960952H301.782V5.78421C301.782 16.0779 310.643 24.4525 321.535 24.4525H396.037C400.23 24.4758 404.327 23.2 407.765 20.8006C410.202 19.1179 412.202 16.8773 413.598 14.2653C414.994 11.6533 415.746 8.74555 415.791 5.78421V0.960938H473.806C487.938 0.960938 499.437 11.8631 499.437 25.2637V549.616C499.416 553.178 498.594 556.689 497.032 559.89C495.469 563.091 493.207 565.9 490.412 568.108C485.701 571.879 479.84 573.924 473.806 573.902V573.902ZM248.934 2.43759C235.615 2.43759 224.779 12.6775 224.779 25.2637V549.616C224.818 553.41 225.814 557.133 227.674 560.441C229.534 563.748 232.198 566.533 235.421 568.537C239.463 571.092 244.151 572.441 248.934 572.425H473.806C479.502 572.448 485.035 570.519 489.483 566.96C492.107 564.89 494.231 562.256 495.698 559.254C497.166 556.251 497.939 552.957 497.96 549.616V25.2637C497.96 12.6775 487.124 2.4376 473.806 2.4376H417.268V5.78421C417.223 8.98413 416.413 12.1269 414.906 14.9502C413.399 17.7735 411.239 20.1955 408.606 22.014C404.921 24.5857 400.531 25.9534 396.037 25.9292H321.535C309.829 25.9292 300.305 16.8923 300.305 5.78421V2.43759H248.934Z" fill="#3F3D56"/>
<path d="M112.226 577.622L111.433 577.325C111.259 577.259 93.9288 570.62 85.8105 555.564C77.6918 540.508 81.6671 522.38 81.7082 522.199L81.8953 521.373L82.6874 521.67C82.8615 521.736 100.192 528.376 108.31 543.431C116.429 558.488 112.454 576.616 112.413 576.797L112.226 577.622ZM87.1105 554.863C93.9742 567.593 107.669 574.118 111.139 575.608C111.799 571.889 113.868 556.849 107.01 544.132C100.153 531.416 86.4529 524.881 82.9816 523.388C82.3214 527.109 80.2532 542.146 87.1105 554.863Z" fill="#3F3D56"/>
<path d="M92.015 550.283C106.605 559.061 112.224 576.496 112.224 576.496C112.224 576.496 94.1881 579.699 79.5984 570.922C65.0086 562.144 59.3896 544.709 59.3896 544.709C59.3896 544.709 77.4253 541.506 92.015 550.283Z" fill="#FF4A3D"/>
<path d="M233.277 154.352C224.621 133.928 202.587 130.071 202.587 130.071C202.587 130.071 181.371 124.411 163.653 151.366C147.139 176.49 125.843 200.029 152.851 210.057L159.985 195.075L160.841 212.317C164.768 213.135 168.737 213.738 172.73 214.122C202.687 217.165 230.927 222.225 231.45 211.399C232.145 197.007 241.605 174.003 233.277 154.352Z" fill="#2F2E41"/>
<path d="M141.883 317.906L139.955 367.061C139.955 367.061 119.715 406.578 136.1 405.614C152.485 404.65 150.557 367.061 150.557 367.061L156.34 320.798L141.883 317.906Z" fill="#FFB8B8"/>
<path d="M252.721 309.232L258.504 358.387C258.504 358.387 275.853 384.411 262.359 393.085C248.866 401.759 248.866 362.243 248.866 362.243L234.408 312.124L252.721 309.232Z" fill="#FFB8B8"/>
<path d="M232.481 400.794L215.132 468.262C215.132 468.262 207.421 495.249 196.819 508.742L192.964 516.453L177.543 514.525L188.145 471.153L194.892 391.156L232.481 400.794Z" fill="#FFB8B8"/>
<path opacity="0.1" d="M232.481 400.794L215.132 468.262C215.132 468.262 207.421 495.249 196.819 508.742L192.964 516.453L177.543 514.525L188.145 471.153L194.892 391.156L232.481 400.794Z" fill="black"/>
<path d="M173.729 503.766L200.087 509.869L189.224 535.477C189.224 535.477 193.639 550.808 189.433 558.927C185.227 567.046 185.834 581.777 185.834 581.777L180.122 580.877C180.122 580.877 166.252 606.988 149.864 599.529C133.477 592.069 150.907 574.325 150.907 574.325C150.907 574.325 165.076 546.31 166.876 534.885C168.675 523.459 173.729 503.766 173.729 503.766Z" fill="#2F2E41"/>
<path opacity="0.1" d="M173.729 503.766L200.087 509.869L189.224 535.477C189.224 535.477 193.639 550.808 189.433 558.927C185.227 567.046 185.834 581.777 185.834 581.777L180.122 580.877C180.122 580.877 166.252 606.988 149.864 599.529C133.477 592.069 150.907 574.325 150.907 574.325C150.907 574.325 165.076 546.31 166.876 534.885C168.675 523.459 173.729 503.766 173.729 503.766Z" fill="black"/>
<path d="M151.521 386.338L165.978 458.625C165.978 458.625 161.159 494.286 166.942 516.454L172.725 537.658H192.001V459.588C192.001 459.588 192.965 395.976 190.073 391.157C187.182 386.338 151.521 386.338 151.521 386.338Z" fill="#FFB8B8"/>
<path d="M195.855 529.947L168.868 531.875L175.615 558.862C175.615 558.862 168.868 573.319 171.76 581.994C174.651 590.668 171.76 605.125 171.76 605.125H177.543C177.543 605.125 187.181 633.076 204.53 628.257C221.878 623.438 207.421 603.198 207.421 603.198C207.421 603.198 197.783 573.319 197.783 561.753C197.783 550.188 195.855 529.947 195.855 529.947Z" fill="#2F2E41"/>
<path d="M202.602 196.465C216.974 196.465 228.625 184.814 228.625 170.442C228.625 156.07 216.974 144.419 202.602 144.419C188.23 144.419 176.579 156.07 176.579 170.442C176.579 184.814 188.23 196.465 202.602 196.465Z" fill="#FFB8B8"/>
<path d="M184.772 180.562C184.772 180.562 186.699 213.332 180.917 215.26C175.134 217.188 210.795 215.26 210.795 215.26C210.795 215.26 205.976 195.02 210.795 189.237C215.614 183.454 184.772 180.562 184.772 180.562Z" fill="#FFB8B8"/>
<path d="M211.277 209.958C211.277 209.958 186.218 208.031 181.399 209.958C176.579 211.886 163.086 221.524 163.086 221.524L169.833 282.245L224.77 293.811L233.445 281.281L242.119 262.968L238.264 239.837L237.3 226.343L211.277 209.958Z" fill="#D0CDE1"/>
<path d="M158.267 225.379C158.267 225.379 145.737 228.27 144.773 237.909C143.809 247.547 143.809 271.642 144.773 275.498C145.737 279.353 144.773 281.281 143.809 282.244C142.846 283.208 140.918 281.281 142.846 284.172C144.773 287.063 144.773 287.063 143.809 289.955C142.846 292.846 139.954 288.991 141.882 293.81C143.809 298.629 144.773 299.593 143.809 300.557C142.846 301.521 139.954 323.689 139.954 323.689L156.339 326.58L172.724 269.715L158.267 225.379Z" fill="#D0CDE1"/>
<path d="M233.445 225.379C235.275 225.481 237.045 226.071 238.57 227.088C240.096 228.105 241.321 229.512 242.119 231.162C245.011 236.945 252.721 274.534 251.758 277.425C250.794 280.317 248.866 276.461 250.794 282.244C252.721 288.027 250.794 287.063 251.758 290.919C252.721 294.774 247.902 290.919 251.758 294.774C255.613 298.629 257.541 299.593 255.613 301.521C253.685 303.448 250.794 299.593 253.685 303.448C256.577 307.304 256.577 313.087 256.577 313.087L233.445 317.906L226.698 263.932L233.445 225.379Z" fill="#D0CDE1"/>
<path d="M155.249 223.847L159.984 221.48C160.463 221.24 160.984 221.098 161.518 221.061C162.052 221.025 162.588 221.094 163.095 221.265C163.602 221.437 164.071 221.707 164.473 222.061C164.875 222.414 165.203 222.843 165.438 223.324L187.181 267.788L211.277 283.209L228.625 275.498C228.625 275.498 241.155 256.222 237.3 246.584C234.686 240.049 231.624 229.995 229.923 224.197C229.823 223.856 229.831 223.492 229.945 223.156C230.059 222.819 230.274 222.526 230.561 222.316C230.848 222.105 231.192 221.989 231.548 221.981C231.903 221.974 232.252 222.076 232.548 222.273L235.833 224.464C236.884 225.165 237.618 226.252 237.873 227.489L245.01 262.005L235.372 282.245V301.522L242.119 405.614C242.119 405.614 217.06 401.759 192 396.94C166.941 392.121 135.135 388.265 135.135 388.265C135.135 388.265 151.52 303.449 165.013 288.992C165.013 288.992 165.013 278.39 166.941 277.426C168.868 276.462 170.796 269.715 170.796 269.715L153.338 229.072C152.93 228.122 152.9 227.051 153.256 226.08C153.611 225.108 154.324 224.31 155.249 223.847V223.847Z" fill="#2F2E41"/>
<path d="M228.383 146.93L206.301 135.363L175.807 140.095L169.498 167.96L185.203 167.356L189.591 157.119V167.188L196.838 166.909L201.044 150.61L203.672 167.96L229.435 167.435L228.383 146.93Z" fill="#2F2E41"/>
<path d="M176.098 175.502C177.694 175.502 178.989 173.237 178.989 170.442C178.989 167.647 177.694 165.382 176.098 165.382C174.501 165.382 173.206 167.647 173.206 170.442C173.206 173.237 174.501 175.502 176.098 175.502Z" fill="#FFB8B8"/>
<path fill-rule="evenodd" clip-rule="evenodd" d="M147.653 105.383C167.169 95.4677 179.565 80.6325 179.565 64.0542C179.565 34.2009 139.368 10 89.7826 10C40.1971 10 0 34.2009 0 64.0542C0 93.9075 40.1971 118.108 89.7826 118.108C107.867 118.108 124.702 114.889 138.795 109.351C145.366 115.148 153.901 117.954 158.686 118.733C155.176 115.983 150.693 111.251 147.653 105.383Z" fill="#CCCCCC"/>
<circle cx="46.2893" cy="64.3664" r="7.31758" fill="white"/>
<circle cx="89.7824" cy="64.3654" r="7.31758" fill="white"/>
<circle cx="133.275" cy="64.3654" r="7.31758" fill="white"/>
<defs>
<filter id="filter0_ddd_324:13" x="303.079" y="407.168" width="108.501" height="122.798" filterUnits="userSpaceOnUse" color-interpolation-filters="sRGB">
<feFlood flood-opacity="0" result="BackgroundImageFix"/>
<feColorMatrix in="SourceAlpha" type="matrix" values="0 0 0 0 0 0 0 0 0 0 0 0 0 0 0 0 0 0 127 0" result="hardAlpha"/>
<feOffset/>
<feGaussianBlur stdDeviation="0.757042"/>
<feColorMatrix type="matrix" values="0 0 0 0 0 0 0 0 0 0 0 0 0 0 0 0 0 0 0.04 0"/>
<feBlend mode="normal" in2="BackgroundImageFix" result="effect1_dropShadow_324:13"/>
<feColorMatrix in="SourceAlpha" type="matrix" values="0 0 0 0 0 0 0 0 0 0 0 0 0 0 0 0 0 0 127 0" result="hardAlpha"/>
<feOffset dy="3.02817"/>
<feGaussianBlur stdDeviation="4.54225"/>
<feColorMatrix type="matrix" values="0 0 0 0 0 0 0 0 0 0 0 0 0 0 0 0 0 0 0.04 0"/>
<feBlend mode="normal" in2="effect1_dropShadow_324:13" result="effect2_dropShadow_324:13"/>
<feColorMatrix in="SourceAlpha" type="matrix" values="0 0 0 0 0 0 0 0 0 0 0 0 0 0 0 0 0 0 127 0" result="hardAlpha"/>
<feOffset dy="15.1408"/>
<feGaussianBlur stdDeviation="15.1408"/>
<feColorMatrix type="matrix" values="0 0 0 0 0 0 0 0 0 0 0 0 0 0 0 0 0 0 0.04 0"/>
<feBlend mode="normal" in2="effect2_dropShadow_324:13" result="effect3_dropShadow_324:13"/>
<feBlend mode="normal" in="SourceGraphic" in2="effect3_dropShadow_324:13" result="shape"/>
</filter>
<filter id="filter1_ddd_324:13" x="305.602" y="410.112" width="108.501" height="121.956" filterUnits="userSpaceOnUse" color-interpolation-filters="sRGB">
<feFlood flood-opacity="0" result="BackgroundImageFix"/>
<feColorMatrix in="SourceAlpha" type="matrix" values="0 0 0 0 0 0 0 0 0 0 0 0 0 0 0 0 0 0 127 0" result="hardAlpha"/>
<feOffset/>
<feGaussianBlur stdDeviation="0.757042"/>
<feColorMatrix type="matrix" values="0 0 0 0 0 0 0 0 0 0 0 0 0 0 0 0 0 0 0.04 0"/>
<feBlend mode="normal" in2="BackgroundImageFix" result="effect1_dropShadow_324:13"/>
<feColorMatrix in="SourceAlpha" type="matrix" values="0 0 0 0 0 0 0 0 0 0 0 0 0 0 0 0 0 0 127 0" result="hardAlpha"/>
<feOffset dy="3.02817"/>
<feGaussianBlur stdDeviation="4.54225"/>
<feColorMatrix type="matrix" values="0 0 0 0 0 0 0 0 0 0 0 0 0 0 0 0 0 0 0.04 0"/>
<feBlend mode="normal" in2="effect1_dropShadow_324:13" result="effect2_dropShadow_324:13"/>
<feColorMatrix in="SourceAlpha" type="matrix" values="0 0 0 0 0 0 0 0 0 0 0 0 0 0 0 0 0 0 127 0" result="hardAlpha"/>
<feOffset dy="15.1408"/>
<feGaussianBlur stdDeviation="15.1408"/>
<feColorMatrix type="matrix" values="0 0 0 0 0 0 0 0 0 0 0 0 0 0 0 0 0 0 0.04 0"/>
<feBlend mode="normal" in2="effect2_dropShadow_324:13" result="effect3_dropShadow_324:13"/>
<feBlend mode="normal" in="SourceGraphic" in2="effect3_dropShadow_324:13" result="shape"/>
</filter>
<filter id="filter2_ddd_324:13" x="308.126" y="412.215" width="109.342" height="122.798" filterUnits="userSpaceOnUse" color-interpolation-filters="sRGB">
<feFlood flood-opacity="0" result="BackgroundImageFix"/>
<feColorMatrix in="SourceAlpha" type="matrix" values="0 0 0 0 0 0 0 0 0 0 0 0 0 0 0 0 0 0 127 0" result="hardAlpha"/>
<feOffset/>
<feGaussianBlur stdDeviation="0.757042"/>
<feColorMatrix type="matrix" values="0 0 0 0 0 0 0 0 0 0 0 0 0 0 0 0 0 0 0.04 0"/>
<feBlend mode="normal" in2="BackgroundImageFix" result="effect1_dropShadow_324:13"/>
<feColorMatrix in="SourceAlpha" type="matrix" values="0 0 0 0 0 0 0 0 0 0 0 0 0 0 0 0 0 0 127 0" result="hardAlpha"/>
<feOffset dy="3.02817"/>
<feGaussianBlur stdDeviation="4.54225"/>
<feColorMatrix type="matrix" values="0 0 0 0 0 0 0 0 0 0 0 0 0 0 0 0 0 0 0.04 0"/>
<feBlend mode="normal" in2="effect1_dropShadow_324:13" result="effect2_dropShadow_324:13"/>
<feColorMatrix in="SourceAlpha" type="matrix" values="0 0 0 0 0 0 0 0 0 0 0 0 0 0 0 0 0 0 127 0" result="hardAlpha"/>
<feOffset dy="15.1408"/>
<feGaussianBlur stdDeviation="15.1408"/>
<feColorMatrix type="matrix" values="0 0 0 0 0 0 0 0 0 0 0 0 0 0 0 0 0 0 0.04 0"/>
<feBlend mode="normal" in2="effect2_dropShadow_324:13" result="effect3_dropShadow_324:13"/>
<feBlend mode="normal" in="SourceGraphic" in2="effect3_dropShadow_324:13" result="shape"/>
</filter>
<filter id="filter3_ddd_324:13" x="417.262" y="44.3711" width="72.9482" height="72.9482" filterUnits="userSpaceOnUse" color-interpolation-filters="sRGB">
<feFlood flood-opacity="0" result="BackgroundImageFix"/>
<feColorMatrix in="SourceAlpha" type="matrix" values="0 0 0 0 0 0 0 0 0 0 0 0 0 0 0 0 0 0 127 0" result="hardAlpha"/>
<feOffset/>
<feGaussianBlur stdDeviation="0.5"/>
<feColorMatrix type="matrix" values="0 0 0 0 0 0 0 0 0 0 0 0 0 0 0 0 0 0 0.04 0"/>
<feBlend mode="normal" in2="BackgroundImageFix" result="effect1_dropShadow_324:13"/>
<feColorMatrix in="SourceAlpha" type="matrix" values="0 0 0 0 0 0 0 0 0 0 0 0 0 0 0 0 0 0 127 0" result="hardAlpha"/>
<feOffset dy="2"/>
<feGaussianBlur stdDeviation="3"/>
<feColorMatrix type="matrix" values="0 0 0 0 0 0 0 0 0 0 0 0 0 0 0 0 0 0 0.04 0"/>
<feBlend mode="normal" in2="effect1_dropShadow_324:13" result="effect2_dropShadow_324:13"/>
<feColorMatrix in="SourceAlpha" type="matrix" values="0 0 0 0 0 0 0 0 0 0 0 0 0 0 0 0 0 0 127 0" result="hardAlpha"/>
<feOffset dy="16"/>
<feGaussianBlur stdDeviation="12"/>
<feColorMatrix type="matrix" values="0 0 0 0 0 0 0 0 0 0 0 0 0 0 0 0 0 0 0.06 0"/>
<feBlend mode="normal" in2="effect2_dropShadow_324:13" result="effect3_dropShadow_324:13"/>
<feBlend mode="normal" in="SourceGraphic" in2="effect3_dropShadow_324:13" result="shape"/>
</filter>
<filter id="filter4_dddd_324:13" x="234.625" y="113.603" width="251.111" height="304.751" filterUnits="userSpaceOnUse" color-interpolation-filters="sRGB">
<feFlood flood-opacity="0" result="BackgroundImageFix"/>
<feColorMatrix in="SourceAlpha" type="matrix" values="0 0 0 0 0 0 0 0 0 0 0 0 0 0 0 0 0 0 127 0" result="hardAlpha"/>
<feOffset/>
<feGaussianBlur stdDeviation="0.5"/>
<feColorMatrix type="matrix" values="0 0 0 0 0 0 0 0 0 0 0 0 0 0 0 0 0 0 0.04 0"/>
<feBlend mode="normal" in2="BackgroundImageFix" result="effect1_dropShadow_324:13"/>
<feColorMatrix in="SourceAlpha" type="matrix" values="0 0 0 0 0 0 0 0 0 0 0 0 0 0 0 0 0 0 127 0" result="hardAlpha"/>
<feOffset dy="4"/>
<feGaussianBlur stdDeviation="4"/>
<feColorMatrix type="matrix" values="0 0 0 0 0 0 0 0 0 0 0 0 0 0 0 0 0 0 0.04 0"/>
<feBlend mode="normal" in2="effect1_dropShadow_324:13" result="effect2_dropShadow_324:13"/>
<feColorMatrix in="SourceAlpha" type="matrix" values="0 0 0 0 0 0 0 0 0 0 0 0 0 0 0 0 0 0 127 0" result="hardAlpha"/>
<feOffset dy="16"/>
<feGaussianBlur stdDeviation="12"/>
<feColorMatrix type="matrix" values="0 0 0 0 0 0 0 0 0 0 0 0 0 0 0 0 0 0 0.04 0"/>
<feBlend mode="normal" in2="effect2_dropShadow_324:13" result="effect3_dropShadow_324:13"/>
<feColorMatrix in="SourceAlpha" type="matrix" values="0 0 0 0 0 0 0 0 0 0 0 0 0 0 0 0 0 0 127 0" result="hardAlpha"/>
<feOffset dy="24"/>
<feGaussianBlur stdDeviation="16"/>
<feColorMatrix type="matrix" values="0 0 0 0 0 0 0 0 0 0 0 0 0 0 0 0 0 0 0.04 0"/>
<feBlend mode="normal" in2="effect3_dropShadow_324:13" result="effect4_dropShadow_324:13"/>
<feBlend mode="normal" in="SourceGraphic" in2="effect4_dropShadow_324:13" result="shape"/>
</filter>
<clipPath id="clip0_324:13">
<rect width="20.6045" height="27.3325" fill="white" transform="translate(352.703 445.016)"/>
</clipPath>
</defs>
</svg>
