<svg
  width="642"
  height="425"
  viewBox="0 0 642 425"
  fill="none"
  xmlns="http://www.w3.org/2000/svg"
>
<path
    d="M557.387 285.774L558.654 285.299C558.933 285.194 586.647 274.576 599.629 250.5C612.612 226.422 606.255 197.433 606.189 197.143L605.89 195.823L604.623 196.298C604.345 196.403 576.631 207.021 563.648 231.098C550.665 255.175 557.023 284.164 557.088 284.454L557.387 285.774ZM597.55 249.379C586.574 269.735 564.673 280.17 559.125 282.552C558.07 276.605 554.761 252.555 565.727 232.218C576.693 211.884 598.602 201.433 604.153 199.045C605.209 204.995 608.516 229.043 597.55 249.379Z"
    fill="#3F3D56"
  />
<path
    d="M589.708 242.054C566.377 256.09 557.391 283.971 557.391 283.971C557.391 283.971 586.233 289.094 609.564 275.057C632.895 261.021 641.881 233.14 641.881 233.14C641.881 233.14 613.039 228.017 589.708 242.054Z"
    fill="#D0CDE1"
  />
<path
    d="M622.745 424.954H52.0531C46.978 424.954 42.1108 422.938 38.5222 419.349C34.9335 415.761 32.9175 410.893 32.9175 405.818C239.793 381.775 442.781 381.775 641.88 405.818C641.88 408.331 641.386 410.82 640.424 413.141C639.462 415.463 638.053 417.572 636.276 419.349C634.499 421.126 632.389 422.536 630.068 423.497C627.746 424.459 625.258 424.954 622.745 424.954Z"
    fill="#2F2E41"
  />
<path
    d="M641.88 406.943L32.9175 405.818L103.494 287.064L103.832 286.501V24.7824C103.832 21.6057 104.457 18.4601 105.673 15.5251C106.888 12.5902 108.67 9.92342 110.916 7.67715C113.163 5.43088 115.829 3.64911 118.764 2.43356C121.699 1.21801 124.845 0.592508 128.021 0.592774H543.4C546.576 0.592508 549.722 1.21801 552.657 2.43356C555.592 3.64911 558.258 5.43088 560.505 7.67715C562.751 9.92342 564.533 12.5902 565.748 15.5251C566.964 18.4601 567.589 21.6057 567.589 24.7824V288.302L641.88 406.943Z"
    fill="#3F3D56"
  />
<path
    d="M127.47 17.4775C125.381 17.4799 123.378 18.3108 121.901 19.7879C120.424 21.2651 119.593 23.2679 119.59 25.3569V263.989C119.593 266.078 120.424 268.081 121.901 269.558C123.378 271.035 125.381 271.866 127.47 271.869H547.328C549.417 271.866 551.419 271.035 552.896 269.558C554.374 268.081 555.205 266.078 555.207 263.989V25.3569C555.205 23.2679 554.374 21.2652 552.897 19.788C551.419 18.3109 549.417 17.48 547.328 17.4775H127.47Z"
    fill="#F6F6F6"
  />
<path
    d="M129.229 303.386C128.584 303.387 127.952 303.572 127.408 303.921C126.865 304.269 126.432 304.765 126.161 305.351L104.414 352.627C104.177 353.142 104.074 353.708 104.113 354.273C104.152 354.838 104.333 355.384 104.638 355.86C104.944 356.337 105.364 356.73 105.861 357.001C106.358 357.273 106.915 357.416 107.482 357.416H564.807C565.382 357.416 565.948 357.269 566.451 356.988C566.954 356.708 567.377 356.304 567.679 355.814C567.982 355.324 568.154 354.765 568.18 354.19C568.206 353.615 568.084 353.043 567.826 352.529L544.188 305.252C543.909 304.69 543.479 304.218 542.945 303.888C542.411 303.558 541.796 303.384 541.169 303.386H129.229Z"
    fill="#2F2E41"
  />
<path
    d="M335.71 13.5378C338.508 13.5378 340.776 11.27 340.776 8.47253C340.776 5.67504 338.508 3.40723 335.71 3.40723C332.913 3.40723 330.645 5.67504 330.645 8.47253C330.645 11.27 332.913 13.5378 335.71 13.5378Z"
    fill="#F6F6F6"
  />
<path
    d="M290.759 366.421C290.017 366.422 289.295 366.667 288.706 367.119C288.117 367.57 287.692 368.203 287.499 368.919L282.044 389.181C281.909 389.681 281.891 390.206 281.991 390.715C282.092 391.223 282.308 391.702 282.624 392.113C282.939 392.524 283.345 392.858 283.809 393.087C284.274 393.317 284.786 393.436 285.304 393.436H389.045C389.584 393.436 390.114 393.307 390.593 393.06C391.071 392.814 391.484 392.456 391.796 392.018C392.108 391.579 392.311 391.072 392.387 390.539C392.464 390.006 392.412 389.463 392.235 388.954L385.222 368.693C384.992 368.03 384.562 367.454 383.99 367.047C383.418 366.64 382.733 366.421 382.031 366.421H290.759Z"
    fill="#2F2E41"
  />
<path
    d="M567.59 282.562V287.064H103.495L103.844 286.502V282.562H567.59Z"
    fill="#2F2E41"
  />
<path
    d="M81.0539 266.721C109.712 266.721 132.944 243.489 132.944 214.831C132.944 186.173 109.712 162.94 81.0539 162.94C52.3957 162.94 29.1636 186.173 29.1636 214.831C29.1636 243.489 52.3957 266.721 81.0539 266.721Z"
    fill="#2F2E41"
  />
<path
    d="M61.0131 285.89L45.5005 283.082L50.5318 250.691L66.0438 253.5L61.0131 285.89Z"
    fill="#2F2E41"
  />
<path
    d="M97.0677 259.116L81.5557 256.308L76.5244 284.1L92.0365 286.908L97.0677 259.116Z"
    fill="#2F2E41"
  />
<path
    d="M102.405 288.421C102.943 285.754 97.6142 282.428 90.5024 280.992C83.3907 279.557 77.189 280.555 76.6506 283.222C76.1122 285.889 81.441 289.215 88.5528 290.65C95.6646 292.086 101.866 291.088 102.405 288.421Z"
    fill="#2F2E41"
  />
<path
    d="M70.0958 287.584C70.4531 284.887 64.9122 281.928 57.7198 280.976C50.5273 280.023 44.4071 281.437 44.0498 284.134C43.6925 286.831 49.2334 289.79 56.4258 290.743C63.6183 291.696 69.7385 290.282 70.0958 287.584Z"
    fill="#2F2E41"
  />
<path
    d="M84.6868 219.873C94.4814 219.873 102.421 211.933 102.421 202.138C102.421 192.343 94.4814 184.403 84.6868 184.403C74.8922 184.403 66.9521 192.343 66.9521 202.138C66.9521 211.933 74.8922 219.873 84.6868 219.873Z"
    fill="#F6F6F6"
  />
<path
    d="M91.9755 201.692C95.2404 201.692 97.8871 199.046 97.8871 195.781C97.8871 192.516 95.2404 189.869 91.9755 189.869C88.7107 189.869 86.064 192.516 86.064 195.781C86.064 199.046 88.7107 201.692 91.9755 201.692Z"
    fill="#3F3D56"
  />
<path
    d="M40.1198 158.379C39.3394 139.168 55.8961 122.897 77.1003 122.036C98.3044 121.174 116.126 136.049 116.907 155.26C117.687 174.47 102.947 178.835 81.7433 179.697C60.5392 180.558 40.9001 177.59 40.1198 158.379Z"
    fill="#FF4A3D"
  />
<path
    d="M130.787 213.317C144.754 210.115 155.262 203.966 154.257 199.581C153.252 195.196 141.115 194.237 127.148 197.439C113.181 200.64 102.673 206.79 103.678 211.174C104.683 215.559 116.82 216.518 130.787 213.317Z"
    fill="#2F2E41"
  />
<path
    d="M28.9289 230.255C42.8958 227.054 53.4035 220.904 52.3984 216.519C51.3934 212.135 39.2562 211.176 25.2893 214.377C11.3224 217.579 0.814737 223.728 1.81977 228.113C2.8248 232.498 14.962 233.457 28.9289 230.255Z"
    fill="#2F2E41"
  />
<path
    d="M66.8024 235.279C66.5258 236.807 66.5529 238.374 66.882 239.891C67.2112 241.409 67.8359 242.846 68.7207 244.122C69.6054 245.398 70.7328 246.487 72.0385 247.327C73.3441 248.168 74.8025 248.742 76.3303 249.019C77.8581 249.296 79.4254 249.268 80.9428 248.939C82.4601 248.61 83.8978 247.985 85.1737 247.101C86.4495 246.216 87.5387 245.089 88.3789 243.783C89.2191 242.477 89.7938 241.019 90.0704 239.491C91.2336 233.066 86.2658 230.792 79.8405 229.629C73.4152 228.466 67.9655 228.854 66.8024 235.279Z"
    fill="#F6F6F6"
  />
<path
    d="M287.275 93.9666H284.113V91.6577H293.334V93.9666H290.186V101.952H287.275V93.9666ZM297.482 102.085C296.629 102.085 295.859 101.908 295.173 101.555C294.487 101.202 293.948 100.712 293.555 100.084C293.173 99.457 292.982 98.7462 292.982 97.952C292.982 97.1677 293.173 96.4618 293.555 95.8343C293.948 95.2069 294.482 94.7215 295.158 94.3784C295.845 94.0254 296.619 93.849 297.482 93.849C298.345 93.849 299.119 94.0254 299.806 94.3784C300.492 94.7215 301.026 95.2069 301.409 95.8343C301.791 96.452 301.982 97.1579 301.982 97.952C301.982 98.7462 301.791 99.457 301.409 100.084C301.026 100.712 300.492 101.202 299.806 101.555C299.119 101.908 298.345 102.085 297.482 102.085ZM297.482 99.8639C297.972 99.8639 298.374 99.6972 298.688 99.3638C299.002 99.0207 299.158 98.5501 299.158 97.952C299.158 97.3638 299.002 96.903 298.688 96.5696C298.374 96.2363 297.972 96.0696 297.482 96.0696C296.992 96.0696 296.59 96.2363 296.276 96.5696C295.962 96.903 295.805 97.3638 295.805 97.952C295.805 98.5501 295.962 99.0207 296.276 99.3638C296.59 99.6972 296.992 99.8639 297.482 99.8639ZM308.468 93.849C309.458 93.849 310.252 94.1431 310.85 94.7314C311.458 95.3196 311.762 96.2069 311.762 97.3932V101.952H308.968V97.8491C308.968 96.7608 308.532 96.2167 307.659 96.2167C307.179 96.2167 306.791 96.3736 306.497 96.6873C306.213 97.001 306.071 97.4716 306.071 98.0991V101.952H303.276V93.9813H305.938V94.849C306.252 94.5255 306.625 94.2804 307.056 94.1137C307.487 93.9372 307.958 93.849 308.468 93.849ZM319.016 101.629C318.781 101.776 318.492 101.888 318.149 101.967C317.815 102.045 317.458 102.085 317.075 102.085C316.036 102.085 315.237 101.83 314.678 101.32C314.119 100.81 313.84 100.05 313.84 99.0403V96.3638H312.678V94.2755H313.84V92.2019H316.634V94.2755H318.458V96.3638H316.634V99.0109C316.634 99.2952 316.708 99.5207 316.855 99.6874C317.012 99.8442 317.217 99.9227 317.472 99.9227C317.796 99.9227 318.08 99.8393 318.325 99.6727L319.016 101.629ZM323.864 102.085C323.011 102.085 322.242 101.908 321.555 101.555C320.869 101.202 320.33 100.712 319.938 100.084C319.555 99.457 319.364 98.7462 319.364 97.952C319.364 97.1677 319.555 96.4618 319.938 95.8343C320.33 95.2069 320.864 94.7215 321.541 94.3784C322.227 94.0254 323.001 93.849 323.864 93.849C324.727 93.849 325.502 94.0254 326.188 94.3784C326.874 94.7215 327.408 95.2069 327.791 95.8343C328.173 96.452 328.364 97.1579 328.364 97.952C328.364 98.7462 328.173 99.457 327.791 100.084C327.408 100.712 326.874 101.202 326.188 101.555C325.502 101.908 324.727 102.085 323.864 102.085ZM323.864 99.8639C324.354 99.8639 324.756 99.6972 325.07 99.3638C325.384 99.0207 325.541 98.5501 325.541 97.952C325.541 97.3638 325.384 96.903 325.07 96.5696C324.756 96.2363 324.354 96.0696 323.864 96.0696C323.374 96.0696 322.972 96.2363 322.658 96.5696C322.345 96.903 322.188 97.3638 322.188 97.952C322.188 98.5501 322.345 99.0207 322.658 99.3638C322.972 99.6972 323.374 99.8639 323.864 99.8639ZM334.85 93.849C335.84 93.849 336.634 94.1431 337.233 94.7314C337.84 95.3196 338.144 96.2069 338.144 97.3932V101.952H335.35V97.8491C335.35 96.7608 334.914 96.2167 334.041 96.2167C333.561 96.2167 333.174 96.3736 332.879 96.6873C332.595 97.001 332.453 97.4716 332.453 98.0991V101.952H329.659V93.9813H332.321V94.849C332.634 94.5255 333.007 94.2804 333.438 94.1137C333.87 93.9372 334.34 93.849 334.85 93.849ZM348.811 99.2168H347.223V101.952H344.311V91.6577H349.017C349.948 91.6577 350.757 91.8146 351.443 92.1283C352.13 92.4323 352.659 92.8735 353.032 93.4519C353.404 94.0205 353.59 94.6921 353.59 95.4667C353.59 96.2118 353.414 96.8638 353.061 97.4226C352.718 97.9716 352.223 98.403 351.576 98.7168L353.796 101.952H350.679L348.811 99.2168ZM350.649 95.4667C350.649 94.9863 350.497 94.6137 350.193 94.349C349.889 94.0843 349.438 93.9519 348.84 93.9519H347.223V96.9667H348.84C349.438 96.9667 349.889 96.8393 350.193 96.5843C350.497 96.3196 350.649 95.9471 350.649 95.4667ZM359.065 102.085C358.212 102.085 357.442 101.908 356.756 101.555C356.069 101.202 355.53 100.712 355.138 100.084C354.756 99.457 354.564 98.7462 354.564 97.952C354.564 97.1677 354.756 96.4618 355.138 95.8343C355.53 95.2069 356.065 94.7215 356.741 94.3784C357.427 94.0254 358.202 93.849 359.065 93.849C359.927 93.849 360.702 94.0254 361.388 94.3784C362.075 94.7215 362.609 95.2069 362.991 95.8343C363.374 96.452 363.565 97.1579 363.565 97.952C363.565 98.7462 363.374 99.457 362.991 100.084C362.609 100.712 362.075 101.202 361.388 101.555C360.702 101.908 359.927 102.085 359.065 102.085ZM359.065 99.8639C359.555 99.8639 359.957 99.6972 360.271 99.3638C360.584 99.0207 360.741 98.5501 360.741 97.952C360.741 97.3638 360.584 96.903 360.271 96.5696C359.957 96.2363 359.555 96.0696 359.065 96.0696C358.574 96.0696 358.172 96.2363 357.859 96.5696C357.545 96.903 357.388 97.3638 357.388 97.952C357.388 98.5501 357.545 99.0207 357.859 99.3638C358.172 99.6972 358.574 99.8639 359.065 99.8639ZM368.859 102.085C368.006 102.085 367.237 101.908 366.55 101.555C365.864 101.202 365.325 100.712 364.933 100.084C364.55 99.457 364.359 98.7462 364.359 97.952C364.359 97.1677 364.55 96.4618 364.933 95.8343C365.325 95.2069 365.859 94.7215 366.536 94.3784C367.222 94.0254 367.996 93.849 368.859 93.849C369.722 93.849 370.497 94.0254 371.183 94.3784C371.869 94.7215 372.403 95.2069 372.786 95.8343C373.168 96.452 373.359 97.1579 373.359 97.952C373.359 98.7462 373.168 99.457 372.786 100.084C372.403 100.712 371.869 101.202 371.183 101.555C370.497 101.908 369.722 102.085 368.859 102.085ZM368.859 99.8639C369.349 99.8639 369.751 99.6972 370.065 99.3638C370.379 99.0207 370.536 98.5501 370.536 97.952C370.536 97.3638 370.379 96.903 370.065 96.5696C369.751 96.2363 369.349 96.0696 368.859 96.0696C368.369 96.0696 367.967 96.2363 367.653 96.5696C367.34 96.903 367.183 97.3638 367.183 97.952C367.183 98.5501 367.34 99.0207 367.653 99.3638C367.967 99.6972 368.369 99.8639 368.859 99.8639ZM385.036 93.849C386.017 93.849 386.796 94.1431 387.375 94.7314C387.963 95.3196 388.257 96.2069 388.257 97.3932V101.952H385.463V97.8491C385.463 97.2902 385.355 96.8785 385.139 96.6138C384.933 96.349 384.639 96.2167 384.257 96.2167C383.835 96.2167 383.497 96.3638 383.242 96.6579C382.987 96.952 382.86 97.3981 382.86 97.9962V101.952H380.066V97.8491C380.066 96.7608 379.664 96.2167 378.86 96.2167C378.428 96.2167 378.085 96.3638 377.83 96.6579C377.575 96.952 377.448 97.3981 377.448 97.9962V101.952H374.654V93.9813H377.316V94.8196C377.61 94.496 377.958 94.2558 378.36 94.099C378.772 93.9323 379.218 93.849 379.698 93.849C380.257 93.849 380.757 93.9519 381.198 94.1578C381.639 94.3637 381.997 94.6774 382.272 95.099C382.585 94.697 382.982 94.3882 383.463 94.1725C383.943 93.9568 384.468 93.849 385.036 93.849Z"
    fill="black"
  />
<rect
    x="214.843"
    y="125.632"
    width="237.829"
    height="76.0756"
    rx="2.75743"
    fill="white"
  />
<rect
    x="214.958"
    y="125.747"
    width="237.599"
    height="75.8458"
    rx="2.64254"
    stroke="black"
    stroke-opacity="0.3"
    stroke-width="0.229786"
  />
<path
    d="M232.767 160.521H434.749"
    stroke="black"
    stroke-opacity="0.3"
    stroke-width="0.229786"
  />
<path
    d="M234.388 139.145C234.877 139.145 235.238 139.239 235.469 139.427C235.705 139.61 235.822 139.89 235.822 140.265C235.822 140.474 235.784 140.649 235.707 140.789C235.629 140.929 235.53 141.041 235.409 141.125C235.291 141.206 235.166 141.27 235.034 141.318L236.115 143.083H235.536L234.581 141.456H233.798V143.083H233.302V139.145H234.388ZM234.361 139.576H233.798V141.037H234.388C234.708 141.037 234.942 140.974 235.089 140.849C235.236 140.721 235.309 140.533 235.309 140.287C235.309 140.03 235.232 139.848 235.078 139.741C234.923 139.631 234.684 139.576 234.361 139.576ZM239.236 141.6C239.236 142.088 239.111 142.467 238.861 142.736C238.615 143.004 238.281 143.138 237.858 143.138C237.597 143.138 237.363 143.079 237.157 142.962C236.955 142.84 236.795 142.666 236.678 142.438C236.56 142.206 236.501 141.927 236.501 141.6C236.501 141.111 236.624 140.734 236.871 140.469C237.117 140.204 237.451 140.072 237.874 140.072C238.143 140.072 238.378 140.133 238.58 140.254C238.786 140.372 238.946 140.544 239.06 140.772C239.178 140.997 239.236 141.272 239.236 141.6ZM237.003 141.6C237.003 141.949 237.071 142.226 237.207 142.432C237.347 142.634 237.567 142.736 237.869 142.736C238.167 142.736 238.385 142.634 238.525 142.432C238.665 142.226 238.735 141.949 238.735 141.6C238.735 141.25 238.665 140.976 238.525 140.778C238.385 140.579 238.165 140.48 237.863 140.48C237.562 140.48 237.343 140.579 237.207 140.778C237.071 140.976 237.003 141.25 237.003 141.6ZM242.575 141.6C242.575 142.088 242.45 142.467 242.2 142.736C241.954 143.004 241.62 143.138 241.197 143.138C240.936 143.138 240.702 143.079 240.496 142.962C240.294 142.84 240.134 142.666 240.017 142.438C239.899 142.206 239.84 141.927 239.84 141.6C239.84 141.111 239.963 140.734 240.21 140.469C240.456 140.204 240.791 140.072 241.213 140.072C241.482 140.072 241.717 140.133 241.919 140.254C242.125 140.372 242.285 140.544 242.399 140.772C242.517 140.997 242.575 141.272 242.575 141.6ZM240.342 141.6C240.342 141.949 240.41 142.226 240.546 142.432C240.686 142.634 240.906 142.736 241.208 142.736C241.506 142.736 241.724 142.634 241.864 142.432C242.004 142.226 242.074 141.949 242.074 141.6C242.074 141.25 242.004 140.976 241.864 140.778C241.724 140.579 241.504 140.48 241.202 140.48C240.901 140.48 240.682 140.579 240.546 140.778C240.41 140.976 240.342 141.25 240.342 141.6ZM246.587 140.072C246.922 140.072 247.172 140.158 247.337 140.331C247.503 140.5 247.586 140.776 247.586 141.158V143.083H247.106V141.18C247.106 140.713 246.905 140.48 246.505 140.48C246.218 140.48 246.012 140.563 245.887 140.728C245.766 140.894 245.705 141.134 245.705 141.451V143.083H245.225V141.18C245.225 140.713 245.023 140.48 244.619 140.48C244.321 140.48 244.115 140.572 244.001 140.756C243.887 140.94 243.83 141.204 243.83 141.55V143.083H243.345V140.127H243.736L243.808 140.53H243.835C243.927 140.375 244.051 140.261 244.205 140.188C244.363 140.11 244.53 140.072 244.707 140.072C245.17 140.072 245.472 140.237 245.611 140.568H245.639C245.738 140.399 245.872 140.274 246.041 140.193C246.214 140.112 246.396 140.072 246.587 140.072ZM251.106 143.083H249.683V142.796L250.146 142.691V139.542L249.683 139.432V139.145H251.106V139.432L250.643 139.542V142.691L251.106 142.796V143.083ZM255.021 141.076C255.021 141.741 254.839 142.243 254.475 142.581C254.114 142.916 253.611 143.083 252.964 143.083H251.866V139.145H253.08C253.477 139.145 253.82 139.219 254.111 139.366C254.401 139.513 254.626 139.73 254.784 140.017C254.942 140.3 255.021 140.653 255.021 141.076ZM254.497 141.092C254.497 140.566 254.366 140.182 254.105 139.94C253.848 139.693 253.482 139.57 253.008 139.57H252.363V142.658H252.898C253.964 142.658 254.497 142.136 254.497 141.092Z"
    fill="black"
  />
<path
    d="M257.136 138.892L257.025 139.951L258.084 139.653L258.161 140.16L257.147 140.243L257.803 141.114L257.329 141.373L256.86 140.408L256.435 141.373L255.944 141.114L256.59 140.243L255.586 140.16L255.663 139.653L256.711 139.951L256.595 138.892H257.136Z"
    fill="#FF4A3D"
  />
<path
    d="M427.6 153.51L425.832 151.742L425.243 152.331L427.6 154.688L432.65 149.638L432.061 149.049L427.6 153.51Z"
    fill="black"
  />
<rect
    x="358.919"
    y="172.827"
    width="75.8294"
    height="17.9233"
    rx="1.83829"
    fill="#FF4A3D"
  />
<path
    d="M390.672 184.733L388.944 180.13H388.915C388.929 180.282 388.942 180.488 388.951 180.748C388.961 181.003 388.966 181.27 388.966 181.549V184.733H388.356V179.483H389.334L390.951 183.785H390.981L392.628 179.483H393.599V184.733H392.944V181.505C392.944 181.25 392.949 180.998 392.959 180.748C392.974 180.498 392.986 180.295 392.996 180.138H392.966L391.216 184.733H390.672ZM396.431 180.726C396.912 180.726 397.267 180.831 397.497 181.042C397.728 181.253 397.843 181.589 397.843 182.049V184.733H397.372L397.247 184.175H397.218C397.046 184.39 396.865 184.55 396.674 184.653C396.488 184.755 396.228 184.807 395.894 184.807C395.537 184.807 395.24 184.714 395.005 184.528C394.769 184.336 394.652 184.04 394.652 183.638C394.652 183.246 394.806 182.944 395.115 182.733C395.424 182.518 395.899 182.4 396.542 182.38L397.211 182.358V182.123C397.211 181.795 397.14 181.567 396.997 181.439C396.855 181.312 396.654 181.248 396.394 181.248C396.189 181.248 395.993 181.28 395.806 181.344C395.62 181.402 395.446 181.471 395.284 181.549L395.086 181.064C395.257 180.971 395.461 180.893 395.696 180.829C395.931 180.76 396.176 180.726 396.431 180.726ZM396.622 182.829C396.132 182.849 395.792 182.927 395.6 183.064C395.414 183.201 395.321 183.395 395.321 183.645C395.321 183.866 395.387 184.027 395.519 184.13C395.657 184.233 395.831 184.285 396.042 184.285C396.375 184.285 396.652 184.194 396.872 184.013C397.093 183.827 397.203 183.542 397.203 183.16V182.807L396.622 182.829ZM401.627 183.645C401.627 184.027 401.484 184.317 401.2 184.513C400.916 184.709 400.533 184.807 400.053 184.807C399.779 184.807 399.541 184.785 399.34 184.741C399.144 184.697 398.97 184.635 398.818 184.557V183.969C398.975 184.047 399.163 184.121 399.384 184.189C399.609 184.253 399.837 184.285 400.068 184.285C400.396 184.285 400.634 184.233 400.781 184.13C400.928 184.023 401.002 183.88 401.002 183.704C401.002 183.606 400.975 183.518 400.921 183.439C400.867 183.361 400.769 183.282 400.627 183.204C400.489 183.126 400.291 183.037 400.031 182.939C399.776 182.841 399.558 182.743 399.377 182.645C399.195 182.547 399.055 182.429 398.957 182.292C398.859 182.155 398.81 181.978 398.81 181.763C398.81 181.429 398.945 181.172 399.215 180.991C399.489 180.809 399.847 180.719 400.288 180.719C400.529 180.719 400.752 180.743 400.957 180.792C401.168 180.836 401.364 180.9 401.546 180.983L401.325 181.498C401.158 181.429 400.984 181.371 400.803 181.322C400.622 181.273 400.435 181.248 400.244 181.248C399.98 181.248 399.776 181.292 399.634 181.38C399.497 181.464 399.428 181.579 399.428 181.726C399.428 181.834 399.46 181.927 399.524 182.005C399.587 182.079 399.693 182.152 399.84 182.226C399.992 182.295 400.193 182.378 400.443 182.476C400.693 182.569 400.906 182.665 401.082 182.763C401.259 182.861 401.394 182.981 401.487 183.123C401.58 183.26 401.627 183.434 401.627 183.645ZM405.873 180.792V184.733H405.344L405.248 184.211H405.219C405.091 184.417 404.915 184.569 404.689 184.667C404.464 184.76 404.224 184.807 403.969 184.807C403.493 184.807 403.135 184.694 402.895 184.469C402.655 184.238 402.535 183.873 402.535 183.373V180.792H403.189V183.329C403.189 183.956 403.481 184.27 404.064 184.27C404.501 184.27 404.802 184.148 404.969 183.902C405.14 183.657 405.226 183.304 405.226 182.844V180.792H405.873ZM407.764 182.064C407.764 182.143 407.759 182.246 407.749 182.373C407.745 182.5 407.74 182.611 407.735 182.704H407.764C407.794 182.665 407.838 182.608 407.896 182.535C407.955 182.461 408.014 182.388 408.073 182.314C408.137 182.236 408.191 182.172 408.235 182.123L409.492 180.792H410.25L408.654 182.476L410.36 184.733H409.58L408.213 182.895L407.764 183.285V184.733H407.124V179.145H407.764V182.064Z"
    fill="white"
  />
<path
    d="M229.3 154.409C229.3 155.043 229.234 155.589 229.102 156.047C228.969 156.499 228.76 156.846 228.473 157.089C228.186 157.332 227.806 157.453 227.331 157.453C226.664 157.453 226.17 157.185 225.85 156.65C225.536 156.11 225.379 155.363 225.379 154.409C225.379 153.769 225.442 153.223 225.569 152.771C225.702 152.319 225.911 151.974 226.198 151.737C226.485 151.494 226.862 151.373 227.331 151.373C227.993 151.373 228.487 151.64 228.812 152.175C229.137 152.705 229.3 153.449 229.3 154.409ZM226.107 154.409C226.107 155.219 226.198 155.826 226.38 156.229C226.567 156.631 226.885 156.832 227.331 156.832C227.772 156.832 228.087 156.634 228.274 156.237C228.467 155.834 228.564 155.225 228.564 154.409C228.564 153.603 228.467 153 228.274 152.597C228.087 152.194 227.772 151.993 227.331 151.993C226.885 151.993 226.567 152.194 226.38 152.597C226.198 153 226.107 153.603 226.107 154.409ZM230.833 157.37L233.256 152.125H230.072V151.464H234.034V152.026L231.635 157.37H230.833ZM236.799 151.381C237.318 151.381 237.742 151.502 238.073 151.745C238.404 151.988 238.569 152.338 238.569 152.796C238.569 153.033 238.517 153.239 238.412 153.416C238.313 153.592 238.178 153.75 238.007 153.887C237.836 154.02 237.648 154.138 237.444 154.243C237.687 154.359 237.908 154.491 238.106 154.64C238.305 154.784 238.462 154.952 238.578 155.145C238.699 155.338 238.76 155.57 238.76 155.84C238.76 156.336 238.583 156.73 238.23 157.023C237.883 157.309 237.414 157.453 236.824 157.453C236.19 157.453 235.702 157.315 235.36 157.039C235.018 156.758 234.847 156.366 234.847 155.865C234.847 155.594 234.902 155.36 235.012 155.161C235.128 154.963 235.28 154.792 235.467 154.649C235.655 154.505 235.856 154.384 236.071 154.285C235.784 154.119 235.539 153.921 235.335 153.689C235.136 153.452 235.037 153.151 235.037 152.787C235.037 152.484 235.114 152.23 235.269 152.026C235.423 151.817 235.633 151.657 235.897 151.546C236.162 151.436 236.463 151.381 236.799 151.381ZM236.791 151.968C236.488 151.968 236.237 152.043 236.038 152.192C235.845 152.335 235.749 152.545 235.749 152.82C235.749 153.024 235.795 153.195 235.889 153.333C235.988 153.471 236.121 153.59 236.286 153.689C236.452 153.783 236.634 153.874 236.832 153.962C237.119 153.841 237.359 153.694 237.552 153.523C237.75 153.353 237.85 153.118 237.85 152.82C237.85 152.545 237.753 152.335 237.56 152.192C237.367 152.043 237.111 151.968 236.791 151.968ZM235.558 155.873C235.558 156.16 235.66 156.4 235.864 156.593C236.068 156.78 236.383 156.874 236.807 156.874C237.21 156.874 237.516 156.78 237.726 156.593C237.941 156.4 238.048 156.151 238.048 155.848C238.048 155.561 237.935 155.324 237.709 155.137C237.483 154.944 237.182 154.775 236.807 154.632L236.675 154.582C236.311 154.737 236.033 154.916 235.84 155.12C235.652 155.319 235.558 155.57 235.558 155.873ZM243.477 157.37H239.573V156.766L241.119 155.203C241.417 154.905 241.668 154.64 241.872 154.409C242.076 154.177 242.231 153.951 242.336 153.73C242.44 153.504 242.493 153.259 242.493 152.994C242.493 152.669 242.396 152.423 242.203 152.258C242.01 152.087 241.759 152.001 241.45 152.001C241.164 152.001 240.91 152.051 240.689 152.15C240.474 152.25 240.254 152.387 240.028 152.564L239.639 152.076C239.87 151.883 240.135 151.72 240.433 151.588C240.736 151.45 241.075 151.381 241.45 151.381C242.002 151.381 242.438 151.522 242.757 151.803C243.077 152.079 243.237 152.462 243.237 152.953C243.237 153.262 243.174 153.551 243.047 153.821C242.92 154.092 242.744 154.359 242.517 154.624C242.291 154.883 242.027 155.161 241.723 155.459L240.491 156.675V156.708H243.477V157.37Z"
    fill="black"
  />
<path
    d="M212.558 41.8633H211.896V40.2258H210.274V41.8633H209.613V38.175H210.274V39.6627H211.896V38.175H212.558V41.8633ZM215.956 40.4582C215.956 40.9231 215.835 41.283 215.594 41.5378C215.353 41.7892 215.026 41.9149 214.613 41.9149C214.358 41.9149 214.131 41.8581 213.931 41.7445C213.731 41.6308 213.575 41.4655 213.461 41.2486C213.347 41.0316 213.29 40.7682 213.29 40.4582C213.29 39.9933 213.409 39.6369 213.647 39.3889C213.888 39.1376 214.215 39.0119 214.628 39.0119C214.887 39.0119 215.116 39.0687 215.315 39.1823C215.515 39.2925 215.672 39.4561 215.785 39.6731C215.899 39.8866 215.956 40.1483 215.956 40.4582ZM213.957 40.4582C213.957 40.7544 214.008 40.9834 214.112 41.1453C214.219 41.3071 214.389 41.388 214.623 41.388C214.857 41.388 215.026 41.3071 215.129 41.1453C215.236 40.9834 215.29 40.7544 215.29 40.4582C215.29 40.1621 215.236 39.9348 215.129 39.7764C215.026 39.618 214.856 39.5387 214.618 39.5387C214.387 39.5387 214.219 39.618 214.112 39.7764C214.008 39.9348 213.957 40.1621 213.957 40.4582ZM219.837 39.0119C220.153 39.0119 220.391 39.0928 220.549 39.2546C220.711 39.4165 220.792 39.6782 220.792 40.0398V41.8633H220.141V40.1638C220.141 39.7471 219.983 39.5387 219.666 39.5387C219.439 39.5387 219.277 39.6128 219.181 39.7609C219.084 39.909 219.036 40.1242 219.036 40.4066V41.8633H218.385V40.1638C218.385 39.7471 218.225 39.5387 217.905 39.5387C217.667 39.5387 217.503 39.6214 217.414 39.7867C217.324 39.952 217.28 40.1879 217.28 40.4944V41.8633H216.629V39.0635H217.13L217.223 39.4303H217.259C217.342 39.2856 217.457 39.1806 217.605 39.1152C217.757 39.0463 217.913 39.0119 218.075 39.0119C218.285 39.0119 218.461 39.048 218.602 39.1203C218.747 39.1892 218.857 39.2977 218.933 39.4458H218.984C219.07 39.2942 219.191 39.184 219.346 39.1152C219.501 39.0463 219.664 39.0119 219.837 39.0119ZM222.734 39.0119C223.109 39.0119 223.405 39.1238 223.622 39.3476C223.843 39.5715 223.953 39.8831 223.953 40.2826V40.6132H222.104C222.111 40.868 222.181 41.0661 222.315 41.2072C222.45 41.345 222.636 41.4139 222.873 41.4139C223.052 41.4139 223.214 41.3967 223.359 41.3622C223.504 41.3243 223.652 41.271 223.803 41.2021V41.7238C223.665 41.7892 223.522 41.8375 223.374 41.8684C223.226 41.8994 223.049 41.9149 222.842 41.9149C222.57 41.9149 222.327 41.8633 222.114 41.76C221.904 41.6532 221.739 41.4931 221.618 41.2796C221.501 41.0661 221.442 40.8009 221.442 40.4841C221.442 40.0054 221.561 39.6403 221.799 39.3889C222.036 39.1376 222.348 39.0119 222.734 39.0119ZM222.734 39.4923C222.558 39.4923 222.415 39.5491 222.305 39.6627C222.198 39.7729 222.136 39.9382 222.119 40.1586H223.323C223.319 39.9658 223.269 39.8074 223.173 39.6834C223.08 39.556 222.934 39.4923 222.734 39.4923Z"
    fill="#FF4A3D"
  />
<path
    d="M274.322 38.175C274.804 38.175 275.155 38.2697 275.376 38.4591C275.596 38.6485 275.706 38.9154 275.706 39.2598C275.706 39.463 275.66 39.6541 275.567 39.8332C275.477 40.0088 275.324 40.1517 275.107 40.2619C274.894 40.3721 274.603 40.4272 274.234 40.4272H273.811V41.8633H273.346V38.175H274.322ZM274.281 38.5728H273.811V40.0295H274.183C274.534 40.0295 274.796 39.9727 274.968 39.859C275.14 39.7454 275.226 39.5525 275.226 39.2805C275.226 39.0428 275.15 38.8655 274.999 38.7484C274.847 38.6313 274.608 38.5728 274.281 38.5728ZM277.703 39.0428C277.754 39.0428 277.81 39.0463 277.868 39.0532C277.93 39.0566 277.984 39.0635 278.028 39.0738L277.971 39.4923C277.927 39.4819 277.877 39.4733 277.822 39.4664C277.77 39.4595 277.72 39.4561 277.672 39.4561C277.531 39.4561 277.398 39.4957 277.274 39.5749C277.15 39.6507 277.05 39.7591 276.974 39.9003C276.902 40.0381 276.866 40.1999 276.866 40.3859V41.8633H276.411V39.0945H276.783L276.835 39.6007H276.856C276.945 39.4492 277.061 39.3183 277.202 39.2081C277.343 39.0979 277.51 39.0428 277.703 39.0428ZM280.852 40.4737C280.852 40.9317 280.734 41.2865 280.5 41.5378C280.27 41.7892 279.956 41.9149 279.56 41.9149C279.316 41.9149 279.097 41.8598 278.904 41.7496C278.715 41.636 278.565 41.4724 278.455 41.2589C278.345 41.0419 278.289 40.7802 278.289 40.4737C278.289 40.0157 278.405 39.6627 278.636 39.4148C278.866 39.1668 279.18 39.0428 279.576 39.0428C279.827 39.0428 280.047 39.0997 280.237 39.2133C280.43 39.3235 280.58 39.4854 280.686 39.6989C280.796 39.909 280.852 40.1672 280.852 40.4737ZM278.759 40.4737C278.759 40.8009 278.823 41.0609 278.951 41.2537C279.081 41.4431 279.288 41.5378 279.57 41.5378C279.849 41.5378 280.054 41.4431 280.185 41.2537C280.316 41.0609 280.382 40.8009 280.382 40.4737C280.382 40.1466 280.316 39.89 280.185 39.704C280.054 39.5181 279.848 39.4251 279.565 39.4251C279.283 39.4251 279.078 39.5181 278.951 39.704C278.823 39.89 278.759 40.1466 278.759 40.4737ZM282.553 41.9149C282.209 41.9149 281.934 41.7961 281.727 41.5585C281.52 41.3174 281.417 40.9593 281.417 40.4841C281.417 40.0088 281.52 39.6507 281.727 39.4096C281.937 39.1651 282.214 39.0428 282.559 39.0428C282.772 39.0428 282.946 39.0825 283.08 39.1617C283.218 39.2409 283.33 39.3373 283.416 39.4509H283.447C283.444 39.4062 283.437 39.3407 283.426 39.2546C283.42 39.1651 283.416 39.0945 283.416 39.0428V37.9374H283.871V41.8633H283.504L283.437 41.4914H283.416C283.333 41.6084 283.223 41.7083 283.086 41.791C282.948 41.8736 282.77 41.9149 282.553 41.9149ZM282.626 41.5378C282.919 41.5378 283.123 41.4586 283.241 41.3002C283.361 41.1384 283.421 40.8956 283.421 40.5719V40.4892C283.421 40.1448 283.364 39.8814 283.251 39.6989C283.137 39.5129 282.927 39.4199 282.621 39.4199C282.376 39.4199 282.192 39.5181 282.068 39.7144C281.947 39.9072 281.887 40.1672 281.887 40.4944C281.887 40.825 281.947 41.0815 282.068 41.2641C282.192 41.4466 282.378 41.5378 282.626 41.5378ZM287.064 39.0945V41.8633H286.692L286.625 41.4965H286.605C286.515 41.6412 286.391 41.7479 286.233 41.8168C286.074 41.8822 285.905 41.9149 285.726 41.9149C285.392 41.9149 285.141 41.8357 284.972 41.6773C284.803 41.5155 284.719 41.2589 284.719 40.9076V39.0945H285.179V40.8766C285.179 41.3174 285.384 41.5378 285.794 41.5378C286.1 41.5378 286.312 41.4518 286.429 41.2796C286.549 41.1074 286.61 40.8594 286.61 40.5357V39.0945H287.064ZM288.393 39.9882C288.393 40.0433 288.389 40.1156 288.382 40.2051C288.379 40.2947 288.375 40.3721 288.372 40.4376H288.393C288.413 40.41 288.444 40.3704 288.486 40.3188C288.527 40.2671 288.568 40.2154 288.61 40.1638C288.654 40.1087 288.692 40.0639 288.723 40.0295L289.607 39.0945H290.139L289.018 40.2774L290.216 41.8633H289.669L288.708 40.5719L288.393 40.8457V41.8633H287.943V37.9374H288.393V39.9882ZM293.274 41.8633H292.809V38.5831H291.657V38.175H294.421V38.5831H293.274V41.8633ZM295.55 39.048C295.887 39.048 296.137 39.1221 296.299 39.2701C296.461 39.4182 296.542 39.6541 296.542 39.9778V41.8633H296.211L296.123 41.4707H296.103C295.982 41.6222 295.855 41.7341 295.72 41.8065C295.589 41.8788 295.407 41.9149 295.173 41.9149C294.921 41.9149 294.713 41.8495 294.548 41.7186C294.382 41.5843 294.3 41.376 294.3 41.0936C294.3 40.8181 294.408 40.6063 294.625 40.4582C294.842 40.3067 295.176 40.2241 295.627 40.2103L296.097 40.1948V40.0295C296.097 39.7988 296.047 39.6386 295.948 39.5491C295.848 39.4595 295.707 39.4148 295.524 39.4148C295.379 39.4148 295.242 39.4372 295.111 39.4819C294.98 39.5233 294.858 39.5715 294.744 39.6266L294.605 39.2856C294.725 39.2202 294.868 39.1651 295.033 39.1203C295.199 39.0721 295.371 39.048 295.55 39.048ZM295.684 40.5254C295.34 40.5392 295.1 40.5943 294.966 40.6907C294.835 40.7871 294.77 40.9231 294.77 41.0988C294.77 41.2537 294.816 41.3674 294.909 41.4397C295.006 41.512 295.128 41.5482 295.276 41.5482C295.51 41.5482 295.705 41.4845 295.86 41.357C296.015 41.2262 296.092 41.0264 296.092 40.7578V40.5099L295.684 40.5254ZM297.851 39.0893C297.851 39.2271 297.843 39.3562 297.826 39.4768H297.857C297.946 39.3356 298.067 39.2288 298.218 39.1565C298.373 39.0842 298.54 39.048 298.719 39.048C299.057 39.048 299.31 39.1289 299.479 39.2908C299.647 39.4492 299.732 39.7058 299.732 40.0605V41.8633H299.282V40.0915C299.282 39.6472 299.076 39.4251 298.662 39.4251C298.352 39.4251 298.139 39.5129 298.022 39.6886C297.908 39.8607 297.851 40.1087 297.851 40.4324V41.8633H297.397V37.9374H297.851V39.0893ZM302.904 39.0945V41.8633H302.532L302.465 41.4965H302.444C302.355 41.6412 302.231 41.7479 302.073 41.8168C301.914 41.8822 301.745 41.9149 301.566 41.9149C301.232 41.9149 300.981 41.8357 300.812 41.6773C300.643 41.5155 300.559 41.2589 300.559 40.9076V39.0945H301.019V40.8766C301.019 41.3174 301.224 41.5378 301.633 41.5378C301.94 41.5378 302.152 41.4518 302.269 41.2796C302.389 41.1074 302.45 40.8594 302.45 40.5357V39.0945H302.904Z"
    fill="black"
  />
<path
    d="M368.197 38.5315C367.801 38.5315 367.489 38.664 367.262 38.9292C367.035 39.1944 366.921 39.5577 366.921 40.0192C366.921 40.4772 367.026 40.8405 367.236 41.1091C367.45 41.3743 367.768 41.5069 368.192 41.5069C368.354 41.5069 368.507 41.4931 368.652 41.4655C368.796 41.438 368.937 41.4035 369.075 41.3622V41.7651C368.937 41.8168 368.794 41.8547 368.646 41.8788C368.502 41.9029 368.328 41.9149 368.125 41.9149C367.749 41.9149 367.436 41.8375 367.185 41.6825C366.933 41.5275 366.744 41.3071 366.616 41.0213C366.492 40.7355 366.43 40.3997 366.43 40.014C366.43 39.6421 366.497 39.3149 366.632 39.0325C366.77 38.7467 366.971 38.5246 367.236 38.3661C367.501 38.2043 367.823 38.1234 368.202 38.1234C368.591 38.1234 368.931 38.1957 369.22 38.3403L369.034 38.7329C368.92 38.6813 368.793 38.6348 368.652 38.5934C368.514 38.5521 368.362 38.5315 368.197 38.5315ZM370.867 39.048C371.204 39.048 371.454 39.1221 371.616 39.2701C371.778 39.4182 371.859 39.6541 371.859 39.9778V41.8633H371.528L371.44 41.4707H371.419C371.299 41.6222 371.172 41.7341 371.037 41.8065C370.906 41.8788 370.724 41.9149 370.49 41.9149C370.238 41.9149 370.03 41.8495 369.865 41.7186C369.699 41.5843 369.617 41.376 369.617 41.0936C369.617 40.8181 369.725 40.6063 369.942 40.4582C370.159 40.3067 370.493 40.2241 370.944 40.2103L371.414 40.1948V40.0295C371.414 39.7988 371.364 39.6386 371.265 39.5491C371.165 39.4595 371.023 39.4148 370.841 39.4148C370.696 39.4148 370.559 39.4372 370.428 39.4819C370.297 39.5233 370.175 39.5715 370.061 39.6266L369.921 39.2856C370.042 39.2202 370.185 39.1651 370.35 39.1203C370.516 39.0721 370.688 39.048 370.867 39.048ZM371.001 40.5254C370.657 40.5392 370.417 40.5943 370.283 40.6907C370.152 40.7871 370.087 40.9231 370.087 41.0988C370.087 41.2537 370.133 41.3674 370.226 41.4397C370.323 41.512 370.445 41.5482 370.593 41.5482C370.827 41.5482 371.022 41.4845 371.177 41.357C371.332 41.2262 371.409 41.0264 371.409 40.7578V40.5099L371.001 40.5254ZM374.005 39.0428C374.057 39.0428 374.112 39.0463 374.17 39.0532C374.232 39.0566 374.286 39.0635 374.331 39.0738L374.274 39.4923C374.229 39.4819 374.179 39.4733 374.124 39.4664C374.072 39.4595 374.022 39.4561 373.974 39.4561C373.833 39.4561 373.7 39.4957 373.576 39.5749C373.452 39.6507 373.353 39.7591 373.277 39.9003C373.204 40.0381 373.168 40.1999 373.168 40.3859V41.8633H372.714V39.0945H373.086L373.137 39.6007H373.158C373.248 39.4492 373.363 39.3183 373.504 39.2081C373.645 39.0979 373.812 39.0428 374.005 39.0428ZM375.795 39.048C376.133 39.048 376.382 39.1221 376.544 39.2701C376.706 39.4182 376.787 39.6541 376.787 39.9778V41.8633H376.457L376.369 41.4707H376.348C376.227 41.6222 376.1 41.7341 375.966 41.8065C375.835 41.8788 375.652 41.9149 375.418 41.9149C375.167 41.9149 374.958 41.8495 374.793 41.7186C374.628 41.5843 374.545 41.376 374.545 41.0936C374.545 40.8181 374.654 40.6063 374.871 40.4582C375.088 40.3067 375.422 40.2241 375.873 40.2103L376.343 40.1948V40.0295C376.343 39.7988 376.293 39.6386 376.193 39.5491C376.093 39.4595 375.952 39.4148 375.769 39.4148C375.625 39.4148 375.487 39.4372 375.356 39.4819C375.225 39.5233 375.103 39.5715 374.989 39.6266L374.85 39.2856C374.971 39.2202 375.113 39.1651 375.279 39.1203C375.444 39.0721 375.616 39.048 375.795 39.048ZM375.93 40.5254C375.585 40.5392 375.346 40.5943 375.212 40.6907C375.081 40.7871 375.015 40.9231 375.015 41.0988C375.015 41.2537 375.062 41.3674 375.155 41.4397C375.251 41.512 375.373 41.5482 375.522 41.5482C375.756 41.5482 375.95 41.4845 376.105 41.357C376.26 41.2262 376.338 41.0264 376.338 40.7578V40.5099L375.93 40.5254ZM380.1 38.175C380.561 38.175 380.909 38.2439 381.143 38.3816C381.381 38.516 381.5 38.7519 381.5 39.0893C381.5 39.3063 381.44 39.4871 381.319 39.6317C381.198 39.7729 381.025 39.8642 380.797 39.9055V39.9313C380.952 39.9554 381.092 40.0002 381.216 40.0656C381.343 40.1311 381.443 40.2241 381.515 40.3446C381.588 40.4651 381.624 40.6218 381.624 40.8147C381.624 41.1487 381.508 41.407 381.278 41.5895C381.05 41.772 380.739 41.8633 380.343 41.8633H379.046V38.175H380.1ZM380.193 39.7454C380.51 39.7454 380.727 39.6954 380.844 39.5956C380.961 39.4923 381.019 39.3407 381.019 39.141C381.019 38.9378 380.947 38.7932 380.802 38.7071C380.661 38.6175 380.434 38.5728 380.121 38.5728H379.511V39.7454H380.193ZM379.511 40.1328V41.4707H380.255C380.582 41.4707 380.809 41.407 380.937 41.2796C381.064 41.1521 381.128 40.9851 381.128 40.7785C381.128 40.5856 381.061 40.4307 380.926 40.3136C380.796 40.1931 380.56 40.1328 380.219 40.1328H379.511ZM383.413 39.0428C383.651 39.0428 383.854 39.0945 384.023 39.1978C384.195 39.3011 384.326 39.4475 384.415 39.6369C384.508 39.8229 384.555 40.0415 384.555 40.2929V40.5667H382.659C382.666 40.8801 382.745 41.1194 382.897 41.2847C383.051 41.4466 383.267 41.5275 383.542 41.5275C383.718 41.5275 383.873 41.512 384.007 41.481C384.145 41.4466 384.286 41.3984 384.431 41.3364V41.7341C384.29 41.7961 384.15 41.8409 384.012 41.8684C383.875 41.8994 383.711 41.9149 383.522 41.9149C383.26 41.9149 383.027 41.8616 382.824 41.7548C382.624 41.648 382.468 41.4896 382.354 41.2796C382.244 41.0661 382.189 40.806 382.189 40.4996C382.189 40.1965 382.239 39.9365 382.339 39.7195C382.442 39.5026 382.585 39.3356 382.767 39.2185C382.953 39.1014 383.169 39.0428 383.413 39.0428ZM383.408 39.4148C383.191 39.4148 383.019 39.4854 382.891 39.6266C382.767 39.7643 382.693 39.9572 382.669 40.2051H384.079C384.076 39.9709 384.021 39.7815 383.914 39.6369C383.807 39.4888 383.639 39.4148 383.408 39.4148ZM386.551 39.0428C386.603 39.0428 386.658 39.0463 386.716 39.0532C386.778 39.0566 386.832 39.0635 386.876 39.0738L386.82 39.4923C386.775 39.4819 386.725 39.4733 386.67 39.4664C386.618 39.4595 386.568 39.4561 386.52 39.4561C386.379 39.4561 386.246 39.4957 386.122 39.5749C385.998 39.6507 385.898 39.7591 385.823 39.9003C385.75 40.0381 385.714 40.1999 385.714 40.3859V41.8633H385.26V39.0945H385.631L385.683 39.6007H385.704C385.793 39.4492 385.909 39.3183 386.05 39.2081C386.191 39.0979 386.358 39.0428 386.551 39.0428ZM390.431 39.0428C390.744 39.0428 390.978 39.1238 391.133 39.2856C391.288 39.444 391.366 39.7023 391.366 40.0605V41.8633H390.916V40.0811C390.916 39.6438 390.729 39.4251 390.353 39.4251C390.085 39.4251 389.892 39.5026 389.775 39.6576C389.661 39.8125 389.604 40.0381 389.604 40.3343V41.8633H389.155V40.0811C389.155 39.6438 388.965 39.4251 388.587 39.4251C388.308 39.4251 388.115 39.5112 388.008 39.6834C387.901 39.8556 387.848 40.1035 387.848 40.4272V41.8633H387.393V39.0945H387.76L387.827 39.4716H387.853C387.939 39.327 388.055 39.2202 388.199 39.1513C388.347 39.079 388.504 39.0428 388.669 39.0428C389.103 39.0428 389.386 39.1978 389.516 39.5078H389.542C389.635 39.3493 389.761 39.2323 389.919 39.1565C390.081 39.0807 390.252 39.0428 390.431 39.0428ZM393.27 39.048C393.607 39.048 393.857 39.1221 394.019 39.2701C394.181 39.4182 394.261 39.6541 394.261 39.9778V41.8633H393.931L393.843 41.4707H393.822C393.702 41.6222 393.574 41.7341 393.44 41.8065C393.309 41.8788 393.127 41.9149 392.893 41.9149C392.641 41.9149 392.433 41.8495 392.268 41.7186C392.102 41.5843 392.02 41.376 392.02 41.0936C392.02 40.8181 392.128 40.6063 392.345 40.4582C392.562 40.3067 392.896 40.2241 393.347 40.2103L393.817 40.1948V40.0295C393.817 39.7988 393.767 39.6386 393.667 39.5491C393.568 39.4595 393.426 39.4148 393.244 39.4148C393.099 39.4148 392.961 39.4372 392.831 39.4819C392.7 39.5233 392.577 39.5715 392.464 39.6266L392.324 39.2856C392.445 39.2202 392.588 39.1651 392.753 39.1203C392.918 39.0721 393.091 39.048 393.27 39.048ZM393.404 40.5254C393.06 40.5392 392.82 40.5943 392.686 40.6907C392.555 40.7871 392.49 40.9231 392.49 41.0988C392.49 41.2537 392.536 41.3674 392.629 41.4397C392.726 41.512 392.848 41.5482 392.996 41.5482C393.23 41.5482 393.425 41.4845 393.58 41.357C393.735 41.2262 393.812 41.0264 393.812 40.7578V40.5099L393.404 40.5254ZM395.349 38.0562C395.418 38.0562 395.478 38.0803 395.53 38.1285C395.585 38.1733 395.613 38.2456 395.613 38.3455C395.613 38.4419 395.585 38.5142 395.53 38.5624C395.478 38.6107 395.418 38.6348 395.349 38.6348C395.273 38.6348 395.21 38.6107 395.158 38.5624C395.106 38.5142 395.08 38.4419 395.08 38.3455C395.08 38.2456 395.106 38.1733 395.158 38.1285C395.21 38.0803 395.273 38.0562 395.349 38.0562ZM395.571 39.0945V41.8633H395.117V39.0945H395.571ZM397.781 39.0428C398.112 39.0428 398.361 39.1238 398.53 39.2856C398.699 39.444 398.783 39.7023 398.783 40.0605V41.8633H398.334V40.0915C398.334 39.6472 398.127 39.4251 397.714 39.4251C397.407 39.4251 397.196 39.5112 397.079 39.6834C396.961 39.8556 396.903 40.1035 396.903 40.4272V41.8633H396.448V39.0945H396.815L396.882 39.4716H396.908C396.998 39.327 397.122 39.2202 397.28 39.1513C397.438 39.079 397.605 39.0428 397.781 39.0428Z"
    fill="black"
  />
<g clip-path="url(#clip0_323:8)">
<path
      d="M341.864 36.4382V41.7304C341.864 45.5751 338.788 48.7059 334.974 48.7779C331.029 48.85 327.802 45.5423 327.802 41.5928V36.4382C327.802 36.2286 327.972 36.0518 328.188 36.0518H332.08C332.296 36.0518 332.466 36.2221 332.466 36.4382V41.7304C332.466 43.0534 333.55 44.1276 334.876 44.1014C336.175 44.0752 337.201 42.9552 337.201 41.6518V40.7283H335.215C335.006 40.7283 334.83 40.558 334.83 40.3418V36.4382C334.83 36.2286 335 36.0518 335.215 36.0518H341.479C341.688 36.0518 341.864 36.2286 341.864 36.4382Z"
      fill="#FF4A3D"
    />
<path
      d="M330.135 34.1587C331.246 34.1587 332.146 33.2555 332.146 32.1413C332.146 31.0272 331.246 30.124 330.135 30.124C329.024 30.124 328.123 31.0272 328.123 32.1413C328.123 33.2555 329.024 34.1587 330.135 34.1587Z"
      fill="#FF4A3D"
    />
<path
      d="M339.533 34.1587C340.644 34.1587 341.544 33.2555 341.544 32.1413C341.544 31.0272 340.644 30.124 339.533 30.124C338.422 30.124 337.521 31.0272 337.521 32.1413C337.521 33.2555 338.422 34.1587 339.533 34.1587Z"
      fill="#FF4A3D"
    />
</g>
<path
    d="M426.978 43.0381H426.513V41.3179H424.622V43.0381H424.157V39.3498H424.622V40.9098H426.513V39.3498H426.978V43.0381ZM430.238 40.2693V43.0381H429.866L429.799 42.6713H429.779C429.689 42.816 429.565 42.9227 429.407 42.9916C429.248 43.057 429.08 43.0897 428.9 43.0897C428.566 43.0897 428.315 43.0105 428.146 42.8521C427.978 42.6903 427.893 42.4337 427.893 42.0824V40.2693H428.353V42.0515C428.353 42.4923 428.558 42.7127 428.968 42.7127C429.274 42.7127 429.486 42.6266 429.603 42.4544C429.724 42.2822 429.784 42.0342 429.784 41.7105V40.2693H430.238ZM431.572 40.0678C431.572 40.1849 431.568 40.2951 431.562 40.3984C431.558 40.4983 431.553 40.5775 431.546 40.6361H431.572C431.651 40.519 431.76 40.4208 431.897 40.3416C432.035 40.2624 432.212 40.2228 432.429 40.2228C432.774 40.2228 433.049 40.3433 433.256 40.5844C433.466 40.822 433.571 41.1785 433.571 41.6537C433.571 42.1289 433.466 42.4871 433.256 42.7281C433.046 42.9692 432.77 43.0897 432.429 43.0897C432.212 43.0897 432.035 43.0501 431.897 42.9709C431.76 42.8917 431.651 42.797 431.572 42.6868H431.536L431.443 43.0381H431.117V39.1122H431.572V40.0678ZM432.352 40.5999C432.059 40.5999 431.856 40.6843 431.742 40.853C431.629 41.0218 431.572 41.2835 431.572 41.6382V41.6589C431.572 41.9998 431.627 42.2615 431.737 42.444C431.851 42.6231 432.059 42.7127 432.362 42.7127C432.61 42.7127 432.794 42.6214 432.915 42.4389C433.039 42.2564 433.101 41.9929 433.101 41.6485C433.101 40.9494 432.851 40.5999 432.352 40.5999ZM436.61 40.2693V43.0381H436.238L436.171 42.6713H436.15C436.06 42.816 435.936 42.9227 435.778 42.9916C435.62 43.057 435.451 43.0897 435.272 43.0897C434.938 43.0897 434.686 43.0105 434.518 42.8521C434.349 42.6903 434.264 42.4337 434.264 42.0824V40.2693H434.724V42.0515C434.724 42.4923 434.929 42.7127 435.339 42.7127C435.645 42.7127 435.857 42.6266 435.974 42.4544C436.095 42.2822 436.155 42.0342 436.155 41.7105V40.2693H436.61ZM438.821 40.2177C439.152 40.2177 439.402 40.2986 439.57 40.4604C439.739 40.6188 439.823 40.8771 439.823 41.2353V43.0381H439.374V41.2663C439.374 40.822 439.167 40.5999 438.754 40.5999C438.448 40.5999 438.236 40.686 438.119 40.8582C438.002 41.0304 437.943 41.2783 437.943 41.602V43.0381H437.489V40.2693H437.855L437.923 40.6464H437.948C438.038 40.5018 438.162 40.395 438.32 40.3261C438.479 40.2538 438.646 40.2177 438.821 40.2177ZM441.663 40.2177C441.846 40.2177 442.009 40.2521 442.154 40.321C442.302 40.3898 442.428 40.4949 442.531 40.6361H442.557L442.619 40.2693H442.981V43.0846C442.981 43.4806 442.879 43.7785 442.676 43.9782C442.476 44.178 442.164 44.2778 441.741 44.2778C441.334 44.2778 441.002 44.2193 440.744 44.1022V43.6838C441.016 43.8284 441.357 43.9007 441.767 43.9007C442.004 43.9007 442.19 43.8301 442.325 43.689C442.462 43.5512 442.531 43.3618 442.531 43.1207V43.0123C442.531 42.9709 442.533 42.9124 442.536 42.8366C442.54 42.7574 442.543 42.7023 442.547 42.6713H442.526C442.34 42.9503 442.054 43.0897 441.668 43.0897C441.31 43.0897 441.03 42.964 440.826 42.7127C440.627 42.4613 440.527 42.11 440.527 41.6589C440.527 41.2181 440.627 40.8685 440.826 40.6102C441.03 40.3485 441.309 40.2177 441.663 40.2177ZM441.725 40.5999C441.495 40.5999 441.315 40.6929 441.188 40.8789C441.061 41.0614 440.997 41.3231 440.997 41.664C440.997 42.005 441.059 42.2667 441.183 42.4492C441.31 42.6283 441.495 42.7178 441.736 42.7178C442.015 42.7178 442.218 42.6438 442.345 42.4957C442.473 42.3442 442.536 42.1014 442.536 41.7673V41.6589C442.536 41.2801 442.471 41.0097 442.34 40.8479C442.209 40.6826 442.004 40.5999 441.725 40.5999ZM444.092 39.231C444.161 39.231 444.222 39.2551 444.273 39.3033C444.328 39.3481 444.356 39.4204 444.356 39.5203C444.356 39.6167 444.328 39.689 444.273 39.7372C444.222 39.7855 444.161 39.8096 444.092 39.8096C444.017 39.8096 443.953 39.7855 443.901 39.7372C443.85 39.689 443.824 39.6167 443.824 39.5203C443.824 39.4204 443.85 39.3481 443.901 39.3033C443.953 39.2551 444.017 39.231 444.092 39.231ZM444.314 40.2693V43.0381H443.86V40.2693H444.314ZM449.292 43.0381H448.744L447.438 41.2766L447.06 41.6072V43.0381H446.596V39.3498H447.06V41.1681C447.164 41.051 447.269 40.934 447.376 40.8169C447.482 40.6998 447.589 40.5827 447.696 40.4656L448.693 39.3498H449.235L447.773 40.9563L449.292 43.0381ZM450.78 40.2228C451.118 40.2228 451.368 40.2969 451.529 40.4449C451.691 40.593 451.772 40.8289 451.772 41.1526V43.0381H451.442L451.354 42.6455H451.333C451.213 42.797 451.085 42.9089 450.951 42.9813C450.82 43.0536 450.637 43.0897 450.403 43.0897C450.152 43.0897 449.944 43.0243 449.778 42.8934C449.613 42.7591 449.53 42.5508 449.53 42.2684C449.53 41.9929 449.639 41.7811 449.856 41.633C450.073 41.4815 450.407 41.3989 450.858 41.3851L451.328 41.3696V41.2043C451.328 40.9736 451.278 40.8134 451.178 40.7239C451.078 40.6343 450.937 40.5896 450.755 40.5896C450.61 40.5896 450.472 40.612 450.341 40.6567C450.21 40.6981 450.088 40.7463 449.975 40.8014L449.835 40.4604C449.956 40.395 450.099 40.3399 450.264 40.2951C450.429 40.2469 450.601 40.2228 450.78 40.2228ZM450.915 41.7002C450.57 41.714 450.331 41.7691 450.197 41.8655C450.066 41.9619 450 42.0979 450 42.2736C450 42.4285 450.047 42.5422 450.14 42.6145C450.236 42.6868 450.359 42.723 450.507 42.723C450.741 42.723 450.935 42.6593 451.09 42.5319C451.245 42.401 451.323 42.2013 451.323 41.9326V41.6847L450.915 41.7002ZM455.665 40.2177C455.978 40.2177 456.212 40.2986 456.367 40.4604C456.522 40.6188 456.6 40.8771 456.6 41.2353V43.0381H456.15V41.2559C456.15 40.8186 455.963 40.5999 455.587 40.5999C455.319 40.5999 455.126 40.6774 455.009 40.8324C454.895 40.9873 454.838 41.2129 454.838 41.5091V43.0381H454.389V41.2559C454.389 40.8186 454.199 40.5999 453.821 40.5999C453.542 40.5999 453.349 40.686 453.242 40.8582C453.135 41.0304 453.082 41.2783 453.082 41.602V43.0381H452.627V40.2693H452.994L453.061 40.6464H453.087C453.173 40.5018 453.289 40.395 453.433 40.3261C453.581 40.2538 453.738 40.2177 453.903 40.2177C454.337 40.2177 454.62 40.3726 454.75 40.6826H454.776C454.869 40.5241 454.995 40.4071 455.153 40.3313C455.315 40.2555 455.486 40.2177 455.665 40.2177ZM457.687 39.231C457.756 39.231 457.817 39.2551 457.868 39.3033C457.923 39.3481 457.951 39.4204 457.951 39.5203C457.951 39.6167 457.923 39.689 457.868 39.7372C457.817 39.7855 457.756 39.8096 457.687 39.8096C457.612 39.8096 457.548 39.7855 457.496 39.7372C457.445 39.689 457.419 39.6167 457.419 39.5203C457.419 39.4204 457.445 39.3481 457.496 39.3033C457.548 39.2551 457.612 39.231 457.687 39.231ZM457.91 40.2693V43.0381H457.455V40.2693H457.91Z"
    fill="black"
  />
<mask
    id="mask0_323:8"
    style="mask-type:alpha"
    maskUnits="userSpaceOnUse"
    x="434"
    y="78"
    width="122"
    height="190"
  >
<rect x="434.749" y="78.1074" width="120.872" height="189.438" fill="#C4C4C4" />
</mask>
<g mask="url(#mask0_323:8)">
<path
      d="M504.616 208.559C498.487 212.249 490.416 209.981 486.832 203.774L482.114 195.603C481.953 195.324 482.044 194.959 482.329 194.795L488.5 191.232C488.786 191.067 489.141 191.162 489.307 191.45L494.151 199.839C495.394 201.991 498.167 202.721 500.3 201.433L500.3 201.433C502.394 200.167 503.006 197.382 501.784 195.266L500.939 193.802L500.881 193.702L500.782 193.76L497.634 195.577C497.357 195.737 496.992 195.646 496.827 195.359L493.254 189.171C493.093 188.893 493.184 188.528 493.469 188.363L503.398 182.631C503.674 182.471 504.045 182.571 504.206 182.848L509.049 191.237C512.536 197.278 510.543 204.987 504.616 208.559Z"
      stroke="#FF4A3D"
      stroke-width="0.229786"
    />
<path
      d="M484.868 184.932C485.856 186.643 485.274 188.828 483.568 189.813C481.862 190.798 479.678 190.21 478.69 188.499C477.702 186.787 478.284 184.602 479.99 183.617C481.696 182.632 483.88 183.22 484.868 184.932Z"
      stroke="#FF4A3D"
      stroke-width="0.229786"
    />
<path
      d="M499.767 176.33C500.755 178.041 500.172 180.227 498.466 181.212C496.76 182.197 494.576 181.609 493.588 179.897C492.6 178.186 493.183 176 494.889 175.015C496.595 174.03 498.779 174.619 499.767 176.33Z"
      stroke="#FF4A3D"
      stroke-width="0.229786"
    />
<path
      d="M526.616 246.665C520.487 250.354 512.416 248.087 508.832 241.879L504.114 233.708C503.953 233.43 504.044 233.065 504.329 232.9L510.5 229.338C510.786 229.172 511.141 229.268 511.307 229.555L516.151 237.944C517.394 240.097 520.167 240.827 522.3 239.538L522.3 239.538C524.394 238.272 525.006 235.487 523.784 233.371L522.939 231.907L522.881 231.808L522.782 231.865L519.634 233.682C519.357 233.842 518.992 233.751 518.827 233.465L515.254 227.277C515.093 226.998 515.184 226.633 515.469 226.468L525.398 220.736C525.674 220.577 526.045 220.676 526.206 220.954L531.049 229.343C534.536 235.383 532.543 243.092 526.616 246.665Z"
      stroke="#FF4A3D"
      stroke-width="0.229786"
    />
<path
      d="M506.868 223.037C507.856 224.748 507.274 226.934 505.568 227.919C503.862 228.904 501.678 228.316 500.69 226.604C499.702 224.893 500.284 222.707 501.99 221.722C503.696 220.737 505.88 221.326 506.868 223.037Z"
      stroke="#FF4A3D"
      stroke-width="0.229786"
    />
<path
      d="M521.767 214.435C522.755 216.147 522.172 218.332 520.466 219.317C518.76 220.302 516.576 219.714 515.588 218.003C514.6 216.291 515.183 214.106 516.889 213.121C518.595 212.136 520.779 212.724 521.767 214.435Z"
      stroke="#FF4A3D"
      stroke-width="0.229786"
    />
<path
      d="M528.035 163.946C521.906 167.636 513.835 165.368 510.251 159.161L505.533 150.99C505.372 150.711 505.463 150.346 505.748 150.181L511.919 146.619C512.205 146.453 512.56 146.549 512.726 146.837L517.57 155.226C518.812 157.378 521.586 158.108 523.719 156.819L523.719 156.819C525.813 155.553 526.425 152.769 525.203 150.653L524.358 149.189L524.3 149.089L524.201 149.147L521.053 150.964C520.776 151.124 520.411 151.033 520.246 150.746L516.673 144.558C516.512 144.279 516.603 143.914 516.888 143.75L526.817 138.017C527.093 137.858 527.464 137.958 527.625 138.235L532.468 146.624C535.955 152.665 533.962 160.373 528.035 163.946Z"
      stroke="#FF4A3D"
      stroke-width="0.229786"
    />
<path
      d="M508.287 140.318C509.275 142.03 508.693 144.215 506.987 145.2C505.281 146.185 503.097 145.597 502.109 143.885C501.121 142.174 501.703 139.988 503.409 139.004C505.115 138.019 507.299 138.607 508.287 140.318Z"
      stroke="#FF4A3D"
      stroke-width="0.229786"
    />
<path
      d="M523.186 131.717C524.174 133.428 523.591 135.614 521.885 136.599C520.179 137.583 517.995 136.995 517.007 135.284C516.019 133.572 516.602 131.387 518.308 130.402C520.014 129.417 522.198 130.005 523.186 131.717Z"
      stroke="#FF4A3D"
      stroke-width="0.229786"
    />
<path
      d="M550.036 202.051C543.907 205.741 535.836 203.474 532.252 197.266L527.534 189.095C527.373 188.817 527.464 188.452 527.749 188.287L533.92 184.724C534.206 184.559 534.561 184.654 534.727 184.942L539.571 193.331C540.813 195.484 543.587 196.213 545.72 194.925L545.72 194.925C547.814 193.659 548.426 190.874 547.204 188.758L546.359 187.294L546.301 187.195L546.202 187.252L543.054 189.069C542.777 189.229 542.412 189.138 542.247 188.851L538.674 182.663C538.513 182.385 538.604 182.02 538.889 181.855L548.818 176.123C549.094 175.963 549.465 176.063 549.626 176.341L554.469 184.73C557.956 190.77 555.963 198.479 550.036 202.051Z"
      stroke="#FF4A3D"
      stroke-width="0.229786"
    />
<path
      d="M530.288 178.424C531.276 180.135 530.694 182.321 528.988 183.306C527.282 184.29 525.098 183.702 524.11 181.991C523.122 180.28 523.704 178.094 525.41 177.109C527.116 176.124 529.3 176.712 530.288 178.424Z"
      stroke="#FF4A3D"
      stroke-width="0.229786"
    />
<path
      d="M545.187 169.822C546.175 171.534 545.592 173.719 543.886 174.704C542.18 175.689 539.996 175.101 539.008 173.389C538.02 171.678 538.603 169.492 540.309 168.507C542.015 167.523 544.199 168.111 545.187 169.822Z"
      stroke="#FF4A3D"
      stroke-width="0.229786"
    />
<path
      d="M572.035 240.157C565.906 243.847 557.835 241.579 554.251 235.372L549.533 227.201C549.372 226.922 549.463 226.557 549.748 226.392L555.919 222.83C556.205 222.664 556.56 222.76 556.726 223.048L561.57 231.437C562.812 233.589 565.586 234.319 567.719 233.03L567.719 233.03C569.813 231.764 570.425 228.98 569.203 226.863L568.358 225.4L568.3 225.3L568.201 225.358L565.053 227.175C564.776 227.335 564.411 227.244 564.246 226.957L560.673 220.769C560.512 220.49 560.603 220.125 560.888 219.961L570.817 214.228C571.093 214.069 571.464 214.169 571.625 214.446L576.468 222.835C579.955 228.875 577.962 236.584 572.035 240.157Z"
      stroke="#FF4A3D"
      stroke-width="0.229786"
    />
<path
      d="M552.287 216.529C553.275 218.241 552.693 220.426 550.987 221.411C549.281 222.396 547.097 221.808 546.109 220.096C545.121 218.385 545.703 216.199 547.409 215.215C549.115 214.23 551.299 214.818 552.287 216.529Z"
      stroke="#FF4A3D"
      stroke-width="0.229786"
    />
<path
      d="M578.384 165.97C572.254 169.66 564.183 167.392 560.599 161.185L555.882 153.014C555.721 152.735 555.812 152.371 556.097 152.206L562.267 148.643C562.554 148.478 562.909 148.573 563.075 148.861L567.918 157.25C569.161 159.402 571.934 160.132 574.068 158.844L574.068 158.844C576.161 157.578 576.773 154.793 575.552 152.677L574.706 151.213L574.649 151.114L574.549 151.171L571.402 152.988C571.125 153.148 570.76 153.057 570.594 152.77L567.022 146.582C566.861 146.304 566.952 145.939 567.237 145.774L577.166 140.042C577.442 139.882 577.813 139.982 577.973 140.26L582.817 148.649C586.304 154.689 584.311 162.398 578.384 165.97Z"
      stroke="#FF4A3D"
      stroke-width="0.229786"
    />
<path
      d="M558.636 142.343C559.624 144.054 559.041 146.24 557.336 147.225C555.63 148.209 553.446 147.621 552.457 145.91C551.469 144.198 552.052 142.013 553.758 141.028C555.464 140.043 557.648 140.631 558.636 142.343Z"
      stroke="#FF4A3D"
      stroke-width="0.229786"
    />
</g>
<mask
    id="mask1_323:8"
    style="mask-type:alpha"
    maskUnits="userSpaceOnUse"
    x="119"
    y="49"
    width="122"
    height="190"
  >
<rect x="119.591" y="49.3516" width="120.872" height="189.438" fill="#C4C4C4" />
</mask>
<g mask="url(#mask1_323:8)">
<path
      d="M118.696 166.281L123.54 174.67C127.058 180.765 125.047 188.543 119.067 192.148C112.879 195.872 104.738 193.582 101.123 187.322L96.4059 179.151C96.2141 178.818 96.3214 178.383 96.6631 178.185L102.834 174.623C103.175 174.426 103.6 174.54 103.798 174.883L108.641 183.272C109.852 185.369 112.554 186.079 114.632 184.824C116.668 183.593 117.268 180.88 116.076 178.813L115.23 177.35L112.083 179.167C111.752 179.358 111.316 179.249 111.118 178.907L107.546 172.719C107.354 172.387 107.461 171.951 107.803 171.754L117.732 166.021C118.063 165.83 118.504 165.949 118.696 166.281Z"
      fill="#FF4A3D"
      fill-opacity="0.1"
    />
<path
      d="M120.117 83.5616L124.96 91.9505C128.479 98.0449 126.468 105.823 120.487 109.428C114.3 113.153 106.158 110.862 102.544 104.602L97.8263 96.4309C97.6345 96.0987 97.7418 95.6629 98.0835 95.4657L104.254 91.9032C104.596 91.7059 105.021 91.8204 105.218 92.163L110.062 100.552C111.273 102.649 113.974 103.36 116.052 102.105C118.088 100.874 118.689 98.1598 117.496 96.0938L116.651 94.6299L113.503 96.447C113.172 96.6383 112.737 96.5297 112.539 96.1871L108.966 89.9992C108.775 89.667 108.882 89.2313 109.224 89.034L119.152 83.3017C119.484 83.1104 119.925 83.2293 120.117 83.5616Z"
      fill="#FF4A3D"
      fill-opacity="0.1"
    />
<path
      d="M142.117 121.667L146.961 130.056C150.479 136.15 148.468 143.928 142.488 147.534C136.3 151.258 128.159 148.968 124.544 142.707L119.827 134.536C119.635 134.204 119.742 133.768 120.084 133.571L126.254 130.009C126.596 129.811 127.021 129.926 127.219 130.269L132.062 138.657C133.273 140.755 135.975 141.465 138.053 140.21C140.089 138.979 140.689 136.265 139.496 134.199L138.651 132.735L135.504 134.552C135.173 134.744 134.737 134.635 134.539 134.293L130.967 128.105C130.775 127.772 130.882 127.337 131.224 127.139L141.153 121.407C141.484 121.216 141.925 121.335 142.117 121.667Z"
      fill="#FF4A3D"
      fill-opacity="0.1"
    />
<path
      d="M121.437 128.789C123.198 127.772 123.8 125.516 122.78 123.75C121.76 121.984 119.506 121.377 117.745 122.393C115.984 123.41 115.383 125.666 116.402 127.432C117.422 129.198 119.676 129.806 121.437 128.789Z"
      fill="#FF4A3D"
      fill-opacity="0.1"
    />
<path
      d="M136.335 120.187C138.096 119.171 138.698 116.915 137.678 115.148C136.658 113.382 134.404 112.775 132.643 113.792C130.882 114.809 130.281 117.064 131.3 118.831C132.32 120.597 134.574 121.204 136.335 120.187Z"
      fill="#FF4A3D"
      fill-opacity="0.1"
    />
<path
      d="M164.116 159.772L168.959 168.161C172.478 174.256 170.467 182.034 164.486 185.639C158.299 189.364 150.157 187.073 146.543 180.813L141.825 172.642C141.634 172.31 141.741 171.874 142.083 171.677L148.253 168.114C148.595 167.917 149.02 168.031 149.218 168.374L154.061 176.763C155.272 178.86 157.973 179.571 160.051 178.316C162.087 177.085 162.688 174.371 161.495 172.305L160.65 170.841L157.502 172.658C157.171 172.849 156.736 172.741 156.538 172.398L152.965 166.21C152.774 165.878 152.881 165.442 153.223 165.245L163.151 159.513C163.483 159.321 163.924 159.44 164.116 159.772Z"
      fill="#FF4A3D"
      fill-opacity="0.1"
    />
<path
      d="M143.436 166.894C145.197 165.878 145.798 163.622 144.778 161.856C143.759 160.089 141.505 159.482 139.743 160.499C137.982 161.516 137.381 163.772 138.401 165.538C139.421 167.304 141.675 167.911 143.436 166.894Z"
      fill="#FF4A3D"
      fill-opacity="0.1"
    />
<path
      d="M158.334 158.293C160.095 157.276 160.696 155.02 159.676 153.254C158.657 151.488 156.403 150.88 154.641 151.897C152.88 152.914 152.279 155.17 153.299 156.936C154.319 158.702 156.573 159.31 158.334 158.293Z"
      fill="#FF4A3D"
      fill-opacity="0.1"
    />
<path
      d="M170.464 85.5869L175.307 93.9759C178.826 100.07 176.815 107.848 170.834 111.453C164.647 115.178 156.505 112.888 152.891 106.627L148.173 98.4563C147.982 98.1241 148.089 97.6883 148.431 97.4911L154.601 93.9285C154.943 93.7313 155.368 93.8458 155.566 94.1884L160.409 102.577C161.62 104.675 164.322 105.385 166.399 104.13C168.436 102.899 169.036 100.185 167.843 98.1192L166.998 96.6552L163.851 98.4724C163.519 98.6637 163.084 98.5551 162.886 98.2125L159.314 92.0246C159.122 91.6924 159.229 91.2566 159.571 91.0594L169.499 85.3271C169.831 85.1358 170.272 85.2547 170.464 85.5869Z"
      fill="#FF4A3D"
      fill-opacity="0.1"
    />
<path
      d="M149.784 92.7088C151.545 91.692 152.146 89.436 151.127 87.67C150.107 85.9039 147.853 85.2965 146.092 86.3133C144.33 87.33 143.729 89.586 144.749 91.3521C145.769 93.1181 148.023 93.7256 149.784 92.7088Z"
      fill="#FF4A3D"
      fill-opacity="0.1"
    />
<path
      d="M164.682 84.1072C166.443 83.0904 167.044 80.8345 166.025 79.0684C165.005 77.3023 162.751 76.6949 160.99 77.7117C159.228 78.7285 158.627 80.9844 159.647 82.7505C160.667 84.5166 162.921 85.124 164.682 84.1072Z"
      fill="#FF4A3D"
      fill-opacity="0.1"
    />
<path
      d="M192.463 123.691L197.307 132.08C200.825 138.175 198.814 145.953 192.834 149.558C186.647 153.282 178.505 150.992 174.89 144.732L170.173 136.561C169.981 136.229 170.089 135.793 170.43 135.596L176.601 132.033C176.942 131.836 177.367 131.95 177.565 132.293L182.409 140.682C183.619 142.779 186.321 143.49 188.399 142.235C190.435 141.004 191.035 138.29 189.843 136.224L188.997 134.76L185.85 136.577C185.519 136.768 185.083 136.66 184.886 136.317L181.313 130.129C181.121 129.797 181.229 129.361 181.57 129.164L191.499 123.432C191.83 123.24 192.272 123.359 192.463 123.691Z"
      fill="#FF4A3D"
      fill-opacity="0.1"
    />
<path
      d="M171.784 130.813C173.545 129.796 174.146 127.541 173.126 125.774C172.106 124.008 169.852 123.401 168.091 124.418C166.33 125.435 165.729 127.69 166.749 129.457C167.768 131.223 170.022 131.83 171.784 130.813Z"
      fill="#FF4A3D"
      fill-opacity="0.1"
    />
<path
      d="M186.682 122.212C188.443 121.195 189.044 118.939 188.024 117.173C187.004 115.407 184.75 114.799 182.989 115.816C181.228 116.833 180.627 119.089 181.647 120.855C182.666 122.621 184.92 123.228 186.682 122.212Z"
      fill="#FF4A3D"
      fill-opacity="0.1"
    />
</g>
<defs>
<clipPath id="clip0_323:8">
<rect
        width="14.062"
        height="18.6537"
        fill="white"
        transform="translate(327.803 30.124)"
      />
</clipPath>
</defs>
</svg>
