<svg width="1661" height="492" viewBox="0 0 1661 492" fill="none" xmlns="http://www.w3.org/2000/svg">
<path d="M968.5 490C955.833 460.833 950.903 422.524 999.703 393.724C1060.7 357.724 1169.2 401.224 1253.7 417.224C1338.2 433.224 1315.7 241.724 1446.7 237.224C1577.7 232.724 1683.24 292.302 1655.7 406.724C1649.5 432.5 1638.5 471.667 1623 490H968.5Z" fill="#F4C413" fill-opacity="0.3"/>
<path d="M1313.41 191.387L1201.83 136.113C1196.41 133.429 1194.19 126.832 1196.87 121.414L1252.14 9.82973C1254.83 4.41177 1261.42 2.18541 1266.84 4.86925L1378.43 60.1435C1383.84 62.8274 1386.07 69.4246 1383.39 74.8425L1328.11 186.427C1325.43 191.845 1318.83 194.071 1313.41 191.387Z" fill="#FF4A3D" stroke="#3F3D56" stroke-width="2" stroke-miterlimit="10"/>
<path d="M34.8879 490.219C-0.946505 424.365 -37.8903 271.481 91.2757 199.758C252.733 110.105 337.924 210.306 357.802 261.42C377.68 312.535 438.125 370.952 502.221 370.952C566.318 370.952 625.546 422.878 626.763 454.926C627.736 480.564 625.816 489.138 624.734 490.219H34.8879Z" fill="#F4C413" fill-opacity="0.3"/>
<path d="M546.824 490.703C546.032 473.255 548.676 432.317 565.58 408.151C582.484 383.985 603.963 371.794 612.589 368.72C609.74 383.17 598.961 415.715 578.638 430.288C558.315 444.862 548.961 476.637 546.824 490.703Z" fill="#DDDDDD"/>
<path d="M546.613 479.129C547.169 466.902 545.312 438.216 533.433 421.282C521.555 404.348 506.462 395.805 500.4 393.651C502.402 403.777 509.976 426.582 524.257 436.794C538.538 447.006 545.112 469.272 546.613 479.129Z" fill="#DDDDDD"/>
<path d="M544.801 490.109L546.582 490.075C545.893 470.275 543.781 450.55 540.26 431.053C532.56 389.311 519.755 361.896 502.202 349.572L501.18 351.029C542.184 379.819 544.78 489.009 544.801 490.109Z" fill="#2F2E41"/>
<path d="M522.542 489.684L524.323 489.649C524.284 487.677 523.171 441.199 504.874 428.353L503.852 429.81C521.411 442.138 522.533 489.21 522.542 489.684Z" fill="#2F2E41"/>
<path d="M491.049 351.191C495.967 351.191 499.953 347.204 499.953 342.287C499.953 337.369 495.967 333.383 491.049 333.383C486.132 333.383 482.146 337.369 482.146 342.287C482.146 347.204 486.132 351.191 491.049 351.191Z" fill="#FF4A3D"/>
<path d="M495.459 427.764C500.376 427.764 504.363 423.778 504.363 418.86C504.363 413.943 500.376 409.957 495.459 409.957C490.541 409.957 486.555 413.943 486.555 418.86C486.555 423.778 490.541 427.764 495.459 427.764Z" fill="#FF4A3D"/>
<path d="M526.692 356.529C525.019 367.217 529.38 376.777 529.38 376.777C529.38 376.777 536.454 369.007 538.128 358.319C539.801 347.631 535.44 338.071 535.44 338.071C535.44 338.071 528.365 345.84 526.692 356.529Z" fill="#2F2E41"/>
<path d="M497.588 382.486C507.821 385.996 517.994 383.368 517.994 383.368C517.994 383.368 511.577 375.048 501.343 371.537C491.11 368.027 480.937 370.656 480.937 370.656C480.937 370.656 487.354 378.976 497.588 382.486Z" fill="#2F2E41"/>
<path d="M497.259 450.3C501.89 451.755 506.823 451.968 511.562 450.917C508.553 447.086 504.5 444.206 499.891 442.625C495.283 441.045 490.316 440.83 485.588 442.008C488.685 445.746 492.71 448.605 497.259 450.3V450.3Z" fill="#2F2E41"/>
<path d="M1178.62 490.615C1179.33 474.798 1176.94 437.687 1161.61 415.78C1146.29 393.872 1126.82 382.821 1119 380.034C1121.58 393.134 1131.35 422.636 1149.78 435.847C1168.2 449.058 1176.68 477.864 1178.62 490.615Z" fill="#DDDDDD"/>
<path d="M1178.81 480.122C1178.3 469.039 1179.99 443.034 1190.76 427.683C1201.52 412.331 1215.21 404.588 1220.7 402.635C1218.89 411.814 1212.02 432.487 1199.07 441.745C1186.13 451.002 1180.17 471.187 1178.81 480.122Z" fill="#DDDDDD"/>
<path d="M1180.45 490.077L1178.84 490.045C1179.46 472.096 1181.38 454.215 1184.57 436.541C1191.55 398.7 1203.16 373.848 1219.07 362.676L1220 363.997C1182.82 390.096 1180.47 489.08 1180.45 490.077Z" fill="#2F2E41"/>
<path d="M1200.63 489.691L1199.02 489.659C1199.05 487.871 1200.06 445.738 1216.65 434.093L1217.57 435.414C1201.66 446.589 1200.64 489.261 1200.63 489.691Z" fill="#2F2E41"/>
<path d="M1229.18 364.143C1224.72 364.143 1221.11 360.53 1221.11 356.072C1221.11 351.614 1224.72 348 1229.18 348C1233.64 348 1237.25 351.614 1237.25 356.072C1237.25 360.53 1233.64 364.143 1229.18 364.143Z" fill="#FF4A3D"/>
<path d="M1225.18 433.559C1220.72 433.559 1217.11 429.945 1217.11 425.488C1217.11 421.03 1220.72 417.416 1225.18 417.416C1229.64 417.416 1233.25 421.03 1233.25 425.488C1233.25 429.945 1229.64 433.559 1225.18 433.559Z" fill="#FF4A3D"/>
<path d="M1196.87 368.982C1198.39 378.671 1194.43 387.338 1194.43 387.338C1194.43 387.338 1188.02 380.294 1186.5 370.605C1184.98 360.916 1188.94 352.25 1188.94 352.25C1188.94 352.25 1195.35 359.293 1196.87 368.982Z" fill="#2F2E41"/>
<path d="M1223.25 392.514C1213.98 395.696 1204.75 393.312 1204.75 393.312C1204.75 393.312 1210.57 385.77 1219.85 382.588C1229.12 379.406 1238.35 381.789 1238.35 381.789C1238.35 381.789 1232.53 389.332 1223.25 392.514Z" fill="#2F2E41"/>
<path d="M1223.55 453.988C1219.35 455.307 1214.88 455.5 1210.58 454.548C1213.31 451.075 1216.99 448.464 1221.16 447.031C1225.34 445.598 1229.84 445.404 1234.13 446.472C1231.32 449.86 1227.67 452.452 1223.55 453.988V453.988Z" fill="#2F2E41"/>
<path d="M256.064 248.842L216.277 197.817C216.277 197.817 207.577 170.492 200.556 156.736C193.535 142.98 187.216 147.836 187.216 147.836L179.059 153.432L183.129 174.104L201.638 213.507L245.949 259.344C246.161 261.112 246.871 262.784 247.995 264.166C249.12 265.547 250.613 266.581 252.302 267.148C253.991 267.714 255.806 267.79 257.536 267.366C259.266 266.942 260.84 266.036 262.076 264.753C263.311 263.47 264.158 261.863 264.516 260.118C264.875 258.373 264.731 256.563 264.101 254.896C263.472 253.23 262.382 251.777 260.96 250.705C259.537 249.633 257.839 248.987 256.064 248.842V248.842Z" fill="#9F616A"/>
<path d="M140.146 186.369L136.747 165.577L127.15 163.178C127.15 163.178 119.534 160.832 117.754 176.173C115.974 191.514 117.354 220.157 117.354 220.157L97.8696 281.857C96.2488 282.611 94.8756 283.81 93.9098 285.314C92.944 286.818 92.4253 288.566 92.4142 290.353C92.4032 292.141 92.9001 293.895 93.8471 295.41C94.7942 296.926 96.1525 298.142 97.7637 298.916C99.375 299.69 101.173 299.99 102.948 299.782C104.724 299.574 106.403 298.865 107.791 297.739C109.18 296.613 110.22 295.116 110.79 293.422C111.36 291.728 111.438 289.907 111.013 288.17L136.547 229.754L140.146 186.369Z" fill="#9F616A"/>
<path d="M219.522 478.162L232.079 478.162L238.054 429.725L219.52 429.726L219.522 478.162Z" fill="#9F616A"/>
<path d="M216.318 474.063L241.049 474.062H241.05C245.23 474.062 249.238 475.722 252.194 478.678C255.15 481.633 256.81 485.642 256.81 489.822V490.334L216.319 490.335L216.318 474.063Z" fill="#2F2E41"/>
<path d="M82.5535 478.162L95.1116 478.162L101.085 429.725L82.5518 429.726L82.5535 478.162Z" fill="#9F616A"/>
<path d="M79.3506 474.063L104.081 474.062H104.082C108.262 474.062 112.271 475.722 115.226 478.678C118.182 481.633 119.842 485.642 119.843 489.822V490.334L79.3513 490.335L79.3506 474.063Z" fill="#2F2E41"/>
<path d="M144.55 144.834L123.721 162.615L140.815 216.709L144.672 228.788C144.672 228.788 121.121 250.502 106.549 311.16C91.9767 371.818 68.1387 452.418 68.1387 452.418L118.457 466.821L159.394 329.607L207.545 437.256L213.105 469.096L255.955 456.461L245.847 376.609L195.308 238.383L200.558 201.742C200.558 201.742 208.441 183.453 194.746 164.09L190.45 145.896L175.061 142.105L144.55 144.834Z" fill="#2F2E41"/>
<path d="M179.151 135.168H122.838C121.68 135.167 120.569 134.706 119.75 133.887C118.931 133.068 118.47 131.957 118.469 130.799V106.526C118.469 97.8994 121.896 89.6264 127.995 83.5266C134.095 77.4268 142.368 74 150.995 74C159.621 74 167.894 77.4268 173.994 83.5266C180.093 89.6264 183.52 97.8994 183.52 106.526V130.799C183.519 131.957 183.058 133.068 182.239 133.887C181.42 134.706 180.31 135.167 179.151 135.168V135.168Z" fill="#2F2E41"/>
<path d="M178.604 122.194C184.921 110.638 180.674 96.1489 169.118 89.8316C157.561 83.5144 143.072 87.7615 136.755 99.3177C130.438 110.874 134.685 125.363 146.241 131.681C157.797 137.998 172.286 133.751 178.604 122.194Z" fill="#9F616A"/>
<path d="M191.216 108.953H156.781L156.428 104.009L154.663 108.953H149.361L148.661 99.1548L145.162 108.953H134.902V108.468C134.91 101.646 137.623 95.1063 142.447 90.2828C147.27 85.4592 153.81 82.746 160.631 82.7383H165.486C172.308 82.746 178.848 85.4592 183.671 90.2827C188.495 95.1063 191.208 101.646 191.216 108.468V108.953Z" fill="#2F2E41"/>
<path d="M156.5 139.699C156.241 139.699 155.982 139.676 155.727 139.631L130.513 135.182V93.5103H158.269L157.582 94.3115C148.021 105.462 155.224 123.542 160.368 133.327C160.747 134.044 160.916 134.853 160.856 135.662C160.795 136.47 160.508 137.245 160.026 137.898C159.623 138.455 159.093 138.909 158.48 139.223C157.867 139.536 157.189 139.699 156.5 139.699V139.699Z" fill="#2F2E41"/>
<path d="M291.987 417.73L152.436 455.122C145.66 456.938 138.664 452.899 136.849 446.123L99.4561 306.572C97.6405 299.796 101.68 292.8 108.456 290.984L248.007 253.592C254.783 251.776 261.779 255.815 263.594 262.591L300.987 402.142C302.802 408.918 298.763 415.914 291.987 417.73Z" fill="#FF4A3D" stroke="#3F3D56" stroke-width="2" stroke-miterlimit="10"/>
<path d="M1450.22 140.325L1459.23 123.119C1451.15 113.361 1424.64 101.527 1424.64 101.527L1388.76 68.8668C1388.37 67.4096 1387.61 66.0788 1386.55 65.0084C1385.49 63.938 1384.17 63.1656 1382.72 62.7691C1381.27 62.3727 1379.73 62.366 1378.28 62.7499C1376.82 63.1337 1375.49 63.8946 1374.42 64.9558C1373.35 66.017 1372.58 67.3411 1372.19 68.7949C1371.79 70.2486 1371.79 71.7807 1372.17 73.237C1372.56 74.6932 1373.32 76.0221 1374.38 77.09C1375.45 78.1579 1376.77 78.9271 1378.22 79.3201L1416.99 125.813L1450.22 140.325Z" fill="#9E616A"/>
<path d="M1408.43 479.498L1397.78 479.497L1392.71 438.426H1408.43L1408.43 479.498Z" fill="#9E616A"/>
<path d="M1411.14 489.82L1376.81 489.819V489.385C1376.81 485.84 1378.22 482.441 1380.72 479.935C1383.23 477.429 1386.63 476.021 1390.17 476.021H1390.18L1396.45 471.263L1408.15 476.021L1411.14 476.022L1411.14 489.82Z" fill="#2F2E41"/>
<path d="M1502.27 479.498L1491.63 479.497L1486.56 438.426H1502.28L1502.27 479.498Z" fill="#9E616A"/>
<path d="M1504.99 489.821L1470.66 489.819V489.385C1470.66 485.841 1472.06 482.442 1474.57 479.936C1477.08 477.429 1480.48 476.021 1484.02 476.021H1484.02L1490.29 471.263L1501.99 476.022L1504.99 476.022L1504.99 489.821Z" fill="#2F2E41"/>
<path d="M1486.08 259.676L1495.04 344.76C1495.04 344.76 1506.96 429.953 1504.72 441.708C1502.48 453.463 1505.28 455.143 1505.28 455.143L1484.85 453.688C1484.85 453.688 1485.41 446.411 1482.05 443.052C1478.69 439.694 1480.37 429.618 1480.37 429.618L1440.74 291.023L1416.67 363.792C1416.67 363.792 1412.75 443.838 1412.19 444.958C1411.63 446.077 1409.95 461.191 1409.95 461.191H1389.24C1389.24 461.191 1392.04 452.235 1388.12 449.436C1384.21 446.637 1380.85 448.876 1384.21 443.838C1387.56 438.8 1388.68 432.643 1387.56 429.844C1386.44 427.045 1386.44 415.85 1386.44 415.85C1386.44 415.85 1388.12 264.714 1397.64 259.676C1407.16 254.638 1486.08 259.676 1486.08 259.676Z" fill="#2F2E41"/>
<path d="M1443.67 87.4026C1455.83 87.4026 1465.69 77.5402 1465.69 65.3742C1465.69 53.2082 1455.83 43.3457 1443.67 43.3457C1431.5 43.3457 1421.64 53.2082 1421.64 65.3742C1421.64 77.5402 1431.5 87.4026 1443.67 87.4026Z" fill="#9E616A"/>
<path d="M1493.69 268.949C1451.03 277.759 1394.5 262.613 1394.5 262.613L1409.58 197.239L1404.22 128.824C1403.56 120.458 1408.33 112.615 1415.74 109.836L1425.98 106.002L1434.44 93.8892L1458.61 94.6821L1468.27 107.399L1475.89 111.444L1492.42 120.21L1492.49 120.247V120.283L1487.31 170.598L1484.18 200.935C1484.18 200.935 1493.68 235.055 1491.73 239.58C1489.78 244.098 1491.47 241.915 1491.95 244.33C1492.42 246.746 1493.87 246.898 1494.09 251.656C1494.31 256.407 1493.69 268.949 1493.69 268.949Z" fill="#3F3D56"/>
<path d="M1442.59 86.344C1446.46 86.3045 1450.31 85.9351 1454.11 85.2397C1457.87 84.3729 1466.18 77.9535 1468.44 74.1612C1470.12 71.3435 1471.13 66.9853 1471.68 63.8256C1472.42 59.6438 1472.28 55.3526 1471.26 51.2297C1470.24 47.1069 1468.36 43.2443 1465.75 39.8922C1464.75 38.4879 1463.38 37.3814 1461.8 36.6899C1461.66 36.6392 1461.52 36.5949 1461.37 36.5575C1459.08 36.0168 1457 34.8028 1455.4 33.0714C1455.09 32.7208 1454.75 32.3931 1454.39 32.0907C1452.6 30.6544 1450.49 29.6631 1448.24 29.1977C1444.61 28.3246 1439.41 29.4187 1432.79 32.4524C1429.46 33.9766 1425.77 33.5514 1422.92 33.0106C1422.76 32.9841 1422.6 32.9997 1422.45 33.0561C1422.3 33.1124 1422.16 33.2075 1422.06 33.3318C1420.88 34.4931 1419.31 35.1668 1417.66 35.2173C1416.65 35.2878 1415.63 36.7157 1414.39 38.575C1414.11 38.9971 1413.78 39.4897 1413.55 39.7903L1413.5 39.2258L1412.94 39.8712C1412.07 40.8857 1411.47 42.1048 1411.19 43.415C1410.91 44.7252 1410.98 46.0838 1411.37 47.3644C1411.76 48.645 1412.47 49.8059 1413.43 50.739C1414.39 51.672 1415.57 52.347 1416.86 52.7009C1417.88 52.9453 1418.93 53.0845 1419.98 53.1163C1420.62 53.1572 1421.28 53.1994 1421.91 53.2926C1423.95 53.6551 1425.86 54.5395 1427.45 55.8594C1429.04 57.1792 1430.27 58.8895 1431 60.8232C1431.17 61.2701 1431.45 61.6711 1431.8 61.9954C1432.15 62.3197 1432.58 62.5585 1433.04 62.6935C1433.5 62.8284 1433.98 62.8559 1434.45 62.7737C1434.92 62.6916 1435.37 62.502 1435.76 62.2196C1436.4 61.6907 1437.17 61.3254 1437.98 61.1549C1438.8 60.9845 1439.64 61.0139 1440.44 61.2407C1441.14 61.6054 1441.69 62.1987 1442.01 62.9213C1442.38 63.7256 1442.99 64.3993 1443.75 64.8564C1446.35 66.1118 1446.68 71.9618 1445.88 76.866C1445.12 81.5933 1443.45 85.0418 1441.83 85.2519C1440.58 85.4136 1440.44 85.5061 1440.36 85.7295L1440.28 85.9296L1440.43 86.1111C1441.12 86.3436 1441.86 86.423 1442.59 86.344V86.344Z" fill="#2F2E41"/>
<path d="M1413.52 160.972L1403.82 144.146C1391.25 145.743 1367.06 161.791 1367.06 161.791L1320.26 174.596C1318.83 174.138 1317.29 174.066 1315.82 174.388C1314.35 174.71 1312.99 175.413 1311.88 176.428C1310.76 177.443 1309.94 178.733 1309.48 180.169C1309.03 181.605 1308.96 183.135 1309.28 184.606C1309.6 186.078 1310.31 187.438 1311.32 188.55C1312.34 189.662 1313.63 190.487 1315.07 190.941C1316.5 191.396 1318.03 191.464 1319.5 191.139C1320.98 190.813 1322.33 190.106 1323.45 189.089L1383.47 181.259L1413.52 160.972Z" fill="#9E616A"/>
<circle cx="1207.5" cy="288.5" r="51.5" fill="#F4C413" fill-opacity="0.3"/>
<circle cx="441.5" cy="287.5" r="20.5" fill="#F4C413" fill-opacity="0.3"/>
<path d="M392.5 396.232C443.838 397.109 443.829 473.472 392.499 474.341C341.163 473.465 341.171 397.102 392.5 396.232Z" fill="#2F2E41"/>
<path d="M386.568 465.938H374.703V487.195H386.568V465.938Z" fill="#2F2E41"/>
<path d="M410.297 465.938H398.433V487.195H410.297V465.938Z" fill="#2F2E41"/>
<path d="M384.59 483.734C397.41 483.643 397.411 491.242 384.589 491.15C371.77 491.241 371.769 483.643 384.59 483.734Z" fill="#2F2E41"/>
<path d="M408.32 483.24C421.14 483.149 421.14 490.747 408.319 490.656C395.499 490.747 395.499 483.149 408.32 483.24Z" fill="#2F2E41"/>
<path d="M393.489 412.052C410.945 412.13 410.944 438.671 393.488 438.747C376.033 438.669 376.034 412.128 393.489 412.052Z" fill="white"/>
<path d="M393.489 420.951C399.262 420.866 399.262 429.934 393.488 429.849C387.716 429.933 387.716 420.866 393.489 420.951Z" fill="#3F3D56"/>
<g clip-path="url(#clip0_347:4)">
<path d="M411.746 402.169L364.408 405.1C362.109 405.242 360.122 403.487 359.98 401.188L357.048 353.85C356.906 351.552 358.662 349.564 360.96 349.422L408.298 346.491C410.597 346.348 412.584 348.104 412.726 350.402L415.658 397.74C415.8 400.039 414.044 402.026 411.746 402.169Z" fill="white" stroke="#3F3D56" stroke-width="4" stroke-miterlimit="10"/>
<path d="M397.823 370.026L398.371 378.869C398.769 385.294 393.937 390.845 387.553 391.361C380.96 391.89 375.211 386.698 374.803 380.098L374.269 371.484C374.247 371.134 374.514 370.821 374.875 370.798L381.398 370.394C381.759 370.372 382.062 370.639 382.084 371L382.632 379.844C382.769 382.055 384.697 383.737 386.916 383.556C389.091 383.377 390.694 381.399 390.559 379.221L390.463 377.678L387.136 377.884C386.786 377.906 386.473 377.639 386.45 377.278L386.046 370.744C386.024 370.394 386.29 370.08 386.651 370.058L397.148 369.408C397.488 369.398 397.801 369.675 397.823 370.026Z" fill="#FF4A3D"/>
<path d="M377.93 367.434C379.792 367.319 381.208 365.716 381.093 363.854C380.977 361.992 379.375 360.576 377.513 360.692C375.651 360.807 374.235 362.41 374.35 364.272C374.466 366.133 376.068 367.549 377.93 367.434Z" fill="#FF4A3D"/>
<path d="M393.68 366.459C395.542 366.343 396.958 364.74 396.843 362.879C396.727 361.017 395.125 359.601 393.263 359.716C391.401 359.832 389.985 361.434 390.1 363.296C390.216 365.158 391.818 366.574 393.68 366.459Z" fill="#FF4A3D"/>
</g>
<path d="M1260.39 118.37C1256.75 116.511 1254.74 111.465 1253.62 109.17C1247.78 98.1477 1246.22 94.4768 1245.1 92.1813L1235.33 111.307C1234.04 113.822 1235.04 116.902 1237.55 118.185L1273.92 136.771C1276.43 138.054 1279.51 137.055 1280.8 134.54L1290.57 115.414C1288.05 115.851 1284.16 116.734 1271.81 118.463C1269.29 118.899 1264.03 120.229 1260.39 118.37ZM1292.54 100.34L1256.16 81.7539C1253.65 80.471 1250.57 81.4699 1249.29 83.9845L1248.12 86.2614C1250.37 90.8523 1249.91 90.62 1258.21 106.92C1259.11 108.528 1260.44 112.654 1262.71 113.816C1264.99 114.978 1269.11 113.639 1270.71 113.881C1288.78 111.055 1288.33 110.823 1293.36 109.949L1294.76 107.217C1296.04 104.703 1295.05 101.623 1292.54 100.34ZM1335.89 105.265L1290.42 82.032C1287.91 80.7491 1284.83 81.748 1283.55 84.2626L1281.22 88.8164L1294.86 95.7862C1299.58 98.1973 1301.62 103.803 1299.71 108.64L1299.77 108.63L1290 127.756L1317.28 141.695C1319.79 142.978 1322.87 141.979 1324.15 139.465L1338.11 112.142C1339.4 109.627 1338.4 106.548 1335.89 105.265ZM1322.04 121.157L1312.94 116.51L1317.6 107.402L1326.69 112.049L1322.04 121.157ZM1279 81.9393C1281.57 76.9173 1287.74 74.916 1292.75 77.4782L1324.58 93.741L1331.56 80.0795C1332.84 77.565 1331.85 74.4853 1329.34 73.2024L1283.87 49.9698C1281.36 48.6869 1278.28 49.6858 1277 52.2004L1263.03 79.5233L1276.68 86.4931L1279 81.9393Z" fill="white"/>
<path d="M249.19 362.823L228.118 359.687C227.218 359.555 226.3 359.719 225.501 360.154C224.703 360.589 224.067 361.272 223.69 362.099L217.998 374.551C203.204 371.807 189.826 364 180.159 352.47L188.2 341.389C188.736 340.654 189.019 339.764 189.005 338.855C188.991 337.945 188.68 337.065 188.121 336.347L175.025 319.544C174.415 318.772 173.556 318.237 172.594 318.031C171.632 317.826 170.629 317.962 169.757 318.417L153.239 327.099C152.399 327.541 151.734 328.254 151.351 329.123C150.969 329.991 150.892 330.964 151.134 331.881C162.54 375.252 206.92 401.093 250.223 389.705C251.141 389.464 251.951 388.919 252.519 388.159C253.088 387.399 253.381 386.468 253.353 385.519L252.786 366.867C252.751 365.88 252.372 364.936 251.716 364.198C251.059 363.46 250.166 362.974 249.19 362.823V362.823Z" fill="white"/>
<defs>
<clipPath id="clip0_347:4">
<rect width="56.2234" height="56.2234" fill="white" transform="translate(356.558 349.475) rotate(-3.54347)"/>
</clipPath>
</defs>
</svg>
