<svg width="1661" height="418" viewBox="0 0 1661 418" fill="none" xmlns="http://www.w3.org/2000/svg">
<path d="M968.5 416C955.833 386.833 950.903 348.524 999.703 319.724C1060.7 283.724 1169.2 327.224 1253.7 343.224C1338.2 359.224 1315.7 167.724 1446.7 163.224C1577.7 158.724 1683.24 218.302 1655.7 332.724C1649.5 358.5 1638.5 397.667 1623 416H968.5Z" fill="#F4C413" fill-opacity="0.3"/>
<path d="M34.8879 416.219C-0.946505 350.365 -37.8903 197.481 91.2757 125.758C252.733 36.1047 337.924 136.306 357.802 187.42C377.68 238.535 438.125 296.952 502.221 296.952C566.318 296.952 625.546 348.878 626.763 380.926C627.736 406.564 625.816 415.138 624.734 416.219H34.8879Z" fill="#F4C413" fill-opacity="0.3"/>
<path d="M546.824 416.703C546.032 399.255 548.676 358.317 565.58 334.151C582.484 309.985 603.963 297.794 612.589 294.72C609.74 309.17 598.961 341.715 578.638 356.288C558.315 370.862 548.961 402.637 546.824 416.703Z" fill="#DDDDDD"/>
<path d="M546.613 405.129C547.169 392.902 545.312 364.216 533.433 347.282C521.555 330.348 506.462 321.805 500.4 319.651C502.402 329.777 509.976 352.582 524.257 362.794C538.538 373.006 545.112 395.272 546.613 405.129Z" fill="#DDDDDD"/>
<path d="M544.801 416.109L546.582 416.075C545.893 396.275 543.781 376.55 540.26 357.053C532.56 315.311 519.755 287.896 502.202 275.572L501.18 277.029C542.184 305.819 544.78 415.009 544.801 416.109Z" fill="#2F2E41"/>
<path d="M522.542 415.684L524.323 415.649C524.284 413.677 523.171 367.199 504.874 354.353L503.852 355.81C521.411 368.138 522.533 415.21 522.542 415.684Z" fill="#2F2E41"/>
<path d="M491.049 277.191C495.967 277.191 499.953 273.204 499.953 268.287C499.953 263.369 495.967 259.383 491.049 259.383C486.132 259.383 482.146 263.369 482.146 268.287C482.146 273.204 486.132 277.191 491.049 277.191Z" fill="#FF4A3D"/>
<path d="M495.459 353.764C500.376 353.764 504.363 349.778 504.363 344.86C504.363 339.943 500.376 335.957 495.459 335.957C490.541 335.957 486.555 339.943 486.555 344.86C486.555 349.778 490.541 353.764 495.459 353.764Z" fill="#FF4A3D"/>
<path d="M526.692 282.529C525.019 293.217 529.38 302.777 529.38 302.777C529.38 302.777 536.454 295.007 538.128 284.319C539.801 273.631 535.44 264.071 535.44 264.071C535.44 264.071 528.365 271.84 526.692 282.529Z" fill="#2F2E41"/>
<path d="M497.588 308.486C507.821 311.996 517.994 309.368 517.994 309.368C517.994 309.368 511.577 301.048 501.343 297.537C491.11 294.027 480.937 296.656 480.937 296.656C480.937 296.656 487.354 304.976 497.588 308.486Z" fill="#2F2E41"/>
<path d="M497.259 376.3C501.89 377.755 506.823 377.968 511.562 376.917C508.553 373.086 504.5 370.206 499.891 368.625C495.283 367.045 490.316 366.83 485.588 368.008C488.685 371.746 492.71 374.605 497.259 376.3Z" fill="#2F2E41"/>
<path d="M1178.62 416.615C1179.33 400.798 1176.94 363.687 1161.61 341.78C1146.29 319.872 1126.82 308.821 1119 306.034C1121.58 319.134 1131.35 348.636 1149.78 361.847C1168.2 375.058 1176.68 403.864 1178.62 416.615Z" fill="#DDDDDD"/>
<path d="M1178.81 406.122C1178.3 395.039 1179.99 369.034 1190.76 353.683C1201.52 338.331 1215.21 330.588 1220.7 328.635C1218.89 337.814 1212.02 358.487 1199.07 367.745C1186.13 377.002 1180.17 397.187 1178.81 406.122Z" fill="#DDDDDD"/>
<path d="M1180.45 416.077L1178.84 416.045C1179.46 398.096 1181.38 380.215 1184.57 362.541C1191.55 324.7 1203.16 299.848 1219.07 288.676L1220 289.997C1182.82 316.096 1180.47 415.08 1180.45 416.077Z" fill="#2F2E41"/>
<path d="M1200.63 415.691L1199.02 415.659C1199.05 413.871 1200.06 371.738 1216.65 360.093L1217.57 361.414C1201.66 372.589 1200.64 415.261 1200.63 415.691Z" fill="#2F2E41"/>
<path d="M1229.18 290.143C1224.72 290.143 1221.11 286.53 1221.11 282.072C1221.11 277.614 1224.72 274 1229.18 274C1233.64 274 1237.25 277.614 1237.25 282.072C1237.25 286.53 1233.64 290.143 1229.18 290.143Z" fill="#FF4A3D"/>
<path d="M1225.18 359.559C1220.72 359.559 1217.11 355.945 1217.11 351.488C1217.11 347.03 1220.72 343.416 1225.18 343.416C1229.64 343.416 1233.25 347.03 1233.25 351.488C1233.25 355.945 1229.64 359.559 1225.18 359.559Z" fill="#FF4A3D"/>
<path d="M1196.87 294.982C1198.39 304.671 1194.43 313.338 1194.43 313.338C1194.43 313.338 1188.02 306.294 1186.5 296.605C1184.98 286.916 1188.94 278.25 1188.94 278.25C1188.94 278.25 1195.35 285.293 1196.87 294.982Z" fill="#2F2E41"/>
<path d="M1223.25 318.514C1213.98 321.696 1204.75 319.312 1204.75 319.312C1204.75 319.312 1210.57 311.77 1219.85 308.588C1229.12 305.406 1238.35 307.789 1238.35 307.789C1238.35 307.789 1232.53 315.332 1223.25 318.514Z" fill="#2F2E41"/>
<path d="M1223.55 379.988C1219.35 381.307 1214.88 381.5 1210.58 380.548C1213.31 377.075 1216.99 374.464 1221.16 373.031C1225.34 371.598 1229.84 371.404 1234.13 372.472C1231.32 375.86 1227.67 378.452 1223.55 379.988Z" fill="#2F2E41"/>
<path d="M256.064 174.842L216.277 123.817C216.277 123.817 207.577 96.4921 200.556 82.7359C193.535 68.9798 187.216 73.8357 187.216 73.8357L179.059 79.4323L183.129 100.104L201.638 139.507L245.949 185.344C246.161 187.112 246.871 188.784 247.995 190.166C249.12 191.547 250.613 192.581 252.302 193.148C253.991 193.714 255.806 193.79 257.536 193.366C259.266 192.942 260.84 192.036 262.076 190.753C263.311 189.47 264.158 187.863 264.516 186.118C264.875 184.373 264.731 182.563 264.101 180.896C263.472 179.23 262.382 177.777 260.96 176.705C259.537 175.633 257.839 174.987 256.064 174.842Z" fill="#9F616A"/>
<path d="M140.146 112.369L136.747 91.5766L127.15 89.1775C127.15 89.1775 119.534 86.8315 117.754 102.173C115.974 117.514 117.354 146.157 117.354 146.157L97.8696 207.857C96.2488 208.611 94.8756 209.81 93.9098 211.314C92.944 212.818 92.4253 214.566 92.4142 216.353C92.4032 218.141 92.9001 219.895 93.8471 221.41C94.7942 222.926 96.1525 224.142 97.7637 224.916C99.375 225.69 101.173 225.99 102.948 225.782C104.724 225.574 106.403 224.865 107.791 223.739C109.18 222.613 110.22 221.116 110.79 219.422C111.36 217.728 111.438 215.907 111.013 214.17L136.547 155.754L140.146 112.369Z" fill="#9F616A"/>
<path d="M219.522 404.162L232.079 404.162L238.054 355.725L219.52 355.726L219.522 404.162Z" fill="#9F616A"/>
<path d="M216.318 400.063L241.049 400.062H241.05C245.23 400.062 249.238 401.722 252.194 404.678C255.15 407.633 256.81 411.642 256.81 415.822V416.334L216.319 416.335L216.318 400.063Z" fill="#2F2E41"/>
<path d="M82.5535 404.162L95.1116 404.162L101.085 355.725L82.5518 355.726L82.5535 404.162Z" fill="#9F616A"/>
<path d="M79.3506 400.063L104.081 400.062H104.082C108.262 400.062 112.271 401.722 115.226 404.678C118.182 407.633 119.842 411.642 119.843 415.822V416.334L79.3513 416.335L79.3506 400.063Z" fill="#2F2E41"/>
<path d="M144.55 70.8344L123.721 88.6149L140.815 142.709L144.672 154.788C144.672 154.788 121.121 176.502 106.549 237.16C91.9767 297.818 68.1387 378.418 68.1387 378.418L118.457 392.821L159.394 255.607L207.545 363.256L213.105 395.096L255.955 382.461L245.847 302.609L195.308 164.383L200.558 127.742C200.558 127.742 208.441 109.453 194.746 90.0901L190.45 71.8959L175.061 68.1055L144.55 70.8344Z" fill="#2F2E41"/>
<path d="M179.151 61.1679H122.838C121.68 61.1666 120.569 60.7059 119.75 59.8868C118.931 59.0677 118.47 57.9571 118.469 56.7988V32.5258C118.469 23.8994 121.896 15.6264 127.995 9.52658C134.095 3.42682 142.368 0 150.995 0C159.621 0 167.894 3.42682 173.994 9.52658C180.093 15.6264 183.52 23.8994 183.52 32.5258V56.7988C183.519 57.9571 183.058 59.0677 182.239 59.8868C181.42 60.7059 180.31 61.1666 179.151 61.1679Z" fill="#2F2E41"/>
<path d="M178.604 48.1944C184.921 36.6382 180.674 22.1489 169.118 15.8316C157.561 9.51442 143.072 13.7615 136.755 25.3177C130.438 36.874 134.685 51.3633 146.241 57.6805C157.797 63.9977 172.286 59.7507 178.604 48.1944Z" fill="#9F616A"/>
<path d="M191.216 34.9531H156.781L156.428 30.0094L154.663 34.9531H149.361L148.661 25.1548L145.162 34.9531H134.902V34.4676C134.91 27.6462 137.623 21.1063 142.447 16.2828C147.27 11.4592 153.81 8.74599 160.631 8.73828H165.486C172.308 8.74598 178.848 11.4592 183.671 16.2827C188.495 21.1063 191.208 27.6461 191.216 34.4676V34.9531Z" fill="#2F2E41"/>
<path d="M156.5 65.6991C156.241 65.6988 155.982 65.676 155.727 65.6308L130.513 61.182V19.5103H158.269L157.582 20.3115C148.021 31.4619 155.224 49.5424 160.368 59.3274C160.747 60.0441 160.916 60.8532 160.856 61.6618C160.795 62.4703 160.508 63.2453 160.026 63.8976C159.623 64.4553 159.093 64.9094 158.48 65.2226C157.867 65.5357 157.189 65.699 156.5 65.6991Z" fill="#2F2E41"/>
<path d="M291.987 343.73L152.436 381.122C145.66 382.938 138.664 378.899 136.849 372.123L99.4561 232.572C97.6405 225.796 101.68 218.8 108.456 216.984L248.007 179.592C254.783 177.776 261.779 181.815 263.594 188.591L300.987 328.142C302.802 334.918 298.763 341.914 291.987 343.73Z" fill="#FF4A3D" stroke="#3F3D56" stroke-width="2" stroke-miterlimit="10"/>
<circle cx="1207.5" cy="214.5" r="51.5" fill="#F4C413" fill-opacity="0.3"/>
<circle cx="441.5" cy="213.5" r="20.5" fill="#F4C413" fill-opacity="0.3"/>
<path d="M392.5 322.232C443.838 323.109 443.829 399.472 392.499 400.341C341.163 399.465 341.171 323.102 392.5 322.232Z" fill="#2F2E41"/>
<path d="M386.568 391.938H374.703V413.195H386.568V391.938Z" fill="#2F2E41"/>
<path d="M410.297 391.938H398.433V413.195H410.297V391.938Z" fill="#2F2E41"/>
<path d="M384.59 409.734C397.41 409.643 397.411 417.242 384.589 417.15C371.77 417.241 371.769 409.643 384.59 409.734Z" fill="#2F2E41"/>
<path d="M408.32 409.24C421.14 409.149 421.14 416.747 408.319 416.656C395.499 416.747 395.499 409.149 408.32 409.24Z" fill="#2F2E41"/>
<path d="M393.489 338.052C410.945 338.13 410.944 364.671 393.488 364.747C376.033 364.669 376.034 338.128 393.489 338.052Z" fill="white"/>
<path d="M393.489 346.951C399.262 346.866 399.262 355.934 393.488 355.849C387.716 355.933 387.716 346.866 393.489 346.951Z" fill="#3F3D56"/>
<g clip-path="url(#clip0_347:3)">
<path d="M411.746 328.169L364.408 331.1C362.109 331.242 360.122 329.487 359.98 327.188L357.048 279.85C356.906 277.552 358.662 275.564 360.96 275.422L408.298 272.491C410.597 272.348 412.584 274.104 412.726 276.402L415.658 323.74C415.8 326.039 414.044 328.026 411.746 328.169Z" fill="white" stroke="#3F3D56" stroke-width="4" stroke-miterlimit="10"/>
<path d="M397.823 296.026L398.371 304.869C398.769 311.294 393.937 316.845 387.553 317.361C380.96 317.89 375.211 312.698 374.803 306.098L374.269 297.484C374.247 297.134 374.514 296.821 374.875 296.798L381.398 296.394C381.759 296.372 382.062 296.639 382.084 297L382.632 305.844C382.769 308.055 384.697 309.737 386.916 309.556C389.091 309.377 390.694 307.399 390.559 305.221L390.463 303.678L387.136 303.884C386.786 303.906 386.473 303.639 386.45 303.278L386.046 296.744C386.024 296.394 386.29 296.08 386.651 296.058L397.148 295.408C397.488 295.398 397.801 295.675 397.823 296.026Z" fill="#FF4A3D"/>
<path d="M377.93 293.434C379.792 293.319 381.208 291.716 381.093 289.854C380.977 287.992 379.375 286.576 377.513 286.692C375.651 286.807 374.235 288.41 374.35 290.272C374.466 292.133 376.068 293.549 377.93 293.434Z" fill="#FF4A3D"/>
<path d="M393.68 292.459C395.542 292.343 396.958 290.74 396.843 288.879C396.727 287.017 395.125 285.601 393.263 285.716C391.401 285.832 389.985 287.434 390.1 289.296C390.216 291.158 391.818 292.574 393.68 292.459Z" fill="#FF4A3D"/>
</g>
<path d="M249.19 288.823L228.118 285.687C227.218 285.555 226.3 285.719 225.501 286.154C224.703 286.589 224.067 287.272 223.69 288.099L217.998 300.551C203.204 297.807 189.826 290 180.159 278.47L188.2 267.389C188.736 266.654 189.019 265.764 189.005 264.855C188.991 263.945 188.68 263.065 188.121 262.347L175.025 245.544C174.415 244.772 173.556 244.237 172.594 244.031C171.632 243.826 170.629 243.962 169.757 244.417L153.239 253.099C152.399 253.541 151.734 254.254 151.351 255.123C150.969 255.991 150.892 256.964 151.134 257.881C162.54 301.252 206.92 327.093 250.223 315.705C251.141 315.464 251.951 314.919 252.519 314.159C253.088 313.399 253.381 312.468 253.353 311.519L252.786 292.867C252.751 291.88 252.372 290.936 251.716 290.198C251.059 289.46 250.166 288.974 249.19 288.823Z" fill="white"/>
<defs>
<clipPath id="clip0_347:3">
<rect width="56.2234" height="56.2234" fill="white" transform="translate(356.558 275.475) rotate(-3.54347)"/>
</clipPath>
</defs>
</svg>
