<svg width="148" height="207" viewBox="0 0 148 207" fill="none" xmlns="http://www.w3.org/2000/svg">
<path d="M127.244 85.5696C139.785 52.7277 155.592 58.7704 143.03 91.6043C130.489 124.445 114.682 118.403 127.244 85.5696Z" fill="#2F2E41"/>
<path d="M32.2389 120.616C44.7671 50.9584 148.668 67.8304 138.516 137.865C125.989 207.52 22.088 190.648 32.2389 120.616Z" fill="#2F2E41"/>
<path d="M77.2004 171.489H60.8457V200.791H77.2004V171.489Z" fill="#2F2E41"/>
<path d="M109.91 171.489H93.5557V200.791H109.91V171.489Z" fill="#2F2E41"/>
<path d="M74.2385 196.021C91.9105 195.895 91.9107 206.369 74.2378 206.242C56.5665 206.368 56.5664 195.894 74.2385 196.021Z" fill="#2F2E41"/>
<path d="M107.185 195.34C124.857 195.214 124.857 205.688 107.184 205.561C89.5128 205.687 89.5127 195.213 107.185 195.34Z" fill="#2F2E41"/>
<path d="M0.422913 92.7253C4.22764 82.4872 54.5883 106.372 49.0629 115.796C45.2589 126.033 -5.10176 102.148 0.422913 92.7253Z" fill="#2F2E41"/>
<g clip-path="url(#clip0_85:1007)">
<path d="M116.353 84.8832L44.7234 88.1431C41.2454 88.3014 38.2845 85.5982 38.1262 82.1203L34.8663 10.4907C34.708 7.01272 37.4112 4.05177 40.8891 3.89349L112.519 0.633566C115.997 0.475281 118.958 3.17845 119.116 6.65642L122.376 78.286C122.534 81.764 119.831 84.7249 116.353 84.8832Z" fill="#FF4A3D" stroke="#3F3D56" stroke-width="4" stroke-miterlimit="10"/>
<path d="M96.1031 35.9498L96.7121 49.3317C97.1546 59.0534 89.7143 67.325 80.0505 67.9473C70.0721 68.584 61.5099 60.5927 61.0554 50.6059L60.4622 37.5718C60.4381 37.0419 60.8484 36.5751 61.3949 36.5502L71.2657 36.101C71.8122 36.0761 72.2624 36.4871 72.2873 37.0337L72.8963 50.4156C73.0486 53.761 75.9215 56.352 79.2805 56.1328C82.5732 55.9165 85.0446 52.9661 84.8946 49.6704L84.7883 47.3351L79.7535 47.5643C79.2235 47.5884 78.7568 47.1782 78.7319 46.6316L78.2819 36.7442C78.2578 36.2143 78.668 35.7475 79.2146 35.7226L95.0973 34.9998C95.6115 34.993 96.079 35.4198 96.1031 35.9498Z" fill="white"/>
<path d="M66.0956 31.5402C68.9128 31.412 71.0927 29.0242 70.9645 26.207C70.8363 23.3898 68.4485 21.2099 65.6313 21.3382C62.8141 21.4664 60.6342 23.8541 60.7624 26.6713C60.8906 29.4885 63.2784 31.6684 66.0956 31.5402Z" fill="white"/>
<path d="M89.9276 30.4557C92.7449 30.3275 94.9247 27.9398 94.7965 25.1226C94.6683 22.3053 92.2805 20.1255 89.4633 20.2537C86.6461 20.3819 84.4662 22.7696 84.5945 25.5869C84.7227 28.4041 87.1104 30.5839 89.9276 30.4557Z" fill="white"/>
<path d="M96.1041 35.9498L96.7131 49.3317C97.1556 59.0534 89.7153 67.325 80.0515 67.9473C70.073 68.584 61.5109 60.5927 61.0564 50.6059L60.4632 37.5718C60.4391 37.0419 60.8493 36.5751 61.3959 36.5502L71.2667 36.101C71.8132 36.0761 72.2634 36.4871 72.2883 37.0337L72.8973 50.4156C73.0496 53.761 75.9224 56.352 79.2815 56.1328C82.5742 55.9165 85.0455 52.9661 84.8955 49.6704L84.7893 47.3351L79.7545 47.5643C79.2245 47.5884 78.7577 47.1782 78.7329 46.6316L78.2829 36.7442C78.2588 36.2143 78.669 35.7475 79.2156 35.7226L95.0983 34.9998C95.6125 34.993 96.08 35.4198 96.1041 35.9498Z" fill="white"/>
<path d="M66.0966 31.5402C68.9138 31.412 71.0937 29.0242 70.9654 26.207C70.8372 23.3898 68.4495 21.2099 65.6323 21.3382C62.8151 21.4664 60.6352 23.8541 60.7634 26.6713C60.8916 29.4885 63.2794 31.6684 66.0966 31.5402Z" fill="white"/>
<path d="M89.9286 30.4557C92.7458 30.3275 94.9257 27.9398 94.7975 25.1226C94.6693 22.3053 92.2815 20.1255 89.4643 20.2537C86.6471 20.3819 84.4672 22.7696 84.5954 25.5869C84.7236 28.4041 87.1114 30.5839 89.9286 30.4557Z" fill="white"/>
</g>
<defs>
<clipPath id="clip0_85:1007">
<rect width="85" height="85" fill="white" transform="translate(34.2334 3.86426) rotate(-2.60578)"/>
</clipPath>
</defs>
</svg>
