<svg width="156" height="166" viewBox="0 0 156 166" fill="none" xmlns="http://www.w3.org/2000/svg">
<path d="M130.32 120.427C130.325 133.146 125.709 145.433 117.332 155.002C116.582 155.865 115.795 156.69 114.995 157.502H40.6203C39.8201 156.69 39.0322 155.865 38.2827 155.002C33.369 149.403 29.708 142.819 27.5447 135.69C27.5447 135.69 27.5576 135.69 27.5447 135.677C26.0489 130.732 25.2908 125.594 25.295 120.427C25.2914 118.301 25.4209 116.176 25.6826 114.065C27.2378 101.347 33.3884 89.6373 42.9765 81.139C52.5645 72.6408 64.9286 67.9408 77.7407 67.9239C90.5528 67.907 102.929 72.5744 112.54 81.0473C122.15 89.5202 128.331 101.214 129.92 113.927C130.186 116.084 130.32 118.255 130.32 120.427Z" fill="#2F2E41"/>
<path d="M74.1299 125.532C84.0425 125.532 92.0782 117.497 92.0782 107.584C92.0782 97.6715 84.0425 89.6357 74.1299 89.6357C64.2174 89.6357 56.1816 97.6715 56.1816 107.584C56.1816 117.497 64.2174 125.532 74.1299 125.532Z" fill="white"/>
<path d="M72.245 115.393C74.5716 113.066 74.5582 109.28 72.2151 106.937C69.872 104.594 66.0863 104.581 63.7597 106.907C61.433 109.234 61.4464 113.02 63.7895 115.363C66.1327 117.706 69.9183 117.719 72.245 115.393Z" fill="#3F3D56"/>
<path d="M92.2299 141.125C92.5113 142.671 92.4855 144.257 92.1539 145.793C91.8223 147.329 91.1914 148.785 90.2973 150.077C89.4032 151.369 88.2633 152.472 86.9427 153.324C85.6222 154.176 84.1468 154.759 82.6008 155.04C81.0549 155.322 79.4687 155.296 77.9327 154.964C76.3968 154.633 74.9412 154.002 73.649 153.108C72.3569 152.213 71.2536 151.074 70.402 149.753C69.5504 148.432 68.9672 146.957 68.6857 145.411L68.6815 145.388C67.5043 138.885 72.532 136.584 79.0347 135.407C85.5374 134.23 91.0528 134.622 92.2299 141.125Z" fill="white"/>
<path d="M149.505 160.428C152.959 157.462 148.102 146.139 138.656 135.135C129.21 124.132 118.752 117.616 115.297 120.581C111.843 123.547 116.7 134.871 126.147 145.874C135.593 156.877 146.05 163.393 149.505 160.428Z" fill="#2F2E41"/>
<path d="M29.6126 145.874C39.0586 134.871 43.9159 123.547 40.4616 120.581C37.0073 117.616 26.5496 124.132 17.1035 135.135C7.65752 146.139 2.80025 157.463 6.25452 160.428C9.7088 163.393 20.1666 156.877 29.6126 145.874Z" fill="#2F2E41"/>
<g clip-path="url(#clip0_85:883)">
<path d="M114.246 84.6684H42.5421C39.0606 84.6684 36.2256 81.8334 36.2256 78.3518V6.6481C36.2256 3.16653 39.0606 0.331543 42.5421 0.331543H114.246C117.727 0.331543 120.562 3.16653 120.562 6.6481V78.3518C120.562 81.8334 117.727 84.6684 114.246 84.6684Z" fill="#FF4A3D" stroke="#3F3D56" stroke-width="4" stroke-miterlimit="10"/>
<path d="M96.2413 34.8653V48.2611C96.2413 57.9929 88.4326 65.9176 78.7505 66.1C68.7535 66.2824 60.5635 57.91 60.5635 47.9129V34.8653C60.5635 34.3348 60.9945 33.8872 61.5416 33.8872H71.4227C71.9698 33.8872 72.4008 34.3182 72.4008 34.8653V48.2611C72.4008 51.61 75.1529 54.329 78.5184 54.2626C81.8176 54.1963 84.4205 51.3613 84.4205 48.0621V45.7245H79.3805C78.85 45.7245 78.4024 45.2935 78.4024 44.7464V34.8488C78.4024 34.3182 78.8334 33.8706 79.3805 33.8706H95.2797C95.7936 33.8872 96.2413 34.3348 96.2413 34.8653Z" fill="white"/>
<path d="M66.4657 29.0959C69.2858 29.0959 71.572 26.8097 71.572 23.9896C71.572 21.1695 69.2858 18.8833 66.4657 18.8833C63.6455 18.8833 61.3594 21.1695 61.3594 23.9896C61.3594 26.8097 63.6455 29.0959 66.4657 29.0959Z" fill="white"/>
<path d="M90.3221 29.0959C93.1423 29.0959 95.4284 26.8097 95.4284 23.9896C95.4284 21.1695 93.1423 18.8833 90.3221 18.8833C87.502 18.8833 85.2158 21.1695 85.2158 23.9896C85.2158 26.8097 87.502 29.0959 90.3221 29.0959Z" fill="white"/>
</g>
<defs>
<clipPath id="clip0_85:883">
<rect width="85" height="85" fill="white" transform="translate(35.8945)"/>
</clipPath>
</defs>
</svg>
